<?xml version="1.0" encoding="UTF-8" standalone="no"?>
<!-- Created with Inkscape (http://www.inkscape.org/) -->

<svg
   viewBox="0 0 212.40744 296.21781"
   version="1.1"
   id="svg2169"
   inkscape:version="1.2.2 (1:1.2.2+202212051551+b0a8486541)"
   sodipodi:docname="svg.svg"
   width="212.40744"
   height="296.2178"
   xmlns:inkscape="http://www.inkscape.org/namespaces/inkscape"
   xmlns:sodipodi="http://sodipodi.sourceforge.net/DTD/sodipodi-0.dtd"
   xmlns:xlink="http://www.w3.org/1999/xlink"
   xmlns="http://www.w3.org/2000/svg"
   xmlns:svg="http://www.w3.org/2000/svg">
  <sodipodi:namedview
     id="namedview2171"
     pagecolor="#c3c3c3"
     bordercolor="#0012ff"
     borderopacity="1"
     inkscape:showpageshadow="true"
     inkscape:pageopacity="0"
     inkscape:pagecheckerboard="true"
     inkscape:deskcolor="#a08aa0"
     inkscape:document-units="px"
     showgrid="true"
     inkscape:zoom="1"
     inkscape:cx="678.5"
     inkscape:cy="528.5"
     inkscape:window-width="3440"
     inkscape:window-height="1369"
     inkscape:window-x="0"
     inkscape:window-y="34"
     inkscape:window-maximized="1"
     inkscape:current-layer="layer7"
     showguides="true"
     shape-rendering="auto">
    <inkscape:page
       x="0"
       y="0"
       width="212.40744"
       height="296.2178"
       id="page5644"
       inkscape:label="Lion Tamarin" />
    <inkscape:page
       x="248.49913"
       y="7.2536259"
       width="248.01338"
       height="289.68423"
       id="page5646"
       inkscape:label="Spider Monkey" />
    <inkscape:page
       x="534.28217"
       y="9.0150976"
       width="288.3443"
       height="288.26312"
       id="page5801"
       inkscape:label="Rhesus Monkey" />
    <inkscape:page
       x="856.34308"
       y="11.324001"
       width="211.52118"
       height="286.68442"
       id="page7884"
       inkscape:label="Gorilla" />
    <inkscape:page
       x="1098.8071"
       y="10.964537"
       width="225.44287"
       height="290.15927"
       id="page11868"
       inkscape:label="Baboon" />
    <inkscape:page
       x="1352.834"
       y="10.786897"
       width="251.72778"
       height="294.01703"
       id="page14474"
       inkscape:label="Gelada" />
    <inkscape:page
       x="-26.982721"
       y="366.07495"
       width="243.04308"
       height="308.58493"
       id="page4441"
       inkscape:label="Chimpanzee" />
    <inkscape:page
       x="246.7052"
       y="367.94855"
       width="212.55914"
       height="308.08817"
       id="page6683"
       inkscape:label="Mandrill" />
    <inkscape:page
       x="528.96576"
       y="368.35095"
       width="263.85809"
       height="308.31827"
       id="page8897"
       inkscape:label="Orangutan" />
    <inkscape:page
       x="824.14844"
       y="368.44763"
       width="225.80719"
       height="317.03735"
       id="page10593"
       inkscape:label="Macaque" />
    <inkscape:page
       x="1070.1235"
       y="364.76297"
       width="272.80096"
       height="330.86606"
       id="page14265"
       inkscape:label="Colobus" />
    <inkscape:page
       x="1386.8473"
       y="371.65616"
       width="295.6825"
       height="346.05493"
       id="page17840"
       inkscape:label="Howler" />
  </sodipodi:namedview>
  <defs
     id="defs2166">
    <linearGradient
       inkscape:collect="always"
       id="linearGradient15550">
      <stop
         style="stop-color:#0a0096;stop-opacity:1;"
         offset="0"
         id="stop15546" />
      <stop
         style="stop-color:#120999;stop-opacity:0.99607843;"
         offset="0.53462154"
         id="stop15554" />
      <stop
         style="stop-color:#ffffff;stop-opacity:0.99000001;"
         offset="1"
         id="stop15548" />
    </linearGradient>
    <linearGradient
       inkscape:collect="always"
       id="linearGradient10629">
      <stop
         style="stop-color:#00461b;stop-opacity:1;"
         offset="0"
         id="stop10625" />
      <stop
         style="stop-color:#265e2a;stop-opacity:0.96470588;"
         offset="0.48351073"
         id="stop10633" />
      <stop
         style="stop-color:#b67e22;stop-opacity:0.5642668;"
         offset="1"
         id="stop10627" />
    </linearGradient>
    <linearGradient
       inkscape:collect="always"
       id="linearGradient10621">
      <stop
         style="stop-color:#36150c;stop-opacity:1;"
         offset="0"
         id="stop10617" />
      <stop
         style="stop-color:#ff6338;stop-opacity:1;"
         offset="1"
         id="stop10619" />
    </linearGradient>
    <linearGradient
       inkscape:collect="always"
       id="linearGradient9671">
      <stop
         style="stop-color:#7b2b00;stop-opacity:1;"
         offset="0"
         id="stop9667" />
      <stop
         style="stop-color:#7b2b00;stop-opacity:0.80298924;"
         offset="0.75526983"
         id="stop9675" />
      <stop
         style="stop-color:#7b2b00;stop-opacity:0;"
         offset="1"
         id="stop9669" />
    </linearGradient>
    <linearGradient
       inkscape:collect="always"
       id="linearGradient14528">
      <stop
         style="stop-color:#02330b;stop-opacity:1"
         offset="0"
         id="stop14524" />
      <stop
         style="stop-color:#49ac07;stop-opacity:0.92941177"
         offset="0.25364003"
         id="stop14534" />
      <stop
         style="stop-color:#49ac07;stop-opacity:0.92941177"
         offset="0.46024874"
         id="stop15226" />
      <stop
         style="stop-color:#49ac07;stop-opacity:0.92941177"
         offset="0.67999315"
         id="stop14532" />
      <stop
         style="stop-color:#02330b;stop-opacity:1"
         offset="1"
         id="stop14526" />
    </linearGradient>
    <linearGradient
       inkscape:collect="always"
       id="linearGradient13552">
      <stop
         style="stop-color:#e91799;stop-opacity:1"
         offset="0"
         id="stop13548" />
      <stop
         style="stop-color:#810d55;stop-opacity:0.93158478"
         offset="0.79088837"
         id="stop13556" />
      <stop
         style="stop-color:#e91799;stop-opacity:0"
         offset="1"
         id="stop13550" />
    </linearGradient>
    <linearGradient
       inkscape:collect="always"
       id="linearGradient11864">
      <stop
         style="stop-color:#c0f4ff;stop-opacity:1"
         offset="0"
         id="stop11860" />
      <stop
         style="stop-color:#c0f4ff;stop-opacity:0"
         offset="1"
         id="stop11862" />
    </linearGradient>
    <linearGradient
       inkscape:collect="always"
       id="linearGradient11850">
      <stop
         style="stop-color:#fefefe;stop-opacity:1"
         offset="0"
         id="stop11846" />
      <stop
         style="stop-color:#fefefe;stop-opacity:0.88898909"
         offset="0.59066105"
         id="stop11856" />
      <stop
         style="stop-color:#fefefe;stop-opacity:0"
         offset="1"
         id="stop11848" />
    </linearGradient>
    <linearGradient
       inkscape:collect="always"
       id="linearGradient7878">
      <stop
         style="stop-color:#a000ff;stop-opacity:1"
         offset="0"
         id="stop7874" />
      <stop
         style="stop-color:#5b0091;stop-opacity:0.54716992"
         offset="0.89322597"
         id="stop7882" />
      <stop
         style="stop-color:#333333;stop-opacity:0"
         offset="1"
         id="stop7876" />
    </linearGradient>
    <linearGradient
       inkscape:collect="always"
       id="linearGradient5797">
      <stop
         style="stop-color:#9993ce;stop-opacity:1"
         offset="0"
         id="stop5793" />
      <stop
         style="stop-color:#ada9ce;stop-opacity:0.5217281"
         offset="1"
         id="stop5795" />
    </linearGradient>
    <linearGradient
       inkscape:collect="always"
       id="linearGradient2653">
      <stop
         style="stop-color:#d7b183;stop-opacity:1"
         offset="0"
         id="stop2649" />
      <stop
         style="stop-color:#b57c1f;stop-opacity:0.77091265"
         offset="0.93346542"
         id="stop2657" />
      <stop
         style="stop-color:#b57c1f;stop-opacity:0"
         offset="1"
         id="stop2651" />
    </linearGradient>
    <radialGradient
       inkscape:collect="always"
       xlink:href="#linearGradient2653"
       id="radialGradient2655"
       cx="124.38799"
       cy="110.86218"
       fx="124.38799"
       fy="110.86218"
       r="35.75507"
       gradientTransform="matrix(1.5415594,-0.00563511,0.00509561,1.3939728,21.737088,-44.204773)"
       gradientUnits="userSpaceOnUse" />
    <radialGradient
       inkscape:collect="always"
       xlink:href="#linearGradient5797"
       id="radialGradient5799"
       cx="317.91205"
       cy="119.09801"
       fx="317.91205"
       fy="119.09801"
       r="29.878904"
       gradientTransform="matrix(1.6804697,0.0165036,-0.02475034,2.5201863,-213.33392,-189.63987)"
       gradientUnits="userSpaceOnUse" />
    <radialGradient
       inkscape:collect="always"
       xlink:href="#linearGradient7878"
       id="radialGradient7880"
       cx="436.79733"
       cy="118.86605"
       fx="436.79733"
       fy="118.86605"
       r="32.271961"
       gradientTransform="matrix(1.5224161,0.01070073,-0.01365906,1.9433057,-226.56635,-116.80107)"
       gradientUnits="userSpaceOnUse" />
    <radialGradient
       inkscape:collect="always"
       xlink:href="#linearGradient11850"
       id="radialGradient11854"
       cx="547.45776"
       cy="123.27178"
       fx="547.45776"
       fy="123.27178"
       r="31.260418"
       gradientTransform="matrix(1.2937711,-0.01957989,0.02605847,1.7218542,-164.11702,-80.994678)"
       gradientUnits="userSpaceOnUse" />
    <radialGradient
       inkscape:collect="always"
       xlink:href="#linearGradient11864"
       id="radialGradient11866"
       cx="547.48944"
       cy="132.46123"
       fx="547.48944"
       fy="132.46123"
       r="31.393003"
       gradientTransform="matrix(-1.2747873,-0.00987516,0.01052958,-1.3592701,1243.9181,305.99933)"
       gradientUnits="userSpaceOnUse" />
    <radialGradient
       inkscape:collect="always"
       xlink:href="#linearGradient13552"
       id="radialGradient13554"
       cx="644.59314"
       cy="119.24621"
       fx="644.59314"
       fy="119.24621"
       r="37.62524"
       gradientTransform="matrix(2.4925524,-0.04102046,0.02712956,1.6484895,-965.32413,-50.888413)"
       gradientUnits="userSpaceOnUse" />
    <linearGradient
       inkscape:collect="always"
       xlink:href="#linearGradient14528"
       id="linearGradient14530"
       x1="702.80048"
       y1="104.09863"
       x2="794.51459"
       y2="104.09863"
       gradientUnits="userSpaceOnUse" />
    <radialGradient
       inkscape:collect="always"
       xlink:href="#linearGradient9671"
       id="radialGradient9673"
       cx="661.5896"
       cy="504.67291"
       fx="661.5896"
       fy="504.67291"
       r="114.72308"
       gradientTransform="matrix(1.2348642,-0.00249057,0.00290598,1.4408244,-156.85024,-224.28035)"
       gradientUnits="userSpaceOnUse" />
    <radialGradient
       inkscape:collect="always"
       xlink:href="#linearGradient10621"
       id="radialGradient10623"
       cx="988.5321"
       cy="548.73297"
       fx="988.5321"
       fy="548.73297"
       r="74.30399"
       gradientTransform="matrix(1.4487301,-0.01545265,0.02233815,2.094265,-506.93328,-580.08807)"
       gradientUnits="userSpaceOnUse" />
    <radialGradient
       inkscape:collect="always"
       xlink:href="#linearGradient10629"
       id="radialGradient10631"
       cx="988.53217"
       cy="548.73297"
       fx="988.53217"
       fy="548.73297"
       r="74.674835"
       gradientTransform="matrix(1.4415352,-0.015376,0.02222735,2.0838649,-499.7602,-574.45696)"
       gradientUnits="userSpaceOnUse" />
    <radialGradient
       inkscape:collect="always"
       xlink:href="#linearGradient15550"
       id="radialGradient15552"
       cx="1326.0011"
       cy="558.80457"
       fx="1326.0011"
       fy="558.80457"
       r="133.16875"
       gradientTransform="matrix(0.7500628,0.77880563,-0.88766411,0.85490372,698.35972,-955.74378)"
       gradientUnits="userSpaceOnUse" />
  </defs>
  <g
     inkscape:groupmode="layer"
     id="layer6"
     inkscape:label="Spider"
     style="display:inline">
    <g
       id="g2276"
       transform="matrix(2.5671402,0,0,2.5671402,-443.21148,-135.24636)"
       inkscape:label="g2276">
      <path
         style="fill:#010000;fill-opacity:0.98595;stroke-width:0.261819"
         d="m 296.47782,163.83394 -4.51356,-4.51909 v -4.97296 -4.97294 L 280.7061,138.11306 269.44793,126.85716 V 79.596771 c 1.00364,0.0021 2.00727,0.0041 3.01091,0.0062 1.71467,1.830556 3.42933,3.661118 5.14399,5.49168 h 3.30023 l 3.63243,-3.8565 3.63241,-3.856471 4.58181,-4.854474 4.58181,-4.854443 5.72299,-6.081762 5.723,-6.081767 h 18.13942 c 9.48042,10.295339 18.05158,19.283843 27.7527,29.584807 1.13454,-0.0021 2.26909,-0.0041 3.40363,-0.0062 l 5.14398,-5.491681 h 2.84146 v 47.26038 l -11.25816,11.2559 -11.25817,11.25589 v 4.97849 4.97847 l -4.51908,4.51355 -4.51908,4.51356 h -16.75643 -16.75642 l -4.51354,-4.51908 z"
         id="path5217" />
      <path
         id="path5776"
         style="fill:url(#radialGradient5799);fill-opacity:1;stroke:#fefefe;stroke-width:2.52109;stroke-linejoin:round;stroke-dasharray:none;stroke-opacity:0.27537;paint-order:stroke fill markers"
         d="m 334.88186,159.64757 2.89288,-2.94545 0.004,-4.90908 0.004,-4.90909 h -0.13745 -0.13742 l -1.82446,0.91877 -1.82445,0.91878 -4.18775,-2.09696 -4.18774,-2.09695 h -7.72979 -7.72978 l -4.18775,2.09695 -4.18775,2.09696 -1.83098,-0.92207 -1.83099,-0.92205 v 5.039 5.03899 l 2.81009,2.81884 2.81007,2.81881 h 14.19136 14.19137 l 2.8929,-2.94545 z m -29.30308,-16.42907 3.65847,-1.83272 h 0.91986 0.91985 l -0.0229,-0.19636 -0.0229,-0.19637 c -3.34474,-6.71999 -6.68949,-13.43998 -10.03423,-20.15997 -1.04442,0 -2.08883,0 -3.13325,0 -0.65832,3.39001 -1.31665,6.78001 -1.97498,10.17002 l -0.0641,0.0383 -0.0641,0.0383 c -2.57177,1.64621 -5.14356,3.2924 -7.71534,4.93859 l -0.004,0.51971 -0.004,0.51971 3.07227,3.08029 3.07226,3.08028 1.83682,0.0128 1.83682,0.0126 1.70181,0.89096 1.70182,0.89096 0.33077,0.0126 0.33076,0.0128 z m 30.37087,0.91637 1.81967,-0.91637 h 1.77771 1.77775 c 2.15675,-2.16191 4.31347,-4.32385 6.47019,-6.48578 l -0.10888,-0.32669 -0.1089,-0.32667 -3.91559,-2.54254 -3.91559,-2.54255 -0.92801,-4.68786 -0.92802,-4.68787 -0.17648,-0.45818 -0.17649,-0.45819 h -1.46736 -1.46736 c -3.30361,6.72769 -6.6072,13.45539 -9.91079,20.18309 v 0.25028 0.25024 h 0.91619 0.91621 l 3.46925,1.82205 3.46923,1.82206 0.33382,0.0108 0.33379,0.0108 1.81966,-0.91636 z m -4.97453,-22.97064 v -0.268 -0.268 c -3.40365,-8.18093 -6.80727,-16.36186 -10.2109,-24.542801 0,-1.045315 0,-2.090629 0,-3.135944 5.93454,0 11.86907,0 17.80361,0 v 1.809264 1.809265 l -2.3849,0.549107 -2.3849,0.549117 -4.42235,-0.17385 -4.42237,-0.173871 v 0.295303 0.295281 l 0.63312,1.431588 0.63312,1.431601 1.00324,0.26469 1.00324,0.2647 2.80508,0.69748 2.80508,0.69746 4.06764,-1.00321 4.06763,-1.0032 c 0,-4.014245 0,-8.028491 0,-12.042736 -0.82252,-0.835096 -1.64505,-1.670175 -2.46758,-2.505255 -5.50978,0 -11.01956,0 -16.52934,0 -1.12445,1.13455 -2.24892,2.269089 -3.37338,3.403628 -1.21231,0 -2.42462,0 -3.63693,0 -1.13454,-1.13455 -2.26909,-2.269089 -3.40364,-3.403628 -5.51928,0 -11.03856,0 -16.55784,0 -0.82589,0.838494 -1.65178,1.676994 -2.47767,2.515494 0.047,4.005132 0.094,8.010265 0.141,12.015397 l 3.92726,1.0136 3.92727,1.01358 3.96662,-0.96931 3.9666,-0.9693 0.57287,-1.353391 0.57287,-1.353362 0.15061,-0.365861 0.1506,-0.365861 -4.55918,0.175335 -4.55917,0.175365 -2.42181,-0.581026 -2.42183,-0.581026 v -1.781168 -1.7812 c 5.93454,0 11.86908,0 17.80362,0 0,1.139281 0,2.278563 0,3.417844 -3.41396,8.179091 -6.82793,16.358191 -10.24189,24.537281 l 10.25148,20.49771 3.02307,-0.0737 3.02307,-0.0737 c 3.39231,-6.6969 6.78465,-13.3938 10.17698,-20.09069 z m -20.28875,2.39387 -2.54126,-3.16587 0.72946,-0.76139 0.72945,-0.76139 h 1.25577 1.25578 l 1.96796,0.97377 1.96798,0.97379 v 2.95349 2.95348 h -1.41195 -1.41193 z m 8.76876,0.2124 v -2.95349 l 1.96797,-0.97379 1.96796,-0.97377 h 1.25578 1.25577 l 0.74481,0.77741 0.74482,0.77742 -0.89219,1.13793 -0.8922,1.13792 -1.57091,1.99987 -1.5709,1.99987 -1.50546,0.012 -1.50545,0.012 v -2.95348 z m -11.59527,-19.17012 -0.0824,-0.0981 -0.0823,-0.0981 -2.91917,0.72421 -2.91918,0.72422 -2.5245,-0.56209 -2.52449,-0.5621 -0.19966,0.003 -0.19965,0.003 0.91966,1.82617 0.91965,1.82622 v 4.59893 4.59893 c 1.41404,-0.0507 2.82809,-0.10147 4.24213,-0.1522 1.86796,-4.46298 3.45451,-8.25601 5.36991,-12.83209 z m 29.39889,8.50253 v -4.45742 l 0.93317,-1.85302 0.93317,-1.85304 -0.13227,-0.13224 -0.13225,-0.13228 -2.44297,0.58897 -2.44297,0.58894 -2.9659,-0.70917 -2.96588,-0.70918 -0.12267,0.12266 -0.12266,0.12266 5.37124,12.88057 c 1.36333,0 2.72666,0 4.08999,0 z" />
    </g>
  </g>
  <g
     inkscape:groupmode="layer"
     id="layer4"
     inkscape:label="Gorilla"
     style="display:inline">
    <g
       id="g2379"
       transform="matrix(2.5671402,0,0,2.5671402,-443.21148,-135.24636)">
      <path
         style="fill:#000308;fill-opacity:1;stroke-width:0.259106"
         d="m 531.93434,165.20668 -2.07022,-3.5627 -2.17532,-0.074 -2.17531,-0.074 -0.27624,-0.44417 -0.27625,-0.44417 -5.12558,-8.8096 -5.12559,-8.8096 -4.24163,-7.29809 -4.24162,-7.2981 V 113.63529 98.878429 l 9.87787,-17.458661 9.87787,-17.458663 1.93684,-3.433152 1.93684,-3.433151 h 17.54791 17.54792 l 6.04974,10.688113 6.04975,10.688113 5.78544,10.23173 5.78545,10.23173 v 14.720052 14.72004 l -7.20277,12.35945 -7.20278,12.35946 -2.44461,4.20126 -2.44461,4.20126 -2.19693,0.074 -2.19692,0.074 -2.0377,3.5627 -2.03769,3.56271 h -13.42682 -13.42683 z"
         id="path8257" />
      <path
         id="path11802"
         style="fill:url(#radialGradient11866);fill-opacity:1;stroke:url(#radialGradient11854);stroke-width:0.53172;stroke-linejoin:round;stroke-dasharray:none;paint-order:stroke fill markers"
         d="m 560.37968,157.19736 3.23882,-5.6104 0.0864,-0.21838 0.0864,-0.21839 h -16.36691 -16.36685 l 0.0864,0.22477 0.0864,0.22476 3.22913,5.60512 3.22914,5.60512 9.72615,-10e-4 9.72615,-0.001 3.23882,-5.61041 z m -23.11384,-11.1645 0.0761,-1.87852 h 0.58639 0.58639 l 0.89212,1.87852 0.89211,1.87851 7.0255,0.0689 7.02551,0.0689 0.26692,-0.32798 0.26692,-0.32799 0.64998,-1.55463 0.64999,-1.55464 0.66118,-0.0809 0.66119,-0.0809 0.0765,1.8946 0.0764,1.8946 3.929,0.0714 3.929,0.0714 0.54058,-0.75917 0.54057,-0.75916 v -0.2984 -0.29841 l -4.43689,-7.69387 -4.4369,-7.69388 -0.3646,-0.58614 -0.36459,-0.58613 -9.64016,0.0679 -9.64015,0.0679 -4.72347,8.16182 -4.72347,8.16184 -0.009,0.34866 -0.009,0.34866 0.54056,0.75916 0.54058,0.75917 3.929,-0.0714 3.92898,-0.0714 z m 7.14158,-6.93108 -1.72539,-2.2024 h -0.92269 -0.92267 l -0.52989,0.66453 -0.52987,0.66452 -1.19831,-0.0815 -1.1983,-0.0815 1.45007,-2.52629 1.45008,-2.52628 h 1.60787 1.60787 l 1.92792,2.71622 1.92791,2.71623 0.38136,-0.44905 0.38136,-0.44905 1.61577,-2.26717 1.61577,-2.26718 1.60176,7e-5 1.60176,7e-5 1.36031,2.41792 1.36031,2.41792 v 0.17307 0.17307 h -1.14717 -1.14717 l -0.50954,-0.64777 -0.50953,-0.64776 h -0.91285 -0.91285 l -1.71976,2.2024 -1.71975,2.2024 h -1.2795 -1.2795 z m -9.91983,-9.4498 2.44302,-3.36081 4.7,-0.008 4.70002,-0.008 -0.10735,-2.13762 -0.10735,-2.13762 -0.38671,-9.44029 -0.38672,-9.44029 -0.11385,-0.11386 -0.11386,-0.11385 -0.35577,0.13652 -0.35578,0.13652 -2.35136,5.40149 -2.35136,5.40149 -4.04079,9.27439 -4.04079,9.27439 v 0.24774 0.24775 h 0.21281 0.21281 z m 28.74225,3.12912 v -0.23169 l -3.09351,-7.08805 -3.09353,-7.08804 -3.33278,-7.64266 -3.33277,-7.64266 -0.40823,-0.0786 -0.40822,-0.0786 -0.16293,2.4096 -0.16293,2.40961 -0.25516,7.12541 -0.25515,7.12541 -0.14543,2.13762 -0.14541,2.13762 4.74219,0.0113 4.7422,0.0112 2.44333,3.35715 2.44333,3.35715 h 0.2125 0.2125 v -0.23169 z m -27.98032,-16.54541 3.70218,-8.48571 0.11093,-0.41543 0.11095,-0.41544 -1.22243,-0.16756 -1.22242,-0.16755 h -0.71892 -0.71894 l -2.41192,0.92043 -2.41192,0.92042 -2.171,-0.79087 -2.17101,-0.79087 h -1.16735 -1.16735 l 0.16378,0.45343 0.16377,0.45344 3.54999,8.48571 3.54999,8.48572 h 0.16474 0.16475 z m 31.91948,-0.003 3.55049,-8.48272 0.16949,-0.45343 0.16948,-0.45343 h -1.2325 -1.2325 l -2.09881,0.79539 -2.09883,0.79541 -2.41895,-0.92496 -2.41896,-0.92495 h -0.71893 -0.71892 l -1.20214,0.16477 -1.20214,0.16478 v 0.23523 0.23523 l 3.47015,7.95616 3.47015,7.95615 0.32847,0.71254 0.32848,0.71254 0.15274,-0.003 0.15273,-0.003 z m -47.00023,-13.60219 0.59824,-1.09906 0.41395,-2.902812 0.41394,-2.902802 1.31002,-0.07691 1.31003,-0.07691 1.09192,-1.81374 1.09193,-1.813741 0.019,-0.32388 0.019,-0.323874 h -2.95326 -2.95327 l -2.13373,3.672566 -2.13374,3.672573 0.43823,2.09253 0.43823,2.09254 0.13189,0.45343 0.13188,0.45344 1.08373,-0.002 1.08374,-0.002 0.59825,-1.09906 z m 7.80252,0.0613 2.15482,-1.04204 5.21599,1.03184 5.21599,1.03184 0.43317,-0.56554 0.43317,-0.56554 -0.0978,-0.15817 -0.0978,-0.15818 -4.35156,-2.02684 -4.35155,-2.026846 -0.188,-0.160803 -0.18801,-0.160809 0.50808,-0.835462 0.50808,-0.835468 1.23456,0.0013 1.23456,0.0013 5.90904,1.794292 5.90903,1.794297 2.77101,-0.867689 2.77101,-0.867689 3.18233,-0.941807 3.18234,-0.941808 1.16993,0.07864 1.16992,0.07863 0.5066,0.802896 0.5066,0.802889 -4.65415,2.176827 -4.65415,2.17682 -0.0104,0.16562 -0.0104,0.16563 0.45344,0.54163 0.45344,0.54164 5.18211,-1.0403 5.18212,-1.0403 2.20655,1.04558 2.20655,1.04558 h 0.70838 0.70839 v -0.22678 -0.22679 l -3.30357,-5.926875 -3.3036,-5.926982 -1.29553,-0.06645 -1.29553,-0.06645 -6.93321,2.178023 -6.93322,2.178022 -6.98432,-2.176346 -6.98431,-2.17634 h -1.14365 -1.14366 l -0.26233,0.32388 -0.26232,0.323887 -3.13778,5.640145 -3.13778,5.640156 v 0.2545 0.25451 h 0.72625 0.72625 l 2.15482,-1.04205 z m 50.00437,-1.30947 0.54143,-2.351526 v -0.212199 -0.212206 l -2.09342,-3.654813 -2.09341,-3.654806 h -2.97815 -2.97815 l 0.0838,0.32388 0.0838,0.32388 1.03643,1.876785 1.03642,1.876784 1.31841,0.002 1.3184,0.002 0.32255,2.655834 0.32255,2.655837 0.66859,1.36031 0.66859,1.3603 h 1.10039 1.1004 l 0.54142,-2.35152 z" />
    </g>
  </g>
  <g
     inkscape:groupmode="layer"
     id="layer3"
     inkscape:label="Baboon"
     style="display:inline">
    <g
       id="g2383"
       style="display:inline"
       transform="matrix(2.5671402,0,0,2.5671402,-443.21148,-135.24636)">
      <path
         style="fill:#161616;fill-opacity:1;stroke-width:0.262146"
         d="m 624.59495,161.26514 -8.71486,-8.71777 v -4.12735 -4.12734 h -1.05886 -1.05886 l -3.42154,1.96609 -3.42155,1.96609 h -3.12181 -3.12181 v -37.4826 -37.482585 l 3.92591,-2.625647 3.92592,-2.625648 h 6.05511 6.05512 l 5.9443,-3.120474 5.9443,-3.120476 4.3254,-2.302278 4.3254,-2.302282 3.07118,-0.104045 3.0712,-0.104048 10.61531,5.544741 10.61532,5.544741 5.97958,-0.02587 5.97962,-0.02588 3.99252,2.674148 3.9925,2.674147 v 37.442016 37.44202 l -3.21128,-0.004 -3.21128,-0.004 -3.3806,-1.96204 -3.3806,-1.96205 h -1.01033 -1.01034 v 3.99916 3.99916 l -8.84882,8.84597 -8.84885,8.84595 h -11.1412 -11.14123 z"
         id="path12241" />
      <path
         id="path13529"
         style="fill:url(#radialGradient13554);fill-opacity:1;stroke:#9e0a3b;stroke-width:5.01453;stroke-linejoin:round;stroke-dasharray:none;stroke-opacity:0.260913;paint-order:stroke fill markers"
         d="m 657.43013,158.71067 5.50036,-5.50505 H 644.64821 626.3659 v 0.12281 0.12281 l 5.43952,5.37404 5.43952,5.37404 7.3424,0.008 7.34243,0.008 5.50036,-5.50505 z m -26.34561,-11.27225 v -2.62145 l 0.45876,5.2e-4 0.45875,5.2e-4 1.31073,2.55532 1.31072,2.55532 9.89203,0.0687 9.89201,0.0687 1.32566,-2.64171 1.32567,-2.64171 0.41123,0.0826 0.41123,0.0827 0.0365,2.49038 0.0365,2.49038 h 4.19433 4.19432 l 0.0704,-5.95762 0.0704,-5.95762 -0.98334,-1.12031 -0.98332,-1.1203 -2.3601,-2.62145 -2.36012,-2.62146 -2.03543,-2.18012 -2.03546,-2.18011 V 112.32189 98.47412 l -2.75252,-0.98067 -2.75252,-0.980677 v -0.882861 -0.882861 h 4.29981 4.29978 l 4.15441,-2.638577 4.15437,-2.638577 v -0.572699 -0.572706 l -2.68214,-0.07465 -2.68214,-0.07466 -2.25398,0.795557 -2.25398,0.795551 h -3.54588 -3.54589 l -1.0145,-0.803512 -1.01452,-0.803512 -0.81971,0.08261 -0.8197,0.08261 -0.0988,2.490384 -0.0989,2.490377 -0.26589,16.384083 -0.2659,16.38409 -0.16428,3.99771 -0.16429,3.99772 h -0.96884 -0.96884 l -0.31318,-16.84284 -0.31316,-16.84284 -0.16462,-6.094878 -0.1646,-6.094879 h -0.87182 -0.87179 l -0.8957,0.786439 -0.8957,0.786432 h -3.59089 -3.59087 l -2.22813,-0.786432 -2.22816,-0.786439 h -2.73163 -2.73164 v 0.626489 0.626489 l 4.16169,2.650327 4.16172,2.650327 h 4.35801 4.35804 v 0.874738 0.874732 l -2.42485,0.837154 -2.42484,0.837147 -0.33683,0.20979 -0.33684,0.209796 0.0137,13.679438 0.0136,13.67945 -3.63714,3.99424 -3.63713,3.99424 -1.73925,1.96609 -1.73926,1.96609 -0.003,5.92012 -0.003,5.92012 0.17477,0.17476 0.17475,0.17476 h 4.01958 4.01955 v -2.62145 z m 7.07792,-4.94861 v -0.75427 l 0.42798,-1.89512 0.42798,-1.89512 0.94829,0.15672 0.94828,0.15671 0.98305,0.27677 0.98304,0.27677 v 2.21591 2.21592 h -2.35931 -2.35931 z m 8.18185,-1.52213 0.0757,-2.27642 1.76966,-0.43077 1.76969,-0.43077 0.28099,0.93771 0.28102,0.93771 0.14725,1.76947 0.14722,1.76949 h -2.27366 -2.27367 z m -16.30835,-32.27322 v -9.383691 l -2.53966,-1.954099 -2.53967,-1.954099 -0.34393,-0.209634 -0.34394,-0.209635 0.004,9.515788 0.004,9.5158 2.28973,2.01295 2.28973,2.01295 0.58983,0.0186 0.58983,0.0186 v -9.38369 z m 32.493,7.28652 2.34349,-1.96609 0.0144,-9.50277 0.0144,-9.502768 h -0.15281 -0.15277 l -2.8619,2.24527 -2.86186,2.245283 v 9.306535 9.30652 l 0.65678,-0.0829 0.65675,-0.0829 z m -33.09953,-31.725681 2.04833,-0.792531 13.01552,0.003 13.01551,0.003 2.1649,0.79822 2.16488,0.798219 2.64549,-0.07425 2.64547,-0.07425 V 84.261403 83.60604 l -7.34007,-3.72274 -7.34007,-3.722739 -7.79762,-0.01282 -7.79762,-0.01282 -7.47235,3.733432 -7.47235,3.733432 v 0.723039 0.723039 h 2.73583 2.73583 l 2.04832,-0.792528 z m -19.8255,-0.96216 0.75157,-0.443959 0.0753,-2.109085 0.0753,-2.109085 2.03162,-1.395274 2.03164,-1.395274 v -0.770296 -0.770298 h -1.88358 -1.88356 l -1.91416,1.24519 -1.91416,1.245191 -0.003,3.473426 -0.003,3.473426 h 0.9426 0.9426 l 0.75157,-0.443962 z m 72.54115,-3.016257 0.0733,-3.329147 -1.97885,-1.335316 -1.97886,-1.335316 -1.89553,0.07692 -1.89551,0.07692 -0.0789,0.679069 -0.0789,0.679066 2.11053,1.385609 2.11053,1.385609 v 2.042248 2.042249 l 0.7209,0.54501 0.7209,0.545011 1.04858,-0.06439 1.04858,-0.0644 z" />
    </g>
  </g>
  <g
     inkscape:groupmode="layer"
     id="layer5"
     inkscape:label="Rhesus"
     style="display:inline">
    <g
       id="g2280"
       transform="matrix(2.5671402,0,0,2.5671402,-443.21148,-135.24636)">
      <path
         style="fill:#000400;fill-opacity:1;stroke-width:0.261139"
         d="m 421.28095,164.56474 -7.18132,-3.87392 -0.17775,-0.34642 -0.17778,-0.34643 -0.5626,-5.48391 -0.5626,-5.48392 -0.30421,-0.28753 -0.30416,-0.28751 -4.5003,-1.9087 -4.50035,-1.90865 -0.12479,-0.41519 -0.12477,-0.41518 -1.04187,-5.35333 -1.04182,-5.35335 -2.09119,-10.70668 -2.09116,-10.70669 -2.23645,-11.49009 -2.23642,-11.490098 -0.11637,-0.326418 -0.11634,-0.326426 h -3.60304 -3.60304 l -1.90258,-3.815912 -1.9026,-3.815915 -0.003,-4.083526 -0.003,-4.083528 3.97419,-0.07231 3.97419,-0.07231 11.9276,-7.9577 11.9276,-7.957702 h 24.32808 24.32801 l 11.94204,7.964726 11.942,7.964725 h 3.98878 3.98872 v 4.050912 4.050914 l -1.96017,3.913818 -1.96016,3.913807 h -3.65432 -3.6543 v 0.08439 0.08438 l -0.66293,3.37571 -0.66292,3.375682 -1.41201,7.181321 -1.41197,7.18132 -1.72555,8.87872 -1.72555,8.8787 -1.7126,8.7591 -1.7126,8.75915 -4.78356,2.04011 -4.78357,2.04015 -0.14672,0.95198 -0.14675,0.95199 -0.53246,4.95115 -0.53243,4.95115 -0.31843,0.20562 -0.31843,0.20557 -7.09564,3.78725 -7.09562,3.78724 -8.31154,-0.0233 -8.31156,-0.0233 -7.1813,-3.87392 z"
         id="path7297" />
      <path
         id="path7857"
         style="fill:url(#radialGradient7880);fill-opacity:1;stroke:#270064;stroke-width:1.62438;stroke-linejoin:round;stroke-dasharray:none;stroke-opacity:0.839118;paint-order:stroke fill markers"
         d="m 447.69492,158.80213 5.44493,-2.89324 0.0104,-0.0445 0.0104,-0.0445 0.37605,-3.4934 0.37605,-3.49341 -0.14079,-0.22781 -0.1408,-0.22784 H 436.80314 419.9751 v 0.81956 0.81957 l 0.30372,2.91343 0.30367,2.91345 5.37609,2.91447 5.37606,2.91446 5.45761,0.0115 5.45761,0.0115 5.44492,-2.89323 z m 6.75062,-32.8636 v -19.30511 l -5.13443,-2.6318 -5.13442,-2.63184 -0.10741,0.10741 -0.10739,0.10737 1.95256,9.75176 1.95254,9.75178 -2.1442,5.61457 -2.14424,5.61461 -1.29082,0.0781 -1.29082,0.078 -1.49191,2.27215 -1.49189,2.27211 -1.1195,-0.0259 -1.11948,-0.0259 -1.50249,-2.25922 -1.50246,-2.25921 h -1.26603 -1.26598 l -2.16755,-5.67976 -2.16754,-5.67976 1.96044,-9.7927 1.96044,-9.79269 -0.0762,-0.0922 -0.0763,-0.0921 -5.04349,2.5831 -5.04351,2.5831 -0.0669,19.37945 -0.0669,19.3795 h 17.49795 17.49795 v -19.30512 z m -19.11712,1.35964 0.0766,-1.88545 -0.59883,-0.12956 -0.59886,-0.12959 -2.20309,-0.39533 -2.20309,-0.39534 -0.10914,0.10916 -0.10912,0.10912 1.08965,1.974 1.08968,1.97398 0.40508,0.40507 0.40507,0.40508 1.33976,-0.0778 1.33977,-0.0778 z m 7.57151,-0.43142 1.38443,-2.31688 -0.101,-0.10098 -0.101,-0.10101 -2.19557,0.39951 -2.19558,0.39955 -0.58756,0.13005 -0.58756,0.13007 v 1.77949 1.77946 l 0.18581,0.18582 0.18584,0.18581 1.31387,-0.077 1.31386,-0.0771 z m -7.35268,-15.57112 0.2954,-9.79269 0.031,-0.0654 0.031,-0.0654 h 1.00336 1.00334 l 0.17176,4.74235 0.17179,4.74235 v 3.18297 3.18298 l 0.16887,1.99793 0.16891,1.99795 h 2.96476 2.96478 v -0.27203 -0.27205 l -0.53994,-3.05746 -0.53997,-3.0575 -2.41522,-13.18749 -2.41519,-13.1875 -1.52225,-0.07946 -1.52226,-0.07944 -0.2308,0.230793 -0.23079,0.230794 -1.95624,10.685915 -1.95624,10.685888 -0.92276,5.09221 -0.92275,5.0922 -0.14685,0.59611 -0.14684,0.59612 3.09887,-0.0739 3.09882,-0.0739 z m -10.61739,-11.471819 5.60745,-2.326408 0.0775,-0.23246 0.0774,-0.232468 0.87902,-4.293219 0.879,-4.293248 -0.1162,-0.195854 -0.11617,-0.195856 h -0.73028 -0.73024 l -3.10614,2.869938 -3.1061,2.869966 -1.6523,0.0027 -1.65229,0.0027 -4.64923,-2.880099 -4.64924,-2.880092 -3.62172,0.07285 -3.62176,0.07285 -0.0866,0.759101 -0.0866,0.759135 4.04012,4.07193 4.04012,4.071966 0.32188,2.154377 0.32188,2.1544 3.03645,-0.003 3.03646,-0.003 5.60746,-2.326379 z m 35.93057,0.16191 0.28178,-2.039521 3.96354,-3.969747 3.96353,-3.969754 v -0.97618 -0.976221 h -3.62903 -3.62901 l -4.65916,2.872528 -4.65916,2.872522 -1.70037,-0.0125 -1.70035,-0.01251 -3.0031,-2.855397 -3.00309,-2.85539 -0.84871,-0.0047 -0.84868,-0.0047 -1.9e-4,0.326434 -1.8e-4,0.326417 0.82004,4.178216 0.82004,4.178216 0.28997,0.308768 0.28999,0.308803 5.35334,2.222436 5.35334,2.222449 3.13184,-0.0505 3.13186,-0.0505 0.28176,-2.039479 z m 8.20885,-15.843435 v -0.77837 l -5.48551,-3.660984 -5.48553,-3.661006 h -8.7647 -8.76467 l -1.29339,2.741955 -1.29337,2.741953 h -1.1266 -1.12658 l -1.25435,-2.741953 -1.25435,-2.741955 -8.77687,-0.0026 -8.77688,-0.0026 -5.54921,3.719056 -5.54919,3.719058 v 0.722385 0.722388 h 32.25061 32.25059 v -0.778379 z" />
    </g>
  </g>
  <g
     inkscape:groupmode="layer"
     id="layer2"
     inkscape:label="Gelada"
     style="display:inline">
    <g
       id="g2387"
       inkscape:label="g2387"
       transform="matrix(2.5671402,0,0,2.5671402,-443.21148,-135.24636)">
      <path
         style="fill:#090301;fill-opacity:1;stroke-width:0.265733"
         d="m 720.0378,155.1402 -20.38119,-16.27596 -0.0139,-32.81904 -0.0138,-32.81905 16.34316,-8.170285 16.34315,-8.170286 h 16.2827 16.28269 l 16.33549,8.178768 16.33546,8.178768 0.0675,32.716425 0.0675,32.71643 -20.46118,16.37028 -20.46118,16.37029 h -2.02275 -2.02275 l 0.17857,-0.46503 0.17857,-0.46503 0.58063,-1.68816 0.58063,-1.68816 7.44053,-8.55947 7.44052,-8.55947 7.3741,-8.45769 7.37409,-8.45769 v -0.22167 -0.22167 l -2.05388,-1.2023 -2.05387,-1.20229 h -5.25379 -5.25378 v 4.74827 4.74827 l -5.91256,7.78747 -5.91256,7.78747 -1.29069,0.0201 -1.2907,0.0201 -1.64755,4.65032 -1.64757,4.65034 -1.15358,3.38809 -1.15358,3.3881 h -0.69278 -0.69277 l -0.27508,-0.86363 -0.27507,-0.86364 -2.35866,-6.90905 -2.35867,-6.90906 -0.25402,-0.33218 -0.25401,-0.33216 h -1.26321 -1.26321 l -5.87905,-7.83696 -5.87905,-7.83697 v -4.65249 -4.65248 h -5.18789 -5.18791 l -2.11975,1.23167 -2.11976,1.23166 v 0.11054 0.11055 l 5.11535,5.88013 5.11537,5.88014 3.95374,4.53634 3.95375,4.53635 3.12095,3.5874 3.12095,3.5874 2.65533,3.05593 2.65533,3.05592 0.7,1.94241 0.69999,1.9424 v 0.2499 0.24989 l -1.92656,-1.8e-4 -1.92657,-1.8e-4 z"
         id="path13929" />
      <path
         id="path14495"
         style="fill:url(#linearGradient14530);fill-opacity:1;stroke:#3fa323;stroke-width:1.04474;stroke-linecap:round;stroke-dasharray:none;stroke-opacity:1;paint-order:stroke fill markers"
         d="m 759.75109,143.24283 3.65383,-4.77989 v -1.06158 -1.06159 h -14.74819 -14.74819 v 1.15592 1.15592 l 3.60524,4.69021 3.60523,4.69021 7.48912,-0.005 7.48913,-0.005 3.65383,-4.77988 z m -19.34383,-10.40787 0.0649,-0.0826 0.64552,-2.12371 0.64553,-2.12371 0.43568,-0.0839 0.43568,-0.0839 0.75237,2.30594 0.75238,2.30596 4.36267,-0.0437 4.36268,-0.0437 0.17948,-0.11092 0.17948,-0.11093 0.63964,-2.13465 0.63965,-2.13465 0.41824,-10e-4 0.41825,-0.001 0.62661,2.05943 0.62661,2.05943 0.18321,0.21828 0.18321,0.21828 3.15652,7e-5 3.15654,7e-5 0.0698,-8.99038 0.0699,-8.99039 -2.12929,-2.11678 -2.12927,-2.1168 V 100.53847 90.367952 h -0.20049 -0.20047 l -1.67412,0.996499 -1.67412,0.9965 0.0102,15.744679 0.0102,15.74469 h -1.44259 -1.44259 l -2.02696,-0.92372 -2.02696,-0.92371 -1.83426,0.92371 -1.83425,0.92372 h -1.46817 -1.46816 V 108.04254 92.234762 l -1.8535,-0.933405 -1.8535,-0.933405 h -0.1395 -0.1395 l -0.005,10.164288 -0.005,10.16429 -1.98744,2.11634 -1.98743,2.11634 v 8.93373 8.93373 l 0.11051,0.11071 0.11052,0.11073 3.10642,-0.0503 3.10642,-0.0503 0.0648,-0.0826 z m -22.70844,-8.55026 11.5594,-6.50256 0.0834,-1.11972 0.0834,-1.11973 -0.34916,0.14358 -0.34915,0.14357 -7.5734,3.11499 -7.57339,3.11499 -5.31466,2.18167 -5.31466,2.18168 -0.075,3.11597 -0.075,3.11598 1.66942,-0.93393 1.66941,-0.93394 z m 76.73987,5.03145 -0.0759,-2.85932 -5.71325,-2.33141 -5.71327,-2.33141 -7.17995,-2.93742 -7.17995,-2.93742 -0.37059,-0.0869 -0.37056,-0.0869 0.0104,1.05182 0.0101,1.05182 0.23265,0.0802 0.23262,0.0802 12.88806,7.2666 12.88806,7.26659 0.20873,-0.18361 0.20873,-0.1836 z m -78.18934,-16.29446 13.13666,-7.37409 0.003,-1.02749 0.003,-1.02749 -0.46504,0.13357 -0.46503,0.13357 -11.42653,4.70271 -11.42652,4.7027 -1.3951,0.54626 -1.3951,0.54625 v 3.01906 3.01905 h 0.14747 0.14747 l 13.13665,-7.3741 z m 78.24634,4.46038 v -2.91371 l -0.48058,-0.2572 -0.48055,-0.25719 -12.68735,-5.20664 -12.68732,-5.20665 -0.21131,0.13058 -0.21128,0.13059 0.15899,0.94199 0.15896,0.94199 12.88805,7.27841 12.88806,7.2784 0.33217,0.0265 0.33216,0.0266 z M 751.9784,103.88281 V 90.406958 l 1.3951,-0.790714 1.39509,-0.790708 4.25173,-2.176593 4.25173,-2.176595 v -0.687771 -0.68777 l -1.32867,0.02824 -1.32866,0.02824 -2.65733,1.06521 -2.65733,1.065212 -1.56354,0.06773 -1.56353,0.06773 -0.96224,-1.128438 -0.96224,-1.128436 -1.52928,-0.05839 -1.52929,-0.05839 -1.11563,1.136745 -1.11563,1.136746 h -1.48766 -1.48766 l -2.77518,-1.084606 -2.77517,-1.084609 -1.1958,-0.03266 -1.1958,-0.03266 -0.0813,0.690183 -0.0813,0.690187 5.59529,2.883531 5.59531,2.883537 v 13.483871 13.48388 l 1.7879,0.90134 1.7879,0.90135 1.66663,-0.82185 1.66663,-0.82185 z m -35.48539,-3.07935 12.49947,-7.023771 0.21743,-0.209318 0.21743,-0.209319 -0.0846,-0.945384 -0.0846,-0.945384 -9.69926,3.98344 -9.69926,3.98344 -3.45453,1.391966 -3.45453,1.39196 -0.075,3.12228 -0.075,3.12228 0.59645,-0.3192 0.59643,-0.31921 z m 78.00268,4.60684 v -3.0275 l -0.33216,-0.1347 -0.33217,-0.1347 -12.63062,-5.189004 -12.63058,-5.189013 -0.36746,-0.08582 -0.36745,-0.08582 0.009,1.006542 0.009,1.006541 0.10068,0.08181 0.10069,0.0818 6.11187,3.415093 6.11185,3.415081 6.90906,3.91299 6.90907,3.91298 0.1993,0.0206 0.1993,0.0206 v -3.0275 z m -81.1207,-14.933303 9.77136,-5.492382 3.11836,-1.759363 3.11836,-1.759361 0.004,-1.02493 0.004,-1.02493 -0.46504,0.166139 -0.46503,0.166137 -12.82162,5.235069 -12.82162,5.23507 v 3.026248 3.026247 l 0.39292,-0.150781 0.39293,-0.150781 9.77136,-5.492382 z m 81.1207,2.823369 V 90.38665 l -0.46503,-0.248209 -0.46503,-0.248216 -6.64333,-2.718621 -6.64333,-2.718618 -6.08579,-2.480783 -6.08579,-2.480783 -0.15899,0.09826 -0.15899,0.09826 0.0207,0.888976 0.0207,0.888978 13.00025,7.350169 13.00028,7.350174 0.33216,0.02394 0.33216,0.02394 v -2.913716 z m -76.53113,-17.493737 11.29366,-6.355539 0.0825,-0.968094 0.0825,-0.968093 h -0.33411 -0.33411 l -8.51755,3.491704 -8.51756,3.491703 -4.38459,1.795573 -4.3846,1.795574 -0.0751,3.106696 -0.0751,3.106697 1.9352,-1.070341 1.9352,-1.070341 z m 76.53113,5.42978 V 78.21673 l -6.97549,-2.865209 -6.9755,-2.865206 -6.24472,-2.570027 -6.24473,-2.570024 -0.14599,0.815085 -0.146,0.815086 0.087,0.265733 0.087,0.265734 8.53931,4.783195 8.53928,4.783196 4.54063,2.572219 4.54062,2.572217 0.19929,0.01868 0.1993,0.01868 z m -31.09077,-2.425946 v -0.928166 l -3.45073,-1.729165 -3.45074,-1.729168 h -1.73106 -1.73106 v -0.409319 -0.409317 l 1.20862,-4.812807 1.20861,-4.812804 -0.21211,-0.201585 -0.21213,-0.201585 -3.21906,-1.705659 -3.21906,-1.705658 -3.42426,1.809605 -3.42427,1.809606 0.089,0.470132 0.089,0.470132 1.05731,4.384597 1.0573,4.384596 0.13385,0.465033 0.13385,0.465033 h -1.87533 -1.87534 l -3.32436,1.655911 -3.32438,1.655907 v 1.001423 1.001421 h 14.74819 14.74819 z" />
    </g>
  </g>
  <g
     inkscape:label="Lion Tamarind"
     inkscape:groupmode="layer"
     id="layer1"
     transform="translate(-228.97386,4.7686997)">
    <g
       id="g1972"
       transform="matrix(2.5671402,0,0,2.5671402,-214.23762,-140.01506)"
       inkscape:label="errythin">
      <path
         style="fill:#0c0c0c;fill-opacity:1;stroke:#cbab0b;stroke-width:1.24652;stroke-dasharray:none;stroke-opacity:0.380757"
         d="m 193.4458,159.29834 -20.17449,-8.10768 0.01,-40.75557 0.01,-40.755568 12.17867,-8.158454 12.17867,-8.158453 8.23038,2.032423 10.15131,2.103813 6.26059,-2.107649 8.18153,-2.036234 12.14628,8.096991 12.14628,8.097017 -0.067,40.903524 -0.067,40.90353 -20.10662,8.04351 -20.10662,8.04352 -0.39859,-0.0185 -0.39859,-0.0185 -20.17448,-8.10765 z"
         id="path2069"
         sodipodi:nodetypes="cccccccccccccccccccc"
         inkscape:label="bg" />
      <path
         id="path3983"
         style="fill:url(#radialGradient2655);fill-opacity:1;stroke:#cbab0b;stroke-width:1.24652;stroke-linecap:round;stroke-linejoin:round;stroke-dasharray:none;stroke-opacity:0.380757;paint-order:stroke fill markers"
         d="m 210.30158,160.10087 -0.0114,-0.19843 c -1.01491,-6.96735 -2.02981,-13.93473 -3.04471,-20.90209 -1.35915,-0.0515 -2.71829,-0.10305 -4.07743,-0.15457 -1.9231,6.44028 -2.84399,11.15195 -4.2507,17.02525 l 0.0754,0.0548 c 3.69013,1.53413 7.48208,3.04395 10.65873,4.32597 l 0.33073,0.0238 0.33073,0.0238 -0.0114,-0.19844 z m 13.24057,-1.95669 5.42396,-2.15982 0.0761,-0.0574 0.0761,-0.0574 c -1.24379,-5.27032 -2.48759,-10.54063 -3.73139,-15.81094 -0.17358,-0.4043 -0.34714,-0.8086 -0.52071,-1.21291 -1.36365,0.0515 -2.72731,0.10307 -4.09096,0.1546 -1.2676,8.16096 -1.87873,14.36096 -3.11288,21.29896 l 0.22789,0.003 0.22788,0.003 5.42396,-2.15984 z m -28.04583,-30.31893 c -0.90179,-2.97775 -1.80358,-5.95548 -2.70536,-8.93323 l -0.13339,-0.46302 -0.13339,-0.46302 -0.16758,0.003 -0.16758,0.003 -0.41255,0.72594 -0.41255,0.72594 c -4.26697,7.86074 -8.53396,15.72148 -12.80094,23.58223 v 4.75964 c 5.83071,2.36911 11.70471,4.72418 16.7349,6.69068 z m 53.975,19.93993 v -4.75528 c -4.15346,-7.69943 -8.53704,-15.75517 -12.3619,-22.79422 l -0.68783,-1.3013 -0.68784,-1.3013 -0.29556,0.77213 -0.29555,0.77213 -1.30233,4.33433 -1.30233,4.33432 v 26.70985 c 5.91447,-2.36203 10.89557,-4.35595 16.93334,-6.77066 z m -23.76365,-16.70159 0.7103,-2.11666 0.0173,-0.19844 0.0173,-0.19844 h -2.25483 -2.25483 l -2.10492,-1.05833 -2.10492,-1.05833 h -3.58362 -3.58362 l -2.10493,1.05833 -2.10492,1.05833 h -2.27266 -2.27266 l 0.13135,0.46302 0.13134,0.46302 0.46642,1.5875 0.46642,1.5875 0.24865,0.33367 0.24865,0.33367 10.74694,-0.0691 10.74693,-0.0691 0.71031,-2.11667 z m -34.36401,-17.09242 c -1.17839,-3.91573 -2.35681,-7.83143 -3.53521,-11.74716 l 0.007,-0.35277 0.008,-0.35279 -0.26862,0.0895 -0.26862,0.0896 c -2.90772,6.79008 -5.81544,13.58014 -8.72316,20.37022 -1e-5,1.80798 -1e-5,3.61598 -2e-5,5.42396 l 0.19844,-0.0201 0.19843,-0.0201 c 4.1344,-4.46622 8.76434,-9.41019 12.38378,-13.48033 z m 58.12766,10.8054 v -2.71516 l -4.35921,-10.18114 -4.35919,-10.18114 -0.27101,-0.0903 -0.27101,-0.0904 v 0.40454 0.40453 l -1.73275,5.73021 -1.73276,5.73019 0.0791,0.23352 0.0791,0.23355 6.08541,6.59807 6.08542,6.5981 0.19844,0.0204 0.19844,0.0204 v -2.71515 z m -41.80417,-0.72443 2.10492,-1.05834 h 4.37737 4.37737 l 2.12431,1.06807 2.12432,1.0681 2.40504,-0.0759 2.40504,-0.0759 1.41256,-4.7625 1.41255,-4.7625 0.005,-0.35917 0.005,-0.3592 -4.51533,-5.39549 -4.51533,-5.39552 h -1.98901 -1.98901 l 0.0889,0.19844 0.0889,0.19844 3.41225,5.15937 3.41225,5.15938 0.0959,0.39687 0.0959,0.39688 -0.48148,1.5875 -0.48147,1.5875 -3.22582,0.0743 -3.22582,0.0743 v -1.08522 -1.08521 l 1.17343,-1.64441 1.17343,-1.64442 -2.66075,-3.91768 -2.66074,-3.91769 c -2.09025,2.54233 -3.62873,5.03433 -5.50164,7.7737 l 1.19543,1.67526 1.19543,1.67524 v 1.07706 1.07707 h -3.18155 -3.18155 l -0.27732,-0.7276 -0.27733,-0.72761 -0.27991,-1.20989 -0.27991,-1.20986 c 2.28354,-3.42676 4.56711,-6.8535 6.85067,-10.28025 l 0.19677,-0.33073 0.19677,-0.33073 h -1.98629 -1.9863 l -2.61517,3.10886 -2.61517,3.10885 -1.98173,2.38384 -1.98173,2.38382 1.40739,4.75993 1.4074,4.75991 0.1248,0.33073 0.1248,0.33073 h 2.39543 2.39542 l 2.10492,-1.05833 z m -7.41961,-17.5948 3.51847,-4.23333 0.82372,-0.87214 0.82371,-0.87215 3.44196,0.0417 3.44196,0.0417 0.0707,-6.498881 0.0707,-6.498881 -0.86449,-0.14404 -0.86449,-0.144039 -7.50152,-0.927153 -7.50153,-0.927126 h -0.43968 -0.43967 l -1.26115,3.373437 -1.26115,3.373438 0.008,0.198437 0.008,0.198438 1.78594,0.0061 1.78594,0.0061 c 2.11666,0.16166 4.23333,0.323321 6.34999,0.484954 l 1.85209,0.06046 1.85208,0.06046 0.46302,0.118798 0.46302,0.118798 v 1.230789 1.230788 l -7.95723,2.245519 -1.56312,-1.061508 -1.56311,-1.061482 h -1.89491 -1.89491 l 0.1143,0.330729 0.1143,0.330729 2.09682,7.074876 2.09682,7.0749 0.15336,-0.0634 0.15335,-0.0634 3.51847,-4.23334 z m 33.74565,-2.84773 2.11667,-7.206432 v -0.244951 -0.244951 l -1.82964,0.06633 -1.82964,0.06633 -1.5405,1.046136 -1.5405,1.046136 c -2.64803,-0.749935 -5.29606,-1.499817 -7.9441,-2.249726 v -1.252035 -1.252008 l 0.8599,-0.125227 0.85989,-0.125227 c 3.43959,-0.19095 6.87917,-0.381874 10.31875,-0.572823 l 1.25677,0.0026 1.25678,0.0029 v -0.171291 -0.171318 l -1.25678,-3.397991 -1.25677,-3.397964 -0.50113,-0.0026 -0.50114,-0.0026 -7.43636,0.929005 -7.43637,0.929032 -0.86448,0.14216 -0.8645,0.142161 0.0707,6.491658 0.0707,6.491656 3.57136,0.0439 3.57135,0.0439 4.23386,5.08468 4.23385,5.08471 0.13229,0.005 0.13229,0.005 2.11667,-7.20643 z m -51.14369,-1.42881 3.62507,-4.510056 -0.29602,-0.964512 -0.29602,-0.964512 -0.28634,0.01138 -0.28633,0.01138 -3.3073,1.398217 -3.30729,1.398217 -0.0618,4.477466 -0.0618,4.47747 0.32637,-0.41241 0.32637,-0.41241 3.62506,-4.51006 z m 66.43015,-3.551365 -0.20521,-0.194998 -3.23683,-1.346358 -3.23683,-1.346359 h -0.22451 -0.2245 l -0.29747,0.969221 -0.29747,0.969249 3.8911,4.86616 3.89109,4.86617 0.0729,-4.29406 0.0729,-4.29403 z m -65.59211,-7.780126 4.19852,-3.656435 0.49202,-1.08339 0.49203,-1.083389 0.006,-0.330729 0.006,-0.330729 h -10.58369 l 0.003,4.43177 0.003,4.431771 0.16537,1.000628 0.16537,1.000628 0.42703,-0.361845 0.42703,-0.361844 4.19852,-3.656436 z m 65.97603,-1.172527 0.14499,-5.312145 h -5.328 -5.32799 v 0.217461 0.217434 l 0.41679,1.171628 0.4168,1.171602 4.66441,4.024868 4.6644,4.024868 0.1018,-0.101785 0.10181,-0.101812 z m -37.27653,-27.138788 -0.10206,-0.10205 -0.10205,-0.10205 c -4.50669,-1.124294 -9.01337,-2.248561 -13.52006,-3.372855 -3.39267,2.304547 -6.78534,4.609068 -10.17801,6.913615 v 0.218519 0.218493 l 17.50535,14.569599 c 0.79356,0.132639 1.58957,0.233308 2.39017,0.308376 1.37636,-6.42964 2.84755,-13.262107 4.00666,-18.651643 z m 27.1624,3.763433 v -0.21799 -0.218017 c -3.38368,-2.301372 -6.76736,-4.602718 -10.15103,-6.90409 -4.50812,1.116621 -9.01624,2.233268 -13.52436,3.349889 l -0.11684,0.11684 -0.11684,0.11684 c 1.48527,6.877553 2.66451,12.352152 4.03668,18.661618 l 1.19536,-0.179255 1.19536,-0.179255 c 5.82723,-4.84886 11.65445,-9.69772 17.48167,-14.54658 z m -48.82718,13.59318 0.32194,-0.777213 -2.82198,-5.446184 -2.82198,-5.446157 h -0.25143 -0.25142 l -3.16721,2.121879 -3.1672,2.121906 v 1.316514 1.316487 l 5.75469,2.882873 5.75469,2.882874 0.16398,-0.0979 0.16399,-0.09787 z m 58.74906,-4.792689 v -2.63308 c -2.11146,-1.414621 -4.22294,-2.82919 -6.33441,-4.243785 h -0.25143 -0.25142 c -1.87591,3.620321 -3.7518,7.240641 -5.6277,10.860961 0.22168,0.613013 0.44334,1.226026 0.66501,1.839039 h 0.0814 0.0814 c 3.87901,-1.941062 7.75804,-3.882099 11.63707,-5.823135 z"
         inkscape:label="face"
         sodipodi:nodetypes="ccccccccccccccccccccccccccccccccccccccccccccccccccccccccccccccccccccccsccccccccccsccccccccccccccccccccccccccccccccccccccccccccccccccccccccccccccccccccccccccccccccccccccccccccccccccccccccccccccccccccccccccccccccccccccccccccccccccccccccccccccccccccccccccccccccccccccccccccccccccccccccccccccccccccccccccscccccccccccccccccccccccccccccccccccccc" />
    </g>
  </g>
  <g
     inkscape:groupmode="layer"
     id="layer8"
     inkscape:label="Mandrill">
    <g
       id="g8694">
      <path
         style="fill:#6f7ce0;fill-opacity:1;stroke-width:0.692375"
         d="m 262.46722,633.87776 -15.73448,-10.51634 -0.017,-85.61073 -0.017,-85.61073 37.19184,-36.76657 37.19183,-36.76657 h 9.11687 9.11685 27.29311 9.14046 9.14046 l 37.18386,36.75514 37.18387,36.75522 v 85.64216 85.64216 l -15.90074,10.51164 -15.90081,10.51171 -7.3011,-2.05012 -7.30102,-2.05012 h -1.0313 -1.03129 v -0.57177 c -6.90535,-0.12387 -13.92095,-0.17596 -21.01215,-0.17515 -10.49924,0.001 -26.8462,17.54996 -37.56447,17.72179 -10.36599,0.16617 -15.09984,-17.04812 -25.46382,-16.83512 -9.99511,0.20542 -19.94199,0.40683 -29.7494,0.55449 h -0.23822 l -9.28089,1.72436 -9.28088,1.72436 v -0.036 -0.036 l -15.73448,-10.51641 z"
         id="path6730-3"
         sodipodi:nodetypes="ccccccccccccccccccccccssscccccccc" />
      <path
         id="path6132"
         style="fill:#000000;stroke-width:0.692375"
         d="m 346.06092,673.42179 -2.7695,-2.61911 -14.88607,-13.75999 -14.88606,-13.75998 -16.44391,-15.20982 -16.44391,-15.20989 v -0.7101 -0.7101 l 3.85283,-12.52479 3.85283,-12.52479 2.08945,-6.40447 2.08946,-6.40447 h 8.94378 8.94378 v 18.34794 18.34794 h 42.58107 42.58107 v -18.34794 -18.34794 l 9.17397,0.0132 9.17397,0.0131 6.01009,19.37037 6.01009,19.37044 -3.93296,3.7337 -3.93297,3.73371 -30.46451,28.1089 -30.4645,28.10898 h -4.15425 -4.15425 l -2.7695,-2.61905 z m 3.66952,-87.89438 -0.20765,-3.98116 -6.92375,-3.60852 -6.92375,-3.60852 -0.86547,-0.0263 -0.86547,-0.0263 v 2.92521 2.92522 l 4.65497,4.69091 4.65496,4.69091 h 3.3419 3.34191 l -0.20765,-3.98116 z m 17.60363,-0.67382 4.69091,-4.65498 v -2.96115 -2.96115 l -0.86547,0.0263 -0.86546,0.0263 -6.92375,3.60852 -6.92376,3.60852 -0.20764,3.98116 -0.20765,3.98116 h 3.30596 3.30596 l 4.6909,-4.65498 z m -4.30008,-15.77508 8.99099,-4.50535 v -1.03365 -1.03358 h -6.81096 -6.81096 l -0.45898,-30.23193 -0.45897,-30.23194 v -12.73575 -12.73576 l -0.79709,-6.71022 -0.79709,-6.71022 -0.67244,-0.86547 -0.67244,-0.86547 h -2.01408 -2.01407 l -0.2578,0.86547 -0.25778,0.86547 -0.74867,7.96231 -0.74867,7.96231 -0.35239,33.5802 -0.35238,33.58019 -0.004,8.13541 -0.004,8.1354 h -6.92375 -6.92376 v 1.03337 1.03337 l 8.82779,4.46949 8.82778,4.46956 1.22154,0.036 1.22155,0.036 8.99099,-4.50543 z m -20.78114,-33.92084 v -6.57701 l -13.17002,-8.75577 -13.17002,-8.75571 -0.35876,0.35872 -0.35875,0.35879 0.79951,6.23428 0.79952,6.23429 0.43961,0.67617 0.4396,0.67617 12.11656,8.05378 12.11657,8.05371 0.17309,0.01 0.17309,0.01 v -6.57701 z m 34.46083,-1.84026 11.58212,-7.7249 0.43959,-0.66863 0.43959,-0.66862 0.79955,-6.23429 0.79949,-6.23428 -0.33359,-0.33366 -0.33365,-0.33358 -13.19515,8.74289 -13.19515,8.74297 v 6.2185 6.2185 h 0.70752 0.70751 z m -34.46083,-21.69932 v -6.57583 l -15.23497,-10.15389 -15.23497,-10.15382 -0.34163,0.34162 -0.34164,0.34169 0.6395,3.75219 0.63949,3.75219 0.44353,3.31453 0.44352,3.31454 13.97166,9.32131 13.97165,9.32131 h 0.52193 0.52193 z m 36.95026,-3.05607 13.50173,-9.01839 0.44292,-3.31073 0.44298,-3.31066 0.63947,-3.75219 0.63948,-3.75219 -0.33331,-0.33331 -0.33324,-0.33324 -8.80542,5.81637 -8.80541,5.81643 -6.26482,4.19801 -6.26482,4.19794 -0.19918,6.79102 -0.19918,6.79103 1.01855,-0.39085 1.01854,-0.39085 z m -36.95026,-20.74113 v -6.83222 l -6.43882,-4.24579 -6.43882,-4.24571 h -6.95136 -6.95135 l -0.84453,1.85356 -0.84454,1.85356 0.90649,0.53603 0.90649,0.53604 12.80894,8.64354 12.80894,8.64361 0.51928,0.045 0.51928,0.045 v -6.83229 z m 35.84336,-2.2649 13.66146,-9.09719 0.19899,-0.16042 0.19906,-0.16035 -0.82946,-1.82047 -0.8294,-1.82039 h -6.86746 -6.86753 l -6.52266,4.22543 -6.52273,4.22542 v 6.85258 6.85257 h 0.3591 0.35911 z m -34.98894,-45.54181 -4.33841,-0.54233 -0.44822,-0.44825 -0.44821,-0.44817 5.63305,-30.63995 5.63306,-30.63989 0.83108,-4.67353 0.83109,-4.67353 h 2.14998 2.14999 l 1.88518,10.21253 1.88518,10.21254 4.50614,24.57931 4.50615,24.57932 0.28886,0.7891 0.28887,0.78917 -2.1992,0.44277 -2.19919,0.44284 -8.3085,0.28021 -8.3085,0.28027 z m -80.63359,193.59092 -15.73448,-10.51634 -0.017,-85.61073 -0.017,-85.61073 37.19184,-36.76657 37.19183,-36.76657 h 9.11687 9.11685 l -0.869,4.67353 -0.86901,4.67353 -4.69612,25.27169 -4.69612,25.27169 -6.08067,-0.63643 -6.08067,-0.63636 -5.2704,3.96682 -5.2704,3.96683 0.36783,1.16997 0.36783,1.17005 1.80976,5.88519 1.80975,5.88519 0.70958,2.5964 0.70958,2.59641 h 10.1716 10.1716 l 6.11316,4.17149 6.11315,4.17149 0.30101,-0.30104 0.30102,-0.30098 1.26157,-4.90458 1.26157,-4.90457 -4.46341,-3.12012 -4.46343,-3.12019 h -9.18745 -9.18745 l -1.165,-3.69583 -1.16501,-3.69583 v -0.87399 -0.87398 l 10.90491,0.4956 10.90491,0.4956 1.16723,0.21783 1.16724,0.21789 3.67014,2.47157 3.67015,2.47164 h 4.17274 4.17274 l 3.67015,-2.47164 3.67014,-2.47157 1.16724,-0.22198 1.16723,-0.22198 10.90491,-0.50398 10.90491,-0.50404 v 0.84082 0.84082 l -1.08772,3.74152 -1.08766,3.74153 h -9.24722 -9.24722 l -4.20497,2.90167 -4.20497,2.90168 0.0108,1.07948 0.0108,1.07948 0.94427,4.01308 0.94427,4.01307 0.3315,0.33151 0.3315,0.33151 6.11316,-4.17149 6.11321,-4.17149 h 9.88525 9.88525 l 0.64093,-1.21166 0.64093,-1.21165 2.21622,-7.26994 2.21629,-7.26994 0.33415,-1.09901 0.3342,-1.09907 -5.27368,-4.03932 -5.27368,-4.03932 -6.20181,0.6417 -6.20181,0.64162 v -0.53915 -0.53915 l -5.19967,-28.19816 -5.1997,-28.19815 -0.27452,-1.21166 -0.2745,-1.21165 h 9.14046 9.14046 l 37.18386,36.75514 37.18387,36.75522 v 85.64216 85.64216 l -15.90074,10.51164 -15.90081,10.51171 -7.3011,-2.05012 -7.30102,-2.05012 h -1.0313 -1.03129 v -0.57177 -0.57176 l 12.01541,-10.83276 12.01548,-10.8327 0.84926,-1.02326 0.8492,-1.02333 -4.61419,-14.74793 -4.61427,-14.74794 -3.44706,-10.90491 -3.44706,-10.90491 H 407.6212 394.83753 l -3.44394,-2.57113 -3.44388,-2.57107 v -11.27643 -11.27637 h -0.49927 -0.49927 l -11.61729,7.71784 -11.61732,7.71783 v 1.28304 1.28304 h 7.96234 7.96231 v 15.07218 15.0721 l -6.76305,6.73771 -6.76306,6.73764 h -12.95998 -12.95997 l -7.27961,-7.01154 -7.27959,-7.01147 V 568.9957 554.19743 h 8.3085 8.30851 v -1.28304 -1.28304 l -11.61728,-7.71783 -11.61727,-7.71784 h -0.67239 -0.67238 l 0.20392,11.25933 0.20392,11.25934 -3.39504,2.58914 -3.39505,2.58906 h -12.51955 -12.51955 l -0.44402,0.71848 -0.44404,0.71841 -7.88477,25.07256 -7.88478,25.0725 2.9361,2.7695 2.9361,2.7695 10.8898,9.86634 10.8898,9.86635 h -0.23823 -0.23822 l -9.28089,1.72436 -9.28088,1.72436 v -0.036 -0.036 L 262.47378,633.6065 Z m 116.77582,-0.64965 16.23336,-12.63585 0.0415,-0.86547 0.0416,-0.86547 h -42.58107 -42.58107 l 0.0305,0.86547 0.0306,0.86547 16.06716,12.57097 16.06715,12.57097 10.20855,0.0651 10.20855,0.0651 16.23336,-12.63585 z" />
    </g>
  </g>
  <g
     inkscape:groupmode="layer"
     id="layer7"
     inkscape:label="Chimp">
    <g
       id="g8702">
      <path
         style="fill:#000000;stroke-width:1.51181102;stroke:#943a21;stroke-opacity:0.75;stroke-dasharray:none;paint-order:stroke fill markers;stroke-linejoin:round"
         d="m 43.977852,662.88344 -11.003414,-11.02062 -7.512099,-0.20072 -7.5121,-0.20074 -21.869521,-54.50371 -21.869528,-54.5037 -0.03882,-52.54441 -0.03883,-52.54442 h 9.189017 9.189019 l 20.992774,-31.17042 20.992774,-31.17042 2.769792,-4.06952 2.769794,-4.06952 54.55054,-0.0272 54.55056,-0.0272 23.80272,35.2671 23.80266,35.2671 h 9.10205 9.10204 v 52.46508 52.46509 l -21.89901,54.76114 -21.89902,54.76116 h -7.49886 -7.49886 l -11.02598,11.0432 -11.026,11.04323 H 94.54041 54.981266 Z"
         id="path4259" />
      <path
         id="path4464"
         style="fill:#bf8b67;stroke-width:2.22614173;fill-opacity:1;stroke:#875d1d;stroke-opacity:1;stroke-dasharray:none;paint-order:stroke fill markers;stroke-linecap:round;stroke-linejoin:round"
         d="m 135.31994,648.44292 9.80561,-9.78687 v -13.17857 -13.17856 l -8.02638,8.00364 -8.02643,8.00363 H 94.54041 60.008066 l -8.026392,-8.00363 -8.026401,-8.00364 v 13.15981 13.15977 l 9.78687,9.80566 9.786878,9.80563 h 30.992629 30.99262 z m 0,-38.4732 9.80561,-9.78688 v -8.11057 -8.11059 l -5.65122,-6.66907 -5.65129,-6.66909 2.44519,-5.64237 2.44511,-5.64236 v -5.41443 -5.41444 h -4.98726 -4.98727 v 2.37485 2.37484 l -10.39797,12.55702 -10.39796,12.55701 -13.17584,0.20807 -13.17584,0.20804 -10.44648,-12.64578 -10.446479,-12.64578 -0.03662,-2.31602 -0.03662,-2.31602 h -4.848418 -4.848421 l 0.01552,5.77501 0.01553,5.775 2.175197,5.11165 2.175197,5.11162 -5.677149,6.75225 -5.677148,6.75226 v 8.0007 8.00068 l 9.786869,9.80564 9.786877,9.80563 h 30.992635 30.99262 l 9.8057,-9.78687 z M 90.26562,535.32928 v -35.26709 h 4.27479 4.2748 v 35.26709 35.26711 h 2.40907 2.40907 l 1.86573,-2.44611 1.86573,-2.44609 v -6.86388 -6.86389 l 2.31552,-2.78911 2.31551,-2.7891 1.46976,-0.0128 1.46976,-0.0128 2.04775,2.1374 2.04775,2.1374 h 0.76403 0.76402 l 0.86223,-1.38066 0.86222,-1.38063 -0.66758,-2.00358 -0.66758,-2.00356 -3.2617,-15.67427 -3.2617,-15.67427 -0.70758,-2.67175 -0.70759,-2.67175 h -3.17865 -3.17863 v -3.54875 -3.54876 l 1.60305,-0.37422 1.60304,-0.37423 4.23194,-0.1737 4.23194,-0.17371 0.64799,2.67176 0.64799,2.67175 h 18.45333 18.45338 v -6.87327 -6.87326 l -8.37149,0.45266 -8.37148,0.45269 -9.26207,1.05441 -9.26206,1.05441 -1.24681,0.0227 -1.24682,0.0227 v -4.0722 -4.07222 l 3.35743,-3.40869 3.35744,-3.40869 10.35753,0.004 10.35756,0.004 1.23528,2.17052 1.23527,2.17052 3.752,-0.21574 3.75199,-0.21575 v -6.76843 -6.76843 l -18.88036,-0.18896 -18.88038,-0.18896 -9.60839,9.62914 -9.6084,9.62961 h -4.65084 -4.65084 l -9.5985,-9.61745 -9.5985,-9.6183 H 51.98042 33.268274 v 7.12468 7.12467 h 3.83213 3.832131 l 0.885338,-2.13741 0.88534,-2.1374 h 10.397973 10.397975 l 3.40869,3.35743 3.408689,3.35746 v 4.12345 4.12346 l -1.246816,-0.0227 -1.246816,-0.0227 -9.262067,-1.05038 -9.262067,-1.05038 -8.015251,-0.45776 -8.015249,-0.45774 v 6.87431 6.87431 H 51.408716 69.54915 l 0.78483,-2.91461 0.78482,-2.91462 4.40802,0.47225 4.40803,0.47223 1.24681,0.35299 1.24682,0.35298 v 3.51432 3.51432 H 79.27689 76.1253 l -1.8245,8.01526 -1.82451,8.01525 -2.504804,11.82897 -2.504812,11.82892 v 1.08632 1.08628 l 1.060834,0.88043 1.060835,0.88042 2.526297,-2.21811 2.52628,-2.21812 h 1.2809 1.2809 l 2.25665,2.80808 2.25664,2.8081 v 6.84828 6.84828 l 1.95929,2.45554 1.95928,2.45555 2.31551,2e-5 2.31553,2e-5 z m -26.68226,-7.48089 2.94528,-11.75571 0.517031,-1.60304 0.517029,-1.60306 H 52.90912 38.25554 v 0.38607 0.38606 l 6.403979,7.62919 6.403978,7.62919 0.0083,5.55416 0.0083,5.55418 4.77907,-0.21067 4.779062,-0.21067 z m 75.12998,5.90224 0.35623,-5.85344 5.87785,-7.09275 5.87786,-7.09274 v -0.41256 -0.41256 H 136.57594 122.3266 v 1.0813 1.08127 l 2.86756,11.20878 2.86753,11.20875 0.39648,1.27805 0.39649,1.27806 4.75123,-0.20935 4.75122,-0.20935 z m -114.154224,-62.009 0.196669,-10.86511 h 25.12875 25.128745 l 9.87211,9.96305 9.87211,9.96303 9.89342,-9.96303 9.89342,-9.96305 h 24.89038 24.8903 l 0.19672,10.86511 0.19664,10.86513 3.29273,0.21341 3.29275,0.2134 1.23235,-3.06327 1.23235,-3.06329 3.12759,-8.38798 3.12759,-8.38799 -4.09035,-6.21757 -4.09034,-6.21758 -0.71247,-0.5253 -0.71247,-0.52528 -76.23393,0.16905 -76.233941,0.16905 -4.39713,6.70547 -4.397137,6.70547 1.266637,3.26907 1.266638,3.26906 2.705535,7.12466 2.705535,7.12467 0.719591,0.92586 0.719584,0.92586 2.911473,-0.21339 2.911474,-0.21338 z m -50.427174,-52.3604 0.0016,-8.36559 5.510958,-11.04913 5.510959,-11.04913 h 5.157667 5.157661 l 4.348383,6.46699 4.348384,6.46697 -0.372976,0.97196 -0.372976,0.97196 -7.852972,11.74824 -7.852978,11.74823 -6.792652,0.22755 -6.79265,0.22753 0.0014,-8.36558 z m 225.877758,5.51571 -1.93656,-2.84986 -6.18285,-9.06311 -6.18286,-9.06313 -0.39713,-1.03476 -0.39705,-1.03474 4.3484,-6.46698 4.34839,-6.46698 h 5.15036 5.15034 l 5.51828,10.9453 5.51826,10.9453 v 8.46943 8.4694 h -6.50055 -6.50048 z" />
    </g>
    <path
       style="fill:#000000;stroke-width:0.717019"
       d="m 621.46124,665.57087 -11.1138,-11.07845 -7.89015,-0.0254 -7.89015,-0.0254 -32.8007,-32.80652 -32.80069,-32.80653 V 522.505 456.18142 l 43.91958,-43.91525 43.91959,-43.91524 h 44.13863 44.13856 l 43.87089,43.91743 43.87083,43.91743 v 66.32721 66.3272 l -32.8065,32.80072 -32.80657,32.8007 -7.52577,0.0263 -7.52583,0.0263 -11.33285,11.08747 -11.32783,11.0875 -28.46172,-0.01 -28.46172,-0.01 z"
       id="path8715" />
    <path
       id="path8924"
       style="fill:url(#radialGradient9673);stroke-width:4.87559055;fill-opacity:1;stroke:#36150c;stroke-opacity:0.75;stroke-dasharray:none;paint-order:stroke fill markers;stroke-linejoin:round"
       d="m 653.27029,651.67217 7.76446,-7.78859 7.61661,7.78859 7.61668,7.78859 h 3.03292 3.03299 l 11.2035,-10.93454 11.20357,-10.93455 8.0137,-0.35851 8.01369,-0.35851 -0.19876,-22.94461 -0.19868,-22.94462 -0.30911,-4.66063 -0.30904,-4.66062 -0.0301,-6.31721 -0.0301,-6.3172 -2.60127,0.22254 -2.6012,0.22254 -6.46372,17.32601 -6.46364,17.326 -0.7941,-0.26875 -0.7941,-0.26875 -19.35952,-2.60993 -19.35952,-2.60993 -20.3845,2.73357 -20.3845,2.73357 -0.26128,-0.68945 -0.26128,-0.68945 -6.24244,-16.49145 -6.24244,-16.49144 -2.60601,-0.2176 -2.60594,-0.2176 -0.50592,20.65265 -0.506,20.65265 -0.11466,13.26486 -0.11465,13.26485 8.27584,0.20072 8.27584,0.20072 11.075,11.09234 11.07501,11.09233 h 2.88902 2.88894 l 7.76446,-7.78859 z m -6.71338,-61.07643 14.6989,-1.55096 7.17019,0.79713 7.17019,0.79713 9.96098,1.11091 9.96098,1.11092 0.64646,-0.64649 0.64646,-0.64648 3.25943,-8.89547 3.25943,-8.89547 2.33612,-6.36041 2.33619,-6.36041 5.66603,-0.0928 5.6661,-0.0928 -0.21654,-7.68816 -0.21661,-7.68816 -6.53319,-13.46391 -6.53327,-13.46391 -12.6779,-26.1712 -12.67798,-26.17121 -7.54426,-0.20254 -7.54426,-0.20254 -0.43545,3.42913 -0.43537,3.42913 -0.74793,8.24572 -0.74792,8.24572 -0.37866,2.33031 -0.37865,2.33032 h -1.40156 -1.40156 v -0.89628 -0.89627 l -1.1278,-11.47231 -1.12773,-11.47231 -0.32179,-1.61329 -0.32173,-1.6133 h -7.39656 -7.39648 l -6.91099,14.20341 -6.91106,14.20341 -7.63411,15.73214 -7.63417,15.73215 -4.93288,10.31597 -4.93288,10.31597 v 7.43026 7.43026 h 5.6281 5.6281 l 5.5749,15.23666 5.57489,15.23666 0.36389,0.62226 0.36382,0.62227 2.95282,-0.40013 2.95276,-0.40014 14.6989,-1.55096 z m -4.30211,-75.61437 v -6.81168 h 2.25875 2.25868 l 5.26221,1.9718 5.2622,1.97181 0.008,4.83988 0.008,4.83988 h -7.5287 -7.52871 v -6.81169 z m 22.2276,1.9654 v -4.8463 l 4.83988,-1.73585 4.83988,-1.73586 2.68882,-0.49176 2.68882,-0.49177 v 7.07391 7.07392 h -7.5287 -7.5287 z m -70.68835,51.27329 0.36159,-2.33032 0.29197,-11.16734 0.29204,-11.16734 10.2419,-21.09853 10.24191,-21.09852 4.43691,-9.30013 4.43685,-9.30013 -6.85557,-8.4461 -6.85556,-8.4461 -4.32148,0.0212 -4.3214,0.0212 -10.03827,8.61859 -10.03827,8.6186 -0.84938,0.86066 -0.84945,0.86066 -4.06708,17.56697 -4.06708,17.56697 -3.12742,13.62337 -3.12742,13.62336 7.75442,7.88722 7.75434,7.88721 3.51612,3.7184 3.51612,3.71839 2.65634,0.046 2.65635,0.046 0.36152,-2.33032 z m 151.2261,-9.23873 11.24071,-11.56902 v -0.54336 -0.54335 l -6.82265,-29.65399 -6.82258,-29.65399 -0.65285,-1.5301 -0.65277,-1.53011 -10.56162,-9.04593 -10.56163,-9.04593 h -4.17169 -4.17176 l -6.83047,8.20475 -6.83054,8.20476 v 0.64979 0.64979 l 9.04326,18.57144 9.0432,18.57145 5.6557,11.7518 5.65563,11.75181 v 4.44781 4.44781 l 0.46872,8.71681 0.46871,8.7168 h 2.63096 2.63096 z M 559.08056,544.41935 v -0.31833 l 1.80531,-12.05026 1.80531,-12.05025 2.50742,-17.20846 2.50742,-17.20847 0.61204,-3.84488 0.61205,-3.84487 21.7842,-21.8008 21.78419,-21.80082 12.08106,0.1915 12.08105,0.1915 6.82703,11.68733 6.82703,11.68732 3.31951,-0.21502 3.31951,-0.21501 0.13989,-1.43404 0.13989,-1.43404 0.4495,-4.12286 0.44943,-4.12286 h 2.75952 2.75952 l 0.37751,1.97181 0.37759,1.9718 0.46369,3.76435 0.46377,3.76435 3.33851,-0.0217 3.33859,-0.0217 6.76558,-11.80913 6.7655,-11.80913 h 11.91995 11.91994 l 21.82614,21.88275 21.82607,21.88276 0.48535,2.67515 0.48535,2.67516 1.8702,12.90635 1.8702,12.90634 1.73999,11.83082 1.73999,11.83082 0.86838,5.91541 0.86839,5.91541 h 1.88088 1.88081 l 4.44832,-4.96834 4.44824,-4.96834 v -34.29248 -34.29248 l -23.85429,-23.84636 -23.85438,-23.84635 -25.07889,0.18873 -25.07897,0.18873 -6.45647,10.23059 -6.45647,10.23058 -3.92676,-0.19231 -3.92668,-0.19232 -4.51156,-7.17019 -4.51149,-7.17019 -2.12302,-3.04733 -2.12302,-3.04734 h -24.92725 -24.92725 l -23.84483,23.83688 -23.84484,23.83688 v 34.40295 34.40294 l 4.82067,4.85787 4.82066,4.85788 h 1.63251 1.63251 v -0.31833 z m 104.32745,-121.3957 1.06263,-1.25478 4.89143,-6.81169 4.89143,-6.81168 22.88002,-0.18954 22.87994,-0.18955 -11.08612,-11.10351 -11.0862,-11.10351 h -8.37241 -8.37235 l -7.41075,4.04427 -7.41069,4.04428 -4.44774,0.33923 -4.44767,0.33923 -8.27447,-4.3835 -8.27441,-4.38351 h -8.43888 -8.43889 l -10.56707,10.58472 -10.56707,10.58471 v 0.52909 0.52908 l 22.40685,0.0155 22.40685,0.0155 2.86808,4.04809 2.86808,4.04809 3.04582,4.18217 3.0459,4.18217 h 1.4425 1.44257 l 1.06262,-1.25479 z" />
    <path
       style="fill:#000000;stroke-width:0.735508"
       d="m 888.21232,665.81015 -19.17872,-19.67485 -0.0396,-14.3424 -0.0396,-14.3424 -22.40295,-22.70497 -22.40294,-22.70498 0.18698,-83.94368 0.18698,-83.94369 5.93681,-0.63967 5.93681,-0.63967 16.21861,11.12066 16.21861,11.12065 h 0.51618 0.51617 l 14.62959,-9.19385 14.62958,-9.19384 h 0.331 0.33098 l 4.97122,7.79809 4.97121,7.7981 1.02801,1.028 1.028,1.028 h 3.25724 3.25725 l 0.0124,-0.55164 0.0125,-0.55163 -3.74736,-10.7532 -3.74735,-10.75321 6.94246,-16.46059 6.94247,-16.46059 12.45112,-0.20058 12.45115,-0.20058 7.08991,16.64597 7.0899,16.64597 -3.6254,10.28431 -3.6253,10.28431 v 1.07603 1.07602 l 3.4937,-0.22418 3.4935,-0.22417 5.2307,-7.95195 5.2305,-7.95196 0.7033,-0.70319 0.7031,-0.70319 14.1841,8.89098 14.18396,8.89097 0.95,0.36456 0.95,0.36456 15.3398,-10.56874 15.3399,-10.56875 0.9295,-0.56229 0.9295,-0.5623 5.8738,0.51238 5.8741,0.5124 -0.037,84.30457 -0.037,84.30457 -22.3857,22.80074 -22.3859,22.80075 -0.048,14.34241 -0.049,14.34241 -18.91926,19.30708 -18.9193,19.30709 h -29.89233 -29.89225 l -19.17873,-19.67484 z"
       id="path10048" />
    <path
       id="path10610"
       style="fill:url(#radialGradient10631);fill-opacity:1;stroke:url(#radialGradient10623);stroke-width:3.76063;stroke-linecap:round;stroke-linejoin:round;stroke-dasharray:none;paint-order:stroke fill markers"
       d="m 969.76004,660.13512 9.1468,-9.16869 -0.3697,-0.36965 -0.3696,-0.36964 -4.7428,1.44212 -4.7428,1.44214 h -31.25909 -31.25908 l -4.7808,-1.45978 -4.78081,-1.45978 -0.72489,-0.006 -0.72489,-0.006 9.54037,9.56161 9.54038,9.5616 h 23.19015 23.19016 l 9.1466,-9.1687 z m 8.1158,-18.16658 10.6649,-3.07188 0.9193,-0.69991 0.9194,-0.6999 v -10.04043 -10.04044 l -5.9393,-5.86681 -5.9391,-5.86681 0.2243,-57.18021 0.2242,-57.18022 -12.445,-6.99286 -12.445,-6.99285 h -0.91981 -0.9199 l -0.306,0.55163 -0.306,0.55164 0.5881,6.25181 0.5882,6.25181 1.86881,20.22647 1.8687,20.22647 2.9877,32.24468 2.9875,32.24467 -0.2172,4.46563 -0.2173,4.46563 -5.5204,1.53611 -5.52031,1.53612 -0.8184,0.53517 -0.8185,0.53518 -0.50959,4.50354 -0.50946,4.50356 -1.61003,-0.43176 -1.60995,-0.43176 -1.28715,-0.0101 -1.28714,-0.01 v -9.40375 -9.40374 l 4.84752,-2.3904 4.8474,-2.3904 -0.4609,-8.61621 -0.4608,-8.6162 -0.6903,-12.13589 -0.6903,-12.13587 -0.7543,-13.23915 -0.75417,-13.23914 -1.08524,-18.75546 -1.08517,-18.75545 -0.1379,-4.41305 -0.13784,-4.41305 -0.32666,-0.91939 -0.32668,-0.91938 h -8.28515 -8.28514 l -0.48281,9.00998 -0.48279,9.00997 -0.71832,12.87139 -0.71832,12.87138 -1.1034,19.49097 -1.10339,19.49096 -0.75088,13.97465 -0.75088,13.97465 -0.25958,2.6141 -0.2596,2.61409 4.87538,2.53446 4.87536,2.53447 0.20511,9.27804 0.2051,9.27805 -2.74915,0.44612 -2.74914,0.44612 -0.57061,-0.89807 -0.5706,-0.89807 -0.0846,-2.20652 -0.0846,-2.20653 -0.50443,-1.80892 -0.50443,-1.80893 -5.85796,-1.51342 -5.85794,-1.51342 -0.21103,-5.8944 -0.21101,-5.89439 2.98834,-32.70722 2.98832,-32.70721 1.42703,-15.07791 1.42704,-15.07792 0.75971,-8.09059 0.75973,-8.09058 6.1e-4,-2.02265 6.2e-4,-2.02265 h -1.07693 -1.07693 l -12.3461,6.93484 -12.34608,6.93485 -0.36776,57.40269 -0.36775,57.4027 -5.33243,5.56384 -5.33244,5.56382 v 10.58457 10.58456 l 3.86142,1.12987 3.86142,1.12985 6.98732,2.14965 6.98733,2.14964 30.52358,0.0867 30.52363,0.0867 z M 888.14382,510.5025 v -24.93884 l 9.56161,-5.34133 9.56161,-5.34132 v -2.44994 -2.44993 h -5.51632 -5.51631 v -4.64169 -4.64168 l 8.27446,-2.4742 8.27447,-2.4742 0.74832,-0.25225 0.74832,-0.25223 5.7142,7.00037 5.7142,7.00037 h 11.60647 11.60648 l 5.73011,-7.03573 5.73,-7.03572 1.1262,0.43214 1.1261,0.43215 7.9888,2.30189 7.9888,2.30191 v 4.66944 4.66943 h -5.5163 -5.5163 v 2.52038 2.52038 l 9.01,5.09413 9.0099,5.09415 0.3677,24.9317 0.3678,24.93172 1.471,0.20808 1.471,0.20807 5.3223,-5.36373 5.3223,-5.36372 0.19396,-24.58367 0.1941,-24.58367 5.7178,-2.99078 5.7179,-2.99079 -0.2016,-7.32195 -0.2015,-7.32194 -23.16846,-8.27015 -23.1685,-8.27016 -27.47187,-0.0375 -27.47185,-0.0374 -11.51008,4.09527 -11.51008,4.09525 -11.95201,4.17821 -11.952,4.1782 v 7.54598 7.54597 l 5.51631,2.72955 5.51631,2.72954 v 24.60497 24.60497 l 5.47768,5.38957 5.47768,5.38958 h 1.50965 1.50964 v -24.93884 z" />
    <path
       style="fill:url(#radialGradient15552);fill-opacity:1;stroke-width:0.755383"
       d="m 1125.1916,669.58112 -34.5575,-23.04167 v -0.63256 -0.63248 l -1.4952,-16.17222 -1.4952,-16.17229 -0.7631,-8.6869 -0.7631,-8.6869 -6.0291,-66.47368 -6.0291,-66.47368 -0.3375,-2.36549 -0.3375,-2.36548 15.9899,-5.83495 15.9899,-5.83495 14.3522,-5.24742 14.3523,-5.24742 13.2192,-4.87607 13.2192,-4.87607 20.5842,0.008 20.5842,0.008 h 9.8199 20.5969 20.5968 l 20.7604,7.61108 20.7603,7.61109 20.0685,11.36906 25.1571,5.16324 0.1432,0.17465 0.1433,0.17464 -2.4846,27.19378 -2.4846,27.19378 -2.3643,26.06071 -2.3644,26.0607 -3.7614,41.12319 -3.7614,41.12311 -0.1711,0.13212 -0.1711,0.13211 -34.1748,22.76339 -34.1748,22.76346 h -47.0301 -47.0302 l -34.5574,-23.04167 z"
       id="path14646-6"
       sodipodi:nodetypes="ccccccccccccccccccccccccccccccccccccccccccc" />
    <path
       d="m 1125.2704,669.55949 -34.5575,-23.04167 v -0.63256 -0.63248 l -1.4952,-16.17222 -1.4952,-16.17229 -0.7631,-8.6869 -0.7631,-8.6869 -6.0291,-66.47368 -6.0291,-66.47368 -0.3375,-2.36549 -0.3375,-2.36548 15.9899,-5.83495 15.9899,-5.83495 14.3522,-5.24742 14.3523,-5.24742 13.2192,-4.87607 13.2192,-4.87607 20.5842,0.008 20.5842,0.008 v 19.63995 19.63995 h -9.1002 -9.1002 l -31.8793,10.63126 -31.8794,10.63125 -0.5006,0.51064 -0.5005,0.51064 9.754,48.68676 9.754,48.68684 v 1.35727 1.35734 h 0.6746 0.6745 l 20.4762,-37.71716 20.4761,-37.71717 v -0.42966 -0.42966 h -7.2138 -7.2138 l 0.2265,-4.33023 0.2266,-4.33024 14.9307,-2.17429 14.9307,-2.17429 4.1641,2.91645 4.164,2.91646 1.0438,0.70863 1.0437,0.70862 4.0337,-3.02251 4.0338,-3.02259 0.9848,-0.58845 0.9849,-0.58844 15.067,2.1462 15.067,2.14619 v 4.34428 4.34421 h -7.1761 -7.1762 v 0.62538 0.6253 l 8.0522,14.6712 8.0522,14.67112 11.9395,21.9061 11.9395,21.9061 0.6927,1.13307 0.6928,1.13308 0.3182,-0.3777 0.3183,-0.37769 9.9753,-50.1627 9.9752,-50.16278 -0.1961,-0.11489 -0.1961,-0.11497 -32.2061,-10.71949 -32.2061,-10.71948 h -9.1511 -9.1511 v -19.63995 -19.63995 h 20.5969 20.5968 l 20.7604,7.61108 20.7603,7.61109 22.6128,8.26615 22.6128,8.26615 0.1432,0.17465 0.1433,0.17464 -2.4846,27.19378 -2.4846,27.19378 -2.3643,26.06071 -2.3644,26.0607 -3.7614,41.12319 -3.7614,41.12311 -0.1711,0.13212 -0.1711,0.13211 -34.1748,22.76339 -34.1748,22.76346 h -47.0301 -47.0302 l -34.5574,-23.04167 z m 115.5124,-37.01127 12.31,-15.10765 0.014,-0.56654 0.014,-0.56653 h -46.519 -46.519 l 0.2518,0.70243 0.2518,0.7025 7.1761,8.84176 7.1761,8.84183 5.161,6.33026 5.1609,6.33025 21.6065,-0.20032 21.6064,-0.20033 12.31,-15.10766 z m 26.0972,-28.86498 3.614,-3.55967 v -0.54501 -0.54493 l -6.5116,-10.37715 -6.5117,-10.37707 -18.8843,-32.54083 -18.8843,-32.54083 -0.7875,-0.98064 -0.7874,-0.98056 -3.4654,0.22518 -3.4654,0.22525 0.017,4.90999 0.017,4.90999 0.6339,34.18107 0.6339,34.18107 h -5.8105 -5.8106 l 0.4472,-28.13801 0.4472,-28.13801 0.4246,-11.14189 0.4246,-11.1419 h -4.0532 -4.0531 l -5.203,8.87575 -5.203,8.87575 -19.7644,33.61453 -19.7644,33.61453 -0.9469,1.78769 -0.9469,1.78769 3.6334,3.68884 3.6334,3.68883 h 56.6562 56.6561 l 3.6141,-3.55966 z m -87.2208,-20.95583 -5.0988,-7.09063 v -1.94843 -1.94844 h 4.9041 4.9042 l 4.5439,9.0646 4.544,9.06459 -4.3493,-0.0257 -4.3493,-0.0257 -5.0988,-7.0907 z m 44.7564,-1.9229 4.544,-9.0646 h 4.9041 4.9042 l -0.013,2.07731 -0.013,2.0773 -5.0862,6.96969 -5.0862,6.96976 -4.3493,0.0174 -4.3492,0.0174 4.5439,-9.06459 z M 1079.3821,428.59488 V 414.6203 h 2.2839 2.2839 l 10.5833,9.20902 10.5834,9.20903 -1.1755,0.65786 -1.1755,0.65786 -11.4969,4.1077 -11.4968,4.10769 h -0.1949 -0.1949 z m 241.4974,9.47182 -11.9337,-4.38273 -0.3261,-0.32617 -0.3262,-0.32618 10.6278,-9.20562 10.6278,-9.2057 h 2.1985 2.1985 v 13.97458 13.97458 l -0.5665,-0.0604 -0.5665,-0.0597 -11.9336,-4.38273 z m -222.4629,-28.15787 -19.0345,-19.06382 v -6.03491 -6.03498 l 5.4577,-5.49427 5.4576,-5.49428 h 35.2458 35.2459 l 22.7859,11.33074 22.7859,11.33074 h 0.2884 0.2882 l 22.9942,-11.33074 22.9943,-11.33074 h 35.0157 35.0159 l 5.4943,5.45764 5.4942,5.45757 v 6.44537 6.44531 l -18.8275,18.8162 -18.8275,18.81621 -13.0874,-4.71903 -13.0874,-4.7191 -8.1167,-2.96095 -8.1168,-2.96087 h -47.4039 -47.4039 l -20.7083,7.55194 -20.7085,7.55201 h -0.1035 -0.1036 l -19.0345,-19.06374 z"
       style="fill:#000000;stroke:#2abaff;stroke-width:6.04724;stroke-linecap:round;stroke-dasharray:none;stroke-opacity:0.984162;paint-order:stroke fill markers"
       id="path14646" />
    <path
       style="fill:#000000;stroke-width:0.803446"
       d="m 1473.5118,693.22297 -61.3414,-24.48854 -0.278,-0.21749 -0.2779,-0.21758 -1.5021,-13.11279 -1.502,-13.11279 -4.8678,-44.18951 -4.8677,-44.1895 -2.3634,-20.88958 -2.3635,-20.88959 -3.6503,-33.12413 -3.6504,-33.12421 12.2186,-24.4527 12.2185,-24.45279 48.6498,-12.1415 48.6496,-12.14151 0.9167,0.0193 0.9166,0.0193 12.1603,12.22226 12.1603,12.22225 12.6714,-12.6529 12.6714,-12.65282 0.3637,0.35946 0.3636,0.35954 41.3774,10.51421 41.3775,10.51421 6.6965,1.80944 6.6966,1.80944 12.787,23.60547 12.787,23.60547 v 2.17131 2.17132 l -12.0499,108.80034 -12.0499,108.80034 -0.2027,1.11583 -0.2026,1.11582 -61.5858,24.65132 -61.5857,24.65139 -61.3414,-24.48853 z"
       id="path18213" />
    <path
       style="fill:#ffffff;stroke-width:0.803446;fill-opacity:0.24920316"
       d="m 1545.153,633.63101 9.629,-4.82686 v -22.36294 -22.36294 l -5.1529,-4.94802 -5.1529,-4.94802 h -9.7804 -9.7804 l -5.1528,4.94802 -5.1529,4.94802 v 22.36262 22.36254 l 9.4405,4.78556 9.4405,4.78556 1.0166,0.0418 1.0166,0.0418 9.6291,-4.82686 z"
       id="path18788" />
    <path
       id="path18773"
       style="fill:#686868;stroke-width:0.803446;fill-opacity:1"
       d="m 1529.9957,654.17865 -0.04,-6.07943 -0.04,-0.62396 -0.04,-0.62403 -12.0516,-5.98302 -12.0517,-5.98302 v -25.30211 -25.3021 l -7.3458,-11.07518 -7.3457,-11.07525 h -0.6887 -0.6887 v 39.36561 39.3657 l 19.8852,9.96064 19.8853,9.96071 0.2812,-0.26264 0.2812,-0.26257 z m 49.6931,-52.68233 v -39.36577 l -0.6026,0.009 -0.6026,0.009 -7.0301,10.74102 -7.0302,10.74111 -0.055,25.60597 -0.055,25.60597 -12.1973,6.08537 -12.1974,6.08538 -0.2324,6.98949 -0.2324,6.9895 20.1177,-10.06509 20.1176,-10.065 v -39.3657 z m -63.4722,-31.73304 4.364,-4.41895 h 5.5146 5.5145 l -0.55,-2.50418 -0.55,-2.50418 -1.7948,-5.32941 -1.7948,-5.32942 -5.3915,-0.23846 -5.3913,-0.23846 -0.3076,-0.96671 -0.3075,-0.96671 -0.313,-13.45771 -0.3129,-13.45771 h 3.3025 3.3026 l 2.3791,9.84221 2.3791,9.8422 8.5989,0.22762 8.5989,0.2277 0.8057,-3.03976 0.8057,-3.03967 0.8753,-4.01723 0.8752,-4.01723 0.7985,-3.01292 0.7985,-3.01292 h 3.1828 3.1829 v 5.42326 l -0.01,5.42325 -0.5208,9.03877 -0.5208,9.03876 h -4.5785 -4.5784 l -3.0053,7.03015 -3.0053,7.03014 -0.4139,1.00431 -0.414,1.00431 h 5.8877 5.8876 l 4.6356,4.58719 4.6356,4.58719 0.7381,-0.77082 0.738,-0.77083 9.7091,-14.86374 9.709,-14.86374 0.01,-10.43443 0.01,-10.43435 -11.0366,-11.05782 -11.0366,-11.05774 h -22.9461 -22.946 l -11.0103,11.11173 -11.0103,11.11174 v 10.14269 10.14262 l 10.2439,15.65682 10.2439,15.65682 0.831,0.0474 0.8308,0.0474 4.3641,-4.41895 z m -20.9106,-66.66493 12.413,-12.43243 11.2789,-0.22184 11.279,-0.22191 0.6885,-8.23531 0.6887,-8.23532 h 3.0523 3.0524 l 0.4595,3.81637 0.4594,3.81636 0.512,4.61981 0.512,4.61982 h 10.9644 10.9646 l 12.434,12.4534 12.4339,12.45341 10.0528,-0.0209 10.0528,-0.0209 9.0388,-13.63391 9.0387,-13.63399 v -5.22593 -5.22585 h -7.486 -7.4859 l -3.9632,5.82498 -3.9631,5.82498 -6.8293,0.22119 -6.8293,0.22119 -8.637,-8.13103 -8.637,-8.13103 v -2.73582 -2.73581 h 26.9154 26.9154 v -2.74609 -2.7461 l -6.4756,-2.15653 -6.4757,-2.15661 -2.5631,-3.92081 -2.5631,-3.92082 -22.6911,-0.0145 -22.691,-0.0145 -13.0783,6.52486 -13.0782,6.52486 -13.0306,-6.52486 -13.0306,-6.52486 h -22.9014 -22.9015 l -2.6173,4.00711 -2.6174,4.00702 -5.6241,1.75014 -5.6242,1.75015 -1.0043,0.76874 -1.0043,0.76873 v 2.31192 2.31199 h 26.9154 26.9155 l -0.023,3.01292 -0.023,3.01292 -8.4726,7.8336 -8.4726,7.83359 h -6.6701 -6.67 l -4.1657,-6.02584 -4.1657,-6.02584 h -7.5847 -7.5846 v 4.88406 4.88399 l 9.2475,13.99698 9.2476,13.99691 h 9.844 9.844 l 12.413,-12.43236 z" />
  </g>
</svg>
