<svg version="1.1" viewBox="0 0 340.29 339.14" xmlns="http://www.w3.org/2000/svg" xmlns:xlink="http://www.w3.org/1999/xlink">
  <defs>
    <radialGradient id="b" cx="4352.2" cy="1924.9" r="1114.3" gradientTransform="matrix(.12438 0 0 .12438 2947.8 3269.7)" gradientUnits="userSpaceOnUse">
      <stop stop-color="#217c85" offset="0"/>
      <stop stop-color="#3a1789" offset="1"/>
    </radialGradient>
    <radialGradient id="a" cx="1842.4" cy="1836.1" r="1367.9" gradientTransform="matrix(.068954 .0037424 -.0036463 .067184 3368.8 3378.9)" gradientUnits="userSpaceOnUse">
      <stop stop-color="#02f77f" stop-opacity=".21682" offset="0"/>
      <stop stop-color="#05ed80" offset="1"/>
    </radialGradient>
  </defs>
  <title>xSEED</title>
  <g transform="translate(-3319 -3339.5)">
    <g class="container">
      <circle cx="3489.2" cy="3509.1" r="138.6" fill="url(#b)" fill-rule="evenodd" stroke-width=".12438"/>
      <path d="m3643 3339.5c-39.418.18-147.69 33.846-152.57 165.7-21.79-175.5-171.38-161.96-171.38-161.96.4381 132.74 122.73 167.55 164.86 165.67-56.871 13.145-142.16 14.486-161.48 168 49.656 10.915 161.02-28.392 167.44-162.02 4.1098 122.02 102.4 157.93 167.92 160.83 14.941-92.768-80.557-163.61-162.3-166.29 72.703-17.252 137.63-25.608 159.17-168.39-2.4031-1.0049-6.4223-1.5712-11.655-1.5473zm-18.934 24.01c-12.429 16.346-25.069 30.018-38.205 44.74-18.805 21.075-38.882 42.954-62.982 66.455 7.5563-9.3407 10.286-14.139 14.971-20.26 29.11-38.036 16.398-26.976 86.217-90.935zm-282.32 9.2299c16.28 12.515 29.886 25.226 44.539 38.44 20.975 18.915 42.748 39.107 66.122 63.331-9.3008-7.6052-14.085-10.36-20.181-15.077-37.882-29.31-26.89-16.54-90.48-86.694zm182.41 170.8c9.3219 7.5794 14.114 10.321 20.223 15.021 37.963 29.205 26.935 16.465 90.72 86.443-16.315-12.469-29.955-25.143-44.645-38.317-21.028-18.857-42.857-38.988-66.298-63.147zm-69.489.5748c-7.5695 9.33-10.306 14.125-14.999 20.239-29.164 37.994-16.437 26.953-86.346 90.812 12.452-16.328 25.112-29.982 38.269-44.686 18.835-21.048 38.943-42.898 63.076-66.365z" fill="url(#a)"/>
    </g>
  </g>
</svg>
