<?xml version="1.0" encoding="utf-8"?>
<!-- Generator: Adobe Illustrator 26.3.1, SVG Export Plug-In . SVG Version: 6.00 Build 0)  -->
<svg version="1.1" id="Layer_1" xmlns="http://www.w3.org/2000/svg" xmlns:xlink="http://www.w3.org/1999/xlink" x="0px" y="0px"
	 viewBox="0 0 500 500" style="enable-background:new 0 0 500 500;" xml:space="preserve">
<style type="text/css">
	.st0{fill:none;stroke:url(#SVGID_1_);stroke-width:10.41;stroke-miterlimit:10;}
	.st1{fill:none;stroke:url(#SVGID_00000114072849399438139420000018125220313910581656_);stroke-width:10.41;stroke-miterlimit:10;}
	.st2{fill:url(#SVGID_00000129905782971180096340000012253334066296145558_);}
	.st3{fill:none;stroke:url(#SVGID_00000005963714924990530600000004478530967971513473_);stroke-width:10.41;stroke-miterlimit:10;}
	.st4{fill:none;stroke:#5946BC;stroke-width:10.41;stroke-miterlimit:10;}
	.st5{fill:url(#SVGID_00000096743335847027609360000000085946160619387322_);}
	.st6{fill:url(#SVGID_00000033336379687552938410000018183011203293262763_);}
	.st7{fill:#A5B9F6;}
</style>
<g>
	
		<linearGradient id="SVGID_1_" gradientUnits="userSpaceOnUse" x1="304.5452" y1="331.1325" x2="338.3752" y2="352.6325" gradientTransform="matrix(1 0 0 1 0 -56.48)">
		<stop  offset="0" style="stop-color:#CB3CB8"/>
		<stop  offset="1" style="stop-color:#8780EF"/>
	</linearGradient>
	<path class="st0" d="M303.6,275.6l43.6,24.5"/>
	
		<linearGradient id="SVGID_00000178183860943460966900000006690665991630274178_" gradientUnits="userSpaceOnUse" x1="191.1285" y1="333.762" x2="156.2885" y2="354.982" gradientTransform="matrix(1 0 0 1 0 -56.48)">
		<stop  offset="0" style="stop-color:#D03CB8"/>
		<stop  offset="1" style="stop-color:#887DEE"/>
	</linearGradient>
	
		<path style="fill:none;stroke:url(#SVGID_00000178183860943460966900000006690665991630274178_);stroke-width:10.41;stroke-miterlimit:10;" d="
		M152.8,300.1l39.9-23.3"/>
	
		<radialGradient id="SVGID_00000014630863926658657380000009001584823579981699_" cx="-53.4132" cy="28.3127" r="1.18" gradientTransform="matrix(8.982173e-15 146.69 -148.88 9.116272e-15 4463.5542 8080.4604)" gradientUnits="userSpaceOnUse">
		<stop  offset="0" style="stop-color:#FF8EDF"/>
		<stop  offset="0.18" style="stop-color:#FFFFFF"/>
		<stop  offset="0.31" style="stop-color:#5A32E6;stop-opacity:0"/>
		<stop  offset="0.49" style="stop-color:#AB41FF;stop-opacity:0"/>
		<stop  offset="0.55" style="stop-color:#9839E7;stop-opacity:0"/>
	</radialGradient>
	<path style="fill:url(#SVGID_00000014630863926658657380000009001584823579981699_);" d="M250,306.3c-34.4,0-62.3-27.5-62.3-61.4
		s27.9-61.4,62.3-61.4s62.3,27.5,62.3,61.4S284.4,306.3,250,306.3L250,306.3z"/>
	
		<linearGradient id="SVGID_00000173869669807526492140000015850857529188413628_" gradientUnits="userSpaceOnUse" x1="249.985" y1="240.8727" x2="249.985" y2="361.9128" gradientTransform="matrix(1 0 0 1 0 -56.48)">
		<stop  offset="0" style="stop-color:#5946BC"/>
		<stop  offset="1" style="stop-color:#E839B7"/>
	</linearGradient>
	
		<path style="fill:none;stroke:url(#SVGID_00000173869669807526492140000015850857529188413628_);stroke-width:10.41;stroke-miterlimit:10;" d="
		M250,306.3c-34.4,0-62.3-27.5-62.3-61.4s27.9-61.4,62.3-61.4s62.3,27.5,62.3,61.4S284.4,306.3,250,306.3L250,306.3z"/>
	<path class="st4" d="M250,187.2V27.8"/>
	
		<linearGradient id="SVGID_00000138563293853498413840000012493140423638025879_" gradientUnits="userSpaceOnUse" x1="236.3943" y1="401.7237" x2="2.7643" y2="227.8136" gradientTransform="matrix(1 0 0 1 0 -56.48)">
		<stop  offset="0" style="stop-color:#79F8FB"/>
		<stop  offset="0.52" style="stop-color:#9032E6"/>
		<stop  offset="1" style="stop-color:#E839B7"/>
	</linearGradient>
	<path style="fill:url(#SVGID_00000138563293853498413840000012493140423638025879_);" d="M89.3,167.6l148.2,252.8V252.3L89.3,167.6
		z M55.7,134.5L250,244.9v220.9L55.7,134.5z"/>
	
		<linearGradient id="SVGID_00000000913687361806465160000010951901147959275452_" gradientUnits="userSpaceOnUse" x1="271.1396" y1="502.6311" x2="374.6696" y2="153.3311" gradientTransform="matrix(1 0 0 1 0 -56.48)">
		<stop  offset="0" style="stop-color:#79F8FB"/>
		<stop  offset="0.76" style="stop-color:#9032E6"/>
		<stop  offset="1" style="stop-color:#E839B7"/>
	</linearGradient>
	<path style="fill:url(#SVGID_00000000913687361806465160000010951901147959275452_);" d="M410.7,167.6l-148.2,84.7v168.1
		L410.7,167.6L410.7,167.6z M444.3,134.5L250,465.8V244.9L444.3,134.5L444.3,134.5z"/>
	<path class="st7" d="M250,37.5L80.6,134.5L250,231.4l169.4-96.9L250,37.5z M250,24l194.3,110.4L250,244.9L55.7,134.5L250,24z"/>
</g>
</svg>
