<?xml version="1.0" encoding="UTF-8" standalone="no"?>
<!-- Svg Vector Icons : http://www.onlinewebfonts.com/icon -->

<svg
   version="1.1"
   x="0px"
   y="0px"
   viewBox="0 0 985.24304 905.72028"
   enable-background="new 0 0 1000 1000"
   xml:space="preserve"
   id="svg30"
   sodipodi:docname="Seasoning #8.svg"
   width="985.24304"
   height="905.72028"
   inkscape:version="1.2.1 (9c6d41e410, 2022-07-14)"
   inkscape:export-filename="../../../../Documents/Seasoning #8.png"
   inkscape:export-xdpi="31.797962"
   inkscape:export-ydpi="31.797962"
   xmlns:inkscape="http://www.inkscape.org/namespaces/inkscape"
   xmlns:sodipodi="http://sodipodi.sourceforge.net/DTD/sodipodi-0.dtd"
   xmlns="http://www.w3.org/2000/svg"
   xmlns:svg="http://www.w3.org/2000/svg"><defs
   id="defs34" /><sodipodi:namedview
   id="namedview32"
   pagecolor="#505050"
   bordercolor="#ffffff"
   borderopacity="1"
   inkscape:showpageshadow="0"
   inkscape:pageopacity="0"
   inkscape:pagecheckerboard="1"
   inkscape:deskcolor="#505050"
   showgrid="false"
   inkscape:zoom="0.6675088"
   inkscape:cx="-56.179035"
   inkscape:cy="489.88118"
   inkscape:window-width="3440"
   inkscape:window-height="1328"
   inkscape:window-x="0"
   inkscape:window-y="34"
   inkscape:window-maximized="1"
   inkscape:current-layer="g1227" />
<metadata
   id="metadata2"> Svg Vector Icons : http://www.onlinewebfonts.com/icon </metadata>
<g
   id="g442"
   transform="translate(-16.740262,168.88981)"><g
     id="g426"><g
       id="g28"><g
         transform="matrix(0.1,0,0,-0.1,0,511)"
         id="g26"><g
           id="g1195"
           transform="rotate(127.60823,4637.1033,1208.25)"><g
             id="g1063"
             transform="rotate(-135.62166,4999.695,117.44097)" /><g
             id="g1227"><path
               d="M 6333.2,4978.3 C 6277.8,4958.5 6196.8,4915 6151.3,4883.4 6050.5,4810.3 2581.6,785.9 2528.2,679.2 2425.4,479.6 2409.6,240.4 2486.7,36.8 l 37.6,-98.8 -120.6,-120.6 -120.6,-120.6 -89,45.5 c -128.5,63.3 -369.6,61.3 -494.1,-4 -106.7,-57.3 -474.4,-411.1 -553.4,-535.7 -264.9,-419 -75.1,-1101 492.2,-1753.2 77.1,-88.9 215.4,-227.3 304.4,-304.4 656.2,-569.3 1355.9,-761 1767.1,-480.3 136.4,92.9 464.5,434.9 521.8,543.6 65.2,122.6 67.2,363.7 4,492.2 l -45.5,88.9 120.6,120.6 120.6,120.6 98.8,-37.6 c 203.6,-77.1 442.7,-61.3 642.4,41.5 118.6,61.3 4137,3530.2 4212.1,3634.9 89,124.5 130.5,276.7 118.6,428.9 -19.8,245.1 11.9,207.5 -1336.2,1557.5 C 7163.4,4662 6908.4,4907.1 6823.4,4948.6 c -140.3,69.2 -345.9,81.1 -490.2,29.7 z"
               id="path4"
               style="fill:#231600;fill-opacity:1"
               transform="rotate(-135.62166,4999.6951,117.44097)" /><path
               d="m 6369.3212,4818.4166 c -51.6658,-18.4654 -127.2061,-59.0333 -169.6392,-88.5033 C 6105.6763,4661.7405 2870.5944,908.6013 2820.7938,809.09333 2724.9229,622.94718 2710.1879,399.87024 2782.091,209.99366 l 35.0656,-92.14049 1778.9267,-1778.83317 92.1404,-35.0656 c 189.8766,-71.9031 412.8603,-57.1682 599.0997,38.7028 110.6059,57.168 3858.1493,3292.2501 3928.1873,3389.8929 83.001,116.1082 121.7037,258.0492 110.6058,399.9903 -18.4653,228.5793 11.0979,193.5136 -1246.1346,1452.5181 -936.4196,938.3781 -1174.2315,1166.9573 -1253.5022,1205.66 -130.8432,64.5356 -322.585,75.6336 -457.1585,27.6981 z"
               id="path4-4"
               style="fill:#2c8eb7;fill-opacity:1;stroke-width:0.932596"
               sodipodi:nodetypes="ccccccccccccc"
               transform="rotate(-135.62166,4999.6951,117.44097)" /><path
               d="m 2061.8,-542.3 c 61.3,-31.6 1848.1,-1814.5 1883.7,-1879.7 35.6,-67.2 35.6,-160.1 0,-229.3 -15.8,-29.6 -120.6,-144.3 -233.2,-253 -233.2,-229.3 -290.6,-257 -511.9,-239.2 -385.4,31.6 -851.9,304.4 -1261.1,737.3 -436.8,462.5 -668.1,1000.1 -573.2,1342.1 15.8,59.3 71.2,130.4 213.5,274.7 104.8,106.7 217.4,211.5 249.1,231.3 67.1,41.5 167.9,49.4 233.1,15.8 z"
               id="path446"
               style="fill:#662373;fill-opacity:1"
               transform="rotate(-135.62166,4999.6951,117.44097)" /><path
               d="m 1692.2,-1639.3 c -17.8,-15.8 -31.6,-47.4 -31.6,-69.2 0,-87 102.8,-217.4 193.7,-245.1 148.2,-45.5 130.5,213.5 -21.7,306.4 -77.2,47.4 -100.9,49.4 -140.4,7.9 z"
               id="path6"
               style="fill:#420000;fill-opacity:1"
               transform="rotate(-135.62166,4999.6951,117.44097)" /><path
               d="m 2065.7,-2153.3 c -61.3,-63.2 15.8,-215.4 138.4,-272.8 195.7,-92.9 221.4,130.5 29.6,258.9 -77,53.5 -124.5,57.4 -168,13.9 z"
               id="path8"
               style="fill:#34004a;fill-opacity:1"
               transform="rotate(-135.62166,4999.6951,117.44097)" /><path
               d="m 2554,-2560.4 c -39.5,-39.5 -27.7,-89 35.6,-162.1 104.8,-118.6 262.9,-140.3 288.6,-39.5 31.6,128.4 -231.3,294.5 -324.2,201.6 z"
               id="path10"
               style="fill:#00064a;fill-opacity:1"
               transform="rotate(-135.62166,4999.6951,117.44097)" /><path
               d="m 1117,-2744.2 c -31.6,-29.6 -49.4,-71.1 -49.4,-108.7 0,-37.6 17.8,-79.1 49.4,-108.7 29.6,-31.6 71.2,-49.4 108.7,-49.4 37.6,0 79.1,17.8 108.7,49.4 31.6,29.6 49.4,71.1 49.4,108.7 0,37.6 -17.8,79.1 -49.4,108.7 -29.6,31.6 -71.2,49.4 -108.7,49.4 -37.6,0 -79.1,-17.8 -108.7,-49.4 z"
               id="path12"
               style="fill:#e15118;fill-opacity:1;stroke:#514339;stroke-width:107;stroke-dasharray:none;stroke-opacity:0.633549"
               transform="rotate(-135.62166,4999.6951,117.44097)" /><path
               d="m 1077.5,-3396.5 c -81,-79.1 -59.3,-189.7 45.5,-245.1 92.9,-49.4 221.4,33.6 221.4,140.3 0,77.1 -79.1,154.2 -158.1,154.2 -37.7,0 -79.2,-17.8 -108.8,-49.4 z"
               id="path14"
               style="fill:#18bee1;fill-opacity:1;stroke:#39513a;stroke-width:96;stroke-dasharray:none;stroke-opacity:0.832147"
               transform="rotate(-135.62166,4999.6951,117.44097)" /><path
               d="m 1840.4,-3418.2 c -23.7,-29.6 -41.5,-73.1 -41.5,-96.9 0,-23.7 17.8,-67.2 41.5,-96.9 31.6,-39.5 57.3,-51.4 116.6,-51.4 59.3,0 85,11.9 116.6,51.4 23.7,29.7 41.5,73.1 41.5,96.9 0,23.7 -17.8,67.2 -41.5,96.9 -57.3,73.1 -175.9,73.1 -233.2,0 z"
               id="path16"
               style="fill:#f2431a;fill-opacity:0.791612;stroke:#51394c;stroke-width:117;stroke-dasharray:none;stroke-opacity:0.832147"
               transform="rotate(-135.62166,4999.6951,117.44097)" /><path
               d="m 543.8,-3930.2 c -31.6,-29.7 -49.4,-71.2 -49.4,-108.7 0,-37.5 17.8,-79.1 49.4,-108.7 29.6,-31.6 71.2,-49.4 108.7,-49.4 37.5,0 79.1,17.8 108.7,49.4 31.6,29.7 49.4,71.2 49.4,108.7 0,37.5 -17.8,79.1 -49.4,108.7 -29.6,31.6 -71.2,49.4 -108.7,49.4 -37.5,0 -79.1,-17.8 -108.7,-49.4 z"
               id="path18"
               style="fill:#e5f21a;fill-opacity:1;stroke:#51394c;stroke-width:141;stroke-dasharray:none;stroke-opacity:0.832147"
               transform="rotate(-135.62166,4999.6951,117.44097)" /><path
               d="m 1354.2,-3930.2 c -31.6,-29.7 -49.4,-71.2 -49.4,-108.7 0,-37.5 17.8,-79.1 49.4,-108.7 96.9,-98.8 266.8,-29.6 266.8,108.7 0,81 -77.1,158.1 -158.1,158.1 -37.6,0 -79.1,-17.8 -108.7,-49.4 z"
               id="path20"
               style="fill:#1af2a4;fill-opacity:0.791612;stroke:#514239;stroke-width:114;stroke-dasharray:none;stroke-opacity:0.832147"
               transform="rotate(-135.62166,4999.6951,117.44097)" /><path
               d="m 2006.4,-4088.3 c -98.8,-96.9 -29.6,-266.8 108.7,-266.8 81,0 158.1,77.1 158.1,158.1 0,81 -77.1,158.1 -158.1,158.1 -37.5,0 -79,-17.8 -108.7,-49.4 z"
               id="path22"
               style="fill:#1af27e;fill-opacity:0.791612;stroke:#51393e;stroke-width:160;stroke-dasharray:none;stroke-opacity:0.832147"
               transform="rotate(-135.62166,4999.6951,117.44097)" /><path
               d="m 1235.6,-4523.2 c -98.8,-96.9 -29.7,-266.8 108.7,-266.8 81,0 158.1,77.1 158.1,158.1 0,81 -77.1,158.1 -158.1,158.1 -37.6,0.1 -79.1,-17.7 -108.7,-49.4 z"
               id="path24"
               style="fill:#95f21a;fill-opacity:0.791612;stroke:#3b3951;stroke-width:136;stroke-dasharray:none;stroke-opacity:0.832147"
               transform="rotate(-135.62166,4999.6951,117.44097)" /><text
               xml:space="preserve"
               style="font-size:5290.05px;line-height:1.25;font-family:sans-serif;letter-spacing:-511.646px;fill:#001255;fill-opacity:1;stroke:#ffffff;stroke-width:142.575;stroke-dasharray:none;stroke-opacity:0.520802"
               x="5398.1641"
               y="4242.6597"
               id="text1119"
               transform="scale(0.9791449,-1.0212993)"><tspan
                 sodipodi:role="line"
                 id="tspan1117"
                 style="font-weight:bold;font-size:6428.87px;text-align:center;text-anchor:middle;fill:#001255;fill-opacity:1;stroke:#ffffff;stroke-width:142.575;stroke-dasharray:none;stroke-opacity:0.520802"
                 x="5142.3413"
                 y="4242.6597">8</tspan></text><text
               xml:space="preserve"
               style="font-size:2786.64px;line-height:1.25;font-family:sans-serif;fill:#b10000;fill-opacity:1;stroke:#000000;stroke-width:29.0313;stroke-dasharray:none;stroke-opacity:1"
               x="-5612.6377"
               y="2744.5562"
               id="text1175"
               transform="scale(-0.9791449,-1.0212993)"><tspan
                 sodipodi:role="line"
                 id="tspan1173"
                 style="fill:#b10000;fill-opacity:1;stroke:#000000;stroke-width:29.0313;stroke-dasharray:none;stroke-opacity:1"
                 x="-5612.6377"
                 y="2744.5562">#</tspan></text></g></g></g></g></g></g>
</svg>
