<svg version="1.1" viewBox="0 0 309.07 354.65" xmlns="http://www.w3.org/2000/svg">
  <defs>
    <linearGradient id="b" x1="264.28" x2="264.47" y1="143.61" y2="40.78" gradientTransform="translate(-22.429 -11.636)" gradientUnits="userSpaceOnUse">
      <stop stop-color="#1A9684" offset="0"/>
      <stop stop-color="#05E97F" offset="1"/>
    </linearGradient>
    <linearGradient id="a" x1="176.91" x2="175.09" y1="310.38" y2="103.85" gradientTransform="translate(-22.429 -11.636)" gradientUnits="userSpaceOnUse">
      <stop stop-color="#391E8A" offset="0"/>
      <stop stop-color="#13B382" offset="1"/>
    </linearGradient>
  </defs>
  <path d="m235.48 20.352c13.142-8.6983 26.462-14.249 41.797-17.793 1.833-0.4237 3.618-1.4565 5.482-1.641 8.515-0.8425 17.198-0.1125 25.739-0.3087 0.011 5.0344 0.301 10.869-0.355 15.82-0.326 2.4618-1.129 4.7746-1.633 7.1914-0.444 2.3577-0.94 4.6764-1.546 6.998-0.082 2.679-1.537 6.7473-2.297 9.3747-5.038 17.41-13.191 33.959-24.87 47.887-19.368 23.097-46.56 36.487-75.875 41.956-7.517 1.402-15.049 2.16-22.658 2.829 0.253-7.375 1.189-14.873 2.435-22.148 4.519-26.39 14.949-51.498 32.84-71.646 3.67-4.1332 7.724-8.5293 12.254-11.732 1.083-1.7898 6.703-5.3661 8.687-6.7876zm49.75-1.4611c-4.951 3.5213-8.866 8.5063-13.855 11.953-2.752 2.9389-5.973 5.6074-8.933 8.3469-4.997 4.6251-9.906 9.3149-14.673 14.178-10.929 11.148-20.397 23.405-30.007 35.679-3.958 5.054-9.96 11.816-12.793 17.298 5.252-4.596 10.152-9.77 15.085-14.717 7.351-7.3716 14.743-14.81 21.709-22.548 11.393-12.655 22.186-25.862 33.51-38.582 3.225-3.8752 7.021-7.5396 9.957-11.607z" fill="url(#b)" style="fill:url(#b);stroke-opacity:.35395;stroke:#000"/>
  <path d="m156.66 232.64-0.036-15.006 0.017-59.317c-14.858-0.315-29.69-1.693-44.232-4.82-28.887-6.211-55.612-19.339-76.415-40.547-5.4335-5.539-10.582-11.581-14.802-18.105-7.8081-10.044-14.091-25.602-18.175-37.658-0.7128-2.1044-1.8415-3.942-2.1161-6.3782-0.036095-1.3099-0.098095-2.2898-0.2873-3.3334 2.4287 0.36267 5.2303-0.48479 7.8543-0.5946 6.5692-0.2751 13.232-0.2482 19.774 0.4259 39.231 4.0418 79.846 20.458 110.89 44.877 12.674 10.19 24.647 21.78 32.527 36.179 1.203 2.199 2.872 4.979 3.143 7.477 0.381 3.515 0.211 7.155 0.21 10.691l-8e-3 16.973 2e-3 47.843c1e-3 8.485-0.265 17.066 0.081 25.542l-0.083 2.897c33.297 3.909 62.378 14.982 89.323 35.106 6.971 5.207 14.076 10.779 19.506 17.644 1.267 1.601 2.424 3.283 3.401 5.077 2.75 3.934 5.269 11.033 4.435 15.873-0.806 4.682-3.636 8.224-7.466 10.869-16.827 11.619-39.302 18.213-59.123 23.236-38.211 9.6843-76.74 8.9725-114.6 2.028-7.7839-1.4277-15.448-3.325-23.022-5.628-12.507-3.803-27.685-9.622-38.57-16.826-3.2181-2.13-5.9478-4.823-6.7036-8.733-1.2729-6.586 3.1221-14.577 6.7568-19.871 0.0268-0.076 0.0474-0.154 0.0805-0.228 1.5557-3.447 4.4784-6.863 6.7754-9.884 17.497-23.01 46.516-39.367 74.513-45.437 5.926-1.285 11.947-2.277 17.981-2.884 1.568-0.158 6.964-0.189 8.1882-0.8089 0.55415-2.0759 0.18685-4.6171 0.18285-6.6781zm-123.73-165.68c3.3847 3.2026 7.7181 5.8869 11.492 8.6398l24.429 17.587c6.6488 4.619 13.254 9.364 20.132 13.637 10.455 6.495 21.401 12.285 32.272 18.049 7.572 4.016 15.129 8.152 22.771 12.025-3.685-3.871-9.788-7.443-14.249-10.548-11.042-7.684-22.148-15.309-33.414-22.661-4.813-3.14-10.114-5.855-14.755-9.19-3.01-1.194-7.9199-4.604-10.938-6.3651l-24.817-14.25c-4.1919-2.3542-8.4858-5.0758-12.924-6.9237z" fill="url(#a)" style="fill:url(#a);stroke-opacity:.35395;stroke:#000"/>
</svg>
