<?xml version="1.0" encoding="UTF-8" standalone="no"?>
<svg
   viewBox="0 0 309.06808 354.65402"
   version="1.1"
   id="svg7"
   sodipodi:docname="SEED.svg"
   inkscape:version="1.3.2 (091e20ef0f, 2023-11-25)"
   xmlns:inkscape="http://www.inkscape.org/namespaces/inkscape"
   xmlns:sodipodi="http://sodipodi.sourceforge.net/DTD/sodipodi-0.dtd"
   xmlns="http://www.w3.org/2000/svg"
   xmlns:svg="http://www.w3.org/2000/svg">
  <defs
     id="defs2">
    <linearGradient
       id="gradient_0"
       gradientUnits="userSpaceOnUse"
       x1="264.28333"
       y1="143.60994"
       x2="264.46555"
       y2="40.780067"
       gradientTransform="translate(-22.429406,-11.635655)">
      <stop
         offset="0"
         stop-color="#1A9684"
         id="stop1" />
      <stop
         offset="1"
         stop-color="#05E97F"
         id="stop2" />
    </linearGradient>
    <linearGradient
       id="gradient_1"
       gradientUnits="userSpaceOnUse"
       x1="176.91284"
       y1="310.37964"
       x2="175.0914"
       y2="103.85268"
       gradientTransform="translate(-22.429406,-11.635655)">
      <stop
         offset="0"
         stop-color="#391E8A"
         id="stop3" />
      <stop
         offset="1"
         stop-color="#13B382"
         id="stop4" />
    </linearGradient>
  </defs>
  <path
     fill="url(#gradient_0)"
     d="m 235.47559,20.351845 c 13.142,-8.6983 26.462,-14.2492997 41.797,-17.7931997 1.833,-0.4237 3.618,-1.4565 5.482,-1.64099996 8.515,-0.8425 17.198,-0.1125 25.739,-0.3087 0.011,5.03439996 0.301,10.86859966 -0.355,15.82009966 -0.326,2.4618 -1.129,4.7746 -1.633,7.1914 -0.444,2.3577 -0.94,4.6764 -1.546,6.998 -0.082,2.679 -1.537,6.7473 -2.297,9.3747 -5.038,17.4105 -13.191,33.9587 -24.87,47.8873 -19.368,23.096905 -46.56,36.486905 -75.875,41.955905 -7.517,1.402 -15.049,2.16 -22.658,2.829 0.253,-7.375 1.189,-14.873 2.435,-22.148 4.519,-26.389905 14.949,-51.497905 32.84,-71.646405 3.67,-4.1332 7.724,-8.5293 12.254,-11.7315 1.083,-1.7898 6.703,-5.3661 8.687,-6.7876 z m 49.75,-1.4611 c -4.951,3.5213 -8.866,8.5063 -13.855,11.9534 -2.752,2.9389 -5.973,5.6074 -8.933,8.3469 -4.997,4.6251 -9.906,9.3149 -14.673,14.1776 -10.929,11.1485 -20.397,23.4053 -30.007,35.6787 -3.958,5.054 -9.96,11.816005 -12.793,17.298005 5.252,-4.596 10.152,-9.770005 15.085,-14.717005 7.351,-7.3716 14.743,-14.8097 21.709,-22.5483 11.393,-12.6552 22.186,-25.8623 33.51,-38.5819 3.225,-3.8752 7.021,-7.5396 9.957,-11.6074 z"
     id="path2"
     style="fill:url(#gradient_0);stroke:#000000;stroke-opacity:0.353947" />
  <path
     fill="url(#gradient_1)"
     d="m 156.66259,232.64034 -0.036,-15.006 0.017,-59.317 c -14.858,-0.315 -29.69,-1.693 -44.232,-4.82 -28.886996,-6.21099 -55.612096,-19.33899 -76.414796,-40.54699 -5.4335,-5.539 -10.5815,-11.581 -14.8022,-18.105005 -7.8081,-10.0444 -14.0912004,-25.6018 -18.1747004,-37.6585 -0.7128,-2.1044 -1.84151,-3.942031 -2.11610503,-6.378215 -0.036095,-1.309885 -0.098095,-2.289785 -0.287295,-3.333385 2.42866003,0.362669 5.23029603,-0.484791 7.85430003,-0.5946 6.5692004,-0.2751 13.2320004,-0.2482 19.7743004,0.4259 39.2311,4.0418 79.846496,20.4575 110.888496,44.8768 12.674,10.190005 24.647,21.780005 32.527,36.179005 1.203,2.199 2.872,4.979 3.143,7.477 0.381,3.515 0.211,7.155 0.21,10.691 l -0.008,16.973 0.002,47.843 c 0.001,8.485 -0.265,17.066 0.081,25.542 l -0.083,2.897 c 33.297,3.909 62.378,14.982 89.323,35.106 6.971,5.207 14.076,10.779 19.506,17.644 1.267,1.601 2.424,3.283 3.401,5.077 2.75,3.934 5.269,11.033 4.435,15.873 -0.806,4.682 -3.636,8.224 -7.466,10.869 -16.827,11.619 -39.157,18.825 -59.123,23.236 -5.422,1.197 -24.166,3.868 -27.306,5.938 -0.361,0.239 -0.723,0.442 -1.121,0.61 -11.046,-0.35 -22.167,0.034 -33.222,0.015 -12.105,-0.02 -24.301,-0.41 -36.391,-0.029 -0.336,-0.126 -0.5,-0.236 -0.732,-0.514 -0.4,-0.479 -0.7,-0.953 -1.326,-1.154 -4.587,-1.474 -9.763,-1.929 -14.503,-2.838 -7.772,-1.491 -15.447996,-3.325 -23.021996,-5.628 -12.5071,-3.803 -27.6847,-9.622 -38.5697,-16.826 -3.2181,-2.13 -5.9478,-4.823 -6.7036,-8.733 -1.2729,-6.586 3.1221,-14.577 6.7568,-19.871 0.0268,-0.076 0.0474,-0.154 0.0805,-0.228 1.5557,-3.447 4.4784,-6.863 6.7754,-9.884 17.4971,-23.01 46.515596,-39.367 74.512596,-45.437 5.926,-1.285 11.947,-2.277 17.981,-2.884 1.568,-0.158 6.964,-0.189 8.18815,-0.8089 0.55415,-2.0759 0.18685,-4.61711 0.18285,-6.67811 z M 32.936394,66.956745 c 3.3847,3.2026 7.7181,5.8869 11.4919,8.6398 l 24.4288,17.5868 c 6.6488,4.619 13.2535,9.364005 20.1325,13.637005 10.455,6.495 21.400996,12.285 32.271996,18.049 7.572,4.016 15.129,8.152 22.771,12.025 -3.685,-3.871 -9.788,-7.443 -14.249,-10.548 -11.042,-7.684 -22.148,-15.309 -33.413996,-22.661 -4.813,-3.14 -10.114,-5.855005 -14.755,-9.190005 -3.01,-1.194 -7.9199,-4.604 -10.938,-6.3651 l -24.8166,-14.2498 c -4.1919,-2.3542 -8.4858,-5.0758 -12.9236,-6.9237 z"
     id="path4"
     sodipodi:nodetypes="ccccccccccccccccccccccccccccccccsccccccccccccccccccccc"
     style="fill:url(#gradient_1);stroke:#000000;stroke-opacity:0.353947" />
</svg>
