<svg xmlns="http://www.w3.org/2000/svg" xmlns:xlink="http://www.w3.org/1999/xlink" viewBox="1160 300 2150 1220">
  <defs>
    <style>
      .cls-1,
      .cls-17,
      .cls-2,
      .cls-20 {
        fill: none;
      }

      .cls-2 {
        stroke: #fff;
        stroke-width: 4.2px;
      }

      .cls-3 {
        isolation: isolate;
      }

      .cls-4 {
        fill: #1b0d2a;
      }

      .cls-5,
      .cls-74 {
        fill: #392373;
      }

      .cls-5 {
        opacity: 0.35;
      }

      .cls-6 {
        opacity: 0.01;
        fill: url(#flowah2white);
      }

      .cls-19,
      .cls-48,
      .cls-61,
      .cls-62,
      .cls-7,
      .cls-75,
      .cls-77 {
        fill: #c92f81;
      }

      .cls-8 {
        fill: #e839b7;
      }

      .cls-9 {
        fill: #a426a4;
      }

      .cls-10,
      .cls-24 {
        fill: #40347c;
      }

      .cls-11 {
        font-size: 33.98px;
        letter-spacing: -0.07em;
      }

      .cls-11,
      .cls-12,
      .cls-13,
      .cls-15,
      .cls-21,
      .cls-76 {
        fill: #79f8fb;
      }

      .cls-11,
      .cls-15,
      .cls-19,
      .cls-21,
      .cls-48,
      .cls-61,
      .cls-62,
      .cls-75,
      .cls-76 {
        font-family: IBMPlexMono-Bold, IBM Plex Mono;
        font-weight: 700;
      }

      .cls-13 {
        letter-spacing: -0.07em;
      }

      .cls-14 {
        fill: #5946bc;
        stroke-linejoin: round;
      }

      .cls-14,
      .cls-19,
      .cls-20,
      .cls-24 {
        stroke: #c92f81;
      }

      .cls-14,
      .cls-17,
      .cls-20 {
        stroke-linecap: round;
      }

      .cls-14,
      .cls-17 {
        stroke-width: 4px;
      }

      .cls-15,
      .cls-76 {
        font-size: 12.98px;
      }

      .cls-16 {
        fill: url(#linear-gradient);
      }

      .cls-17,
      .cls-18,
      .cls-23,
      .cls-26,
      .cls-28,
      .cls-30,
      .cls-32,
      .cls-34,
      .cls-36,
      .cls-38,
      .cls-40,
      .cls-42,
      .cls-44 {
        stroke: #4f69cd;
      }

      .cls-17 {
        stroke-linejoin: bevel;
      }

      .cls-18,
      .cls-19,
      .cls-20,
      .cls-23,
      .cls-24,
      .cls-26,
      .cls-28,
      .cls-30,
      .cls-32,
      .cls-34,
      .cls-36,
      .cls-38,
      .cls-40,
      .cls-42,
      .cls-44 {
        stroke-miterlimit: 10;
      }

      .cls-18,
      .cls-23,
      .cls-24,
      .cls-26,
      .cls-28,
      .cls-30,
      .cls-32,
      .cls-34,
      .cls-36,
      .cls-38,
      .cls-40,
      .cls-42,
      .cls-44 {
        stroke-width: 3px;
      }

      .cls-18 {
        fill: url(#radial-gradient);
      }

      .cls-19 {
        font-size: 16.78px;
        stroke-width: 0.75px;
      }

      .cls-20 {
        stroke-width: 2px;
      }

      .cls-21 {
        font-size: 12.98px;
      }

      .cls-22 {
        fill: url(#linear-gradient-2);
      }

      .cls-23 {
        fill: url(#radial-gradient-2);
      }

      .cls-25 {
        fill: url(#linear-gradient-3);
      }

      .cls-26 {
        fill: url(#radial-gradient-3);
      }

      .cls-27 {
        fill: url(#linear-gradient-4);
      }

      .cls-28 {
        fill: url(#radial-gradient-4);
      }

      .cls-29 {
        fill: url(#linear-gradient-5);
      }

      .cls-30 {
        fill: url(#radial-gradient-5);
      }

      .cls-31 {
        fill: url(#linear-gradient-6);
      }

      .cls-32 {
        fill: url(#radial-gradient-6);
      }

      .cls-33 {
        fill: url(#linear-gradient-7);
      }

      .cls-34 {
        fill: url(#radial-gradient-7);
      }

      .cls-35 {
        fill: url(#linear-gradient-8);
      }

      .cls-36 {
        fill: url(#radial-gradient-8);
      }

      .cls-37 {
        fill: url(#linear-gradient-9);
      }

      .cls-38 {
        fill: url(#radial-gradient-9);
      }

      .cls-39 {
        fill: url(#linear-gradient-10);
      }

      .cls-40 {
        fill: url(#radial-gradient-10);
      }

      .cls-41 {
        fill: url(#linear-gradient-11);
      }

      .cls-42 {
        fill: url(#radial-gradient-11);
      }

      .cls-43 {
        fill: url(#linear-gradient-12);
      }

      .cls-44 {
        fill: url(#radial-gradient-12);
      }

      .cls-45 {
        fill: url(#linear-gradient-13);
      }

      .cls-46,
      .cls-50,
      .cls-52,
      .cls-54,
      .cls-56,
      .cls-58,
      .cls-60 {
        opacity: 0.33;
        mix-blend-mode: soft-light;
      }

      .cls-47 {
        fill: url(#radial-gradient-13);
      }

      .cls-48 {
        font-size: 33.98px;
        letter-spacing: -0.03em;
      }

      .cls-49 {
        fill: url(#linear-gradient-14);
      }

      .cls-50 {
        fill: url(#linear-gradient-15);
      }

      .cls-51 {
        fill: url(#linear-gradient-16);
      }

      .cls-52 {
        fill: url(#linear-gradient-17);
      }

      .cls-53 {
        fill: url(#linear-gradient-18);
      }

      .cls-54 {
        fill: url(#linear-gradient-19);
      }

      .cls-55 {
        fill: url(#linear-gradient-20);
      }

      .cls-56 {
        fill: url(#linear-gradient-21);
      }

      .cls-57 {
        fill: url(#linear-gradient-22);
      }

      .cls-58 {
        fill: url(#linear-gradient-23);
      }

      .cls-59 {
        fill: url(#linear-gradient-24);
      }

      .cls-60 {
        fill: url(#linear-gradient-25);
      }

      .cls-61,
      .cls-62 {
        font-size: 21px;
      }

      .cls-62 {
        letter-spacing: -0.08em;
      }

      .cls-63 {
        fill: url(#linear-gradient-26);
      }

      .cls-64 {
        fill: url(#radial-gradient-14);
      }

      .cls-65 {
        fill: #f38f0c;
      }

      .cls-66 {
        fill: #fecb4d;
      }

      .cls-67 {
        fill: #feda5e;
      }

      .cls-68 {
        fill: #ed9447;
      }

      .cls-69 {
        fill: url(#linear-gradient-27);
      }

      .cls-70 {
        fill: url(#linear-gradient-28);
      }

      .cls-71 {
        fill: url(#linear-gradient-29);
      }

      .cls-72 {
        fill: url(#linear-gradient-30);
      }

      .cls-73 {
        fill: url(#linear-gradient-31);
      }

      .cls-75 {
        font-size: 17.89px;
      }

      .cls-76 {
        letter-spacing: -0.01em;
      }

      .cls-77 {
        letter-spacing: 0em;
      }
    </style>
    <pattern id="flowah2white" data-name="flowah2white" width="335.11" height="223.39"
      patternTransform="translate(1000.79 636.11) rotate(-90)" patternUnits="userSpaceOnUse"
      viewBox="0 0 335.12 223.39">
      <rect class="cls-1" width="335.11" height="223.39" />
      <path class="cls-2" d="M502.67,156.46A178.62,178.62,0,1,0,681.29,335.08,178.62,178.62,0,0,0,502.67,156.46Z" />
      <circle class="cls-2" cx="335.11" cy="223.39" r="154.42" />
      <path class="cls-2" d="M156.48,224a89,89,0,0,0,178,0h0a89,89,0,1,0-178,0Z" />
      <path class="cls-2"
        d="M424.75,135a89,89,0,0,1,89,89h0a89,89,0,0,1-89,89h0a89,89,0,0,1-89-89h0a89,89,0,0,1,89-89Z" />
      <path class="cls-2" d="M457,257.17a89,89,0,1,1-121.57-32.58A89,89,0,0,1,457,257.17Z" />
      <path class="cls-2" d="M245.79,69.33a89,89,0,1,0,121.57,32.58A89,89,0,0,0,245.79,69.33Z" />
      <path class="cls-2" d="M424.11,223.39a89,89,0,1,1-89-89h0a89,89,0,0,1,89,89Z" />
      <path class="cls-2" d="M335.11,44.77A178.62,178.62,0,1,0,513.73,223.39,178.63,178.63,0,0,0,335.11,44.77Z" />
      <path class="cls-2" d="M155.82,223.3h0Z" />
      <path class="cls-2" d="M335.11,401.63v0Z" />
      <path class="cls-2" d="M213.21,257.17a89,89,0,1,0,121.57-32.58,89,89,0,0,0-121.57,32.58Z" />
      <path class="cls-2" d="M424.43,69.33a89,89,0,1,1-121.57,32.58A89,89,0,0,1,424.43,69.33Z" />
      <path class="cls-2" d="M490.42,313,179.89,133.67Z" />
      <path class="cls-2" d="M246,377.75,425.28,67.22Z" />
      <path class="cls-2" d="M424.84,378.59,245.55,68.06Z" />
      <path class="cls-2" d="M180.76,312.49,491.29,133.2Z" />
      <circle class="cls-2" cx="167.56" cy="335.08" r="154.42" />
      <path class="cls-2" d="M78.24,181A89,89,0,1,0,199.81,213.6,89,89,0,0,0,78.24,181Z" />
      <path class="cls-2" d="M167.56,156.46A178.62,178.62,0,1,0,346.18,335.08,178.62,178.62,0,0,0,167.56,156.46Z" />
      <path class="cls-2" d="M167.56,513.32v0Z" />
      <path class="cls-2" d="M256.88,181A89,89,0,1,1,135.31,213.6,89,89,0,0,1,256.88,181Z" />
      <path class="cls-2" d="M78.44,489.44,257.73,178.91Z" />
      <path class="cls-2" d="M257.29,490.28,78,179.75Z" />
      <circle class="cls-2" cy="223.39" r="154.42" />
      <path class="cls-2"
        d="M-178.64,224a89,89,0,0,0,89,89,89,89,0,0,0,89-89h0a89,89,0,0,0-89-89A89,89,0,0,0-178.64,224Z" />
      <path class="cls-2"
        d="M89.64,135a89,89,0,0,1,89,89h0a89,89,0,0,1-89,89h0a89,89,0,0,1-89-89h0a89,89,0,0,1,89-89Z" />
      <path class="cls-2" d="M121.9,257.17A89,89,0,1,1,.33,224.59,89,89,0,0,1,121.9,257.17Z" />
      <path class="cls-2"
        d="M-89.32,69.33A89,89,0,0,0-121.9,190.9,89,89,0,0,0-.33,223.48,89,89,0,0,0,32.25,101.91,89,89,0,0,0-89.32,69.33Z" />
      <path class="cls-2" d="M89,223.39a89,89,0,0,1-89,89,89,89,0,0,1-89-89,89,89,0,0,1,89-89H0a89,89,0,0,1,89,89Z" />
      <path class="cls-2"
        d="M0,44.77A178.62,178.62,0,0,0-178.62,223.39,178.62,178.62,0,0,0,0,402,178.62,178.62,0,0,0,0,44.77Z" />
      <path class="cls-2" d="M-179.29,223.3h0Z" />
      <path class="cls-2" d="M0,401.63v0Z" />
      <path class="cls-2"
        d="M-121.9,257.17A89,89,0,0,0-89.32,378.74,89,89,0,0,0,32.25,346.16,89,89,0,0,0-.33,224.59,89,89,0,0,0-121.9,257.17Z" />
      <path class="cls-2" d="M89.32,69.33A89,89,0,1,1-32.25,101.91,89,89,0,0,1,89.32,69.33Z" />
      <path class="cls-2" d="M155.31,313-155.22,133.67Z" />
      <path class="cls-2" d="M-89.12,377.75,90.17,67.22Z" />
      <path class="cls-2" d="M89.73,378.59-89.56,68.06Z" />
      <path class="cls-2" d="M-154.35,312.49,156.18,133.2Z" />
      <path class="cls-2"
        d="M-167.56,156.46A178.62,178.62,0,0,0-346.18,335.08,178.62,178.62,0,0,0-167.56,513.7,178.62,178.62,0,0,0,11.06,335.08,178.62,178.62,0,0,0-167.56,156.46Z" />
      <path class="cls-2" d="M324,112.34a89,89,0,0,0,178,0h0a89,89,0,0,0-178,0Z" />
      <path class="cls-2" d="M502.67-66.93A178.62,178.62,0,1,0,681.29,111.69,178.62,178.62,0,0,0,502.67-66.93Z" />
      <path class="cls-2" d="M323.38,111.6h0Z" />
      <circle class="cls-2" cx="335.11" r="154.42" />
      <path class="cls-2" d="M156.48.65a89,89,0,1,0,178,0h0a89,89,0,1,0-178,0Z" />
      <path class="cls-2"
        d="M424.75-88.35a89,89,0,0,1,89,89h0a89,89,0,0,1-89,89h0a89,89,0,0,1-89-89h0a89,89,0,0,1,89-89Z" />
      <path class="cls-2" d="M457,33.78A89,89,0,1,1,335.44,1.2,89,89,0,0,1,457,33.78Z" />
      <path class="cls-2"
        d="M245.79-154.06A89,89,0,0,0,213.22-32.49,89,89,0,0,0,334.79.09a89,89,0,0,0,32.57-121.57A89,89,0,0,0,245.79-154.06Z" />
      <path class="cls-2" d="M424.11,0a89,89,0,0,1-89,89,89,89,0,0,1-89-89,89,89,0,0,1,89-89h0a89,89,0,0,1,89,89Z" />
      <path class="cls-2"
        d="M335.11-178.62A178.63,178.63,0,0,0,156.49,0,178.63,178.63,0,0,0,335.11,178.62,178.62,178.62,0,0,0,513.73,0,178.62,178.62,0,0,0,335.11-178.62Z" />
      <path class="cls-2" d="M155.82-.09h0Z" />
      <path class="cls-2" d="M335.11,178.24v0Z" />
      <path class="cls-2" d="M213.21,33.78A89,89,0,1,0,334.78,1.2,89,89,0,0,0,213.21,33.78Z" />
      <path class="cls-2"
        d="M424.43-154.06A89,89,0,0,1,457-32.49,89,89,0,0,1,335.44.09a89,89,0,0,1-32.58-121.57A89,89,0,0,1,424.43-154.06Z" />
      <path class="cls-2" d="M490.42,89.57,179.89-89.72Z" />
      <path class="cls-2" d="M246,154.36,425.28-156.17Z" />
      <path class="cls-2" d="M424.84,155.2,245.55-155.33Z" />
      <path class="cls-2" d="M180.76,89.1,491.29-90.19Z" />
      <circle class="cls-2" cx="167.56" cy="111.69" r="154.42" />
      <path class="cls-2" d="M-11.08,112.34a89,89,0,0,0,178,0h0a89,89,0,0,0-178,0Z" />
      <path class="cls-2"
        d="M257.2,23.34a89,89,0,0,1,89,89h0a89,89,0,0,1-89,89h0a89,89,0,0,1-89-89h0a89,89,0,0,1,89-89Z" />
      <path class="cls-2" d="M289.46,145.47A89,89,0,1,1,167.89,112.9a89,89,0,0,1,121.57,32.57Z" />
      <path class="cls-2" d="M78.24-42.36A89,89,0,1,0,199.81-9.79,89,89,0,0,0,78.24-42.36Z" />
      <path class="cls-2" d="M256.56,111.69a89,89,0,1,1-89-89h0a89,89,0,0,1,89,89Z" />
      <path class="cls-2" d="M167.56-66.93A178.62,178.62,0,1,0,346.18,111.69,178.62,178.62,0,0,0,167.56-66.93Z" />
      <path class="cls-2" d="M-11.73,111.6h0Z" />
      <path class="cls-2" d="M167.56,289.93v0Z" />
      <path class="cls-2" d="M45.66,145.47A89,89,0,1,0,167.23,112.9,89,89,0,0,0,45.66,145.47Z" />
      <path class="cls-2" d="M256.88-42.36A89,89,0,1,1,135.31-9.79,89,89,0,0,1,256.88-42.36Z" />
      <path class="cls-2" d="M322.87,201.26,12.34,22Z" />
      <path class="cls-2" d="M78.44,266.05,257.73-44.48Z" />
      <path class="cls-2" d="M257.29,266.89,78-43.64Z" />
      <path class="cls-2" d="M13.21,200.79,323.74,21.5Z" />
      <circle class="cls-2" r="154.42" />
      <path class="cls-2"
        d="M-178.64.65a89,89,0,0,0,89,89,89,89,0,0,0,89-89h0a89,89,0,0,0-89-89A89,89,0,0,0-178.64.65Z" />
      <path class="cls-2"
        d="M89.64-88.35a89,89,0,0,1,89,89h0a89,89,0,0,1-89,89h0a89,89,0,0,1-89-89h0a89,89,0,0,1,89-89Z" />
      <path class="cls-2" d="M121.9,33.78A89,89,0,1,1,.33,1.2,89,89,0,0,1,121.9,33.78Z" />
      <path class="cls-2"
        d="M-89.32-154.06A89,89,0,0,0-121.9-32.49,89,89,0,0,0-.33.09,89,89,0,0,0,32.25-121.48,89,89,0,0,0-89.32-154.06Z" />
      <path class="cls-2" d="M89,0A89,89,0,0,1,0,89,89,89,0,0,1-89,0,89,89,0,0,1,0-89H0A89,89,0,0,1,89,0Z" />
      <path class="cls-2"
        d="M0-178.62A178.62,178.62,0,0,0-178.62,0,178.62,178.62,0,0,0,0,178.62,178.62,178.62,0,0,0,178.62,0,178.62,178.62,0,0,0,0-178.62Z" />
      <path class="cls-2" d="M-179.29-.09h0Z" />
      <path class="cls-2" d="M0,178.24v0Z" />
      <path class="cls-2"
        d="M-121.9,33.78A89,89,0,0,0-89.32,155.35,89,89,0,0,0,32.25,122.77,89,89,0,0,0-.33,1.2,89,89,0,0,0-121.9,33.78Z" />
      <path class="cls-2"
        d="M89.32-154.06A89,89,0,0,1,121.9-32.49,89,89,0,0,1,.33.09,89,89,0,0,1-32.25-121.48,89,89,0,0,1,89.32-154.06Z" />
      <path class="cls-2" d="M155.31,89.57-155.22-89.72Z" />
      <path class="cls-2" d="M-89.12,154.36,90.17-156.17Z" />
      <path class="cls-2" d="M89.73,155.2-89.56-155.33Z" />
      <path class="cls-2" d="M-154.35,89.1,156.18-90.19Z" />
      <path class="cls-2"
        d="M-77.92,23.34a89,89,0,0,1,89,89h0a89,89,0,0,1-89,89h0a89,89,0,0,1-89-89h0a89,89,0,0,1,89-89Z" />
      <path class="cls-2"
        d="M-167.56-66.93A178.62,178.62,0,0,0-346.18,111.69,178.62,178.62,0,0,0-167.56,290.31,178.62,178.62,0,0,0,11.06,111.69,178.62,178.62,0,0,0-167.56-66.93Z" />
      <path class="cls-2" d="M-346.85,111.6h0Z" />
      <path class="cls-2"
        d="M502.67-290.31A178.62,178.62,0,0,0,324.05-111.69,178.62,178.62,0,0,0,502.67,66.93,178.62,178.62,0,0,0,681.29-111.69,178.62,178.62,0,0,0,502.67-290.31Z" />
      <circle class="cls-2" cx="167.56" cy="-111.69" r="154.42" />
      <path class="cls-2"
        d="M289.46-77.91A89,89,0,0,1,256.88,43.66,89,89,0,0,1,135.31,11.08a89,89,0,0,1,32.58-121.57A89,89,0,0,1,289.46-77.91Z" />
      <path class="cls-2"
        d="M167.56-290.31A178.62,178.62,0,0,0-11.06-111.69,178.62,178.62,0,0,0,167.56,66.93,178.62,178.62,0,0,0,346.18-111.69,178.62,178.62,0,0,0,167.56-290.31Z" />
      <path class="cls-2" d="M167.56,66.55v0Z" />
      <path class="cls-2"
        d="M45.66-77.91A89,89,0,0,0,78.23,43.66,89,89,0,0,0,199.8,11.08a89,89,0,0,0-32.57-121.57A89,89,0,0,0,45.66-77.91Z" />
      <path class="cls-2" d="M78.44,42.67,257.73-267.86Z" />
      <path class="cls-2" d="M257.29,43.51,78-267Z" />
      <path class="cls-2"
        d="M-167.56-290.31A178.62,178.62,0,0,0-346.18-111.69,178.62,178.62,0,0,0-167.56,66.93,178.62,178.62,0,0,0,11.06-111.69,178.62,178.62,0,0,0-167.56-290.31Z" />
    </pattern>
    <linearGradient id="linear-gradient" x1="-56.98" y1="747.01" x2="-57.4" y2="597.24"
      gradientTransform="matrix(1, 0, 0, 1, 290, -205.71)" gradientUnits="userSpaceOnUse">
      <stop offset="0" stop-color="#c92f81" />
      <stop offset="1" stop-color="#79f8fb" />
    </linearGradient>
    <radialGradient id="radial-gradient" cx="1361.86" cy="724.98" r="28.99" gradientUnits="userSpaceOnUse">
      <stop offset="0" stop-color="#392373" />
      <stop offset="0.17" stop-color="#3c267a" />
      <stop offset="0.41" stop-color="#45308e" />
      <stop offset="0.7" stop-color="#533fae" />
      <stop offset="0.82" stop-color="#5946bc" />
      <stop offset="1" stop-color="#5946bc" />
    </radialGradient>
    <linearGradient id="linear-gradient-2" x1="151.11" y1="747.96" x2="149.66" y2="598.08"
      gradientTransform="matrix(1, 0.01, -0.01, 1, 192.26, -28.56)" xlink:href="#linear-gradient" />
    <radialGradient id="radial-gradient-2" cx="1467.06" cy="904.67" r="29.08" xlink:href="#radial-gradient" />
    <linearGradient id="linear-gradient-3" x1="45.85" y1="550.54" x2="45.94" y2="700.27"
      gradientTransform="matrix(1, 0, 0, -1, 237.2, 1356.76)" gradientUnits="userSpaceOnUse">
      <stop offset="0" stop-color="#79f8fb" />
      <stop offset="1" stop-color="#c92f81" />
    </linearGradient>
    <radialGradient id="radial-gradient-3" cx="1413.64" cy="1060.75" r="28.97" xlink:href="#radial-gradient" />
    <linearGradient id="linear-gradient-4" x1="250.87" y1="552.32" x2="253.15" y2="702.27"
      gradientTransform="matrix(1, -0.02, -0.02, -1, 145.14, 1541.99)" xlink:href="#linear-gradient-3" />
    <radialGradient id="radial-gradient-4" cx="1518.5" cy="1240.23" r="29.14" xlink:href="#radial-gradient" />
    <linearGradient id="linear-gradient-5" x1="355.76" y1="746.41" x2="356.01" y2="596.66"
      gradientTransform="matrix(1, 0, 0, 1, 79.97, 154.98)" xlink:href="#linear-gradient" />
    <radialGradient id="radial-gradient-5" cx="1567.88" cy="1084.65" r="28.98" xlink:href="#radial-gradient" />
    <linearGradient id="linear-gradient-6" x1="1381.33" y1="503.72" x2="1381.75" y2="653.48"
      gradientTransform="matrix(-1, 0, 0, 1, 3406.61, -206.14)" xlink:href="#linear-gradient-3" />
    <radialGradient id="radial-gradient-6" cx="3157.33" cy="635.44" r="28.99" xlink:href="#radial-gradient" />
    <linearGradient id="linear-gradient-7" x1="1589.21" y1="644.54" x2="1587.72" y2="494.66"
      gradientTransform="matrix(-1, 0.01, 0.01, 1, 3504.41, -29.03)" xlink:href="#linear-gradient" />
    <radialGradient id="radial-gradient-7" cx="3052.19" cy="815.16" r="29.08" xlink:href="#radial-gradient" />
    <linearGradient id="linear-gradient-8" x1="1484.92" y1="639.17" x2="1484.97" y2="788.9"
      gradientTransform="matrix(-1, 0, 0, -1, 3459.87, 1356.31)" xlink:href="#linear-gradient-3" />
    <radialGradient id="radial-gradient-8" cx="3105.65" cy="971.22" r="28.97" xlink:href="#radial-gradient" />
    <linearGradient id="linear-gradient-9" x1="1794.94" y1="659.27" x2="1795.15" y2="509.52"
      gradientTransform="matrix(-1, 0, 0, 1, 3616.76, 154.49)" xlink:href="#linear-gradient" />
    <radialGradient id="radial-gradient-9" cx="2951.42" cy="995.18" r="28.98" xlink:href="#radial-gradient" />
    <linearGradient id="linear-gradient-10" x1="1691.07" y1="619.92" x2="1693.31" y2="769.86"
      gradientTransform="translate(3551.98 1541.52) rotate(-179.14)" xlink:href="#linear-gradient-3" />
    <radialGradient id="radial-gradient-10" cx="3000.84" cy="1150.74" r="29.14" xlink:href="#radial-gradient" />
    <linearGradient id="linear-gradient-11" x1="1897.65" y1="838.44" x2="1897.85" y2="688.69"
      gradientTransform="matrix(-1, 0, 0, 1, 3616.76, 154.49)" xlink:href="#linear-gradient" />
    <radialGradient id="radial-gradient-11" cx="2848.47" cy="1174.2" r="28.98" xlink:href="#radial-gradient" />
    <linearGradient id="linear-gradient-12" x1="1791.33" y1="439.37" x2="1793.57" y2="589.31"
      gradientTransform="translate(3551.98 1541.52) rotate(-179.14)" xlink:href="#linear-gradient-3" />
    <radialGradient id="radial-gradient-12" cx="2897.89" cy="1329.77" r="29.14" xlink:href="#radial-gradient" />
    <linearGradient id="linear-gradient-13" x1="1075.05" y1="1017.33" x2="958.48" y2="1017.33"
      gradientUnits="userSpaceOnUse">
      <stop offset="0" stop-color="#c92f81" />
      <stop offset="0.02" stop-color="#c33e8a" />
      <stop offset="0.1" stop-color="#b269a4" />
      <stop offset="0.19" stop-color="#a290bc" />
      <stop offset="0.28" stop-color="#96b0cf" />
      <stop offset="0.38" stop-color="#8bcadf" />
      <stop offset="0.49" stop-color="#83dfec" />
      <stop offset="0.61" stop-color="#7dedf4" />
      <stop offset="0.76" stop-color="#7af5f9" />
      <stop offset="1" stop-color="#79f8fb" />
    </linearGradient>
    <radialGradient id="radial-gradient-13" cx="1016.77" cy="1017.33" r="58.29" gradientUnits="userSpaceOnUse">
      <stop offset="0" stop-color="#fff" />
      <stop offset="0.37" stop-color="#fdfdfd" />
      <stop offset="0.51" stop-color="#f6f6f6" />
      <stop offset="0.6" stop-color="#ebebeb" />
      <stop offset="0.68" stop-color="#dadada" />
      <stop offset="0.75" stop-color="#c4c4c4" />
      <stop offset="0.8" stop-color="#a8a8a8" />
      <stop offset="0.86" stop-color="#888" />
      <stop offset="0.91" stop-color="#626262" />
      <stop offset="0.95" stop-color="#373737" />
      <stop offset="0.99" stop-color="#090909" />
      <stop offset="1" />
    </radialGradient>
    <linearGradient id="linear-gradient-14" x1="779.66" y1="987.81" x2="779.66" y2="903.46"
      gradientTransform="translate(1699.4 1960.49) rotate(179.82)" xlink:href="#linear-gradient" />
    <linearGradient id="linear-gradient-15" x1="777.46" y1="945.63" x2="781.87" y2="945.63"
      gradientTransform="translate(1699.4 1960.49) rotate(179.82)" gradientUnits="userSpaceOnUse">
      <stop offset="0" stop-color="#fff" />
      <stop offset="0.5" />
      <stop offset="1" stop-color="#fff" />
    </linearGradient>
    <linearGradient id="linear-gradient-16" x1="779.66" y1="616.81" x2="779.66" y2="532.46"
      gradientTransform="matrix(0, 1, 1, 0, 713.58, 235.85)" xlink:href="#linear-gradient" />
    <linearGradient id="linear-gradient-17" x1="777.46" y1="574.63" x2="781.87" y2="574.63"
      gradientTransform="matrix(0, 1, 1, 0, 713.58, 235.85)" xlink:href="#linear-gradient-15" />
    <linearGradient id="linear-gradient-18" x1="779.66" y1="616.81" x2="779.66" y2="532.46"
      gradientTransform="matrix(0, 1, 1, 0, 684.3, 165.28)" xlink:href="#linear-gradient" />
    <linearGradient id="linear-gradient-19" x1="777.46" y1="574.63" x2="781.87" y2="574.63"
      gradientTransform="matrix(0, 1, 1, 0, 684.3, 165.28)" xlink:href="#linear-gradient-15" />
    <linearGradient id="linear-gradient-20" x1="779.66" y1="616.81" x2="779.66" y2="532.46"
      gradientTransform="matrix(-1, 0, 0, 1, 2038.03, 515.78)" xlink:href="#linear-gradient" />
    <linearGradient id="linear-gradient-21" x1="777.46" y1="574.63" x2="781.87" y2="574.63"
      gradientTransform="matrix(-1, 0, 0, 1, 2038.03, 515.78)" xlink:href="#linear-gradient-15" />
    <linearGradient id="linear-gradient-22" x1="779.66" y1="987.81" x2="779.66" y2="903.46"
      gradientTransform="translate(1889.4 305.03) rotate(89.82)" xlink:href="#linear-gradient" />
    <linearGradient id="linear-gradient-23" x1="777.46" y1="945.63" x2="781.87" y2="945.63"
      gradientTransform="translate(1889.4 305.03) rotate(89.82)" xlink:href="#linear-gradient-15" />
    <linearGradient id="linear-gradient-24" x1="779.66" y1="987.81" x2="779.66" y2="903.46"
      gradientTransform="translate(1728.58 1889.17) rotate(179.82)" xlink:href="#linear-gradient" />
    <linearGradient id="linear-gradient-25" x1="777.46" y1="945.63" x2="781.87" y2="945.63"
      gradientTransform="translate(1728.58 1889.17) rotate(179.82)" xlink:href="#linear-gradient-15" />
    <linearGradient id="linear-gradient-26" x1="1127.83" y1="1017.33" x2="1244.4" y2="1017.33"
      xlink:href="#linear-gradient-13" />
    <radialGradient id="radial-gradient-14" cx="1186.12" cy="1017.33" r="58.29" xlink:href="#radial-gradient-13" />
    <linearGradient id="linear-gradient-27" x1="1357" y1="1205.77" x2="1321.13" y2="1143.64"
      gradientUnits="userSpaceOnUse">
      <stop offset="0" stop-color="red" />
      <stop offset="0.25" stop-color="lime" />
      <stop offset="0.51" stop-color="#f0f" />
      <stop offset="0.75" stop-color="#ff0" />
      <stop offset="1" stop-color="blue" />
    </linearGradient>
    <linearGradient id="linear-gradient-28" x1="1322.22" y1="1186.31" x2="1315.64" y2="1174.9"
      xlink:href="#linear-gradient-27" />
    <linearGradient id="linear-gradient-29" x1="1369.37" y1="1186.99" x2="1360.27" y2="1171.24"
      xlink:href="#linear-gradient-27" />
    <linearGradient id="linear-gradient-30" x1="1365.38" y1="1178.08" x2="1362.6" y2="1173.26"
      xlink:href="#linear-gradient-27" />
    <linearGradient id="linear-gradient-31" x1="1322.08" y1="1178.11" x2="1319.6" y2="1173.82"
      xlink:href="#linear-gradient-27" />
  </defs>
  <title>Weights</title>
  <g class="cls-3">
    <g id="Background">
      <g id="Background-2" data-name="Background">
        <polygon class="cls-4" points="1847.23 1535.02 1130.41 1535.02 1130.41 293.46 1847.23 1535.02" />
        <polygon class="cls-5" points="1847.23 1535.02 1130.41 1535.02 1130.41 293.46 1847.23 1535.02" />
        <polygon class="cls-4" points="3337.63 293.47 3337.63 1535.02 2620.82 1535.02 3337.63 293.47" />
        <polygon class="cls-5" points="3337.63 293.47 3337.63 1535.02 2620.82 1535.02 3337.63 293.47" />
        <polygon class="cls-4"
          points="3337.63 293.46 3337.63 293.47 2620.82 1535.02 1847.23 1535.02 1130.41 293.46 3337.63 293.46" />
      </g>
      <polygon id="pattern" class="cls-6" points="4320 0 4320 1920 0 1920 0 0 4320 0" />
    </g>
    <g id="Header">
      <g id="Layer_2" data-name="Layer 2">
        <path class="cls-7"
          d="M1566,345.26a934.34,934.34,0,0,0-258.42-100.12q7.29-32.46,14.57-64.93t14.57-64.92a1066.36,1066.36,0,0,1,295.22,114.37q-45.48,12.36-88,28.61Q1557.1,301.83,1566,345.26Z"
          transform="translate(1130.71 294.07)" />
        <path class="cls-7"
          d="M639.86,345.26A934.44,934.44,0,0,1,898.27,245.14Q891,212.68,883.7,180.21t-14.57-64.92A1066.14,1066.14,0,0,0,573.92,229.66Q619.4,242,662,258.27,648.74,301.83,639.86,345.26Z"
          transform="translate(1130.71 294.07)" />
        <path class="cls-8"
          d="M1432.23,234.42a980,980,0,0,0-658.63,0q-22.36-62.67-44.74-125.34a1113.22,1113.22,0,0,1,748.11,0Q1454.61,171.75,1432.23,234.42Z"
          transform="translate(1130.71 294.07)" />
        <path class="cls-9"
          d="M888.41,201.19A978.49,978.49,0,0,0,773.6,234.42a889.47,889.47,0,0,1,124.67,10.72Q893.35,223.17,888.41,201.19Z"
          transform="translate(1130.71 294.07)" />
        <path class="cls-9" d="M1317.43,201.19a978.33,978.33,0,0,1,114.8,33.23,889.6,889.6,0,0,0-124.67,10.72Z"
          transform="translate(1130.71 294.07)" />
        <path class="cls-10"
          d="M903.81,139.74l-2.61-14.9-.72.15q-2.22,14.74-4.12,29.47-8.21-12.39-16.69-24.63L879,130l4.23,14.52Q886,156.25,888.9,168c-3.31.81-6.63,1.64-9.93,2.49q-6.74-26.2-13.46-52.4,7.17-1.85,14.36-3.57,5.61,8,11.11,16.09l.63-.15q1.38-9.66,2.9-19.33c4.48-1,9-2,13.45-2.91q5.52,26.49,11,53-5,1.05-10,2.14Q906.41,151.51,903.81,139.74Z"
          transform="translate(1130.71 294.07)" />
        <path class="cls-10"
          d="M925.9,139.5c-2.56-12.83,3.65-22.24,16.23-24.42s21.37,4.49,23.19,16.83c.16,1.12.33,2.25.5,3.37q-14,2.1-27.85,4.63l.12.68c.93,5,4.9,7.84,11.06,6.79a13.78,13.78,0,0,0,9.85-6.65q3.66,2.82,7.3,5.69c-2.56,4.23-7.48,8.27-16,9.73C936.92,158.45,928.39,152.06,925.9,139.5ZM936.7,133l.12.61q8.23-1.5,16.51-2.85c0-.21-.07-.41-.1-.62-.83-5.12-4.49-7.83-9.62-7S935.78,127.94,936.7,133Z"
          transform="translate(1130.71 294.07)" />
        <path class="cls-10"
          d="M1002.57,147.84c-8.31.93-12.87-3.32-13.72-10q-1.22-9.71-2.42-19.39-5.64.7-11.26,1.48c-.41-2.94-.81-5.89-1.21-8.83q3.69-.51,7.38-1c3.58-.46,4.81-1.78,4.38-5.32-.39-3.1-.77-6.2-1.16-9.3q5.61-.7,11.23-1.33l1.56,14q8.17-.92,16.36-1.68l.84,8.88q-8.12.75-16.21,1.66,1.23,11,2.47,22c5.26-.58,10.54-1.13,15.81-1.62q.42,4.44.83,8.87Q1010,147,1002.57,147.84Z"
          transform="translate(1130.71 294.07)" />
        <path class="cls-10"
          d="M1064.77,143.14c-4.76.19-8-2.2-8.71-6.67l-.4,0c-1.16,5.26-5.69,8.28-11.85,8.67-7.78.5-13.27-3.47-13.88-11-.68-8.33,5.5-12.84,17.62-13.56l6.65-.37c0-.67-.07-1.34-.1-2-.24-4.72-2.47-7.1-8-6.78a11.67,11.67,0,0,0-9.84,5.69q-3.46-2.55-7-5.08c2.39-4.7,8.28-8.5,17.68-9,11.55-.66,18.61,4.17,19,14.23l.66,17.5,4.5-.16c.09,2.76.18,5.53.28,8.29C1069.2,143,1067,143.05,1064.77,143.14Zm-10-11.88-.24-4.8c-2.1.1-4.19.22-6.29.34-4.7.27-7.14,2.07-6.93,5.17,0,.51.07,1,.1,1.54.19,2.79,2.64,4.1,6.34,3.88C1051.83,137.15,1055,135,1054.76,131.26Z"
          transform="translate(1130.71 294.07)" />
        <path class="cls-10"
          d="M1134.22,143c.11-2.87.21-5.74.32-8.6q5.93.21,11.84.52l1.86-36.85q-6.16-.31-12.32-.54.15-4.31.32-8.6,18.66.69,37.28,2.13l-.66,8.58q-6.15-.48-12.31-.87l-2.34,36.82q5.91.38,11.82.84l-.66,8.57Q1151.81,143.68,1134.22,143Z"
          transform="translate(1130.71 294.07)" />
        <path class="cls-10"
          d="M1184.19,146.3q1.88-19.92,3.74-39.82c4,.37,8,.78,12,1.2l-.78,7.25.49,0c2.33-4.27,6.49-7.57,13.25-6.76,8.07,1,13,7.06,11.63,16.66q-1.74,12.83-3.49,25.65-5.74-.78-11.5-1.48,1.49-12.09,3-24.16c.62-5-1.38-8-6.06-8.53-3.72-.43-7.56,1.11-8,5l-2.79,26.13Q1190,146.83,1184.19,146.3Z"
          transform="translate(1130.71 294.07)" />
        <path class="cls-10"
          d="M1236.55,143.76q6,.9,11.9,1.89l3.63-21.87q-6.49-1.08-13-2.06c.44-2.94.89-5.88,1.33-8.82q6.57,1,13.12,2.08.46-2.87,1-5.73c1.09-6.65,6-10.74,14.89-9.14q7.2,1.29,14.38,2.7c-.57,2.92-1.14,5.83-1.72,8.75q-7.51-1.49-15-2.83c-.5,2.77-1,5.55-1.49,8.32q7.47,1.33,14.92,2.8c-.57,2.92-1.15,5.83-1.72,8.75q-7.38-1.45-14.78-2.78-2,10.92-3.91,21.82c4.21.76,8.43,1.55,12.63,2.36q-.84,4.38-1.7,8.75-17.81-3.45-35.73-6.18Q1235.89,148.16,1236.55,143.76Z"
          transform="translate(1130.71 294.07)" />
        <path class="cls-10"
          d="M1287.2,141.63c2.6-12.67,12.13-18.9,25.09-15.9s18.78,12.82,15.52,25.34-12.71,18.3-25,15.43S1284.6,154.32,1287.2,141.63Zm27.9,9.54,1.5-6.17c1.4-5.72-1-9.74-6.24-11s-9.16,1.34-10.44,7.09l-1.38,6.2c-1.27,5.76,1.1,9.69,6.2,10.87S1313.71,156.9,1315.1,151.17Z"
          transform="translate(1130.71 294.07)" />
      </g>
    </g>
    <g id="Weight">
      <path class="cls-7"
        d="M897.17,502.13Q884.33,459.4,871,416.8q8.92-2.13,17.88-4.11Q896,438.42,903,464.2q2.19,8.15,4.36,16.29l1.16-.25Q907,454.58,906,428.86q9.21-1.91,18.44-3.62,8.76,24.19,17.1,48.51l1.17-.21-2-16.23q-3.33-26.74-6.52-53.52,8.67-1.5,17.36-2.84,3.78,44.48,8.11,88.89-12.11,1.95-24.18,4.22-7.78-23.52-15.93-47l-1.34.26q1.35,24.78,3.06,49.5Q909.16,499.34,897.17,502.13Z"
        transform="translate(1130.71 294.07)" />
      <path class="cls-7"
        d="M970.31,488.18q-6.54-44.06-13.09-88.1,31.28-4.65,62.72-7.29l1.32,15.64q-20.53,1.72-41,4.32,1.29,10.13,2.57,20.26,19.36-2.46,38.79-4.12l1.35,15.64q-19.11,1.64-38.17,4.05,1.37,10.69,2.72,21.39,19.26-2.45,38.59-4.07l1.32,15.64Q998.79,484,970.31,488.18Z"
        transform="translate(1130.71 294.07)" />
      <path class="cls-7"
        d="M1040.14,480.56q-.5-7.06-1-14.13,9.79-.69,19.59-1.16-1.49-30.34-3-60.67-10.44.51-20.87,1.24-.5-7.06-1-14.13,31.75-2.23,63.57-2.42l.09,14.16q-10.45.06-20.9.35.83,30.36,1.67,60.72,9.8-.27,19.6-.33l.09,14.17Q1069.06,478.53,1040.14,480.56Z"
        transform="translate(1130.71 294.07)" />
      <path class="cls-7"
        d="M1154.83,467.13l-1.18-.06c-3.41,7.23-9.77,13.64-20.8,13.27-17.48-.54-27-17.41-27-45.77-.06-30.18,12-47,37.76-46,20.42.85,29.91,12,32.58,27.56q-9.8,1.44-19.52,3.08c-1.63-7.62-4.47-14.84-14.1-15.23-10.62-.41-14.73,8.09-15.06,22.37l-.36,14.54c-.34,14.43,3.23,23.91,14.56,24.36,8.73.37,13.49-5.09,14-13l.36-6.49q-7.93-.45-15.88-.75.25-6.76.52-13.52,17.13.66,34.24,1.94-1.79,23.73-3.56,47.47-8.6-.64-17.22-1.13Q1154.48,473.44,1154.83,467.13Z"
        transform="translate(1130.71 294.07)" />
      <path class="cls-7"
        d="M1226.57,449.11q-11.71-1.53-23.46-2.78-2,18.53-3.92,37.05-9.68-1-19.37-1.84,3.73-44.37,7.48-88.75,10.64.88,21.27,2-1.9,18-3.8,35.91,11.93,1.26,23.85,2.83,2.34-17.91,4.7-35.81,10.61,1.39,21.18,3-6.75,44-13.48,88.05-9.64-1.49-19.29-2.74Q1224.15,467.58,1226.57,449.11Z"
        transform="translate(1130.71 294.07)" />
      <path class="cls-7"
        d="M1305.17,425.89q-7.53,35.91-15.08,71.81-9.49-2-19-3.78l13.53-72.12q-13.8-2.58-27.65-4.78,1.23-7.75,2.45-15.5,38.65,6.12,76.88,15.28l-3.66,15.27Q1318.93,428.79,1305.17,425.89Z"
        transform="translate(1130.71 294.07)" /><text class="cls-11" transform="translate(2053.98 910.73)">Reactions on
        Discord <tspan x="53.51" y="32">have different </tspan>
        <tspan x="8.92" y="64">weight depending on </tspan>
        <tspan class="cls-7">
          <tspan x="26.76" y="96">Rank</tspan>
          <tspan class="cls-12" x="98.11" y="96">, </tspan>
          <tspan x="133.79" y="96">Channel</tspan>
          <tspan class="cls-13" x="258.66" y="96" xml:space="preserve"> and </tspan>
          <tspan x="133.79" y="128">Emoji</tspan>
        </tspan>
      </text>
      <path class="cls-14"
        d="M1540.28,497.69l-53.37-13.54a19.43,19.43,0,0,0-4-.59l10.44-41.14a20,20,0,0,0-14.47-24.31l-100.72-25.55A20,20,0,0,0,1353.87,407L1325.13,520.3l-2.62-.63a940.73,940.73,0,0,0-439.28,0l-2.53.6L852,407a20,20,0,0,0-24.3-14.46L726.93,418.11a20,20,0,0,0-14.46,24.31l10.43,41.13a20.4,20.4,0,0,0-4,.6l-53.37,13.54A20,20,0,0,0,651.09,522l43.48,171.34a20.09,20.09,0,0,0,19.37,15.09,20.24,20.24,0,0,0,4.93-.62l53.37-13.54a20,20,0,0,0,3.78-1.38L786.45,734a20,20,0,0,0,19.39,15.08,20.39,20.39,0,0,0,4.92-.61l100.72-25.56A20,20,0,0,0,926,698.63l-29.3-115.48,1.73-.42a880.27,880.27,0,0,1,409,0l1.81.44-29.29,115.46a20,20,0,0,0,14.46,24.3l100.73,25.56h0a20.27,20.27,0,0,0,4.92.61A20,20,0,0,0,1419.38,734l10.44-41.14a20.3,20.3,0,0,0,3.78,1.38L1487,707.8h0a20.18,20.18,0,0,0,4.93.62,20.09,20.09,0,0,0,19.37-15.09L1554.74,522A20,20,0,0,0,1540.28,497.69Zm-772,181.06-53.36,13.54a4,4,0,0,1-4.87-2.9L666.6,518.06a4.05,4.05,0,0,1,2.9-4.86l53.36-13.54a3.93,3.93,0,0,1,.95-.12,4.06,4.06,0,0,1,3.91,3L771.2,673.89A4.06,4.06,0,0,1,768.3,678.75Zm139.25,28.67L806.82,733a4,4,0,0,1-4.86-2.9l-74-291.6a4,4,0,0,1,2.89-4.86l100.72-25.55a3.82,3.82,0,0,1,1-.13,4.11,4.11,0,0,1,2.06.58,4,4,0,0,1,1.83,2.44l74,291.6A4.05,4.05,0,0,1,907.55,707.42Zm395.77-142.08a892.12,892.12,0,0,0-400.89,0l-7.67-32a929.62,929.62,0,0,1,416.23,0Zm100.56,164.74A4.08,4.08,0,0,1,1399,733h0l-100.72-25.56a4,4,0,0,1-2.89-4.86l74-291.6a4.05,4.05,0,0,1,4.86-2.89L1475,433.62a4.06,4.06,0,0,1,2.89,4.86l-15.25,60.13h0L1419.13,670h0Zm135.35-212L1495.76,689.4a4,4,0,0,1-4.86,2.89l-53.37-13.54a4,4,0,0,1-2.89-4.86l9.3-36.65,34.17-134.69a4,4,0,0,1,1.84-2.44,3.94,3.94,0,0,1,3-.45l53.37,13.54A4,4,0,0,1,1539.23,518.06Z"
        transform="translate(1130.71 294.07)" />
    </g>
    <g id="Nodes"><text class="cls-15" transform="translate(1407.62 707.06)">role-select<tspan class="cls-7" x="85.66"
          y="0">,</tspan>
        <tspan x="93.45" y="0" xml:space="preserve"> set-eth address </tspan>
        <tspan x="-0.02" y="15.57">events</tspan>
        <tspan class="cls-7" x="46.71" y="15.57">,</tspan>
        <tspan x="54.49" y="15.57" xml:space="preserve"> xp-gains</tspan>
        <tspan class="cls-7" x="124.58" y="15.57">,</tspan>
        <tspan x="132.37" y="15.57" xml:space="preserve"> metaphone </tspan>
        <tspan x="-0.05" y="31.15">gas-prices</tspan>
        <tspan class="cls-7" x="77.82" y="31.15">,</tspan>
        <tspan x="85.61" y="31.15" xml:space="preserve"> bot-spam </tspan>
        <tspan x="-0.69" y="46.72">seed-market-alerts</tspan>
      </text>
      <polygon class="cls-7"
        points="1390.85 713.04 1390.8 737.04 1373.79 753.97 1349.8 753.91 1332.87 736.91 1332.93 712.91 1349.93 695.99 1373.92 696.04 1390.85 713.04" />
      <path class="cls-16"
        d="M247.56,391.45l-33.08-.08L191,414.71,191,447.79l23.34,23.45,16.38,69.9,16.7-69.83L270.83,448l.07-33.08ZM260.08,443l-17,16.92-24,0-16.92-17,.05-24,17-16.93,24,.06,16.93,17Z"
        transform="translate(1130.71 294.07)" />
      <polygon class="cls-10"
        points="1390.85 713.04 1390.8 737.04 1373.79 753.97 1349.8 753.91 1332.87 736.91 1332.93 712.91 1349.93 695.99 1373.92 696.04 1390.85 713.04" />
      <path class="cls-17"
        d="M247.56,391.45l-33.08-.08L191,414.71,191,447.79l23.34,23.45,16.38,69.9,16.7-69.83L270.83,448l.07-33.08ZM260.08,443l-17,16.92-24,0-16.92-17,.05-24,17-16.93,24,.06,16.93,17Z"
        transform="translate(1130.71 294.07)" />
      <polygon class="cls-18"
        points="1390.85 713.04 1390.8 737.04 1373.79 753.97 1349.8 753.91 1332.87 736.91 1332.93 712.91 1349.93 695.99 1373.92 696.04 1390.85 713.04" />
      <text class="cls-19" transform="translate(1351.8 730.33) rotate(0.13)">0x</text>
      <line class="cls-20" x1="1341.69" y1="813.97" x2="1588.16" y2="1241.4" /><text class="cls-21"
        transform="translate(1511.52 885.06)">my-thing<tspan class="cls-7" x="62.3" y="0">,</tspan>
        <tspan x="70.09" y="0" xml:space="preserve"> check-in </tspan>
        <tspan x="1.38" y="15.58">tavern</tspan>
        <tspan class="cls-7" x="48.11" y="15.58">,</tspan>
        <tspan x="55.9" y="15.58" xml:space="preserve"> photoshop-tennis </tspan>
        <tspan x="1.23" y="31.15">brain-exchange</tspan>
      </text>
      <polygon class="cls-7"
        points="1496.14 892.95 1495.9 916.95 1478.77 933.75 1454.78 933.51 1437.98 916.39 1438.21 892.39 1455.34 875.59 1479.33 875.83 1496.14 892.95" />
      <path class="cls-22"
        d="M353.05,571.26,320,570.94l-23.61,23.17L296,627.19l23.16,23.62,15.86,70,17.22-69.7L375.9,628l.32-33.08Zm12.14,51.62-17.13,16.8-24-.23-16.8-17.13.23-24,17.13-16.8,24,.23,16.8,17.13Z"
        transform="translate(1130.71 294.07)" />
      <polygon class="cls-10"
        points="1496.14 892.95 1495.9 916.95 1478.77 933.75 1454.78 933.51 1437.98 916.39 1438.21 892.39 1455.34 875.59 1479.33 875.83 1496.14 892.95" />
      <path class="cls-17"
        d="M353.05,571.26,320,570.94l-23.61,23.17L296,627.19l23.16,23.62,15.86,70,17.22-69.7L375.9,628l.32-33.08Zm12.14,51.62-17.13,16.8-24-.23-16.8-17.13.23-24,17.13-16.8,24,.23,16.8,17.13Z"
        transform="translate(1130.71 294.07)" />
      <polygon class="cls-23"
        points="1496.14 892.95 1495.9 916.95 1478.77 933.75 1454.78 933.51 1437.98 916.39 1438.21 892.39 1455.34 875.59 1479.33 875.83 1496.14 892.95" />
      <text class="cls-19" transform="matrix(1, 0.01, -0.01, 1, 1446.86, 909.81)">0.5x</text>
      <polygon class="cls-24"
        points="1470.49 1015.79 1460.75 1015.69 1453.79 1022.52 1453.7 1032.26 1460.52 1039.21 1470.26 1039.31 1477.22 1032.48 1477.31 1022.74 1470.49 1015.79" />
      <text class="cls-21" transform="translate(1227.3 1055.06)">music<tspan class="cls-7" x="38.94" y="0">,</tspan>
        <tspan x="46.73" y="0" xml:space="preserve"> dapps-games </tspan>
        <tspan x="-7.78" y="15.58">eco-thegame</tspan>
        <tspan class="cls-7" x="77.89" y="15.58">,</tspan>
        <tspan x="85.68" y="15.58" xml:space="preserve"> voting</tspan>
      </text>
      <polygon class="cls-7"
        points="1442.61 1072.73 1442.6 1048.73 1425.61 1031.78 1401.62 1031.79 1384.67 1048.77 1384.69 1072.77 1401.66 1089.72 1425.65 1089.7 1442.61 1072.73" />
      <path class="cls-25"
        d="M322.65,782.76l0-33.07-23.4-23.38-16.58-69.86-16.5,69.88-23.38,23.41,0,33.07,23.41,23.38,33.07,0Zm-10.75-4.1-17,17H271L254,778.7v-24l17-17,24,0,17,16.95Z"
        transform="translate(1130.71 294.07)" />
      <polygon class="cls-10"
        points="1442.61 1072.73 1442.6 1048.73 1425.61 1031.78 1401.62 1031.79 1384.67 1048.77 1384.69 1072.77 1401.66 1089.72 1425.65 1089.7 1442.61 1072.73" />
      <path class="cls-17"
        d="M322.65,782.76l0-33.07-23.4-23.38-16.58-69.86-16.5,69.88-23.38,23.41,0,33.07,23.41,23.38,33.07,0Zm-10.75-4.1-17,17H271L254,778.7v-24l17-17,24,0,17,16.95Z"
        transform="translate(1130.71 294.07)" />
      <polygon class="cls-26"
        points="1442.61 1072.73 1442.6 1048.73 1425.61 1031.78 1401.62 1031.79 1384.67 1048.77 1384.69 1072.77 1401.66 1089.72 1425.65 1089.7 1442.61 1072.73" />
      <text class="cls-19" transform="translate(1388.49 1066.69) rotate(-0.03)">0.25x</text>
      <polygon class="cls-24"
        points="1418.08 949.66 1408.34 949.67 1401.44 942.79 1401.44 933.04 1408.32 926.15 1418.06 926.14 1424.96 933.03 1424.96 942.77 1418.08 949.66" />
      <text class="cls-21" transform="translate(1293.17 1244.93)">All channels by default</text>
      <polygon class="cls-7"
        points="1547.64 1251.79 1547.28 1227.79 1530.05 1211.09 1506.07 1211.45 1489.36 1228.67 1489.73 1252.67 1506.95 1269.37 1530.93 1269 1547.64 1251.79" />
      <path class="cls-27"
        d="M427.75,961.66l-.5-33.07-23.75-23L385.9,836l-15.48,70.11-23,23.74.5,33.08,23.75,23,33.07-.5Zm-10.82-3.94-16.71,17.22-24,.36L359,958.6l-.37-24,16.7-17.21,24-.37,17.23,16.7Z"
        transform="translate(1130.71 294.07)" />
      <polygon class="cls-10"
        points="1547.64 1251.79 1547.28 1227.79 1530.05 1211.09 1506.07 1211.45 1489.36 1228.67 1489.73 1252.67 1506.95 1269.37 1530.93 1269 1547.64 1251.79" />
      <path class="cls-17"
        d="M427.75,961.66l-.5-33.07-23.75-23L385.9,836l-15.48,70.11-23,23.74.5,33.08,23.75,23,33.07-.5Zm-10.82-3.94-16.71,17.22-24,.36L359,958.6l-.37-24,16.7-17.21,24-.37,17.23,16.7Z"
        transform="translate(1130.71 294.07)" />
      <polygon class="cls-28"
        points="1547.64 1251.79 1547.28 1227.79 1530.05 1211.09 1506.07 1211.45 1489.36 1228.67 1489.73 1252.67 1506.95 1269.37 1530.93 1269 1547.64 1251.79" />
      <text class="cls-19" transform="translate(1508.51 1245.25) rotate(-0.87)">1x</text>
      <polygon class="cls-24"
        points="1521.32 1129.09 1511.58 1129.24 1504.58 1122.46 1504.44 1112.72 1511.22 1105.72 1520.96 1105.58 1527.95 1112.36 1528.1 1122.1 1521.32 1129.09" />
      <text class="cls-21" transform="translate(1613.58 1073.58)">did-a-thing<tspan class="cls-7" x="85.67" y="0">,
        </tspan>
        <tspan x="93.46" y="0" xml:space="preserve"> give props </tspan>
        <tspan x="0.03" y="15.58">strategery</tspan>
        <tspan class="cls-7" x="77.91" y="15.58">,</tspan>
        <tspan x="85.69" y="15.58" xml:space="preserve"> diamond-club </tspan>
        <tspan x="0.04" y="31.15">inner circle</tspan>
      </text>
      <polygon class="cls-7"
        points="1596.82 1072.61 1596.86 1096.61 1579.92 1113.6 1555.92 1113.63 1538.93 1096.7 1538.9 1072.7 1555.83 1055.71 1579.82 1055.67 1596.82 1072.61" />
      <path class="cls-29"
        d="M453.42,751.06l-33.07.05L397,774.55l.05,33.07L420.48,831l16.65,69.84,16.42-69.89,23.36-23.44-.05-33.07Zm12.73,51.48-16.95,17-24,0-17-16.93,0-24,16.94-17,24,0,17,16.93Z"
        transform="translate(1130.71 294.07)" />
      <polygon class="cls-10"
        points="1596.82 1072.61 1596.86 1096.61 1579.92 1113.6 1555.92 1113.63 1538.93 1096.7 1538.9 1072.7 1555.83 1055.71 1579.82 1055.67 1596.82 1072.61" />
      <path class="cls-17"
        d="M453.42,751.06l-33.07.05L397,774.55l.05,33.07L420.48,831l16.65,69.84,16.42-69.89,23.36-23.44-.05-33.07Zm12.73,51.48-16.95,17-24,0-17-16.93,0-24,16.94-17,24,0,17,16.93Z"
        transform="translate(1130.71 294.07)" />
      <polygon class="cls-24"
        points="1572.56 1195.72 1562.82 1195.74 1555.94 1202.64 1555.96 1212.38 1562.86 1219.26 1572.6 1219.24 1579.48 1212.35 1579.46 1202.6 1572.56 1195.72" />
      <polygon class="cls-30"
        points="1596.82 1072.61 1596.86 1096.61 1579.92 1113.6 1555.92 1113.63 1538.93 1096.7 1538.9 1072.7 1555.83 1055.71 1579.82 1055.67 1596.82 1072.61" />
      <text class="cls-19" transform="translate(1557.82 1089.54) rotate(-0.09)">2x</text>
      <polygon class="cls-24"
        points="1366.12 836.07 1356.37 836.04 1349.47 842.92 1349.45 852.66 1356.32 859.56 1366.06 859.59 1372.97 852.71 1372.99 842.97 1366.12 836.07" />
      <text class="cls-21" transform="translate(2747.55 1178.84)">Diamond</text><text class="cls-15"
        transform="translate(3057.1 639.52) rotate(-0.02)">No Role</text>
      <polygon class="cls-7"
        points="3128.34 623.51 3128.4 647.51 3145.42 664.43 3169.41 664.37 3186.33 647.37 3186.27 623.37 3169.26 606.45 3145.27 606.51 3128.34 623.51" />
      <path class="cls-31"
        d="M1986.86,325.37l.09,33.08,23.45,23.33,16.72,69.82,16.36-69.9,23.33-23.46-.08-33.07-23.45-23.34-33.08.09Zm10.77,4.08,16.93-17,24-.06,17,16.92.06,24-16.91,17-24,.06-17-16.92Z"
        transform="translate(1130.71 294.07)" />
      <polygon class="cls-10"
        points="3128.34 623.51 3128.4 647.51 3145.42 664.43 3169.41 664.37 3186.33 647.37 3186.27 623.37 3169.26 606.45 3145.27 606.51 3128.34 623.51" />
      <path class="cls-17"
        d="M1986.86,325.37l.09,33.08,23.45,23.33,16.72,69.82,16.36-69.9,23.33-23.46-.08-33.07-23.45-23.34-33.08.09Zm10.77,4.08,16.93-17,24-.06,17,16.92.06,24-16.91,17-24,.06-17-16.92Z"
        transform="translate(1130.71 294.07)" />
      <polygon class="cls-32"
        points="3128.34 623.51 3128.4 647.51 3145.42 664.43 3169.41 664.37 3186.33 647.37 3186.27 623.37 3169.26 606.45 3145.27 606.51 3128.34 623.51" />
      <text class="cls-19" transform="translate(3147.29 641.76) rotate(0.11)">0x</text>
      <line class="cls-20" x1="3177.53" y1="724.42" x2="2831.72" y2="1324.01" /><text class="cls-21"
        transform="translate(2959.61 810.7) rotate(-0.02)">Bronze<tspan x="-62.15" y="15.58">Server booster</tspan>
        </text>
      <polygon class="cls-7"
        points="3023.11 803.45 3023.35 827.45 3040.49 844.24 3064.48 844 3081.27 826.87 3081.03 802.88 3063.9 786.08 3039.91 786.32 3023.11 803.45" />
      <path class="cls-33"
        d="M1881.6,505.39l.33,33.07,23.63,23.16,17.23,69.7,15.84-70,23.16-23.62-.33-33.08-23.62-23.16-33.08.33Zm10.8,4,16.8-17.13,24-.24,17.13,16.79.24,24-16.8,17.13-24,.24-17.14-16.79Z"
        transform="translate(1130.71 294.07)" />
      <polygon class="cls-10"
        points="3023.11 803.45 3023.35 827.45 3040.49 844.24 3064.48 844 3081.27 826.87 3081.03 802.88 3063.9 786.08 3039.91 786.32 3023.11 803.45" />
      <path class="cls-17"
        d="M1881.6,505.39l.33,33.07,23.63,23.16,17.23,69.7,15.84-70,23.16-23.62-.33-33.08-23.62-23.16-33.08.33Zm10.8,4,16.8-17.13,24-.24,17.13,16.79.24,24-16.8,17.13-24,.24-17.14-16.79Z"
        transform="translate(1130.71 294.07)" />
      <polygon class="cls-34"
        points="3023.11 803.45 3023.35 827.45 3040.49 844.24 3064.48 844 3081.27 826.87 3081.03 802.88 3063.9 786.08 3039.91 786.32 3023.11 803.45" />
      <text class="cls-19" transform="translate(3032.14 821.25) rotate(0.54)">0.5x</text>
      <polygon class="cls-24"
        points="3048.79 926.28 3058.53 926.18 3065.49 933 3065.59 942.75 3058.77 949.7 3049.03 949.8 3042.07 942.98 3041.97 933.24 3048.79 926.28" />
      <text class="cls-21" transform="translate(3151.8 974.91) rotate(-0.02)">Player</text><text class="cls-21"
        transform="translate(2874.55 999.51) rotate(-0.02)">Gold</text><text class="cls-21"
        transform="translate(3047.17 1147.72) rotate(-0.02)">Silver<tspan x="-0.24" y="15.58">Patron</tspan></text><text
        class="cls-21" transform="translate(2944.09 1335.49) rotate(-0.02)">Platinum</text>
      <polygon class="cls-7"
        points="3076.68 983.22 3076.69 959.22 3093.67 942.26 3117.66 942.27 3134.62 959.24 3134.61 983.23 3117.64 1000.19 3093.65 1000.18 3076.68 983.22" />
      <path class="cls-35"
        d="M1958.6,716.66h33.08l23.4-23.39V660.2l-23.38-23.4-16.52-69.87-16.56,69.86-23.4,23.39v33.07ZM1946,665.15l17-17h24l17,17v24l-17,17h-24l-17-17Z"
        transform="translate(1130.71 294.07)" />
      <polygon class="cls-10"
        points="3076.68 983.22 3076.69 959.22 3093.67 942.26 3117.66 942.27 3134.62 959.24 3134.61 983.23 3117.64 1000.19 3093.65 1000.18 3076.68 983.22" />
      <path class="cls-17"
        d="M1958.6,716.66h33.08l23.4-23.39V660.2l-23.38-23.4-16.52-69.87-16.56,69.86-23.4,23.39v33.07ZM1946,665.15l17-17h24l17,17v24l-17,17h-24l-17-17Z"
        transform="translate(1130.71 294.07)" />
      <polygon class="cls-36"
        points="3076.68 983.22 3076.69 959.22 3093.67 942.26 3117.66 942.27 3134.62 959.24 3134.61 983.23 3117.64 1000.19 3093.65 1000.18 3076.68 983.22" />
      <text class="cls-19" transform="translate(3080.5 977.15) rotate(-0.05)">0.25x</text>
      <polygon class="cls-24"
        points="3101.18 860.14 3110.92 860.15 3117.82 853.26 3117.82 843.52 3110.93 836.63 3101.19 836.63 3094.3 843.51 3094.3 853.25 3101.18 860.14" />
      <polygon class="cls-7"
        points="2922.47 983.14 2922.44 1007.14 2939.39 1024.12 2963.38 1024.15 2980.37 1007.21 2980.4 983.22 2963.46 966.23 2939.47 966.2 2922.47 983.14" />
      <path class="cls-37"
        d="M1781,685l0,33.08,23.36,23.42,16.45,69.89,16.63-69.84,23.42-23.36.05-33.08-23.36-23.43-33.08,0Zm10.75,4.12,17-16.94,24,0,16.94,17,0,24-17,16.94-24,0-17-17Z"
        transform="translate(1130.71 294.07)" />
      <polygon class="cls-10"
        points="2922.47 983.14 2922.44 1007.14 2939.39 1024.12 2963.38 1024.15 2980.37 1007.21 2980.4 983.22 2963.46 966.23 2939.47 966.2 2922.47 983.14" />
      <path class="cls-17"
        d="M1781,685l0,33.08,23.36,23.42,16.45,69.89,16.63-69.84,23.42-23.36.05-33.08-23.36-23.43-33.08,0Zm10.75,4.12,17-16.94,24,0,16.94,17,0,24-17,16.94-24,0-17-17Z"
        transform="translate(1130.71 294.07)" />
      <polygon class="cls-24"
        points="2946.77 1106.25 2956.51 1106.26 2963.39 1113.16 2963.38 1122.9 2956.48 1129.78 2946.74 1129.77 2939.86 1122.87 2939.87 1113.13 2946.77 1106.25" />
      <polygon class="cls-38"
        points="2922.47 983.14 2922.44 1007.14 2939.39 1024.12 2963.38 1024.15 2980.37 1007.21 2980.4 983.22 2963.46 966.23 2939.47 966.2 2922.47 983.14" />
      <text class="cls-19" transform="translate(2941.41 1000.55) rotate(-0.11)">1x</text>
      <polygon class="cls-7"
        points="2971.7 1162.3 2972.06 1138.31 2989.28 1121.6 3013.27 1121.96 3029.98 1139.17 3029.62 1163.17 3012.41 1179.87 2988.42 1179.52 2971.7 1162.3" />
      <path class="cls-39"
        d="M1853.22,895.92l33.07.5,23.74-23,.49-33.07-23-23.74L1872,746.46l-17.58,69.61-23.74,23-.5,33.07Zm-11.87-51.68,17.22-16.71,24,.36,16.7,17.21-.35,24-17.22,16.71-24-.36L1841,868.24Z"
        transform="translate(1130.71 294.07)" />
      <polygon class="cls-10"
        points="2971.7 1162.3 2972.06 1138.31 2989.28 1121.6 3013.27 1121.96 3029.98 1139.17 3029.62 1163.17 3012.41 1179.87 2988.42 1179.52 2971.7 1162.3" />
      <path class="cls-17"
        d="M1853.22,895.92l33.07.5,23.74-23,.49-33.07-23-23.74L1872,746.46l-17.58,69.61-23.74,23-.5,33.07Zm-11.87-51.68,17.22-16.71,24,.36,16.7,17.21-.35,24-17.22,16.71-24-.36L1841,868.24Z"
        transform="translate(1130.71 294.07)" />
      <polygon class="cls-40"
        points="2971.7 1162.3 2972.06 1138.31 2989.28 1121.6 3013.27 1121.96 3029.98 1139.17 3029.62 1163.17 3012.41 1179.87 2988.42 1179.52 2971.7 1162.3" />
      <text class="cls-19" transform="translate(2975.73 1157.04) rotate(-0.89)">0.75x</text>
      <polygon class="cls-7"
        points="2819.53 1162.17 2819.49 1186.17 2836.44 1203.15 2860.43 1203.18 2877.42 1186.24 2877.45 1162.24 2860.51 1145.26 2836.52 1145.23 2819.53 1162.17" />
      <path class="cls-41"
        d="M1678.06,864l0,33.08,23.36,23.42,16.45,69.89,16.63-69.84,23.43-23.37,0-33.07-23.36-23.43-33.08,0Zm10.75,4.12,17-16.94,24,0,16.94,17,0,24-17,16.94-24,0-17-17Z"
        transform="translate(1130.71 294.07)" />
      <polygon class="cls-10"
        points="2819.53 1162.17 2819.49 1186.17 2836.44 1203.15 2860.43 1203.18 2877.42 1186.24 2877.45 1162.24 2860.51 1145.26 2836.52 1145.23 2819.53 1162.17" />
      <path class="cls-17"
        d="M1678.06,864l0,33.08,23.36,23.42,16.45,69.89,16.63-69.84,23.43-23.37,0-33.07-23.36-23.43-33.08,0Zm10.75,4.12,17-16.94,24,0,16.94,17,0,24-17,16.94-24,0-17-17Z"
        transform="translate(1130.71 294.07)" />
      <polygon class="cls-24"
        points="2843.82 1285.28 2853.56 1285.29 2860.44 1292.19 2860.43 1301.93 2853.53 1308.81 2843.79 1308.8 2836.91 1301.9 2836.92 1292.16 2843.82 1285.28" />
      <polygon class="cls-42"
        points="2819.53 1162.17 2819.49 1186.17 2836.44 1203.15 2860.43 1203.18 2877.42 1186.24 2877.45 1162.24 2860.51 1145.26 2836.52 1145.23 2819.53 1162.17" />
      <text class="cls-19" transform="translate(2828.39 1180.6) rotate(-0.11)">1.5x</text>
      <polygon class="cls-7"
        points="2868.75 1341.33 2869.11 1317.33 2886.33 1300.63 2910.32 1300.98 2927.03 1318.2 2926.67 1342.2 2909.46 1358.9 2885.47 1358.55 2868.75 1341.33" />
      <path class="cls-43"
        d="M1750.27,1075l33.07.5,23.74-23,.5-33.07-23-23.74L1769,925.49l-17.58,69.61-23.74,23-.49,33.07Zm-11.87-51.68,17.22-16.71,24,.36,16.71,17.21-.36,24-17.22,16.71-24-.36L1738,1047.27Z"
        transform="translate(1130.71 294.07)" />
      <polygon class="cls-10"
        points="2868.75 1341.33 2869.11 1317.33 2886.33 1300.63 2910.32 1300.98 2927.03 1318.2 2926.67 1342.2 2909.46 1358.9 2885.47 1358.55 2868.75 1341.33" />
      <path class="cls-17"
        d="M1750.27,1075l33.07.5,23.74-23,.5-33.07-23-23.74L1769,925.49l-17.58,69.61-23.74,23-.49,33.07Zm-11.87-51.68,17.22-16.71,24,.36,16.71,17.21-.36,24-17.22,16.71-24-.36L1738,1047.27Z"
        transform="translate(1130.71 294.07)" />
      <polygon class="cls-44"
        points="2868.75 1341.33 2869.11 1317.33 2886.33 1300.63 2910.32 1300.98 2927.03 1318.2 2926.67 1342.2 2909.46 1358.9 2885.47 1358.55 2868.75 1341.33" />
      <text class="cls-19" transform="translate(2872.78 1336.07) rotate(-0.89)">1.25x</text>
      <polygon class="cls-24"
        points="2895.05 1218.63 2904.79 1218.78 2911.78 1211.99 2911.92 1202.25 2905.14 1195.26 2895.4 1195.11 2888.41 1201.9 2888.26 1211.64 2895.05 1218.63" />
      <polygon class="cls-24"
        points="2997.99 1039.6 3007.74 1039.75 3014.73 1032.96 3014.87 1023.22 3008.09 1016.23 2998.34 1016.08 2991.36 1022.87 2991.21 1032.61 2997.99 1039.6" />
      <polygon class="cls-24"
        points="3153.11 746.53 3162.86 746.51 3169.76 753.38 3169.79 763.12 3162.91 770.02 3153.17 770.05 3146.27 763.18 3146.24 753.44 3153.11 746.53" />
    </g>
    <g id="Emoji">
      <path class="cls-45"
        d="M1016.77,970.86a46.48,46.48,0,1,1-46.48,46.47,46.53,46.53,0,0,1,46.48-46.47m0-11.81a58.29,58.29,0,1,0,58.28,58.28,58.28,58.28,0,0,0-58.28-58.28Z"
        transform="translate(1130.71 294.07)" />
      <g class="cls-46">
        <path class="cls-47"
          d="M1016.77,970.86a46.48,46.48,0,1,1-46.48,46.47,46.53,46.53,0,0,1,46.48-46.47m0-11.81a58.29,58.29,0,1,0,58.28,58.28,58.28,58.28,0,0,0-58.28-58.28Z"
          transform="translate(1130.71 294.07)" />
      </g><text class="cls-48" transform="translate(2127.68 1320.48)">3x</text>
      <rect class="cls-49" x="914.66" y="975.16" width="4.15" height="84.34"
        transform="translate(1027.22 2224.9) rotate(-89.82)" />
      <rect class="cls-50" x="914.66" y="975.16" width="4.15" height="84.34"
        transform="translate(1027.22 2224.9) rotate(-89.82)" />
      <rect class="cls-51" x="1243.57" y="1015.26" width="84.34" height="4.15"
        transform="translate(1127.49 298.15) rotate(-0.18)" />
      <rect class="cls-52" x="1243.57" y="1015.26" width="84.34" height="4.15"
        transform="translate(1127.49 298.15) rotate(-0.18)" />
      <rect class="cls-53" x="1214.29" y="944.69" width="84.34" height="4.15"
        transform="translate(829.96 1464.76) rotate(-45.18)" />
      <rect class="cls-54" x="1214.29" y="944.69" width="84.34" height="4.15"
        transform="translate(829.96 1464.76) rotate(-45.18)" />
      <rect class="cls-55" x="1254.47" y="1045.76" width="4.15" height="84.34"
        transform="translate(729.85 1506.48) rotate(-45.18)" />
      <rect class="cls-56" x="1254.47" y="1045.76" width="4.15" height="84.34"
        transform="translate(729.85 1506.48) rotate(-45.18)" />
      <rect class="cls-57" x="904.08" y="1085.61" width="84.34" height="4.15"
        transform="translate(639.08 1277.18) rotate(-44.82)" />
      <rect class="cls-58" x="904.08" y="1085.61" width="84.34" height="4.15"
        transform="translate(639.08 1277.18) rotate(-44.82)" />
      <rect class="cls-59" x="943.84" y="903.84" width="4.15" height="84.34"
        transform="translate(738.84 1235.76) rotate(-44.82)" />
      <rect class="cls-60" x="943.84" y="903.84" width="4.15" height="84.34"
        transform="translate(738.84 1235.76) rotate(-44.82)" />
      <path class="cls-7"
        d="M854.58,1033a1.5,1.5,0,0,1-1.06-.44l-8.28-8.28a1.5,1.5,0,0,1-.44-1.06v-11.7a1.5,1.5,0,0,1,.44-1.06l8.28-8.27a1.5,1.5,0,0,1,1.06-.44h11.7a1.5,1.5,0,0,1,1.06.44l8.28,8.27a1.5,1.5,0,0,1,.44,1.06v11.7a1.5,1.5,0,0,1-.44,1.06l-8.28,8.28a1.5,1.5,0,0,1-1.06.44Z"
        transform="translate(1130.71 294.07)" />
      <path class="cls-12"
        d="M866.28,1003.21l8.27,8.27v11.7l-8.27,8.28h-11.7l-8.28-8.28v-11.7l8.28-8.27h11.7m0-3h-11.7a3,3,0,0,0-2.12.88l-8.28,8.27a3,3,0,0,0-.88,2.12v11.7a3,3,0,0,0,.88,2.12l8.28,8.28a3,3,0,0,0,2.12.88h11.7a3,3,0,0,0,2.12-.88l8.28-8.28a3,3,0,0,0,.87-2.12v-11.7a3,3,0,0,0-.87-2.12l-8.28-8.27a3,3,0,0,0-2.12-.88Z"
        transform="translate(1130.71 294.07)" /><text class="cls-61" transform="translate(2023.48 1306.54)">OCTO</text>
      <path class="cls-7"
        d="M900.26,921.85a1.53,1.53,0,0,1-1.06-.44l-8.27-8.27a1.52,1.52,0,0,1-.44-1.06v-11.7a1.5,1.5,0,0,1,.44-1.06L899.2,891a1.53,1.53,0,0,1,1.06-.44H912A1.52,1.52,0,0,1,913,891l8.27,8.28a1.5,1.5,0,0,1,.44,1.06v11.7a1.52,1.52,0,0,1-.44,1.06L913,921.41a1.52,1.52,0,0,1-1.06.44Z"
        transform="translate(1130.71 294.07)" />
      <path class="cls-12"
        d="M912,892.1l8.27,8.28v11.7L912,920.35H900.26L892,912.08v-11.7l8.27-8.28H912m0-3H900.26a3,3,0,0,0-2.12.88l-8.27,8.27a3,3,0,0,0-.88,2.13v11.7a3,3,0,0,0,.88,2.12l8.27,8.27a3,3,0,0,0,2.12.88H912a3,3,0,0,0,2.12-.88l8.27-8.27a3,3,0,0,0,.88-2.12v-11.7a3,3,0,0,0-.88-2.13L914.09,890a3,3,0,0,0-2.12-.88Z"
        transform="translate(1130.71 294.07)" /><text class="cls-62"
        transform="translate(2054.14 1210.79) rotate(45)">MGLIGHT</text>
      <path class="cls-7"
        d="M900.84,1143.83a1.5,1.5,0,0,1-1.06-.44l-8.28-8.28a1.5,1.5,0,0,1-.44-1.06v-11.7a1.5,1.5,0,0,1,.44-1.06l8.28-8.27a1.46,1.46,0,0,1,1.06-.44h11.7a1.46,1.46,0,0,1,1.06.44l8.27,8.27a1.46,1.46,0,0,1,.44,1.06v11.7a1.46,1.46,0,0,1-.44,1.06l-8.27,8.28a1.5,1.5,0,0,1-1.06.44Z"
        transform="translate(1130.71 294.07)" />
      <path class="cls-12"
        d="M912.54,1114.08l8.27,8.27v11.7l-8.27,8.28h-11.7l-8.28-8.28v-11.7l8.28-8.27h11.7m0-3h-11.7a3,3,0,0,0-2.12.87l-8.28,8.28a3,3,0,0,0-.88,2.12v11.7a3,3,0,0,0,.88,2.12l8.28,8.28a3,3,0,0,0,2.12.88h11.7a3,3,0,0,0,2.12-.88l8.28-8.28a3,3,0,0,0,.87-2.12v-11.7a3,3,0,0,0-.87-2.12l-8.28-8.28a3,3,0,0,0-2.12-.87Z"
        transform="translate(1130.71 294.07)" /><text class="cls-61"
        transform="translate(2048.02 1404.92) rotate(-45)">MGDARK</text>
      <path class="cls-63"
        d="M1186.12,970.86a46.48,46.48,0,1,1-46.48,46.47,46.53,46.53,0,0,1,46.48-46.47m0-11.81a58.29,58.29,0,1,0,58.28,58.28,58.28,58.28,0,0,0-58.28-58.28Z"
        transform="translate(1130.71 294.07)" />
      <g class="cls-46">
        <path class="cls-64"
          d="M1186.12,970.86a46.48,46.48,0,1,1-46.48,46.47,46.53,46.53,0,0,1,46.48-46.47m0-11.81a58.29,58.29,0,1,0,58.28,58.28,58.28,58.28,0,0,0-58.28-58.28Z"
          transform="translate(1130.71 294.07)" />
      </g><text class="cls-48" transform="translate(2296.7 1320.48)">1x</text>
      <path class="cls-7"
        d="M1336.6,1033a1.5,1.5,0,0,1-1.06-.44l-8.27-8.28a1.5,1.5,0,0,1-.44-1.06v-11.7a1.5,1.5,0,0,1,.44-1.06l8.27-8.27a1.5,1.5,0,0,1,1.06-.44h11.7a1.5,1.5,0,0,1,1.06.44l8.28,8.27a1.5,1.5,0,0,1,.44,1.06v11.7a1.5,1.5,0,0,1-.44,1.06l-8.28,8.28a1.5,1.5,0,0,1-1.06.44Z"
        transform="translate(1130.71 294.07)" />
      <path class="cls-12"
        d="M1348.3,1003.21l8.28,8.27v11.7l-8.28,8.28h-11.7l-8.27-8.28v-11.7l8.27-8.27h11.7m0-3h-11.7a3,3,0,0,0-2.12.88l-8.27,8.27a3,3,0,0,0-.88,2.12v11.7a3,3,0,0,0,.88,2.12l8.27,8.28a3,3,0,0,0,2.12.88h11.7a3,3,0,0,0,2.13-.88l8.27-8.28a3,3,0,0,0,.88-2.12v-11.7a3,3,0,0,0-.88-2.12l-8.27-8.27a3,3,0,0,0-2.13-.88Z"
        transform="translate(1130.71 294.07)" /><text class="cls-61" transform="translate(2384.12 1306.54)">OTHER</text>
      <path class="cls-7"
        d="M1290.92,921.85a1.5,1.5,0,0,1-1.06-.44l-8.28-8.27a1.52,1.52,0,0,1-.44-1.06v-11.7a1.5,1.5,0,0,1,.44-1.06l8.28-8.28a1.5,1.5,0,0,1,1.06-.44h11.7a1.5,1.5,0,0,1,1.06.44l8.27,8.28a1.5,1.5,0,0,1,.44,1.06v11.7a1.52,1.52,0,0,1-.44,1.06l-8.27,8.27a1.5,1.5,0,0,1-1.06.44Z"
        transform="translate(1130.71 294.07)" />
      <path class="cls-12"
        d="M1302.62,892.1l8.27,8.28v11.7l-8.27,8.27h-11.7l-8.28-8.27v-11.7l8.28-8.28h11.7m0-3h-11.7a3,3,0,0,0-2.12.88l-8.28,8.27a3,3,0,0,0-.88,2.13v11.7a3,3,0,0,0,.88,2.12l8.28,8.27a3,3,0,0,0,2.12.88h11.7a3,3,0,0,0,2.12-.88l8.27-8.27a3,3,0,0,0,.88-2.12v-11.7a3,3,0,0,0-.88-2.13l-8.27-8.27a3,3,0,0,0-2.12-.88Z"
        transform="translate(1130.71 294.07)" /><text class="cls-61"
        transform="translate(2370.09 1250.95) rotate(-45)">ALL</text>
      <path class="cls-7"
        d="M1290.34,1143.83a1.52,1.52,0,0,1-1.06-.44l-8.27-8.28a1.5,1.5,0,0,1-.44-1.06v-11.7a1.5,1.5,0,0,1,.44-1.06l8.27-8.27a1.47,1.47,0,0,1,1.06-.44H1302a1.5,1.5,0,0,1,1.07.44l8.27,8.27a1.5,1.5,0,0,1,.44,1.06v11.7a1.5,1.5,0,0,1-.44,1.06l-8.27,8.28a1.54,1.54,0,0,1-1.07.44Z"
        transform="translate(1130.71 294.07)" />
      <path class="cls-12"
        d="M1302,1114.08l8.28,8.27v11.7l-8.28,8.28h-11.7l-8.27-8.28v-11.7l8.27-8.27H1302m0-3h-11.7a3,3,0,0,0-2.12.87l-8.27,8.28a3,3,0,0,0-.88,2.12v11.7a3,3,0,0,0,.88,2.12l8.27,8.28a3,3,0,0,0,2.12.88H1302a3,3,0,0,0,2.13-.88l8.27-8.28a3,3,0,0,0,.88-2.12v-11.7a3,3,0,0,0-.88-2.12l-8.27-8.28a3,3,0,0,0-2.13-.87Z"
        transform="translate(1130.71 294.07)" /><text class="cls-61"
        transform="translate(2367.41 1355.96) rotate(45)">EMOJI</text>
      <text width="512" height="512" transform="translate(1909.28 1279.98) scale(0.12)">
        
      </text>
      <image width="952" height="1041" transform="translate(1967.36 1124.46) scale(0.07)"
        href="Light Pyramid.svg" />
      <image width="952" height="1041" transform="translate(1964.41 1425.67) scale(0.07)"
        href="Dark Pyramid.svg" />
      <path class="cls-65"
        d="M1322.74,889.91c-11.29-11.47-9.89-29.56-1.64-38.47-.18,2.56-.64,4.83-.36,7.11.47,3.9,2.49,6.22,5.47,6.27,4.37.07,6.8-3.57,5.34-8.3-.92-3-1.56-5.91-.91-9a11.54,11.54,0,0,1,4.6-7.28,18.37,18.37,0,0,0,.06,5.42c1,4.29,4.59,7.15,8.46,6.62s6.52-4.29,6.1-8.76a12.9,12.9,0,0,0-1.76-6c1-.6,1.69,0,2.43.44q10.65,6.63,9.24,19.1c-.35,3.13-1.38,6.16-1.28,9.34.14,4.51,4.16,6.79,8.12,4.59a9.07,9.07,0,0,0,4-5c.69-1.86,1.18-3.79,1.76-5.71,3.89,9.1,1.07,21.88-6.51,29.62a.73.73,0,0,1-1-.64,42.41,42.41,0,0,0-2-8.69,13.52,13.52,0,0,1-1.91,3.15c-3.19,3.24-7.74,2.14-9-2.2-.63-2.11-.51-4.34-1-6.46-1-4.1-3.57-6.84-7.53-8.71-.44,1.47.13,2.61.3,3.76.82,5.83-3.18,11.29-8.44,11.46-3.23.11-4.57-.79-5.8-3.81-.23-.54-.17-1.23-1-1.7a21.18,21.18,0,0,0-4.58,11.4C1323.88,888.4,1324.25,889.67,1322.74,889.91Z"
        transform="translate(1130.71 294.07)" />
      <path class="cls-66"
        d="M1322.74,889.91c1.08-1.79.52-3.88,1.06-5.79a23.18,23.18,0,0,1,5.15-9.66c.75.11.6.54.65.84.44,2.34.84,4.91,3.59,5.53a7.41,7.41,0,0,0,7.88-2.93c2.44-3.18,2.44-6.75,1.48-10.43-.17-.67-.67-1.45-.06-2s1.3.19,1.89.48c5.12,2.52,7.5,6.76,7.83,12.35.12,2,.12,4.11,1.82,5.54,2.47,2.08,6,1.12,7.65-2,.36-.68.59-1.43,1-2.52,2,2.58,2.2,5.38,2.59,8.13.12.83-.27,1.78.58,2.43C1354.81,902.42,1333.84,902.42,1322.74,889.91Z"
        transform="translate(1130.71 294.07)" />
      <path class="cls-67"
        d="M1385.75,1041c-2.77-1.49-5.1-3.75-8.46-4.19a3.69,3.69,0,0,1-3.26-4q-.09-10.68,0-21.35a3.74,3.74,0,0,1,2.8-3.85c9.19-2.34,10.41-9.87,11.48-17.48a38.56,38.56,0,0,0,.09-4.57c0-1.77-.24-3.83,1.94-4.49a5.32,5.32,0,0,1,6,1.74,11.65,11.65,0,0,1,2.53,9.51c-.32,2-.63,4-.94,6s.45,2.49,2.37,2.56c5.65.18,11.34.08,17,.9,4.06.6,7.81,1.74,9.51,6.09a5.18,5.18,0,0,1-.23,5.06c-.81-.45-1.59-1-2.55-.28-1.38,1-3,1-4.62,1H1408.9a8.54,8.54,0,0,1-2.52-.26,3.12,3.12,0,0,1,.51-6.14c2.28-.23,4.57-.05,6.86-.1,1.08,0,2.21.09,3.08-.74-.15-.93-.85-.84-1.38-.86-2.8-.07-5.6-.15-8.39,0-3.65.21-5.55,3.16-4.28,6.64a9.48,9.48,0,0,1,.33,4.43c-.39,3.76.42,7.53.28,11.35-.08,2,1.22,4.16.57,6.56-.48,1.75.78,3.17,2.07,4.38.45.41,1.78.69.64,1.75-6,0-12,0-18,0a4.41,4.41,0,0,0-2.46.25Z"
        transform="translate(1130.71 294.07)" />
      <path class="cls-68"
        d="M1418.82,1040.57l-11.2,0-.53-.16c-3.66-1.8-4.62-4-3.3-8a1.93,1.93,0,0,0-.38-2.07c-.75-1-1.6-2.42-1.21-3.22,1.57-3.24-.42-6.32,0-9.32a14.12,14.12,0,0,0-.51-6.62c-1-3,1.74-6.18,4.94-6.29s6.26,0,9.4,0c.93,0,2.06-.08,2.18,1.17s-1.11,1.72-2.06,1.77c-2.7.15-5.41.12-8.12.08-1.87,0-3.48.2-3.44,2.61,0,2.25,1.65,2.5,3.35,2.51,4.31,0,8.63,0,12.95,0a3.87,3.87,0,0,0,3-1.14c1.6-1.58,2.51-1,2.68,1.09l-1.12,1.59c-.85,2-2.72,2.11-4.47,2.18-3.3.14-6.6,0-9.9.05-.84,0-1.69,0-2.53,0-1.2.12-2.63.22-2.6,1.78s1.42,1.74,2.64,1.76c3.89.08,7.78.07,11.67,0a6.77,6.77,0,0,0,3-1.15c2-1,2.79-.46,2.79,1.93-.3,1.15-1.47,1.59-2,2.51-1,1.26-2.53,1.22-4,1.25-3.2.08-6.4,0-9.61,0a14.39,14.39,0,0,0-2.27.11c-1,.16-1.89.5-1.94,1.63a1.61,1.61,0,0,0,1.8,1.71c4.64-.16,9.39,1.25,13.9-1.09,1.32-.68,2.73-.66,2.6,1.54a4.1,4.1,0,0,1-2,2.57c-.91,1.36-2.3,1.62-3.79,1.64-2.63,0-5.25,0-7.88,0a6.48,6.48,0,0,0-2.51.32,1.66,1.66,0,0,0-1.16,1.77,1.35,1.35,0,0,0,1.32,1.33c3.84,0,7.77,1.12,11.46-.82,1.31-.69,2.4-.92,3,.79C1422.66,1039,1420.77,1039.8,1418.82,1040.57Z"
        transform="translate(1130.71 294.07)" />
      <path class="cls-67"
        d="M1426,1021.2c-.21-2-1-2.76-2.69-1.14a3.8,3.8,0,0,1-2.93,1.16c-4.14-.05-8.28-.07-12.41,0-2,0-3.25-1-3.24-2.75s1.49-2.42,3.25-2.4c4.14,0,8.28,0,12.42,0a7.69,7.69,0,0,0,5-1.49C1426.55,1016.71,1427.63,1018.82,1426,1021.2Z"
        transform="translate(1130.71 294.07)" />
      <path class="cls-67"
        d="M1424.49,1028.89c-.63-1.54-1.53-2-2.79-.64a3.32,3.32,0,0,1-2.68,1.12c-3.55,0-7.09,0-10.63,0-1.85,0-3.29-.62-3.23-2.66s1.44-2.48,3.17-2.47c2.87,0,5.74,0,8.61,0a26.71,26.71,0,0,0,7-.53A4.62,4.62,0,0,1,1424.49,1028.89Z"
        transform="translate(1130.71 294.07)" />
      <path class="cls-67"
        d="M1422.93,1036.51c-1-.81-2-1.37-3,0a2.73,2.73,0,0,1-2.48,1c-2.87,0-5.74,0-8.62,0-1.56,0-2.7-.54-2.75-2.25a2.54,2.54,0,0,1,2.81-2.86c3,0,5.92-.07,8.87,0a9.36,9.36,0,0,0,4.64-1C1422.72,1033.13,1424.16,1034.69,1422.93,1036.51Z"
        transform="translate(1130.71 294.07)" />
      <path class="cls-69"
        d="M1362.11,1186.33a10.32,10.32,0,0,0,3.59,4.08,3.65,3.65,0,0,0,3.16.44,4.42,4.42,0,0,1,2-.19,3.37,3.37,0,0,1,2.27,5.12,4.63,4.63,0,0,1-2.63,2.09,9.83,9.83,0,0,1-3,.51,22.43,22.43,0,0,1-9.37-2,30.54,30.54,0,0,1-7.87-4.8c-.78-.65-1.53-1.34-2.35-1.94a11.48,11.48,0,0,0-5.32-2.22,5.8,5.8,0,0,0-2.48.35,14,14,0,0,0-5.31,3.13,29.57,29.57,0,0,1-13.27,7,17,17,0,0,1-4.88.48,8.86,8.86,0,0,1-3.68-.89,4,4,0,0,1-2.19-4.18,3.28,3.28,0,0,1,3.77-2.66,7.7,7.7,0,0,1,1,.22,3.59,3.59,0,0,0,3-.39,10.18,10.18,0,0,0,3.71-4.15c.48-1,1-2,1.43-3.1a20.28,20.28,0,0,0,1.15-6.13,3.42,3.42,0,0,0,0-.44,6.88,6.88,0,0,1-.07-.77,9.82,9.82,0,0,0-1.35-4.93,1.48,1.48,0,0,0-.31-.3,11.26,11.26,0,0,0-.34-1.17,43.82,43.82,0,0,1-2.75-9.17,25.77,25.77,0,0,1-.42-6.44,17.24,17.24,0,0,1,8.5-14.19,24.33,24.33,0,0,1,9.68-3.29,30.58,30.58,0,0,1,5.23-.35,28.22,28.22,0,0,1,12.41,3.06,17.23,17.23,0,0,1,9.3,12.9,24,24,0,0,1-.07,7.42,42.73,42.73,0,0,1-3,10.36,5,5,0,0,0-.21.87c-.07,0-.18.07-.21.13a15.52,15.52,0,0,0-.92,2,14.42,14.42,0,0,0-.55,5.15,20.08,20.08,0,0,0,.71,4.25A15.4,15.4,0,0,0,1362.11,1186.33Zm-27-10.09a3.48,3.48,0,1,0-3.49-3.48A3.42,3.42,0,0,0,1335.15,1176.24Zm14,0a3.48,3.48,0,1,0,0-7,3.48,3.48,0,1,0,0,7Z"
        transform="translate(1130.71 294.07)" />
      <path class="cls-70"
        d="M1323,1170.66a1.48,1.48,0,0,1,.31.3,9.82,9.82,0,0,1,1.35,4.93,6.88,6.88,0,0,0,.07.77,3.42,3.42,0,0,1,0,.44,20.28,20.28,0,0,1-1.15,6.13c-.42,1.06-.95,2.07-1.43,3.1a24,24,0,0,1-5.54.38,8.83,8.83,0,0,1-4.2-1.16A3.9,3.9,0,0,1,1311,1184a2.15,2.15,0,0,1,1-3,4.43,4.43,0,0,1,3.28-.15,7.71,7.71,0,0,0,1.33.29,4.74,4.74,0,0,0,4-2s0-.12,0-.19a3.94,3.94,0,0,0,.54-.54,11,11,0,0,0,1.69-4.5Z"
        transform="translate(1130.71 294.07)" />
      <path class="cls-71"
        d="M1362.11,1186.33a15.4,15.4,0,0,1-1.78-4.15,20.08,20.08,0,0,1-.71-4.25,14.42,14.42,0,0,1,.55-5.15,15.52,15.52,0,0,1,.92-2c0-.06.14-.09.21-.13l.16,3.26a10.9,10.9,0,0,0,1.74,4.57,2.73,2.73,0,0,0,.49.47c0,.08,0,.19.06.24a4.59,4.59,0,0,0,5.1,1.72,4.7,4.7,0,0,1,2.8-.17,4,4,0,0,1,.95.41,2.1,2.1,0,0,1,.81,2.65,4.15,4.15,0,0,1-2.31,2.14,9.82,9.82,0,0,1-3.46.76A23.31,23.31,0,0,1,1362.11,1186.33Z"
        transform="translate(1130.71 294.07)" />
      <path class="cls-72"
        d="M1363.69,1179a2.73,2.73,0,0,1-.49-.47,10.9,10.9,0,0,1-1.74-4.57,12.87,12.87,0,0,1,1.85-.26,4.06,4.06,0,0,1,1.57.3,2.14,2.14,0,0,1,1.13,3A4,4,0,0,1,1363.69,1179Z"
        transform="translate(1130.71 294.07)" />
      <path class="cls-73"
        d="M1322.83,1173.92a11,11,0,0,1-1.69,4.5,3.94,3.94,0,0,1-.54.54,4.13,4.13,0,0,1-1.94-1.35,2.28,2.28,0,0,1,1.3-3.85,5,5,0,0,1,2.31,0Z"
        transform="translate(1130.71 294.07)" />
      <path class="cls-74" d="M1335.15,1176.24a3.42,3.42,0,0,1-3.49-3.48,3.46,3.46,0,0,1,3.47-3.48,3.48,3.48,0,1,1,0,7Z"
        transform="translate(1130.71 294.07)" />
      <path class="cls-74" d="M1349.16,1176.24a3.48,3.48,0,1,1,0-7,3.48,3.48,0,1,1,0,7Z"
        transform="translate(1130.71 294.07)" /><text class="cls-75"
        transform="translate(2194.43 1145.65)">DISCLAIMER</text><text class="cls-76"
        transform="translate(2200.18 1160.89)">The thumb down and <tspan x="8.99" y="15.57" xml:space="preserve">poop
          emoji have </tspan>
        <tspan class="cls-77">
          <tspan x="17.12" y="31.15">0.00</tspan>
          <tspan class="cls-12" x="48.01" y="31.15" xml:space="preserve"> weight</tspan>
        </tspan>
      </text>
      <path class="cls-12"
        d="M1033.76,847.63l-30.27,52.43a4.89,4.89,0,0,0,4.23,7.33h60.54a4.89,4.89,0,0,0,4.24-7.33l-30.27-52.43A4.89,4.89,0,0,0,1033.76,847.63Z"
        transform="translate(1130.71 294.07)" />
      <path class="cls-7"
        d="M1038,845.19a4.84,4.84,0,0,1,4.24,2.44l30.27,52.43a4.89,4.89,0,0,1-4.24,7.33h-60.54a4.89,4.89,0,0,1-4.23-7.33l30.27-52.43a4.84,4.84,0,0,1,4.23-2.44m0-8a12.91,12.91,0,0,0-11.16,6.44l-30.27,52.43a12.89,12.89,0,0,0,11.16,19.33h60.54a12.89,12.89,0,0,0,11.16-19.33l-30.27-52.43a12.9,12.9,0,0,0-11.16-6.44Z"
        transform="translate(1130.71 294.07)" />
      <path class="cls-4"
        d="M1032.17,896v-1.9c0-2.49,1.61-4.57,5.82-4.57s5.82,2.08,5.82,4.57V896c0,2.55-1.6,4.63-5.82,4.63S1032.17,898.55,1032.17,896Zm4.4-10.51-3.39-15v-12h9.62v12l-3.38,15Z"
        transform="translate(1130.71 294.07)" />
    </g>
  </g>
</svg>