<svg version="1.1" viewBox="0 0 1410.6 1916.4" xmlns="http://www.w3.org/2000/svg">
  <defs>
    <clipPath id="d">
      <path d="m0 1700.8h1133.9v-1700.8h-1133.9z"/>
    </clipPath>
    <clipPath id="b">
      <path d="m0 1700.8h1133.9v-1700.8h-1133.9z"/>
    </clipPath>
    <clipPath id="a">
      <path d="m0 1700.8h1133.9v-1700.8h-1133.9z"/>
    </clipPath>
    <clipPath id="f">
      <path d="m0 1700.8h1133.9v-1700.8h-1133.9z"/>
    </clipPath>
    <clipPath id="e">
      <path d="m0 1700.8h1133.9v-1700.8h-1133.9z"/>
    </clipPath>
    <clipPath id="c">
      <path d="m0 1700.8h1133.9v-1700.8h-1133.9z"/>
    </clipPath>
  </defs>
  <g transform="matrix(1.3333 0 0 -1.3333 -61.214 2128.5)">
    <g clip-path="url(#d)">
      <g transform="translate(571.54 1244.8)">
        <path d="m0 0c-230.5 0-417.36-184.53-417.36-412.17s186.86-412.17 417.36-412.17 417.36 184.53 417.36 412.17-186.86 412.17-417.36 412.17z" fill="none" stroke="#000" stroke-miterlimit="10" stroke-width="20"/>
      </g>
    </g>
    <text transform="matrix(1 0 0 -1 183.17 306.31)" fill="#231f20" font-family="Consolas" font-size="12px" font-weight="bold"><tspan x="0 6.5999999 13.2 19.799999 26.4 33 39.599998 46.200001 52.799999 59.400002 66 72.599998 79.199997 85.800003 92.400002 99 105.6 112.2 118.8 125.4 132 138.60001 145.2 151.8 158.39999 165 171.60001 178.2 184.8 191.39999 198 204.60001 211.2 217.8 224.39999" y="0">Players of MetaGame are on a quest </tspan><tspan x="0 6.5999999 13.2 19.799999 26.4 33 39.599998 46.200001 52.799999 59.400002 66 72.599998 79.199997 85.800003 92.400002 99 105.6 112.2 118.8 125.4 132 138.60001 145.2 151.8 158.39999 165 171.60001 178.2 184.8 191.39999 198 204.60001 211.2 217.8 224.39999 231" y="14.4">to change the way people coordinate </tspan><tspan x="0 6.5999999 13.2 19.799999 26.4 33 39.599998 46.200001 52.799999 59.400002 66 72.599998 79.199997 85.800003 92.400002 99 105.6 112.2 118.8 125.4 132 138.60001 145.2 151.8 158.39999 165 171.60001 178.2 184.8 191.39999 198 204.60001 211.2 217.8 224.39999 231 237.60001 244.2 250.8 257.39999" y="28.799999">around solving problems &amp; creating value</tspan></text>
    <g clip-path="url(#b)">
      <g transform="translate(133.99 333.25)">
        <path d="m0 0-31.32-18.156 32.001-57.194 32.001 57.194z"/>
      </g>
      <g transform="translate(133.98 334.45)">
        <path d="m0 0 .696-76.549" fill="none" stroke="#fff" stroke-miterlimit="10" stroke-width="2"/>
      </g>
      <g transform="translate(102.67 315.1)">
        <path d="m0 0 31.32-14.979" fill="none" stroke="#fff" stroke-miterlimit="10" stroke-width="2"/>
      </g>
      <g transform="translate(168.77 316.06)">
        <path d="m0 0-34.778-15.94" fill="none" stroke="#fff" stroke-miterlimit="10" stroke-width="2"/>
      </g>
    </g>
    <g clip-path="url(#a)">
      <g transform="translate(545.94 877.32)">
        <path d="m0 0c-.31-2.37-37.26-7.14-42.8-4.62-14.11 11.59-21.16 28.85-19.27 30.74.74.73 6.01-1.62 6.01-1.62s21.05-7.45 30.71-11.71c23.28-10.28 25.52-11.49 25.35-12.79" fill="#191919"/>
      </g>
      <g transform="translate(640.96 872.78)">
        <path d="m0 0c-5.54-2.52-42.5 2.24-42.81 4.61-.16 1.31 2.08 2.51 25.35 12.79 9.67 4.27 30.71 11.72 30.71 11.72s5.27 2.35 6.01 1.61c1.89-1.88-5.16-19.15-19.26-30.73" fill="#191919"/>
      </g>
      <g transform="translate(520.59 890.11)">
        <path d="m0 0c-9.66 4.26-30.71 11.71-30.71 11.71s-5.27 2.35-6.01 1.62c-1.89-1.89 5.16-19.15 19.27-30.74 5.54-2.52 42.49 2.25 42.8 4.62.17 1.3-2.07 2.51-25.35 12.79" fill="#fff"/>
      </g>
      <g transform="translate(640.96 872.78)">
        <path d="m0 0c-5.54-2.52-42.5 2.24-42.81 4.61-.16 1.31 2.08 2.51 25.35 12.79 9.67 4.27 30.71 11.72 30.71 11.72s5.27 2.35 6.01 1.61c1.89-1.88-5.16-19.15-19.26-30.73" fill="#fff"/>
      </g>
      <g transform="translate(707.26 753.19)">
        <path d="m0 0c-.67.62-1.26 1.21-1.79 1.77.01 0 .02-.01.02-.01.59-.59 1.18-1.17 1.77-1.76" fill="#fff"/>
      </g>
      <g transform="translate(868.11 671.16)">
        <path d="m0 0c-.37.07-.88-.19-1.63-.61.36.29.7.59 1.02.92z" fill="#fff"/>
      </g>
      <g transform="translate(804.03 704.19)">
        <path d="m0 0-98.54 50.77c.59-.59 1.18-1.17 1.769-1.76-.669.62-1.259 1.21-1.79 1.77-18.759 18.56-37.839 36.8-56.929 55-2.56 2.25 94.04-62.42 155.49-105.78m-95.29-60.12c.35-.61.58-1.01.69-1.2 10.88-19.17 17.93-31.71 14.22-25.59-10.27 16.95-43.09 63.41-45.46 66.75l-22.13 52.31c.29-.51 5.63-9.84 13.22-23.1.27-.48.55-.96.82-1.45 11.27-19.69 27.06-47.34 38.64-67.72m-67.78 228.72c-5.54-2.52-42.5 2.24-42.81 4.61-.16 1.31 2.08 2.51 25.35 12.79 9.67 4.27 30.71 11.72 30.71 11.72s5.27 2.35 6.009 1.61c1.891-1.88-5.159-19.15-19.259-30.73m-95.02 4.54c-.31-2.37-37.26-7.14-42.8-4.62-14.11 11.59-21.16 28.85-19.27 30.74.74.73 6.01-1.62 6.01-1.62s21.05-7.45 30.71-11.71c23.28-10.28 25.52-11.49 25.35-12.79m-74.931-182.53-.009-.01-7.33-17.21 7.21 17.03c-2.34-3.3-34.49-48.82-45.13-66.2-.11-.19-.22-.37-.33-.55-.161-.26-.3-.5-.42-.69-7.48-12.13 60.35 106.38 67.43 118.73.079.15.15.28.22.39.1.17.18.31.24.42.03.05.06.1.079.13l.051.1c.68 1.24 1.18 2.16 1.449 2.66.031.05.061.09.071.13h.01c-.44-1.01-10.49-24.36-23.541-54.93m472.06 212.42s-.46.59-1.101 1.25c-10.629 10.97-127.06 4.25-220.65-2.97l-14.67 1.52s-30 11.64-27.75 32.95c.63 1.2 13.39 24.6 13.81 25.27 8.16 13.18-24.8 34.31-18.4 60.04 21.23 37.91-.35 82.69-10.96 106.95 16.68 56.1 73.13 64.38 73.13 64.38l-161.68 184.99c-1.3 1.15-2.82 1.68-4.31 1.68-1.84 0-3.65-.82-4.95-2.3l-158.92-185.44s56.44-8.28 73.12-64.39c-10.61-24.25-32.19-69.04-10.96-106.95 6.4-25.73-26.561-46.86-18.4-60.04.42-.67 13.18-24.07 13.81-25.26-9.25-10.99-18.49-21.97-27.74-32.96l-14.67-1.52c-93.59 7.23-210.02 13.94-220.65 2.98-.65-.67-1.11-1.26-1.11-1.26-8.12-10.46 6.55-24.19 6.15-46.16-.22-11.95-6.89-28.25-5.3-35.65.19-.78.49-1.49.87-2.15 4.5-7.79 20.87-7.8 20.94-7.8 0 0 121.39-2.57 144.27 1.61l-134.62 6.76c61.62 6.32 203.29 23.41 200.06 22.55-4.05-1.08-65.44-29.31-65.44-29.31-20.93-8.83-131.64-55.58-135.73-59.25-1.219-1.09-2-2.43-2-2.43s-1.679-2.89-1.389-6.96c.92-12.64 21.28-20.58 31.36-38.72 9.79-17.62 9.9-32.38 16.87-38.68.199-.18.409-.35.62-.51.67-.37 1.59-1.01 2.87-1.65 4.62-2.33 13.95-4.75 33.28 4.95 19.41 8.3 122 78.87 123.6 79.98l-100.44-51.84c62.47 44.14 165.38 112.98 158.57 108.02-19.49-18.6-38.98-37.22-58.13-56.18-11.37-11.27-22.63-22.67-33.69-34.25-23.28-24.4-47.72-49.85-64.76-79.19-2.4-4.12-4.86-8.32-6.43-12.84-.65-1.85-1.14-3.8-1.09-5.76.17-6.48 6.24-11.47 11.03-14.96 2.62-1.91 8.19-5.38 8.19-5.38 5.02-3.41 9.16-7.97 12.07-13.3.46-.84.89-1.63 1.259-2.27 2.231-3.87 4.771-7.56 7.881-10.78 2.68-2.77 6.61-5.87 10.76-5.75 15.91-1.8 50.97 52.95 78.4 100.81-22.38-52.63-47.84-113.23-50.4-122.46-.6-2.16-.87-4.26-.85-6.33v-.09c.16-13.98 13.16-26.62 23.59-46.65 10.16-19.52 20.15-44.42 26.97-43.89.25-.13.51-.25.77-.35 6.71-2.88 14.14.16 16.339 13.28.011.06.021.12.04.19 4.311 13.81 14.451 96.14 25.131 114.6.31.55 3.93 6.9 10.63 7.47 6.47.55 13.16-4.54 14.84-12.38 4.56-12.83 12.84-53.78-4.32-100.08-.02-.04-.031-.08-.05-.12-5.64-12.79-9.28-14.06-14.271-18.9-.429-.42-.599-1.03-.449-1.61 11.64-44.37 44.39-110.32 45.739-113.04.031-.06.061-.12.081-.18.66-1.9 11.34-24.93 11.34.09v370.81c.13.03.25.04.38.06 4.449.56 9.13.12 12.02-.31v-370.5c0-25.14 10.679-2 11.34-.09.02.06.049.11.08.18 1.35 2.73 34.1 69.01 45.74 113.61.15.58-.021 1.19-.45 1.61-4.99 4.87-8.63 6.14-14.27 19-.02.04-.03.08-.051.12-17.159 46.54-8.879 87.69-4.319 100.59 1.68 7.88 8.37 12.99 14.84 12.44 6.7-.57 10.32-6.95 10.63-7.52 10.68-18.54 20.82-101.29 25.13-115.17.02-.06.03-.13.04-.19 2.29-13.69 10.21-16.47 17.11-13 .29.14.58.3.859.47 6.801.7 16.541 24.86 26.441 43.89 10.43 20.04 23.45 32.67 23.6 46.66v.09c.02 2.06-.25 4.16-.85 6.31-2.53 9.08-27.14 67.74-49.231 119.71 26.491-45.98 59.431-97.02 75.481-97.8.57-.16 1.15-.24 1.74-.26 4.16-.11 8.08 2.99 10.76 5.76 3.12 3.22 5.65 6.91 7.88 10.78.37.64.81 1.42 1.27 2.27 2.9 5.32 7.04 9.88 12.06 13.29 0 0 5.57 3.48 8.19 5.39 4.79 3.48 10.86 8.48 11.03 14.95.05 1.97-.44 3.91-1.09 5.77-1.571 4.52-4.031 8.71-6.43 12.84-17.04 29.33-41.48 54.79-64.76 79.18-10.83 11.35-21.841 22.51-32.98 33.56 20.72-19.47 104.01-70.73 123.15-78.91 14.26-6.67 23.15-7.3 28.73-6.33 3.61.63 5.83 1.94 7.23 2.7.36.29.7.59 1.02.92 6.52 6.53 6.84 21.02 16.4 38.23 10.08 18.14 30.45 26.08 31.359 38.72.291 4.07-1.379 6.96-1.379 6.96s-.78 1.33-2.01 2.43c-4.08 3.67-114.79 50.42-135.72 59.25 0 0-69.69 30.16-65.45 29.31 3.46-.69 148.01-17.66 205.16-23.16l-136.34-7.38c22.89-4.12 141.91-1.21 141.91-1.21.079 0 19.9.01 20.44 9.6 2.74 6.69-4.71 24.18-4.94 36.83-.4 21.97 14.26 35.69 6.14 46.16"/>
      </g>
      <g transform="translate(201.74 822.17)">
        <path d="m0 0c-.41.59-.7 1.31-.87 2.15.19-.78.49-1.49.87-2.15" fill="#fff"/>
      </g>
      <g transform="translate(279.55 667.78)">
        <path d="m0 0c-1.07.42-2.02.98-2.87 1.65.67-.37 1.59-1.01 2.87-1.65" fill="#fff"/>
      </g>
      <g transform="translate(425 627.16)">
        <path d="m0 0c.12.19.26.43.42.69.11.18.22.36.33.55 2.31 3.88 4.6 7.77 6.89 11.66 9.76 16.59 19.33 33.3 28.8 50.07 6.03 10.67 24.5 44 30.99 55.76-7.08-12.35-74.91-130.86-67.43-118.73" fill="#fff"/>
      </g>
      <g transform="translate(707.26 753.19)">
        <path d="m0 0c-.67.62-1.26 1.21-1.79 1.77.01 0 .02-.01.02-.01.59-.59 1.18-1.17 1.77-1.76" fill="#fff"/>
      </g>
      <g transform="translate(708.74 644.06)">
        <path d="m0 0c-9.17 15.63-18.18 31.36-27.08 47.14-3.87 6.85-7.72 13.71-11.56 20.58 11.27-19.69 27.06-47.34 38.64-67.72" fill="#fff"/>
      </g>
      <g transform="translate(866.48 670.55)">
        <path d="m0 0c-1.18-.93-2.54-1.65-4.15-2.12-1.03-.3-2.06-.49-3.08-.58 3.61.63 5.83 1.94 7.23 2.7" fill="#fff"/>
      </g>
      <g transform="translate(276.68 669.43)">
        <path d="m0 0c-.43.24-.76.36-1.01.31l.39.2c.2-.18.41-.35.62-.51" fill="#fff"/>
      </g>
      <g transform="translate(685.4 666.99)">
        <path d="m0 0-7.33 17.21c.02-.02.06-.08.12-.18z" fill="#fff"/>
      </g>
      <g transform="translate(545.94 877.32)">
        <path d="m0 0c-.31-2.37-37.26-7.14-42.8-4.62-14.11 11.59-21.16 28.85-19.27 30.74.74.73 6.01-1.62 6.01-1.62s21.05-7.45 30.71-11.71c23.28-10.28 25.52-11.49 25.35-12.79z" fill="none" stroke="#000" stroke-miterlimit="10" stroke-width="2"/>
      </g>
      <g transform="translate(640.96 872.78)">
        <path d="m0 0c-5.54-2.52-42.5 2.24-42.81 4.61-.16 1.31 2.08 2.51 25.35 12.79 9.67 4.27 30.71 11.72 30.71 11.72s5.27 2.35 6.01 1.61c1.89-1.88-5.16-19.15-19.26-30.73z" fill="none" stroke="#000" stroke-miterlimit="10" stroke-width="2"/>
      </g>
      <g transform="translate(734.3 541.25)">
        <path d="m0 0c.24-4.445-.97-8.88-2.672-12.99-1.75-4.117-4.02-7.966-6.337-11.743-4.674-7.536-9.534-14.892-13.587-22.69-4.094-7.804-7.856-15.814-11.98-23.661-2.054-3.927-4.195-7.822-6.614-11.561-1.236-1.85-2.518-3.683-4.031-5.335-.745-.832-1.575-1.604-2.507-2.235-.924-.609-2.071-1.064-3.172-.805 1.121-.152 2.159.387 2.998 1.051.851.673 1.606 1.47 2.278 2.334 1.366 1.71 2.506 3.599 3.599 5.503 2.19 3.814 4.129 7.778 6.055 11.749 3.824 7.959 7.509 16.006 11.603 23.886 2.089 3.936 4.354 7.769 6.73 11.519 2.393 3.739 4.865 7.414 7.318 11.081 2.417 3.687 4.836 7.374 6.761 11.313 1.964 3.909 3.342 8.147 3.558 12.584"/>
      </g>
      <g transform="translate(408.8 540.16)">
        <path d="m0 0c.217-4.456 1.605-8.71 3.582-12.634 1.938-3.952 4.374-7.652 6.8-11.354 2.463-3.683 4.945-7.373 7.344-11.131 2.386-3.766 4.644-7.625 6.743-11.576 4.099-7.916 7.803-15.996 11.649-23.983 1.94-3.984 3.891-7.963 6.111-11.78 1.105-1.907 2.272-3.787 3.665-5.485.7-.842 1.469-1.634 2.36-2.256.87-.622 1.988-1.037 3.076-.691-1.048-.45-2.276-.134-3.236.435-.976.58-1.82 1.348-2.596 2.16-1.542 1.64-2.853 3.466-4.102 5.32-2.449 3.744-4.603 7.654-6.671 11.594-4.147 7.878-7.927 15.918-12.029 23.763-4.059 7.836-8.927 15.229-13.625 22.793-2.324 3.794-4.612 7.653-6.375 11.784-1.715 4.124-2.935 8.577-2.696 13.041"/>
      </g>
      <g transform="translate(565.18 708.88)">
        <path d="m0 0c.965.568 2.016.858 3.062 1.067 1.051.194 2.115.266 3.173.237 1.059-.029 2.112-.163 3.147-.404 1.033-.252 2.053-.585 3.018-1.15-1.087-.264-2.127-.35-3.159-.416-1.032-.054-2.049-.06-3.064-.029-1.014.03-2.026.095-3.046.196-1.026.111-2.046.243-3.131.499"/>
      </g>
      <g transform="translate(408.79 540.18)">
        <path d="m0 0c.069-4.623 1.509-9.089 3.523-13.193 2.039-4.113 4.544-7.972 7.07-11.812 2.534-3.838 5.123-7.65 7.594-11.548 2.489-3.885 4.79-7.91 6.957-11.987 4.312-8.158 8.275-16.483 12.574-24.586 2.163-4.032 4.381-8.062 6.996-11.7.653-.907 1.346-1.772 2.075-2.563.713-.802 1.505-1.517 2.293-1.968.197-.136.387-.171.576-.272.185-.059.358-.09.525-.123.152.026.318-.035.452.037.143.029.284.051.433.152.604.334 1.203 1.151 1.675 2.054l-.143-.474c2.569 23.997 5.902 47.904 10.098 71.67 4.224 23.756 9.269 47.389 15.737 70.666 3.26 11.628 6.849 23.175 11.019 34.526 4.149 11.356 8.876 22.527 14.503 33.271 5.65 10.708 12.203 21.089 20.638 29.975 4.219 4.421 8.935 8.435 14.223 11.627 5.303 3.153 11.231 5.356 17.386 6.246l-.117-.021c.537.097.906.123 1.329.173.408.035.813.077 1.218.099.812.057 1.621.074 2.428.082 1.616.005 3.223-.074 4.821-.22 3.196-.275 6.35-.879 9.471-1.746 6.217-1.719 12.019-4.73 17.165-8.532 5.163-3.795 9.706-8.338 13.741-13.243 4.036-4.912 7.578-10.19 10.78-15.642 6.408-10.917 11.43-22.532 15.903-34.291 4.449-11.779 8.251-23.772 11.81-35.816 1.774-6.025 3.486-12.065 5.169-18.11 1.675-6.043 3.37-12.084 4.95-18.172 3.172-12.163 5.936-24.432 8.321-36.772 4.757-24.685 7.965-49.662 9.707-74.737l-.146.52c.472-.9 1.072-1.725 1.674-2.061.547-.331 1.176-.227 1.991.207 1.601.948 3.079 2.744 4.387 4.512 2.614 3.641 4.834 7.669 6.998 11.701 4.296 8.104 8.26 16.427 12.566 24.587 2.165 4.078 4.463 8.103 6.952 11.988 2.469 3.898 5.057 7.711 7.591 11.548 2.526 3.84 5.029 7.701 7.066 11.814 2.015 4.104 3.453 8.571 3.521 13.194.068-4.621-1.248-9.172-3.158-13.365-1.935-4.199-4.33-8.16-6.762-12.071-2.444-3.906-4.934-7.775-7.295-11.714-2.383-3.93-4.555-7.96-6.607-12.064-4.088-8.229-7.84-16.632-11.968-24.902-2.088-4.126-4.217-8.243-6.878-12.154-.687-.969-1.386-1.934-2.205-2.849-.822-.912-1.717-1.802-2.927-2.504-.309-.17-.612-.344-.987-.457-.181-.06-.353-.13-.544-.175l-.604-.091c-.394-.08-.841.015-1.256.051-.422.089-.822.247-1.175.446-1.41.838-2.131 2.028-2.728 3.139l-.128.237-.018.283c-1.643 24.979-4.905 49.845-9.62 74.424-2.375 12.287-5.126 24.501-8.285 36.61-1.569 6.052-3.263 12.088-4.937 18.13-1.682 6.037-3.39 12.065-5.158 18.071-3.549 12.007-7.334 23.943-11.749 35.633-4.438 11.669-9.414 23.166-15.714 33.895-3.147 5.359-6.617 10.526-10.545 15.304-3.926 4.774-8.322 9.162-13.27 12.799-4.931 3.644-10.45 6.501-16.335 8.127-2.922.812-5.943 1.397-9.001 1.658-1.524.14-3.052.214-4.573.209-.759-.007-1.518-.023-2.271-.076-.377-.02-.753-.059-1.125-.091l-1.005-.12-.117-.021c-5.778-.84-11.356-2.903-16.406-5.903-5.035-3.041-9.58-6.898-13.672-11.187-8.187-8.62-14.644-18.822-20.219-29.392-5.555-10.607-10.243-21.68-14.362-32.955-4.142-11.272-7.712-22.756-10.957-34.331-6.438-23.169-11.469-46.728-15.681-70.42-4.16-23.703-7.563-47.552-10.019-71.491l-.026-.258-.116-.217c-.593-1.11-1.32-2.308-2.733-3.139-.343-.21-.76-.343-1.182-.428-.418-.129-.84-.076-1.261-.076-.394.057-.793.147-1.149.271-.328.149-.701.275-.982.463-1.205.707-2.115 1.593-2.928 2.504-.814.918-1.532 1.876-2.203 2.853-2.665 3.912-4.789 8.031-6.877 12.158-4.129 8.271-7.878 16.675-11.97 24.902-2.054 4.104-4.227 8.134-6.609 12.064-2.362 3.939-4.852 7.807-7.296 11.715-2.433 3.91-4.824 7.875-6.757 12.076-1.908 4.194-3.221 8.748-3.15 13.369" fill="#fff"/>
      </g>
    </g>
    <text transform="matrix(1 0 0 -1 1032.2 282.78)" fill="#231f20" font-family="'Arcade Rounded'" font-size="12px"><tspan x="0 11.748" y="0">20</tspan><tspan x="0 11.748" y="12">21</tspan></text>
    <g clip-path="url(#f)">
      <g transform="translate(50.079 1596.4)">
        <path d="m0 0v-56.6h11.86v44.75l44.9.03-.01 11.85-44.89-.02z" fill="#231f20"/>
      </g>
    </g>
    <text transform="matrix(1 0 0 -1 953.27 269.94)" fill="#231f20" font-family="'Arcade Rounded'" font-size="27px"><tspan x="0 26.433001 52.866001" y="0">120</tspan></text>
    <g clip-path="url(#e)">
      <g transform="translate(945.61 282.78)">
        <path d="m0 0c0-6.71-5.44-12.15-12.15-12.15-2.21 0-4.28.59-6.07 1.63-1.79-1.04-3.86-1.63-6.08-1.63s-4.29.59-6.07 1.63c-1.79-1.04-3.87-1.63-6.08-1.63-2.73 0-5.25.9-7.28 2.42-2.03-1.52-4.55-2.42-7.29-2.42-6.71 0-12.15 5.44-12.15 12.15s5.44 12.15 12.15 12.15c2.74 0 5.26-.9 7.29-2.42 2.03 1.52 4.55 2.42 7.28 2.42 2.21 0 4.29-.59 6.08-1.63 1.78 1.04 3.85 1.63 6.07 1.63s4.29-.59 6.08-1.63c1.79 1.04 3.86 1.63 6.07 1.63 6.71 0 12.15-5.44 12.15-12.15" fill="#fff"/>
        <path d="m0 0c0-6.71-5.44-12.15-12.15-12.15-2.21 0-4.28.59-6.07 1.63-1.79-1.04-3.86-1.63-6.08-1.63s-4.29.59-6.07 1.63c-1.79-1.04-3.87-1.63-6.08-1.63-2.73 0-5.25.9-7.28 2.42-2.03-1.52-4.55-2.42-7.29-2.42-6.71 0-12.15 5.44-12.15 12.15s5.44 12.15 12.15 12.15c2.74 0 5.26-.9 7.29-2.42 2.03 1.52 4.55 2.42 7.28 2.42 2.21 0 4.29-.59 6.08-1.63 1.78 1.04 3.85 1.63 6.07 1.63s4.29-.59 6.08-1.63c1.79 1.04 3.86 1.63 6.07 1.63 6.71 0 12.15-5.44 12.15-12.15z" fill="none" stroke="#000" stroke-miterlimit="10" stroke-width="1.7"/>
      </g>
      <g transform="translate(678.19 684.02)">
        <path d="m0 0-.12.18 3.496-11.499 4.27-6.599s.248 1.905 0 2.505c-.247.6-5.258 11.153-5.258 11.153z"/>
      </g>
    </g>
    <g transform="translate(1101.7 1596.4)">
      <path d="m0 0v-56.6h-11.86v44.75l-44.9.03.01 11.85 44.89-.02z" fill="#231f20"/>
    </g>
    <g transform="translate(45.91 159.15)">
      <path d="m0 0v56.6h11.86v-44.75l44.9-.03-.01-11.85-44.89.02z" fill="#231f20"/>
    </g>
    <g transform="translate(1103.9 159.15)">
      <path d="m0 0v56.6h-11.86v-44.75l-44.9-.03.01-11.85 44.89.02z" fill="#231f20"/>
    </g>
    <g clip-path="url(#c)">
      <g transform="translate(214.37 1490)">
        <path d="m0 0c1.716 0 3.158-.598 4.324-1.794 1.164-1.196 1.748-2.653 1.748-4.37v-73.321c0-1.718-.584-3.174-1.748-4.369-1.166-1.196-2.608-1.794-4.324-1.794h-12.236c-1.718 0-3.173.598-4.369 1.794-1.196 1.195-1.794 2.651-1.794 4.369v36.707c0 2.084-.614 3.128-1.84 3.128-.614 0-1.748-.812-3.404-2.392-2.251-2.148-4.047-3.65-5.336-4.508-2.515-1.596-5.091-2.392-7.727-2.392-2.761 0-5.368.796-7.82 2.392-1.227.797-3.006 2.3-5.336 4.508-1.656 1.594-2.791 2.392-3.404 2.392-1.227 0-1.839-1.044-1.839-3.128v-36.707c0-1.718-.584-3.174-1.749-4.369-1.165-1.196-2.607-1.794-4.323-1.794h-12.236c-1.717 0-3.173.598-4.37 1.794-1.196 1.195-1.794 2.651-1.794 4.369v73.321c0 1.717.598 3.174 1.794 4.37 1.197 1.196 2.653 1.794 4.37 1.794h12.236c3.434 0 6.776-1.38 10.028-4.14.673-.552 3.188-3.067 7.543-7.544 2.698-2.759 4.998-4.139 6.9-4.139 1.84 0 4.107 1.38 6.807 4.139 4.354 4.477 6.868 6.992 7.544 7.544 3.25 2.76 6.624 4.14 10.119 4.14z" fill="#231f20"/>
      </g>
      <g transform="translate(232.68 1483.8)">
        <path d="m0 0c0 1.716.599 3.174 1.794 4.37 1.196 1.196 2.652 1.794 4.37 1.794h73.414c1.716 0 3.157-.598 4.323-1.794 1.164-1.196 1.748-2.654 1.748-4.37 0-1.656-.598-3.082-1.794-4.278s-2.622-1.794-4.277-1.794h-48.943c-1.718 0-3.174-.598-4.369-1.794-1.197-1.196-1.794-2.653-1.794-4.369v-12.144c0-1.718.597-3.174 1.794-4.37 1.195-1.196 2.651-1.794 4.369-1.794h36.707c1.656 0 3.082-.598 4.278-1.794s1.794-2.621 1.794-4.278c0-1.718-.584-3.175-1.748-4.369-1.165-1.196-2.608-1.794-4.324-1.794h-36.707c-1.718 0-3.174-.598-4.369-1.794-1.197-1.196-1.794-2.654-1.794-4.37v-12.143c0-1.718.597-3.174 1.794-4.371 1.195-1.195 2.651-1.794 4.369-1.794h48.943c1.655 0 3.081-.597 4.277-1.793s1.794-2.622 1.794-4.278c0-1.718-.584-3.175-1.748-4.37-1.165-1.196-2.607-1.794-4.323-1.794h-73.414c-1.718 0-3.174.598-4.37 1.794-1.195 1.196-1.794 2.652-1.794 4.37z" fill="#231f20"/>
      </g>
      <g transform="translate(342.71 1483.9)">
        <path d="m0 0c0 1.703.598 3.134 1.794 4.291 1.195 1.155 2.652 1.734 4.37 1.734h61.177c1.657 0 3.082-.593 4.278-1.78 1.196-1.188 1.794-2.602 1.794-4.245 0-4.14-3.005-6.21-9.016-6.21h-6.439c-6.012 0-9.016-2.053-9.016-6.157v-61.099c0-1.717-.584-3.173-1.748-4.366-1.165-1.194-2.607-1.791-4.323-1.791h-12.236c-1.718 0-3.174.597-4.37 1.791s-1.794 2.649-1.794 4.366v61.099c0 4.104-3.006 6.157-9.015 6.157h-6.44c-6.012 0-9.016 2.07-9.016 6.21" fill="#231f20"/>
      </g>
      <g transform="translate(489.62 1459.4)">
        <path d="m0 0c0 4.292-1.978 8.417-5.934 12.374-3.956 3.955-8.081 5.933-12.373 5.933-4.294 0-8.434-1.978-12.42-5.933-3.987-3.957-5.98-8.082-5.98-12.374v-12.236c0-1.718.599-3.174 1.794-4.369 1.196-1.196 2.652-1.794 4.37-1.794h24.471c1.717 0 3.158.598 4.324 1.794 1.165 1.195 1.748 2.651 1.748 4.369zm4.324 26.219 15.823-15.823c2.882-2.884 4.324-6.348 4.324-10.396v-48.942c0-1.718-.584-3.175-1.748-4.37-1.165-1.196-2.607-1.794-4.324-1.794h-12.235c-4.172 0-6.256 3.004-6.256 9.016 0 .736.03 1.809.092 3.219.061 1.41.092 2.484.092 3.221 0 6.009-2.055 9.015-6.164 9.015h-24.471c-4.171 0-6.255-3.006-6.255-9.015 0-.737.03-1.811.091-3.221s.092-2.483.092-3.219c0-6.012-2.055-9.016-6.163-9.016h-12.236c-1.717 0-3.174.598-4.37 1.794s-1.794 2.652-1.794 4.37v48.942c0 4.048 1.441 7.512 4.324 10.396 6.33 6.329 9.494 9.494 15.824 15.823 2.882 2.882 6.378 4.323 10.487 4.323h24.471c4.048 0 7.512-1.441 10.396-4.323" fill="#231f20"/>
      </g>
      <g transform="translate(628.54 1469.8)">
        <path d="m0 0c6.329 6.33 9.494 9.494 15.823 15.823 2.882 2.883 6.378 4.324 10.488 4.324h48.942c1.716 0 3.158-.598 4.324-1.794 1.164-1.196 1.748-2.653 1.748-4.37 0-1.655-.598-3.082-1.794-4.277-1.197-1.196-2.622-1.794-4.278-1.794h-36.707c-2.76 0-5.367-.798-7.819-2.392-7.054-4.54-10.58-9.875-10.58-16.008v-24.47c0-4.294 1.993-8.418 5.98-12.374 3.986-3.955 8.125-5.934 12.419-5.934h12.236c1.716 0 3.158.598 4.323 1.794s1.749 2.652 1.749 4.37v12.144c0 2.575-1.116 4.488-3.128 5.243-1.817.682-4.117 1.15-5.98 1.84-2.009.745-3.128 2.668-3.128 5.244 0 1.716.598 3.158 1.794 4.324 1.196 1.164 2.652 1.747 4.37 1.747h24.471c1.656 0 3.081-.597 4.278-1.794 1.196-1.195 1.794-2.621 1.794-4.277v-36.707c0-1.718-.584-3.174-1.748-4.37-1.166-1.195-2.608-1.793-4.324-1.793h-48.942c-4.11 0-7.606 1.44-10.488 4.323l-15.823 15.824c-2.884 2.882-4.324 6.348-4.324 10.396v24.47c0 4.109 1.44 7.604 4.324 10.488" fill="#231f20"/>
      </g>
      <g transform="translate(783.27 1459.4)">
        <path d="m0 0c0 4.292-1.978 8.417-5.934 12.374-3.956 3.955-8.081 5.933-12.373 5.933-4.294 0-8.433-1.978-12.42-5.933-3.987-3.957-5.979-8.082-5.979-12.374v-12.236c0-1.718.598-3.174 1.794-4.369 1.195-1.196 2.651-1.794 4.369-1.794h24.472c1.716 0 3.158.598 4.323 1.794 1.165 1.195 1.748 2.651 1.748 4.369zm4.324 26.219 15.823-15.823c2.882-2.884 4.324-6.348 4.324-10.396v-48.942c0-1.718-.584-3.174-1.748-4.37-1.166-1.196-2.607-1.794-4.324-1.794h-12.235c-4.172 0-6.256 3.004-6.256 9.016 0 .736.031 1.809.092 3.219.062 1.41.092 2.484.092 3.221 0 6.009-2.055 9.015-6.163 9.015h-24.472c-4.171 0-6.255-3.006-6.255-9.015 0-.737.03-1.811.092-3.221.061-1.41.092-2.483.092-3.219 0-6.012-2.056-9.016-6.164-9.016h-12.236c-1.717 0-3.174.598-4.37 1.794-1.195 1.196-1.793 2.652-1.793 4.37v48.942c0 4.048 1.44 7.512 4.324 10.396l15.823 15.823c2.882 2.882 6.378 4.323 10.487 4.323h24.471c4.048 0 7.512-1.441 10.396-4.323" fill="#231f20"/>
      </g>
      <g transform="translate(899.56 1490)">
        <path d="m0 0c1.716 0 3.157-.598 4.323-1.794 1.164-1.196 1.748-2.653 1.748-4.37v-73.321c0-1.718-.584-3.174-1.748-4.369-1.166-1.196-2.607-1.794-4.323-1.794h-12.236c-1.718 0-3.174.598-4.369 1.794-1.197 1.195-1.794 2.651-1.794 4.369-.001 12.236-.001 24.471-.001 36.707 0 2.084-.614 3.128-1.84 3.128-.614 0-1.748-.812-3.404-2.392-2.251-2.148-4.047-3.65-5.335-4.508-2.516-1.596-5.092-2.392-7.728-2.392-2.76 0-5.368.796-7.82 2.392-1.227.797-3.006 2.3-5.336 4.508-1.656 1.594-2.791 2.392-3.404 2.392-1.227 0-1.839-1.044-1.839-3.128v-36.707c0-1.718-.584-3.174-1.748-4.369-1.166-1.196-2.608-1.794-4.324-1.794h-12.236c-1.717 0-3.173.598-4.37 1.794-1.195 1.195-1.794 2.651-1.794 4.369v73.321c0 1.717.599 3.174 1.794 4.37 1.197 1.196 2.653 1.794 4.37 1.794h12.236c3.434 0 6.776-1.38 10.028-4.14.673-.552 3.188-3.067 7.543-7.544 2.698-2.759 4.998-4.139 6.9-4.139 1.84 0 4.108 1.38 6.808 4.139 4.354 4.477 6.868 6.992 7.544 7.544 3.25 2.76 6.624 4.14 10.119 4.14z" fill="#231f20"/>
      </g>
      <g transform="translate(917.86 1483.8)">
        <path d="m0 0c0 1.716.598 3.174 1.794 4.37s2.652 1.794 4.37 1.794h73.413c1.716 0 3.158-.598 4.324-1.794 1.164-1.196 1.748-2.654 1.748-4.37-.001-1.656-.598-3.082-1.795-4.278-1.196-1.196-2.622-1.794-4.277-1.794h-48.942c-1.718 0-3.174-.598-4.37-1.794s-1.794-2.653-1.794-4.369v-12.144c0-1.718.598-3.174 1.794-4.37 1.195-1.196 2.652-1.794 4.369-1.794h36.707c1.656 0 3.082-.598 4.278-1.794s1.794-2.621 1.794-4.278c0-1.718-.584-3.174-1.748-4.369-1.166-1.196-2.608-1.794-4.324-1.794h-36.707c-1.717 0-3.174-.598-4.369-1.794-1.196-1.196-1.794-2.654-1.794-4.37v-12.143c0-1.718.598-3.174 1.794-4.371 1.196-1.195 2.652-1.794 4.37-1.794h48.942c1.655 0 3.081-.597 4.277-1.793 1.197-1.196 1.794-2.622 1.795-4.278 0-1.718-.584-3.174-1.748-4.37-1.166-1.196-2.608-1.794-4.324-1.794h-73.413c-1.718 0-3.174.598-4.37 1.794s-1.794 2.652-1.794 4.37v73.321" fill="#231f20"/>
      </g>
    </g>
  </g>
</svg>
