<?xml version="1.0" encoding="UTF-8" standalone="no"?>
<svg
   width="100%"
   height="100%"
   viewBox="0 0 288.7493 223.90152"
   version="1.1"
   id="svg5"
   inkscape:version="1.1 (c4e8f9e, 2021-05-24)"
   sodipodi:docname="Dark Octo.svg"
   xmlns:inkscape="http://www.inkscape.org/namespaces/inkscape"
   xmlns:sodipodi="http://sodipodi.sourceforge.net/DTD/sodipodi-0.dtd"
   xmlns="http://www.w3.org/2000/svg"
   xmlns:svg="http://www.w3.org/2000/svg">
  <sodipodi:namedview
     id="namedview7"
     pagecolor="#505050"
     bordercolor="#ffffff"
     borderopacity="1"
     inkscape:pageshadow="0"
     inkscape:pageopacity="0"
     inkscape:pagecheckerboard="1"
     inkscape:document-units="mm"
     showgrid="false"
     fit-margin-top="0"
     fit-margin-left="0"
     fit-margin-right="0"
     fit-margin-bottom="0"
     inkscape:zoom="0.58268357"
     inkscape:cx="-653.8712"
     inkscape:cy="220.53136"
     inkscape:window-width="3440"
     inkscape:window-height="1369"
     inkscape:window-x="0"
     inkscape:window-y="34"
     inkscape:window-maximized="1"
     inkscape:current-layer="g1358" />
  <defs
     id="defs2">
    <linearGradient
       id="paint0_linear"
       x1="159579"
       y1="195366"
       x2="164087"
       y2="195366"
       gradientUnits="userSpaceOnUse"
       gradientTransform="matrix(0.26458333,0,0,0.26458333,-398.8821,-132.13713)">
      <stop
         stop-color="#190A35"
         stop-opacity="0"
         id="stop954" />
      <stop
         offset="0.0528"
         stop-color="#172047"
         stop-opacity="0.0906"
         id="stop956" />
      <stop
         offset="0.2033"
         stop-color="#115A77"
         stop-opacity="0.3281"
         id="stop958" />
      <stop
         offset="0.3531"
         stop-color="#0C8DA1"
         stop-opacity="0.5332"
         id="stop960" />
      <stop
         offset="0.4983"
         stop-color="#07B6C3"
         stop-opacity="0.7008"
         id="stop962" />
      <stop
         offset="0.6383"
         stop-color="#04D6DD"
         stop-opacity="0.8312"
         id="stop964" />
      <stop
         offset="0.7715"
         stop-color="#02ECF0"
         stop-opacity="0.9244"
         id="stop966" />
      <stop
         offset="0.8952"
         stop-color="#00FAFB"
         stop-opacity="0.9807"
         id="stop968" />
      <stop
         offset="1"
         stop-color="#00FFFF"
         id="stop970" />
    </linearGradient>
    <linearGradient
       id="paint1_linear"
       x1="215986"
       y1="250533"
       x2="222942"
       y2="250533"
       gradientUnits="userSpaceOnUse"
       gradientTransform="matrix(0.26458333,0,0,0.26458333,-398.8821,-132.13713)">
      <stop
         stop-color="#190A35"
         stop-opacity="0"
         id="stop973" />
      <stop
         offset="0.0528"
         stop-color="#172047"
         stop-opacity="0.0906"
         id="stop975" />
      <stop
         offset="0.2033"
         stop-color="#115A77"
         stop-opacity="0.3281"
         id="stop977" />
      <stop
         offset="0.3531"
         stop-color="#0C8DA1"
         stop-opacity="0.5332"
         id="stop979" />
      <stop
         offset="0.4983"
         stop-color="#07B6C3"
         stop-opacity="0.7008"
         id="stop981" />
      <stop
         offset="0.6383"
         stop-color="#04D6DD"
         stop-opacity="0.8312"
         id="stop983" />
      <stop
         offset="0.7715"
         stop-color="#02ECF0"
         stop-opacity="0.9244"
         id="stop985" />
      <stop
         offset="0.8952"
         stop-color="#00FAFB"
         stop-opacity="0.9807"
         id="stop987" />
      <stop
         offset="1"
         stop-color="#00FFFF"
         id="stop989" />
    </linearGradient>
    <filter
       style="color-interpolation-filters:sRGB"
       inkscape:label="Drop Shadow"
       id="filter1850"
       x="-0.039791791"
       y="-0.053179032"
       width="1.1020586"
       height="1.142057">
      <feFlood
         flood-opacity="0.803922"
         flood-color="rgb(35,24,3)"
         result="flood"
         id="feFlood1840" />
      <feComposite
         in="flood"
         in2="SourceGraphic"
         operator="in"
         result="composite1"
         id="feComposite1842" />
      <feGaussianBlur
         in="composite1"
         stdDeviation="9"
         result="blur"
         id="feGaussianBlur1844" />
      <feOffset
         dx="12.2"
         dy="14.5"
         result="offset"
         id="feOffset1846" />
      <feComposite
         in="SourceGraphic"
         in2="offset"
         operator="over"
         result="composite2"
         id="feComposite1848" />
    </filter>
  </defs>
  <g
     inkscape:label="Layer 1"
     inkscape:groupmode="layer"
     id="layer1"
     transform="translate(-5.6314125,3.7735027)">
    <g
       id="g1358"
       transform="matrix(0.48267629,0,0,0.48267629,208.58791,70.431997)"
       style="filter:url(#filter1850)">
      <path
         id="path6004"
         style="stroke-width:0.482676"
         d="m 318.9043,25.142578 c -2.75705,0 -5.56916,0.09408 -8.41211,0.28125 -15.88972,1.080435 -32.2551,5.713526 -47.24219,13.357422 -28.40359,14.339362 -51.88911,40.9155 -64.33008,72.6582 -11.55913,28.48466 -17.19998,57.07587 -16.76172,85.09571 0.2621,15.48618 2.50946,30.87484 6.6875,45.78906 4.19928,14.85242 10.30613,29.09957 18.16602,42.38281 7.44384,12.58338 16.2904,24.27969 26.37305,34.86719 6.88247,7.2802 14.2228,14.11572 21.97265,20.46484 -2.85937,-0.13025 -5.72104,-0.27539 -8.56836,-0.27539 -7.36516,0 -14.72406,0.43846 -22.03711,1.31445 l -1.44531,0.1875 c -2.9955,0.38181 -6.38866,0.8162 -9.54102,1.42969 l -5.3789,0.95508 -5.18555,1.13867 c -3.74316,0.80269 -7.23344,1.7527 -10.76953,2.74219 -3.03507,0.79544 -5.84821,1.70315 -8.33398,2.50391 l -2.13868,0.68554 c -30.6736,9.94458 -57.73405,26.92063 -78.18359,49.01563 -21.784824,23.33401 -36.422319,52.99139 -41.199218,83.4082 -2.499439,15.27285 -2.516618,30.84828 -0.05078,46.125 1.26352,7.67938 3.195225,15.22881 5.773437,22.57031 2.629766,7.31739 5.931739,14.37374 9.863281,21.07813 3.969907,6.71885 8.611077,13.01337 13.853516,18.79101 2.620736,2.85261 5.400999,5.55487 8.326174,8.09375 2.77485,2.42304 5.67913,4.69149 8.70117,6.80079 3.05052,2.17686 5.85448,3.97751 9.05078,5.82617 3.17842,1.83417 6.38427,3.48466 9.41211,4.85547 6.52336,2.96844 13.34746,5.22749 20.35352,6.73828 6.67825,1.45286 13.49147,2.19245 20.32617,2.19726 18.57773,0.009 36.70001,-5.74964 51.86328,-16.48437 l -0.20703,4.66406 -0.0293,4.12695 c 0.0241,2.03206 0.10344,4.83631 0.22656,6.71875 0.12059,2.21066 0.28481,4.42542 0.50782,6.4961 0.45703,4.54198 1.11986,8.97348 1.98046,13.25 1.80955,8.73644 4.43109,17.28335 7.83204,25.53711 3.43755,8.30686 7.62159,16.28205 12.5,23.83593 4.91698,7.50562 10.49253,14.55224 16.6621,21.06836 23.62846,24.97367 56.16346,42.0463 91.51563,48.05079 10.21972,1.76654 20.57111,2.6435 30.94141,2.63867 6.49054,-0.005 12.97683,-0.33678 19.43359,-0.99805 8.06793,-0.86882 16.07674,-2.21135 23.98828,-4.01172 3.59835,-0.8302 7.4043,-1.83453 11.86133,-3.14258 l 4.20703,-1.28711 5.99023,-1.99023 5.90821,-2.11328 c 1.32928,-0.49718 2.59574,-1.00789 3.86133,-1.51953 l 1.75195,-0.70508 c 4.24804,-1.76661 7.53586,-3.21501 10.53906,-4.6582 7.08183,-3.3353 13.96342,-7.08026 20.61133,-11.2168 13.84266,-8.53855 26.36878,-19.05117 37.18555,-31.19531 10.61115,-11.84489 19.33372,-25.24455 25.86914,-39.74414 0.94605,-2.06103 1.77271,-4.18068 2.63672,-6.28516 0.84468,2.07069 1.65919,4.16509 2.58593,6.1875 3.25805,7.16292 7.02887,14.0807 11.28125,20.69336 4.39718,6.7478 9.29658,13.15186 14.6543,19.16601 10.77815,12.10553 23.25878,22.58141 37.04883,31.10547 6.64646,4.14137 13.53541,7.89139 20.62109,11.23633 3.11328,1.4963 6.40079,2.94293 10.97656,4.83985 l 1.42383,0.57617 c 1.26943,0.51164 2.53353,1.02165 4.16016,1.625 l 5.14062,1.84375 6.80078,2.25976 4.09376,1.25586 c 4.22818,1.23565 8.03537,2.23921 11.66992,3.07422 7.94003,1.81004 15.97779,3.15071 24.07226,4.01953 6.4196,0.65162 12.86303,0.97956 19.31641,0.98438 10.33892,0.009 20.65841,-0.86807 30.84765,-2.625 35.44292,-6.01897 67.97399,-23.09113 91.63477,-48.09375 6.1831,-6.54028 11.77304,-13.61674 16.70117,-21.14649 4.85573,-7.52491 9.01727,-15.47406 12.43946,-23.75195 3.40769,-8.26826 6.0337,-16.83605 7.84375,-25.5918 0.84468,-4.19929 1.50418,-8.63015 1.94335,-13.02734 0.24134,-2.21066 0.40553,-4.4314 0.51172,-6.42969 0.13518,-2.09481 0.21806,-4.89763 0.24219,-6.92969 l -0.043,-4.45117 -0.19336,-4.33984 c 15.16088,10.7299 33.28508,16.49404 51.86328,16.48437 6.84437,-0.005 13.66455,-0.74347 20.34961,-2.20117 6.95536,-1.50111 13.73249,-3.74019 20.21485,-6.67969 3.14221,-1.42389 6.34628,-3.07493 9.50781,-4.90429 3.21461,-1.85348 6.01955,-3.65517 9.07038,-5.83203 2.9732,-2.07068 5.8305,-4.30401 8.5625,-6.6836 2.9974,-2.59197 5.8445,-5.3591 8.5234,-8.2793 5.2515,-5.79687 9.9006,-12.11443 13.873,-18.85742 3.929,-6.72367 7.2307,-13.79419 9.8516,-21.13086 2.5485,-7.28841 4.4599,-14.78479 5.7149,-22.40625 2.4568,-15.23809 2.4427,-30.77159 -0.043,-46.0039 -4.793,-30.51478 -19.428,-60.17145 -41.1485,-83.42969 -20.51344,-22.1703 -47.57769,-39.14687 -78.40623,-49.14062 l -2.00782,-0.64454 c -2.47612,-0.79931 -5.28025,-1.70063 -8.30664,-2.49414 -3.538,-0.98949 -7.02847,-1.94213 -10.6582,-2.7207 l -5.29883,-1.16016 -5.02929,-0.89257 c -3.49941,-0.67817 -6.89805,-1.11234 -9.89063,-1.49415 l -1.67969,-0.21484 c -7.23533,-0.85917 -14.51915,-1.28952 -21.80273,-1.28711 -2.84779,0 -5.70999,0.14559 -8.57227,0.27539 7.7373,-6.33657 15.06419,-13.15909 21.9375,-20.42578 10.10725,-10.60875 18.9743,-22.33003 26.43164,-34.93945 7.83384,-13.2403 13.92078,-27.43948 18.11524,-42.24219 4.20411,-14.98662 6.46202,-30.45173 6.72265,-46.01562 0.43442,-27.90014 -5.2082,-56.49138 -16.66211,-84.72071 -12.54471,-31.998035 -36.03099,-58.575112 -64.3496,-72.873044 -15.06917,-7.685308 -31.43613,-12.31806 -47.37891,-13.402344 -2.78988,-0.183414 -5.60525,-0.275391 -8.36133,-0.275391 -13.959,0 -27.19791,2.318982 -39.2793,6.867188 -16.02002,5.964766 -29.95531,15.505334 -40.23632,27.519531 -10.49338,12.160013 -17.6661,27.358439 -20.19532,42.75391 -0.81573,4.96529 -1.23149,9.98714 -1.23632,15.01953 -2.35545,-4.18867 -4.94254,-8.34007 -7.81446,-12.4375 C 644.93773,49.169088 565.17618,47.560547 556.21289,47.560547 h -0.78125 c -8.96331,0 -88.72677,1.608632 -127.76562,57.306643 -2.86903,4.09309 -5.45076,8.24047 -7.80664,12.42383 -0.009,-5.01212 -0.42058,-10.01544 -1.23438,-14.96094 C 416.08855,86.889251 408.91255,71.689586 398.48047,59.595703 388.14009,47.515375 374.2045,37.975589 358.26172,32.039062 346.10552,27.462622 332.86426,25.142578 318.9043,25.142578 Z m 9.21875,87.167972 c 3.87347,0.0681 7.61158,1.43118 10.61914,3.87304 3.00706,2.44186 5.1106,5.8212 5.97265,9.59766 9.19113,40.26534 -52.63884,52.99219 -52.65429,52.99219 0,0 34.08967,46.41865 90.41992,16.91797 7.32798,-3.83776 13.38104,-10.62066 18.7793,-17.89453 -3.63359,38.55853 6.11227,75.90001 16.83203,103.65624 l 3.09179,7.69141 c 5.20953,12.62344 11.31919,24.85515 18.28516,36.60156 -0.30119,0.48895 -0.56634,0.98912 -0.85352,1.48243 -0.35911,0.61684 -0.73247,1.22794 -1.06835,1.85156 -0.27513,0.5102 -0.51719,1.03038 -0.77735,1.54492 -0.32341,0.63954 -0.66071,1.27557 -0.96094,1.92188 -0.23748,0.51156 -0.44254,1.03089 -0.66601,1.54687 -0.28477,0.65837 -0.58262,1.31486 -0.84375,1.98047 -0.20224,0.51501 -0.37279,1.03728 -0.56055,1.55664 -0.2452,0.67719 -0.50354,1.35023 -0.72461,2.0332 -0.16309,0.50489 -0.29373,1.0191 -0.44336,1.52735 -0.20851,0.70663 -0.42839,1.41013 -0.61133,2.12304 -0.12551,0.49232 -0.2196,0.99111 -0.33398,1.48633 -0.0618,0.26981 -0.11834,0.54074 -0.18164,0.81055 -6.01703,-4.34506 -12.15218,-8.53714 -18.48828,-12.44922 -8.94496,-5.42866 -17.32063,-10.15486 -25.75781,-14.53516 l -5.90625,-3.0664 -5.7129,-3.09766 c -3.58864,-1.98669 -7.40249,-4.18641 -11.19921,-6.44727 -7.86666,-4.57811 -15.30454,-9.36514 -22.3125,-14.36132 -7.23243,-5.02369 -14.16755,-10.46366 -20.76953,-16.29102 -3.37873,-3.06546 -6.54751,-6.07678 -9.54493,-9.07226 -2.85552,-2.91055 -5.67257,-6.01794 -8.21289,-9.07618 -2.54227,-3.06113 -4.92764,-6.25073 -7.14844,-9.55273 l -1.24218,-1.92578 -1.67578,-2.54688 c -0.0701,-0.11383 -0.14255,-0.23238 -0.2168,-0.35547 -12.34928,-20.381 -16.82929,-44.57017 -12.59766,-68.02148 l 0.50196,-2.80078 c 1.63096,-8.91938 4.01712,-17.68385 7.13281,-26.19922 l 0.45312,-1.24609 0.70508,-1.84571 0.94336,-2.28711 c 0.45952,-1.05947 1.19048,-2.56885 1.91016,-3.95703 1.33266,-2.61031 2.87665,-5.10697 4.61719,-7.46484 1.60144,-2.15805 3.39187,-4.16884 5.3496,-6.00977 1.91914,-1.75646 3.97343,-3.35994 6.14258,-4.79687 5.88576,-3.77694 12.71596,-5.8202 19.70899,-5.89453 z m 455.39648,0 c 6.99398,0.0748 13.82425,2.11759 19.71289,5.89453 2.16722,1.43693 4.22246,3.04041 6.13867,4.79687 1.95967,1.84093 3.75196,3.85221 5.34961,6.00977 1.74245,2.35787 3.28696,4.85453 4.61914,7.46484 0.71919,1.38818 1.45163,2.89756 1.91016,3.95703 l 0.94141,2.28711 0.70507,1.84571 0.45313,1.24609 c 3.11809,8.51489 5.50332,17.27984 7.13477,26.19922 l 0.50195,2.79883 c 4.23306,23.45227 -0.24597,47.64099 -12.59766,68.02343 -0.0724,0.1226 -0.14449,0.24107 -0.21679,0.35547 l -1.67579,2.54688 -1.24023,1.92578 c -2.22031,3.30198 -4.60958,6.48964 -7.14844,9.55078 -2.54371,3.05824 -5.3574,6.16758 -8.21484,9.07813 -2.99744,2.99548 -6.16422,6.00678 -9.54297,9.07226 -6.60301,5.82734 -13.53904,11.26536 -20.76953,16.28906 -7.00846,4.99425 -14.44685,9.78226 -22.31446,14.36328 -3.79379,2.26086 -7.61097,4.45861 -11.19726,6.44532 l -5.71484,3.09961 -5.90821,3.0664 c -8.43719,4.37981 -16.81186,9.10504 -25.75586,14.53321 -6.33754,3.91209 -12.47218,8.10661 -18.48633,12.45117 -0.0628,-0.26981 -0.12076,-0.54121 -0.18359,-0.81055 -0.1111,-0.49522 -0.20847,-0.99401 -0.33398,-1.48633 -0.18342,-0.71291 -0.40378,-1.41641 -0.61133,-2.12304 -0.14959,-0.50827 -0.28122,-1.02295 -0.44531,-1.52735 -0.21722,-0.68347 -0.47844,-1.35648 -0.72461,-2.0332 -0.18825,-0.51983 -0.35586,-1.04358 -0.5586,-1.55859 -0.26063,-0.66561 -0.56091,-1.32015 -0.8457,-1.97852 -0.22202,-0.51598 -0.42468,-1.03578 -0.66602,-1.54687 -0.29925,-0.64681 -0.63559,-1.2838 -0.95898,-1.92383 -0.26065,-0.51453 -0.50222,-1.03279 -0.77734,-1.54297 -0.33305,-0.62362 -0.71119,-1.23519 -1.06836,-1.85156 -0.28961,-0.49378 -0.55426,-0.99348 -0.85352,-1.48243 6.96501,-11.74593 13.07513,-23.97958 18.2832,-36.60351 l 3.09375,-7.68946 c 10.72025,-27.75673 20.4666,-65.09818 16.83204,-103.65624 5.40115,7.27388 11.45423,14.05725 18.78125,17.89453 56.32833,29.50069 90.41992,-16.91797 90.41992,-16.91797 -0.0193,0 -61.84642,-12.72637 -52.65625,-52.99219 0.864,-3.77646 2.96362,-7.1558 5.9707,-9.59766 3.00707,-2.44186 6.74807,-3.8045 10.61914,-3.87304 z m 95.33399,320.77148 c 2.20608,-0.0442 4.32907,0.009 6.35546,0.16797 17.35405,1.35908 36.71284,10.29909 55.20508,19.21484 47.70651,23.001 50.31629,85.29763 46.97266,90.03516 -6.8238,9.66852 -16.40282,22.31777 -34.20508,22.38867 -4.56509,0.0189 -45.45674,-5.4322 -34.10742,-47.32422 4.20609,-15.52528 -23.90085,-29.83162 -36.69141,6.80274 -9.09377,26.04604 -38.07296,-36.10763 -103.82226,-42.52735 15.70204,-25.25963 67.20171,-48.09443 100.29297,-48.75781 z M 235.75,433.27539 c 33.09126,0.66338 84.59093,23.49818 100.29297,48.75781 -65.7493,6.41972 -94.7285,68.57339 -103.82227,42.52735 -12.79056,-36.63436 -40.89749,-22.32802 -36.6914,-6.80274 11.34932,41.89202 -29.54237,47.34312 -34.10742,47.32422 -17.80226,-0.0709 -27.38128,-12.72015 -34.20508,-22.38867 -3.34363,-4.73753 -0.73386,-67.03416 46.97265,-90.03516 18.49224,-8.91575 37.85103,-17.85576 55.20508,-19.21484 2.02639,-0.1587 4.14939,-0.21219 6.35547,-0.16797 z m 378.16016,90.9043 69.20898,14.55469 c -7.39313,35.40574 -0.0576,49.60276 13.79297,54.41992 12.60023,-13.91577 20.4061,-36.20863 37.80078,-41.74805 59.29484,-18.88268 73.87996,22.88796 79.28711,30.40625 27.04051,37.59802 -6.66142,83.6701 -16.76367,89.70703 -13.07261,7.81197 -90.20726,41.92934 -146.59766,-10.61914 -34.5232,-32.17111 -36.72851,-136.7207 -36.72851,-136.7207 z m -113.2168,0.19336 c 0,0 -2.20532,104.54959 -36.72852,136.7207 -56.39039,52.54848 -133.52504,18.43306 -146.59765,10.62109 -10.10225,-6.03693 -43.80224,-52.11096 -16.76172,-89.70898 5.40715,-7.51829 19.99033,-49.28698 79.28515,-30.4043 17.39469,5.53942 25.20055,27.83033 37.80079,41.7461 13.85058,-4.81716 21.18805,-19.01222 13.79492,-54.41797 z"
         transform="matrix(0.54815896,0,0,0.54815896,-432.14866,-145.91974)" />
      <path
         d="m -102.59639,64.712341 c 0,0 4.489976,-10.45078 16.705786,-14.78253 0,0 0.96573,18.61978 -16.705786,14.78253 z"
         fill="#3372fe"
         id="path826"
         style="stroke-width:0.264583" />
      <path
         d="m -153.34877,64.271541 c 0,0 -4.21137,-9.80466 -15.67259,-13.86866 0,0 -0.90435,17.46832 15.67259,13.86866 z"
         fill="#f43253"
         id="path828"
         style="stroke-width:0.264583" />
      <path
         d="m -154.42827,33.259731 c 10.07587,5.37872 24.60361,17.57707 19.07276,30.34692 -3.1459,7.26228 -8.31321,10.34071 -11.54668,11.60594 -0.19897,0.077 -0.3691,0.21405 -0.48631,0.39212 -0.11747,0.17833 -0.17621,0.38867 -0.16827,0.60166 0.008,0.21325 0.082,0.41857 0.21219,0.58764 0.13018,0.16907 0.30983,0.29316 0.51409,0.35507 0.40799,0.12303 0.78899,0.22648 1.13982,0.3138 0.20188,0.05 0.38391,0.16007 0.5215,0.31591 0.13784,0.15584 0.22489,0.34978 0.25003,0.55615 0.0249,0.20638 -0.0135,0.4154 -0.11007,0.59955 -0.0968,0.18415 -0.24712,0.33443 -0.43127,0.43127 -9.61152,5.06571 -21.9112,3.59675 -29.8024,-2.78739 -7.18767,-5.81474 -12.74101,-22.2668 -7.48983,-33.44862 0.0942,-0.19791 0.24924,-0.36036 0.44239,-0.46382 0.19314,-0.10345 0.41433,-0.14208 0.63103,-0.11033 0.21696,0.0317 0.41778,0.13203 0.57335,0.28628 0.15558,0.15425 0.2577,0.35428 0.29131,0.57071 0.69029,4.44791 2.7215,12.90955 8.5672,19.33654 6.79742,7.47369 16.37639,5.62795 21.12645,2.79638 0.1905,-0.11192 0.41196,-0.15901 0.6313,-0.13467 0.2196,0.0243 0.42545,0.1188 0.58685,0.26961 0.16139,0.15055 0.26987,0.34952 0.30903,0.56674 0.0392,0.21722 0.007,0.44159 -0.091,0.63923 -0.0122,0.0241 -0.0243,0.0484 -0.0368,0.0728 -0.10346,0.19923 -0.13865,0.42704 -0.10028,0.64823 0.0386,0.22119 0.14843,0.4236 0.313,0.57626 0.16484,0.15293 0.37492,0.24739 0.59822,0.26909 0.22358,0.0217 0.44794,-0.0304 0.63897,-0.14844 3.19723,-1.97167 5.66314,-4.93342 7.02257,-8.43491 0.0794,-0.195 0.0968,-0.40958 0.0505,-0.61463 -0.0466,-0.20532 -0.15505,-0.39132 -0.31062,-0.53287 -0.15558,-0.14182 -0.35084,-0.2323 -0.5596,-0.25929 -0.20875,-0.0273 -0.42068,0.0106 -0.60721,0.10768 -1.57189,0.8509 -3.82614,1.37002 -6.55506,0.0434 -5.42078,-2.63551 -5.77717,-14.15256 -30.6578,-22.11731 -0.16113,-0.0503 -0.33258,-0.0606 -0.49874,-0.0299 -0.16615,0.0304 -0.32252,0.10134 -0.45534,0.20585 -4.55375,3.54092 -6.32884,8.47301 -6.92785,12.72169 -0.16987,1.20333 -1.93279,1.14777 -2.03677,-0.0632 -0.50588,-5.90127 1.19142,-10.66297 3.87615,-14.6304 3.72904,-5.51101 1.93622,-8.96012 1.93622,-8.96012 l 0.04,0.0132 c -0.055,-0.10662 -0.1016,-0.20478 -0.1561,-0.31088 -0.0132,-0.0257 -0.0251,-0.0511 -0.036,-0.0778 -1.37345,-3.43059 -21.85193,-34.4355195 -15.76837,-62.100354 1.00701,-4.579408 4.11612,-4.419335 2.13175,-0.170921 -0.0624,0.13335 -0.12409,0.26723 -0.18521,0.401638 -0.0894,0.198967 -0.23971,0.364331 -0.42942,0.471752 -0.1897,0.107685 -0.40904,0.151871 -0.62547,0.126206 -0.2167,-0.02566 -0.41937,-0.119591 -0.57865,-0.268552 -0.15954,-0.148696 -0.26723,-0.344487 -0.30771,-0.5588 0,0 0.26617,-13.724731 4.72308,-30.018037 7.91104,-28.920017 33.96933,-49.202843 63.9445,-49.908063 0.9181,-0.0216 1.41817,-0.015 1.41817,-0.015 0,0 43.992266,-0.60471 63.878346,26.981308 33.89048,47.010109 -7.08025,110.786863 -7.85812,111.986743 -0.008,0.0127 -0.0132,0.0243 -0.0212,0.0376 -0.71438,1.23005 -1.31763,2.35189 -1.8706,3.42451 0.0106,-0.003 0.045,-0.0146 0.045,-0.0146 0,0 -1.79387,3.44911 1.93675,8.96012 2.68288,3.96743 4.3815,8.72913 3.87615,14.6304 -0.10583,1.211 -1.86796,1.26656 -2.03729,0.0632 -0.60061,-4.24868 -2.37596,-9.18077 -6.92944,-12.72169 -0.13229,-0.10451 -0.28839,-0.17542 -0.45508,-0.20585 -0.16669,-0.0307 -0.33602,-0.0204 -0.49742,0.0299 -24.881416,7.96475 -25.238596,19.4818 -30.657266,22.11731 -2.7305,1.32663 -4.98475,0.80751 -6.55637,-0.0434 -0.18786,-0.0971 -0.39953,-0.13467 -0.6059,-0.10768 -0.20902,0.027 -0.40481,0.11747 -0.56092,0.25929 -0.1561,0.14155 -0.26458,0.32755 -0.30956,0.53287 -0.0476,0.20505 -0.0291,0.41963 0.0503,0.61463 1.35996,3.50202 3.82588,6.46403 7.02204,8.43571 0.1905,0.11774 0.41275,0.17039 0.635,0.15002 0.22225,-0.0204 0.43392,-0.11272 0.59796,-0.263 0.16404,-0.15028 0.27517,-0.35031 0.3175,-0.56991 0.0397,-0.21934 0.008,-0.44609 -0.0926,-0.64559 -0.0132,-0.0299 -0.0291,-0.0598 -0.045,-0.0897 -0.0979,-0.19764 -0.12965,-0.42174 -0.09,-0.63923 0.037,-0.21749 0.14552,-0.41619 0.30692,-0.567 0.16139,-0.15108 0.36777,-0.24554 0.58737,-0.26988 0.21961,-0.0243 0.44186,0.0228 0.63236,0.13441 4.74927,2.83183 14.329826,4.67757 21.126966,-2.79612 5.84465,-6.42699 7.87665,-14.8889 8.56721,-19.33681 0.0317,-0.21643 0.13494,-0.41645 0.29104,-0.5707 0.15611,-0.15425 0.35455,-0.25453 0.5715,-0.28628 0.21696,-0.0315 0.43921,0.007 0.63236,0.11033 0.19314,0.10345 0.34925,0.26591 0.44185,0.46381 5.25198,11.18209 -0.30162,27.63388 -7.49035,33.44863 -7.88988,6.38413 -20.190356,7.85336 -29.802666,2.78738 -0.18256,-0.0966 -0.33337,-0.24685 -0.43127,-0.431 -0.0952,-0.18415 -0.13494,-0.39344 -0.10848,-0.59981 0.0238,-0.20638 0.11113,-0.40032 0.24871,-0.55616 0.13758,-0.15557 0.32015,-0.2659 0.52123,-0.31591 0.3519,-0.0873 0.7329,-0.19076 1.14035,-0.31353 0.20373,-0.0622 0.38365,-0.18627 0.51594,-0.35534 0.12965,-0.1688 0.20373,-0.37438 0.21167,-0.58737 0.008,-0.21325 -0.0503,-0.4236 -0.16934,-0.60166 -0.11641,-0.17807 -0.28575,-0.31539 -0.48683,-0.39212 -3.23321,-1.2655 -8.40052,-4.34366 -11.54642,-11.60621 -5.53243,-12.76958 8.99848,-24.9682 19.07382,-30.34691"
         fill="#280b60"
         id="path830"
         style="stroke-width:0.264583" />
      <path
         d="m -159.18997,-61.989737 29.74631,-17.80249 v 69.040638 z m 31.86297,-20.809744 v -0.726281 l -0.61383,0.3683 c -0.30956,-0.07197 -0.63765,-0.0217 -0.91546,0.151077 l -32.62074,19.522546 c -0.26855,0.157956 -0.47122,0.42492 -0.55854,0.73025 l -0.0336,0.02011 0.0196,0.0336 c -0.0688,0.289983 -0.0339,0.610129 0.14579,0.902758 l 32.61889,56.1911525 c 0.16404,0.29607 0.42862,0.48842 0.71437,0.57467 l 1.24354,2.14128 v -2.4728 c 0.21432,-0.22781 0.33602,-0.53234 0.33602,-0.8427 V -81.962339 c 0,-0.358511 -0.15081,-0.640557 -0.33602,-0.837142 z"
         fill="#00ffb6"
         stroke="#00ffb6"
         stroke-width="8"
         id="path832" />
      <path
         d="M -93.825454,-61.624612 -125.17329,-9.6948385 V -79.829004 Z m 2.32568,-1.482725 -0.005,-0.0048 -0.008,-0.0048 -34.255596,-19.886348 c -0.27517,-0.16854 -0.60325,-0.216959 -0.90752,-0.145521 l -0.61383,-0.357188 v 0.709613 c -0.2249,0.236802 -0.33603,0.549275 -0.33603,0.842433 v 76.6669895 c 0,0.31009 0.11907,0.61462 0.33603,0.84243 v 2.35162 l 1.21179,-2.01031 c 0.33073,-0.0907 0.56621,-0.31035 0.70379,-0.51514 l 0.0106,-0.0185 0.0106,-0.0191 34.258246,-56.7491545 c 0.254,-0.389996 0.1852,-0.792427 0.16139,-0.9017 0,-0.004 0,-0.0079 0,-0.01191 l 0.0318,-0.0553 -0.0556,-0.03175 c -0.0926,-0.32438 -0.30692,-0.560123 -0.5424,-0.701675 z"
         fill="#00ffb6"
         stroke="#00ffb6"
         stroke-width="8"
         id="path834" />
      <path
         d="m -161.24102,-61.00046 32.48263,15.367793 c 0.11641,0.05636 0.29898,0.12118 0.52387,0.12118 0.43392,0 0.88371,-0.236273 1.10861,-0.688711 l 0.0185,-0.03916 0.0159,-0.04075 c 0.22225,-0.556948 0.0185,-1.257565 -0.59002,-1.563687 l -0.0132,-0.0058 -0.0106,-0.0056 -32.48819,-15.370439 -0.0283,-0.01323 -0.0291,-0.01191 c -0.56595,-0.227806 -1.26736,-0.01217 -1.56898,0.595313 l -0.0196,0.03916 -0.0161,0.04075 c -0.22146,0.556948 -0.0169,1.257565 0.59134,1.563688 l 0.0116,0.0058 z"
         fill="#00ffb6"
         stroke="#00ffb6"
         stroke-width="8"
         id="path836" />
      <path
         d="m -126.90102,-47.758064 c -0.6006,0.260614 -0.91016,0.97446 -0.62971,1.607608 0.21167,0.502179 0.68792,0.740039 1.12184,0.740039 0.003,0 0.0344,2.65e-4 0.0688,-0.0016 0.0397,-0.0019 0.10054,-0.0066 0.17462,-0.02143 0.11113,-0.02249 0.21167,-0.06006 0.29898,-0.105569 l 34.186816,-15.449021 c 0.60589,-0.262731 0.91545,-0.986102 0.62441,-1.622954 -0.26458,-0.595313 -0.98689,-0.913342 -1.62983,-0.608542 z"
         fill="#00ffb6"
         stroke="#00ffb6"
         stroke-width="8"
         id="path838" />
      <path
         d="m -136.97953,103.63096 c 0.61278,-1.91876 1.33589,-3.800469 2.16562,-5.635619 0.71623,-1.4904 1.27185,-2.66171 1.70841,-3.40969 0.42069,-0.7665 0.63765,-1.16178 0.63765,-1.16178 l -0.9869,0.88476 c -0.97419,0.8636 -1.90367,1.77615 -2.78526,2.73368 -3.42001,3.741999 -6.19681,8.024549 -8.21743,12.674069 -2.74955,6.03409 -4.70297,14.06578 -5.49461,23.14522 -0.45481,4.53231 -0.58023,9.32392 -0.75406,14.18696 -0.0871,2.41564 -0.19367,4.89743 -0.33417,7.23106 -0.0939,1.2356 -0.18891,2.48708 -0.28469,3.75179 -0.0873,1.34144 -0.17542,2.69611 -0.26432,4.064 -0.36354,5.29167 -0.71728,10.51454 -1.51685,15.78769 0,0 -4.88818,51.08046 -44.47911,65.0531 0,0 5.84147,-4.12221 10.95613,-12.85875 -2.53206,1.35467 -5.13953,2.56646 -7.80997,3.62479 -1.36419,0.55563 -2.77019,1.05834 -4.18782,1.54517 l -2.12831,0.6985 -2.01295,0.62706 -2.50111,0.71967 -0.31644,0.09 -0.15822,0.045 c 0.0325,-0.0106 -0.2958,0.0873 0.0325,-0.0132 l -0.54107,0.13494 -1.08162,0.27252 c -1.44303,0.35454 -2.89586,0.64558 -4.34525,0.93398 -2.88581,0.55033 -5.80152,0.93133 -8.73178,1.143 -5.7523,0.45243 -11.53874,0.17991 -17.22358,-0.80963 -11.19478,-1.94469 -21.57439,-6.98764 -29.22852,-14.35364 -3.77375,-3.5904 -6.91171,-7.79728 -9.28052,-12.43542 -1.13956,-2.27013 -2.06349,-4.64079 -2.75961,-7.0829 -0.37333,-1.2065 -0.68527,-2.43152 -0.93609,-3.66977 -0.13362,-0.61912 -0.24236,-1.24089 -0.34132,-1.86531 -0.10795,-0.6694 -0.16113,-1.01071 -0.25029,-1.70656 l -0.10425,-1.24619 -0.0257,-0.31221 c -0.0103,-0.25135 -0.002,0.16669 -0.004,0.0794 l -0.005,-0.12436 -0.0206,-0.49741 -0.0937,-1.99232 c -0.0246,-0.66146 0.01,-1.31498 0.006,-1.97114 -7.9e-4,-0.65882 0.002,-1.31498 0.0624,-1.95792 0.10901,-2.5691 0.41143,-5.12762 0.90461,-7.65175 0.50509,-2.46592 1.19724,-4.8895 2.07063,-7.25223 0.89271,-2.3151 1.93067,-4.56935 3.10727,-6.75217 4.72175,-8.35289 11.73321,-15.1765 20.20755,-19.67441 0.94509,-0.51329 1.9013,-0.98161 2.86359,-1.41288 -7.38373,-0.77523 -12.64232,-0.29633 -12.64232,-0.29633 27.36426,-11.61521 45.69671,0 45.69671,0 l -0.005,0.008 c 3.25093,1.83885 6.07748,4.34446 8.29469,7.34748 0.7485,0.9816 1.43668,2.00554 2.0611,3.06652 1.00462,1.72508 1.87404,3.52689 2.60059,5.38691 1.18586,3.08769 1.5076,4.88686 1.5076,4.88686 0,0 0.072,-0.4445 0.13732,-1.32292 0.0971,-1.30439 0.10927,-2.61144 0.0368,-3.91848 -0.11245,-2.14312 -0.42465,-4.27302 -0.93265,-6.36058 -0.69639,-2.92629 -1.80235,-5.74146 -3.28507,-8.35819 -1.91638,-3.40519 -4.45611,-6.42144 -7.48692,-8.88735 -1.75154,-1.42346 -3.63325,-2.68023 -5.62027,-3.75179 -2.13916,-1.12184 -4.36933,-2.06375 -6.66671,-2.81094 -1.18057,-0.43074 -2.38919,-0.7022 -3.62744,-1.0541 -0.61939,-0.13441 -1.24354,-0.26961 -1.87245,-0.40587 -0.57838,-0.11562 -1.0541,-0.25135 -1.80764,-0.33919 -1.39382,-0.19818 -2.8448,-0.39423 -4.16666,-0.4707 -1.36472,-0.13388 -2.7424,-0.14525 -4.14919,-0.1688 -2.88079,-0.009 -5.75707,0.22145 -8.59949,0.68791 -2.98715,0.46779 -5.9346,1.16179 -8.81671,2.0746 -11.76708,3.69094 -23.68656,11.36386 -32.54322,23.10606 -2.2479,2.97657 -4.24868,6.13305 -5.98276,9.43769 -1.75154,3.42106 -3.23321,6.97177 -4.43204,10.62567 -0.32544,0.9181 -0.55668,1.86267 -0.83635,2.79929 -0.27172,0.94192 -0.54107,1.88648 -0.74109,2.84427 -0.21458,0.95779 -0.42995,1.92088 -0.64585,2.88396 -0.15822,0.97102 -0.31697,1.94469 -0.47625,2.921 -0.16934,0.97896 -0.27279,1.96056 -0.36671,2.94746 -0.0921,0.98425 -0.21511,1.97644 -0.27332,2.96598 -0.0452,0.99218 -0.0908,1.98437 -0.13626,2.97921 l -0.0312,0.74877 -0.008,0.18785 0.002,0.39158 -0.004,0.31221 -0.0161,1.24884 c 0.0127,0.96837 0.0474,2.29922 0.11113,3.29406 0.0574,1.04246 0.13361,2.08756 0.24553,3.13266 0.21034,2.09286 0.51329,4.18836 0.93345,6.27328 0.87074,4.20158 2.13281,8.3132 3.76952,12.27931 1.65735,4.00844 3.67454,7.85812 6.02722,11.50144 2.38812,3.64331 5.09613,7.06437 8.09228,10.22614 12.00573,12.68942 28.38503,20.79096 45.20723,23.65111 8.34099,1.42345 16.83756,1.69862 25.25342,0.8202 4.11216,-0.44185 8.19468,-1.12712 12.22667,-2.04787 1.99707,-0.45773 3.96822,-0.98954 5.91581,-1.56369 l 1.45442,-0.44185 0.72628,-0.22225 0.81518,-0.26723 2.51963,-0.84138 2.95592,-1.05833 c 0.96388,-0.36248 1.85791,-0.73819 2.78686,-1.10596 1.83727,-0.762 3.66421,-1.55046 5.46735,-2.41564 3.62691,-1.70921 7.15169,-3.62744 10.55661,-5.74675 6.84927,-4.23598 13.05084,-9.44034 18.41288,-15.45167 2.63155,-2.95275 5.03661,-6.096 7.19508,-9.41123 2.07883,-3.23321 3.92007,-6.61723 5.50969,-10.11767 3.00513,-6.58812 5.14508,-13.53873 6.3664,-20.67454 2.43575,-13.58106 1.64994,-26.29429 0.39449,-37.08135 -0.15002,-1.29911 -0.29818,-2.58234 -0.44476,-3.85498 -0.14129,-1.34409 -0.28125,-2.67759 -0.41937,-3.99256 -0.31115,-2.77284 -0.74215,-5.2705 -1.14882,-7.70732 -0.82655,-4.83923 -1.56183,-9.26041 -2.12936,-13.3985 -0.51938,-3.82376 -0.81783,-7.67371 -0.8935,-11.53133 -0.0484,-3.26205 0.16087,-6.52251 0.626,-9.75175 0.39873,-2.63631 0.99484,-5.23901 1.78329,-7.78616 z"
         fill="#280b60"
         id="path840"
         style="stroke-width:0.264583" />
      <path
         d="m -154.58199,103.29573 c -2.64477,3.50653 -5.64727,6.72836 -8.95879,9.61364 -2.24367,1.96718 -4.70138,3.67612 -7.32684,5.09455 -2.84983,1.57401 -5.97006,2.59927 -9.19824,3.0226 -6.58098,0.87868 -13.70119,-1.57691 -20.49198,-6.89636 -1.6891,-1.32742 -3.39408,-2.7567 -5.05513,-4.34922 -0.82391,-0.81545 -1.65947,-1.61872 -2.47121,-2.49344 l -0.61463,-0.64479 c -0.25558,-0.25029 -0.44794,-0.50085 -0.67548,-0.75221 -0.43894,-0.50244 -0.87974,-1.007 -1.32239,-1.51394 -0.8673,-1.01415 -1.79413,-2.02989 -2.76172,-3.06467 -0.95673,-1.02658 -1.92114,-2.061629 -2.89295,-3.104619 -1.9513,-2.06296 -3.93806,-4.18068 -6.04626,-6.23994 -8.39099,-8.27457 -17.97076,-16.70896 -29.62804,-23.93897 -2.89798,-1.81821 -5.96794,-3.49779 -9.11595,-5.13529 -3.19458,-1.56528 -6.47939,-3.07764 -9.92267,-4.37965 -14.31819,-5.53403 -29.77092,-7.48877 -45.01622,-5.69436 -1.90658,0.24817 -3.82481,0.47228 -5.69939,0.83449 l -2.82786,0.50218 -2.78686,0.61172 c -1.8669,0.39952 -3.68538,0.90276 -5.5028,1.41102 -1.83515,0.47572 -3.59992,1.07924 -5.38692,1.64465 -14.49546,4.69979 -28.60013,13.02094 -39.30928,24.59117 -10.75147,11.51758 -17.92581,26.072569 -20.26588,40.969929 -1.20239,7.36124 -1.21394,14.86694 -0.0342,22.23294 0.59194,3.61156 1.4976,7.16227 2.70668,10.61508 1.22121,3.40519 2.75474,6.69132 4.58097,9.8134 1.80978,3.06917 3.92605,5.94783 6.3164,8.59102 1.18403,1.28852 2.4412,2.50825 3.76528,3.6539 1.23275,1.0795 2.52487,2.08756 3.87028,3.02154 1.35932,0.97896 2.76746,1.88648 4.21894,2.71992 1.40152,0.81227 2.83292,1.55575 4.29315,2.21456 2.87549,1.30704 5.88301,2.30187 8.97096,2.96333 6.05896,1.31498 12.13088,1.25677 17.5305,-0.0317 5.05566,-1.13771 9.81657,-3.32317 13.97529,-6.41614 3.54092,-2.6035 6.55955,-5.85259 8.89794,-9.57263 1.93225,-3.03742 3.3528,-6.36852 4.20476,-9.86631 1.14988,-4.6699 1.25756,-9.53559 0.31512,-14.25311 -0.23548,-1.19062 -0.54002,-2.36802 -0.91229,-3.52425 -0.25691,-0.77523 -0.38973,-1.17475 -0.38973,-1.17475 0,0 -0.018,0.42069 -0.0532,1.23032 -0.0408,0.80698 -0.1516,2.00289 -0.35983,3.5216 -0.58605,4.23863 -1.99205,8.32379 -4.13914,12.02531 -1.46103,2.45798 -3.2729,4.68842 -5.37845,6.62517 -2.37437,2.15371 -5.10011,3.88408 -8.05895,5.11704 -1.87245,0.75936 -3.82243,1.30969 -5.81501,1.64306 v 0.003 c 0,0 -0.028,0.005 -0.081,0.0106 -1.38086,0.23019 -2.77812,0.34661 -4.17777,0.34661 -0.009,0 -0.0183,0 -0.0273,0 -8.15022,0.30162 -25.78656,-0.94457 -33.70572,-16.23219 3.65707,2.53206 7.72231,4.42119 12.01835,5.57742 -0.19314,-0.22755 -0.38205,-0.45509 -0.57176,-0.69321 -0.62627,-0.76465 -1.18719,-1.59279 -1.7444,-2.42623 -1.12554,-1.71979 -2.07671,-3.54542 -2.83924,-5.45306 -3.0919,-7.82373 -3.47837,-17.56834 -0.94536,-26.96396 2.48523,-9.42551 7.82452,-18.38245 15.24159,-25.48995 7.42738,-7.149839 16.86983,-12.474839 27.53095,-15.757259 3.71713,-1.17158 7.49803,-2.12964 11.3247,-2.86941 -7.13026,-2.6326 -15.52363,-4.18571 -15.52363,-4.18571 33.18642,-3.6875 60.95577,8.69024 60.95577,8.69024 l -0.0193,0.003 c 2.2815,0.88926 4.54792,1.85499 6.79952,2.89665 10.08724,4.68948 19.80803,10.630959 28.96632,16.738069 2.29897,1.54729 4.56565,3.07314 6.80006,4.57703 l 6.5905,4.57465 c 0.55325,0.38311 1.10411,0.76464 1.65259,1.14459 l 0.80539,0.56488 0.87022,0.65458 c 1.14273,0.87895 2.33733,1.70418 3.50652,2.52307 2.35215,1.61131 4.8014,3.07604 7.33399,4.38599 5.02417,2.57255 10.37087,4.45797 15.77763,5.14377 5.40173,0.66569 10.7524,0.0516 15.25402,-1.56792 4.06506,-1.49966 7.81103,-3.75259 11.0408,-6.64078 2.56434,-2.31431 4.85008,-4.91966 6.81091,-7.76314 2.63154,-3.83037 4.78498,-7.96793 6.4127,-12.32085 0.57547,-1.50654 1.06574,-3.04403 1.46844,-4.605599 -0.85196,1.344609 -1.77086,2.645569 -2.75352,3.897569 z"
         fill="#280b60"
         id="path842"
         style="stroke-width:0.264583" />
      <path
         d="m -182.03965,83.365991 c -0.62839,-3.3012 -2.14339,-6.69766 -4.18704,-10.00125 -2.06639,-3.29723 -4.71937,-6.49922 -7.75599,-9.6049 -3.23665,-3.21733 -6.68311,-6.21638 -10.31663,-8.97758 -3.81186,-2.86676 -7.92242,-5.68245 -12.31239,-8.39337 -4.40902,-2.67494 -9.05748,-5.32792 -13.94778,-7.86712 -1.15755,-0.60087 -2.32462,-1.20677 -3.50176,-1.81743 -1.12104,-0.6088 -2.25134,-1.22211 -3.39037,-1.84017 -2.28414,-1.26445 -4.60163,-2.59874 -6.90536,-3.97061 -4.63867,-2.69848 -9.24666,-5.6507 -13.74113,-8.85348 -4.55428,-3.17077 -8.92202,-6.60162 -13.081,-10.27563 -2.0582,-1.8671595 -4.07829,-3.7766595 -6.03647,-5.7343095 -1.93834,-1.97512 -3.79862,-4.01823 -5.55308,-6.13225001 -1.74678,-2.09999999 -3.38481,-4.28783999 -4.90802,-6.55531999 -0.27649,-0.40296 -0.52546,-0.81968 -0.79348,-1.22713 l -0.007,0.0254 c 0,0 -21.47623,-30.9017495 -14.29544,-66.2233605 0,0 1.55946,7.614444 4.27065,14.11949 1.07103,-5.875073 2.64001,-11.648281 4.69,-17.256919 l 0.0892,-0.254794 c -0.0264,0.06218 0.12224,-0.318558 -0.0479,0.107157 l 0.054,-0.141817 0.21643,-0.566208 0.43259,-1.131623 c 0.16008,-0.431536 0.25215,-0.626534 0.3601,-0.885031 l 0.31247,-0.755386 c 0.46435,-1.0795 1.0295,-2.253456 1.5875,-3.331369 1.10067,-2.147358 2.37596,-4.200525 3.81344,-6.138598 1.38986,-1.868487 2.94296,-3.60971 4.64132,-5.202766 1.66926,-1.535642 3.45837,-2.935817 5.35014,-4.187031 5.70442,-3.692256 12.36848,-5.625836 19.16325,-5.559956 -4.22725,-4.68524 -9.90309,-8.11498 -9.90309,-8.11498 17.60643,3.49155 25.9961,11.30824 30.00216,18.128138 0.77232,1.201737 1.42743,2.474648 1.95633,3.801533 0.54239,1.395148 0.95276,2.837921 1.22555,4.309798 0.30374,1.331119 0.46117,2.691606 0.46963,4.057121 0.064,0.907785 0.12251,1.919552 0.13203,2.894541 0.0916,3.586692 -0.38259,7.165446 -1.40467,10.6045 -0.90885,2.954867 -2.42888,5.685367 -4.46167,8.01423 -1.8714,2.083593 -4.08808,3.829579 -6.55214,5.160697 -4.6699,2.5273 -9.12681,3.481917 -12.11951,3.990975 -1.55866,0.273844 -3.13399,0.442384 -4.7154,0.504032 0,0 0.39264,0.141816 1.17528,0.365918 1.1594,0.332582 2.33653,0.600605 3.52557,0.803011 1.94575,0.3429 3.91504,0.532606 5.89042,0.567267 2.75934,0.07144 5.51709,-0.193411 8.21267,-0.788459 3.54435,-0.758825 6.91647,-2.171964 9.94304,-4.166658 3.42238,-2.201863 6.64183,-5.53085 9.13421,-9.613106 2.53312,-4.076436 4.18412,-8.882063 5.24219,-13.903061 0.25717,-1.2573 0.49001,-2.515129 0.66278,-3.907631 0.0744,-0.60034 0.14896,-1.204383 0.2241,-1.812131 l 0.0526,-0.436563 0.0408,-0.632089 0.0717,-1.067859 c 0.17489,-3.00646 0.0159,-6.02271 -0.4736,-8.994246 -1.01944,-6.203158 -3.92113,-12.687198 -8.55081,-18.054478 -4.61665,-5.39176 -10.86081,-9.48928 -17.68627,-12.03172 -6.84821,-2.57757 -14.34068,-3.47286 -21.85617,-2.97785 -7.5274,0.5108 -15.06723,2.71502 -22.05091,6.2766 -14.07901,7.10851 -24.99307,20.48984 -30.63319,34.877084 -5.38427,13.270706 -8.90006,28.151402 -8.65849,43.628204 0.1307,7.780073 1.25836,15.511193 3.35491,23.004463 2.10318,7.42024 5.15594,14.5378005 9.08236,21.17593049 3.77057,6.37063001 8.25235,12.29306951 13.35854,17.65299951 4.7895,5.08926 10.01925,9.74513 15.62842,13.91364 5.27023,3.91689 10.78574,7.49194 16.51291,10.70372 5.56286,3.08292 11.09636,5.79358 16.53963,8.18727 2.74135,1.16654 5.43983,2.25557 8.13514,3.29723 1.36155,0.51144 2.71225,1.01891 4.05236,1.52242 1.30175,0.46302 2.59292,0.92207 3.8735,1.37768 4.894,1.6092 9.5885,3.22765 14.00069,4.95353 4.43574,1.67958 8.6196,3.4036 12.46479,5.23928 3.64463,1.64915 7.1837,3.52266 10.59656,5.6097 6.35529,3.85127 11.16648,8.12059 13.52524,12.46875 1.09722,1.93622 1.73011,4.10051 1.84891,6.32275 0.0632,1.7518 -0.19844,3.50043 -0.77206,5.15699 -0.37597,1.08929 -0.86545,2.13598 -1.46023,3.12288 -0.20717,0.348979 -0.43683,0.684209 -0.68766,1.003299 0.35772,-0.20744 0.70141,-0.43815 1.0287,-0.69083 0.98902,-0.739509 1.88146,-1.600199 2.65642,-2.561959 1.3298,-1.62004 2.31563,-3.49382 2.89772,-5.5073 0.75115,-2.42782 0.9308,-5.5163 0.26776,-8.8019 z"
         fill="#280b60"
         id="path844"
         style="stroke-width:0.264583" />
      <path
         d="m -117.96075,103.63096 c -0.61118,-1.91876 -1.33614,-3.800469 -2.16429,-5.635619 -0.71702,-1.4904 -1.27264,-2.66171 -1.70921,-3.40969 -0.42068,-0.7665 -0.63764,-1.16178 -0.63764,-1.16178 l 0.98689,0.88476 c 0.97367,0.8636 1.90236,1.77615 2.78607,2.73368 3.41841,3.741999 6.19654,8.024809 8.21531,12.674069 2.75167,6.03409 4.70429,14.06578 5.49539,23.14522 0.45509,4.53231 0.57944,9.32392 0.75407,14.18696 0.0873,2.41564 0.19314,4.89743 0.33337,7.23106 0.0952,1.2356 0.1905,2.48708 0.28575,3.75179 0.0873,1.34144 0.17463,2.69611 0.26459,4.064 0.36247,5.29167 0.71702,10.51454 1.51606,15.78769 0,0 4.889496,51.08046 44.479096,65.0531 0,0 -5.842,-4.12221 -10.95639,-12.85875 2.53206,1.35467 5.14085,2.56646 7.8105,3.62479 1.36525,0.55563 2.77018,1.05834 4.18835,1.54517 l 2.12725,0.6985 2.01348,0.62706 2.50031,0.71967 0.3175,0.09 0.15875,0.045 c -0.0317,-0.0106 0.29634,0.0873 -0.0344,-0.0132 l 0.54239,0.13494 1.08215,0.27252 c 1.44198,0.35454 2.89454,0.64558 4.34446,0.93398 2.8866,0.55033 5.80231,0.93133 8.73125,1.143 5.75204,0.45243 11.53848,0.17991 17.22437,-0.80963 11.1945198,-1.94469 21.5741298,-6.98764 29.22852,-14.35364 3.77296,-3.5904 6.91092,-7.79728 9.28159,-12.43542 1.1377,-2.27013 2.06375,-4.64079 2.7596,-7.0829 0.37306,-1.2065 0.68527,-2.43152 0.93398,-3.66977 0.13494,-0.61912 0.24342,-1.24089 0.34396,-1.86531 0.10583,-0.6694 0.15875,-1.01071 0.24871,-1.70656 l 0.10318,-1.24619 0.0265,-0.31221 c 0.0106,-0.25135 0.003,0.16669 0.005,0.0794 l 0.003,-0.12436 0.0212,-0.49741 0.0952,-1.99232 c 0.0238,-0.66146 -0.0106,-1.31498 -0.008,-1.97114 0,-0.65882 0,-1.31498 -0.0609,-1.95792 -0.11112,-2.5691 -0.41275,-5.12762 -0.90487,-7.65175 -0.50536,-2.46592 -1.19856,-4.8895 -2.07169,-7.25223 -0.89164,-2.3151 -1.93146,-4.56935 -3.10621,-6.75217 -4.72281,-8.35289 -11.7342702,-15.1765 -20.20887019,-19.67441 -0.94456001,-0.51329 -1.89971001,-0.98161 -2.86279001,-1.41288 7.38452,-0.77523 12.64179,-0.29633 12.64179,-0.29633 -27.3632098,-11.61521 -45.6961898,0 -45.6961898,0 l 0.005,0.008 c -3.25173,1.83885 -6.07748,4.34446 -8.29469,7.34748 -0.74877,0.9816 -1.43668,2.00554 -2.0611,3.06652 -1.00542,1.72508 -1.8759,3.52689 -2.60085,5.38691 -1.18798,3.08769 -1.50813,4.88686 -1.50813,4.88686 0,0 -0.0714,-0.4445 -0.13758,-1.32292 -0.0979,-1.30439 -0.10848,-2.61144 -0.037,-3.91848 0.11377,-2.14312 0.42598,-4.27302 0.93398,-6.36058 0.69585,-2.92629 1.80181,-5.74146 3.28347,-8.35819 1.91559,-3.40519 4.45559,-6.42144 7.48771,-8.88735 1.75154,-1.42346 3.63273,-2.68023 5.61975,-3.75179 2.14048,-1.12184 4.36827,-2.06375 6.6675,-2.81094 1.18004,-0.43074 2.38919,-0.7022 3.62744,-1.0541 0.61913,-0.13441 1.24354,-0.26961 1.87325,-0.40587 0.57679,-0.11562 1.05304,-0.25135 1.8071,-0.33919 1.39171,-0.19818 2.84428,-0.39423 4.16719,-0.4707 1.36261,-0.13388 2.74109,-0.14525 4.14867,-0.1688 2.8786698,-0.009 5.7573298,0.22145 8.5989598,0.68791 2.98714001,0.46779 5.9346,1.16179 8.81591,2.0746 11.7686702,3.69094 23.6881502,11.36386 32.5437502,23.10606 2.24896,2.97657 4.24921,6.13305 5.98223,9.43769 1.75154,3.42106 3.23321,6.97177 4.43177,10.62567 0.32544,0.9181 0.55827,1.86267 0.83609,2.79929 0.27252,0.94192 0.54239,1.88648 0.74083,2.84427 0.21696,0.95779 0.43127,1.92088 0.64823,2.88396 0.1561,0.97102 0.31485,1.94469 0.47625,2.921 0.16933,0.97896 0.27252,1.96056 0.36512,2.94746 0.0926,0.98425 0.21696,1.97644 0.27517,2.96598 0.045,0.99218 0.09,1.98437 0.13494,2.97921 l 0.0318,0.74877 0.008,0.18785 -0.003,0.39158 0.005,0.31221 0.0159,1.24884 c -0.0132,0.96837 -0.0476,2.29922 -0.11113,3.29406 -0.0582,1.04246 -0.13494,2.08756 -0.24606,3.13266 -0.21167,2.09286 -0.51329,4.18836 -0.93398,6.27328 -0.87048,4.20158 -2.13254,8.3132 -3.77031,12.27931 -1.65629,4.00844 -3.67242,7.85812 -6.02721,11.50144 -2.38654,3.64331 -5.09588,7.06437 -8.09096,10.22614 -12.00679,12.68942 -28.3845002,20.79096 -45.20671,23.65111 -8.34231,1.42345 -16.83808,1.69862 -25.25448,0.8202 -4.11162,-0.44185 -8.19414,-1.12712 -12.22639,-2.04787 -1.99761,-0.45773 -3.96875,-0.98954 -5.91609,-1.56369 l -1.4552,-0.44185 -0.72496,-0.22225 -0.81492,-0.26723 -2.52148,-0.84138 -2.95539,-1.05833 c -0.96309,-0.36248 -1.85738,-0.73819 -2.78607,-1.10596 -1.8362,-0.762 -3.66448,-1.55046 -5.46629,-2.41564 -3.62744,-1.70921 -7.15169,-3.62744 -10.55687,-5.74675 -6.85007,-4.23598 -13.0519,-9.44034 -18.412356,-15.45167 -2.6326,-2.95011 -5.03766,-6.096 -7.19666,-9.41123 -2.07963,-3.23321 -3.91848,-6.61723 -5.50863,-10.11767 -3.00567,-6.58812 -5.14614,-13.53873 -6.36852,-20.67454 -2.43417,-13.58106 -1.64835,-26.29429 -0.39423,-37.08135 0.15081,-1.29911 0.29898,-2.58234 0.4445,-3.85498 0.14288,-1.34409 0.28311,-2.67759 0.42069,-3.99256 0.31221,-2.77284 0.74348,-5.2705 1.14829,-7.70732 0.82815,-4.83923 1.56369,-9.26041 2.1299,-13.3985 0.51858,-3.82376 0.81756,-7.67371 0.89429,-11.53133 0.0476,-3.26205 -0.1614,-6.52251 -0.62706,-9.75175 -0.39953,-2.63631 -0.99484,-5.23901 -1.7833,-7.78616 z"
         fill="#280b60"
         id="path846"
         style="stroke-width:0.264583" />
      <path
         d="m -100.35802,103.29573 c 2.645836,3.50653 5.648856,6.72836 8.958786,9.61364 2.24367,1.96718 4.70165,3.67586 7.32632,5.09429 2.84956,1.57427 5.97164,2.59953 9.19956,3.0226 6.58019,0.87894 13.70012,-1.57692 20.49198,-6.8961 1.68804,-1.32768 3.3946,-2.7567 5.05619,-4.34949 0.82285,-0.81518 1.65893,-1.61845 2.46856,-2.49317 l 0.61648,-0.64479 c 0.254,-0.25029 0.44714,-0.50085 0.67469,-0.75221 0.4392,-0.50244 0.88106,-1.007 1.32291,-1.51394 0.86784,-1.01442 1.79388,-2.02989 2.76225,-3.06467 0.95515,-1.02658 1.92088,-2.061629 2.8919,-3.104889 1.95262,-2.06269 3.937,-4.18068 6.04573,-6.23967 8.39258,-8.27457 17.9705,-16.70923 29.6280398,-23.93897 2.89719001,-1.81821 5.969,-3.49779 9.11754,-5.13529 3.19352,-1.56554 6.4796502,-3.07764 9.9218802,-4.37965 14.31925,-5.53403 29.77091,-7.48877 45.0162,-5.69436 1.90765,0.24817 3.82588,0.47228 5.69913,0.83423 l 2.82839,0.50244 2.78607,0.61172 c 1.86796,0.39952 3.68564,0.90276 5.50333,1.41102 1.83621,0.47572 3.60098,1.07924 5.38692,1.64439 14.49652,4.70005 28.601464,13.0212 39.309144,24.59143 10.75267,11.51758 17.92552,26.072299 20.26709,40.969929 1.2012,7.36124 1.21179,14.86694 0.0344,22.23294 -0.59266,3.61156 -1.50019,7.16227 -2.70933,10.61508 -1.21973,3.40519 -2.75431,6.69132 -4.57994,9.8134 -1.80975,3.06917 -3.92642,5.94783 -6.3156,8.59102 -1.18534,1.28852 -2.44211,2.50825 -3.76502,3.6539 -1.23296,1.0795 -2.52677,2.08756 -3.87086,3.02154 -1.35996,0.97896 -2.76754,1.88648 -4.2201,2.71992 -1.39965,0.81227 -2.83104,1.55575 -4.29154,2.21456 -2.87602,1.30704 -5.88434,2.30187 -8.97202,2.96333 -6.058964,1.31498 -12.131154,1.25677 -17.531304,-0.0317 -5.05354,-1.13771 -9.81604,-3.32317 -13.97529,-6.41614 -3.54012,-2.6035 -6.55902,-5.85259 -8.89794,-9.57263 -1.93145,-3.03742 -3.35227,-6.36852 -4.20422,-9.86631 -1.1483,-4.6699 -1.25678,-9.53559 -0.31486,-14.25311 0.23548,-1.19062 0.53975,-2.36802 0.91281,-3.52425 0.25665,-0.77523 0.38894,-1.17475 0.38894,-1.17475 0,0 0.0185,0.42069 0.0529,1.23032 0.0423,0.80698 0.15346,2.00289 0.35983,3.5216 0.58738,4.23863 1.99231,8.32379 4.14073,12.02531 1.4605,2.45798 3.2729,4.68842 5.37898,6.62517 2.37331,2.15371 5.09852,3.88408 8.05656,5.11704 1.87325,0.75936 3.82323,1.30969 5.81554,1.64306 v 0.003 c 0,0 0.0291,0.003 0.082,0.0106 1.38113,0.23019 2.77813,0.34661 4.17778,0.34661 0.008,0 0.0185,0 0.0265,0 8.15182,0.30162 25.786304,-0.94457 33.705274,-16.23219 -3.65654,2.53206 -7.72054,4.42119 -12.01737,5.57742 0.19315,-0.22755 0.381,-0.45509 0.5715,-0.69321 0.62706,-0.76465 1.18798,-1.59279 1.7436,-2.42623 1.12713,-1.71979 2.07698,-3.54542 2.83898,-5.45306 3.09298,-7.82373 3.47927,-17.56834 0.94721,-26.96396 -2.48708,-9.42551 -7.82637,-18.38245 -15.24264,-25.48995 -7.426864,-7.150099 -16.869844,-12.474839 -27.529904,-15.757259 -3.7174,-1.17184 -7.49829,-2.12964 -11.32417,-2.86941 7.12788,-2.6326 15.52311,-4.18571 15.52311,-4.18571 -33.18669,-3.6875 -60.95736,8.69024 -60.95736,8.69024 l 0.0212,0.003 c -2.28335,0.88926 -4.54819,1.85472 -6.79979,2.89665 -10.08856019,4.68948 -19.8093602,10.630959 -28.96659,16.738069 -2.29922,1.54729 -4.5667,3.07288 -6.79979,4.57703 l -6.59077,4.57465 c -0.55298,0.38311 -1.10331,0.76464 -1.65364,1.14459 l -0.80434,0.56488 -0.87048,0.65458 c -1.143,0.87895 -2.33627,1.70418 -3.50573,2.52307 -2.35214,1.61131 -4.80218,3.07604 -7.33425,4.38599 -5.02443,2.57255 -10.37166,4.45797 -15.7771,5.14377 -5.40279,0.66569 -10.75267,0.0513 -15.25587,-1.56792 -4.064,-1.49966 -7.8105,-3.75285 -11.04107,-6.64078 -2.56381,-2.31431 -4.84981,-4.91966 -6.81037,-7.7634 -2.62996,-3.83011 -4.783666,-7.96793 -6.413496,-12.32059 -0.57415,-1.50654 -1.06363,-3.04403 -1.46579,-4.605599 0.84931,1.344609 1.77006,2.645569 2.75166,3.897569 z"
         fill="#280b60"
         id="path848"
         style="stroke-width:0.264583" />
      <path
         d="m -72.899564,83.365991 c 0.62706,-3.3012 2.14313,-6.69766 4.18571,-10.00125 2.0664,-3.29723 4.72017,-6.49922 7.75758,-9.6049 3.23586,-3.21733 6.68338,-6.21638 10.31611,-8.97758 3.81264,-2.86676 7.92162,-5.68245 12.31106,-8.39337 4.4106,-2.67494 9.05933,-5.32792 13.94883,-7.86712 1.15623,-0.60087 2.32569,-1.20677 3.50044,-1.81743 1.12183,-0.6088 2.2516,-1.22211 3.39196,-1.84017 2.28335,-1.26445 4.6011,-2.59874 6.90562,-3.97061 4.6381498,-2.69848 9.2471898,-5.6507 13.7398198,-8.85348 4.55612,-3.17077 8.9217502,-6.60162 13.0810002,-10.27563 2.05845,-1.8671595 4.07987,-3.7766595 6.03779,-5.7343095 1.93675,-1.97512 3.79677,-4.01823 5.5536,-6.13225001 1.74625,-2.09999999 3.38402,-4.28783999 4.90802,-6.55531999 0.27517,-0.40296 0.52388,-0.81968 0.79111,-1.22713 l 0.008,0.0254 c 0,0 21.47623,-30.9017495 14.29544,-66.2233605 0,0 -1.55839,7.614444 -4.27037,14.11949 -1.07157,-5.875073 -2.64054,-11.648281 -4.68842,-17.256919 l -0.09,-0.254794 c 0.0265,0.06218 -0.12171,-0.318558 0.0476,0.107157 l -0.0556,-0.141817 -0.21431,-0.566208 -0.43391,-1.131623 c -0.15875,-0.431536 -0.25136,-0.626534 -0.35984,-0.885031 l -0.31221,-0.755386 c -0.46566,-1.0795 -1.02923,-2.253456 -1.5875,-3.331369 -1.10066,-2.147358 -2.37595,-4.200525 -3.81264,-6.138598 -1.39171,-1.868487 -2.94481,-3.60971 -4.64344,-5.202766 -1.66687,-1.535642 -3.4581,-2.935817 -5.34987,-4.187031 -5.70442,-3.692256 -12.3666302,-5.625836 -19.1611302,-5.559956 4.2254,-4.68524 9.9007102,-8.11498 9.9007102,-8.11498 -17.6053802,3.49155 -25.99531,11.30824 -30.00111,18.128138 -0.77258,1.201737 -1.4261,2.474648 -1.95527,3.801533 -0.54239,1.395148 -0.9525,2.837921 -1.22766,4.309798 -0.30163,1.331119 -0.46038,2.691606 -0.46832,4.057121 -0.0635,0.907785 -0.1217,1.919552 -0.13229,2.894541 -0.0926,3.586692 0.38365,7.165446 1.40494,10.6045 0.90752,2.954867 2.42888,5.685367 4.46088,8.01423 1.87325,2.083593 4.08781,3.829579 6.5537198,5.160697 4.6699,2.5273 9.12548001,3.481917 12.11792,3.990975 1.5584,0.273844 3.13531,0.442384 4.71488,0.504032 0,0 -0.39159,0.141816 -1.17475,0.365918 -1.15888,0.332582 -2.33627,0.600605 -3.52425,0.803011 -1.94734,0.3429 -3.91583999,0.532606 -5.89227,0.567267 -2.75696,0.07144 -5.51657,-0.193411 -8.2126698,-0.788459 -3.54277,-0.758825 -6.91621,-2.171964 -9.94304,-4.166658 -3.42107,-2.201863 -6.64104,-5.53085 -9.13342,-9.613106 -2.53206,-4.076436 -4.18306,-8.882063 -5.2414,-13.903061 -0.25664,-1.2573 -0.48947,-2.515129 -0.6641,-3.907631 -0.0741,-0.60034 -0.14817,-1.204383 -0.22225,-1.812131 l -0.0529,-0.436563 -0.0423,-0.632089 -0.0714,-1.067859 c -0.17462,-3.00646 -0.0159,-6.02271 0.47361,-8.994246 1.02129,-6.203158 3.92112,-12.687198 8.55133,-18.054478 4.61698,-5.39176 10.86115,-9.48928 17.6873998,-12.03172 6.84741,-2.57757 14.34041,-3.47286 21.8545802,-2.97785 7.5274,0.5108 15.06802,2.71502 22.05037,6.2766 14.08113,7.10851 24.99519,20.48984 30.63346,34.877084 5.38427,13.270706 8.90059,28.151402 8.65982,43.628204 -0.1323,7.780073 -1.25942,15.511193 -3.35492,23.004463 -2.10344,7.42024 -5.15673,14.5378005 -9.08315,21.17593049 -3.77031,6.37063001 -8.25235,12.29279951 -13.35881,17.65299951 -4.78896,5.08926 -10.01977,9.74513 -15.62894,13.91364 -5.26785,3.91689 -10.78441,7.49194 -16.51264,10.70372 -5.56154,3.08292 -11.0966302,5.79358 -16.53911019,8.18727 -2.74108001,1.16654 -5.43983001,2.25557 -8.13593001,3.29723 -1.35996,0.51144 -2.7119798,1.01891 -4.0507798,1.52242 -1.30175,0.46302 -2.59291,0.92207 -3.8735,1.37768 -4.89479,1.6092 -9.5885,3.22765 -14.00175,4.95353 -4.43441,1.67958 -8.62012,3.4036 -12.46452,5.23928 -3.64331,1.64915 -7.18343,3.52266 -10.59656,5.6097 -6.35529,3.85127 -11.16542,8.12059 -13.5255,12.46875 -1.09802,1.93622 -1.73037,4.10051 -1.84944,6.32275 -0.0635,1.7518 0.19844,3.50043 0.77259,5.15699 0.37571,1.08929 0.86518,2.13598 1.4605,3.12288 0.20637,0.348979 0.43656,0.684209 0.68791,1.003299 -0.35718,-0.20744 -0.70114,-0.43815 -1.02923,-0.69083 -0.98954,-0.739509 -1.88118,-1.600199 -2.65641,-2.561959 -1.32821,-1.62004 -2.31511,-3.49382 -2.89719,-5.5073 -0.75142,-2.42782 -0.93133,-5.5163 -0.26723,-8.8019 z"
         fill="#280b60"
         id="path850"
         style="stroke-width:0.264583" />
      <path
         d="m -65.065254,-51.949064 c 2.42888,5.82877 5.15938,15.602214 5.15938,21.963065 -0.003,6.31084 0.87312,22.0897905 -8.6995,32.5694105 -8.74977,9.5773895 -17.82763,5.76342 -32.575496,14.3914795 -11.65225,6.81593 -18.65842,16.60975 -22.75417,23.8125 6.13569,-21.12327 15.7189,-32.9768695 23.54792,-39.95207951 5.966346,-5.31838999 10.623016,-7.54062999 17.004766,-14.55949049 9.68904,-10.65663 14.25046,-22.358617 16.59731,-30.68426 z"
         fill="#190735"
         id="path852"
         style="stroke-width:0.264583" />
      <path
         d="m -188.34176,-51.949064 c -2.4302,5.82877 -5.16044,15.602214 -5.15938,21.963065 0.001,6.31084 -0.87312,22.0897905 8.69897,32.5694105 8.74818,9.5773895 17.82736,5.76342 32.57603,14.3914795 11.65119,6.81593 18.65762,16.60975 22.75337,23.8125 -6.13701,-21.12327 -15.71969,-32.9768695 -23.54712,-39.95207951 -5.96821,-5.31838999 -10.62461,-7.54062999 -17.00583,-14.55949049 -9.68825,-10.65663 -14.25046,-22.358617 -16.59625,-30.68426 z"
         fill="#190735"
         id="path854"
         style="stroke-width:0.264583" />
      <path
         d="m -8.4973342,37.594141 c 46.3285402,-24.83221 67.0824602,-50.59098 67.0824602,-82.279599 0,-31.688881 -13.15773,-47.243206 -13.15773,-47.243206 -0.37042,4.64476 -2.03729,9.624218 -2.03729,9.624218 -7.96925,-20.754974 -27.42671,-27.982304 -27.42671,-27.982304 3.3364,-3.8916 11.11779,-7.7832 11.11779,-7.7832 -42.25131,-10.62672 -62.88352,25.567933 -52.25785,48.089002 10.62566,22.521069 32.2712298,18.430346 32.2712298,18.430346 0.78316,-0.224102 1.17475,-0.366183 1.17475,-0.366183 -1.57957,-0.06165 -3.15648,-0.229923 -4.71488,-0.503767 -2.99243999,-0.508794 -7.44802,-1.463675 -12.11792,-3.990975 -2.4659098,-1.331383 -4.6804698,-3.077104 -6.5537198,-5.160698 -2.032,-2.329127 -3.55071,-5.059627 -4.46088,-8.014229 -1.02129,-3.439319 -1.49754,-7.018073 -1.40494,-10.604765 0.0106,-0.974989 0.0688,-1.986491 0.13229,-2.894541 0.008,-1.365515 0.16669,-2.725738 0.46832,-4.056857 0.27516,-1.471877 0.68527,-2.91465 1.22766,-4.309797 0.52917,-1.326886 1.18269,-2.600061 1.95527,-3.801534 4.0058,-6.819902 12.3957298,-14.636692 30.00111,-18.128142 0,0 -5.6753102,3.42972 -9.9007102,8.11472 6.7945,-0.0659 13.4567102,1.8677 19.1611302,5.56022 1.89177,1.251215 3.683,2.65139 5.34987,4.187031 1.69863,1.593321 3.25173,3.33428 4.64344,5.202767 1.43669,1.938073 2.71198,3.99124 3.81264,6.138598 0.55827,1.077912 1.12448,2.251869 1.5875,3.331369 l 0.31221,0.755385 c 0.10848,0.258498 0.20109,0.453496 0.35984,0.885031 l 0.43391,1.131623 0.21431,0.566209 0.0556,0.141816 c -0.16934,-0.425979 -0.0212,-0.04498 -0.0476,-0.107156 l 0.0873,0.254529 c 2.05053,5.608902 3.6195,11.382111 4.69107,17.257448 2.71198,-6.50531 4.27037,-14.119754 4.27037,-14.119754 7.18079,35.321346 -14.29544,66.2230955 -14.29544,66.2230955 l -0.005,-0.0249 c -0.26987,0.40719 -0.51858,0.82391 -0.79375,1.22687 -1.524,2.26748 -3.16177,4.45532 -4.90802,6.55531999 -1.75683,2.11402001 -3.61685,4.15713001 -5.5536,6.13224001 -1.95792,1.95766 -3.97934,3.86715 -6.03779,5.7343195 -4.15925,3.674 -8.5248802,7.10485 -13.0810002,10.27562 -4.49263,3.20278 -9.10167,6.155 -13.7398198,8.85349 -2.30452,1.37186 -4.62227,2.70642 -6.90562,3.9706 -1.14036,0.61807 -2.27013,1.23137 -3.39196,1.84018 -1.17475,0.61039 -2.34421,1.21629 -3.50044,1.81742 -4.8895,2.53921 -9.53823,5.19218 -13.94883,7.86686 -4.38944,2.71118 -8.49842,5.52661 -12.31106,8.39364 -3.63273,2.76119 -7.08025,5.76024 -10.31611,8.97758 -3.03741,3.10567 -5.69118,6.30766 -7.75758,9.6049 -2.04258,3.30359 -3.55865,6.70004 -4.18571,10.00125 -0.6641,3.28533 -0.48419,6.37408 0.26723,8.80163 0.58208,2.01374 1.56898,3.88752 2.89719,5.50783 0.77523,0.9615 1.66687,1.82219 2.65641,2.561959 -14.84577,-17.783439 15.42786,-39.514199 58.5813998,-62.643539 z"
         fill="#00ffb6"
         id="path856"
         style="stroke-width:0.264583" />
      <path
         d="m -15.773374,50.390441 c 0,0 3.21998,-2.14021 2.32039,-4.0423 -0.33072,-0.70194 -1.08214,-0.98187 -1.48431,-1.13824 -0.40216,-0.1561 -2.68552,-0.37359 -3.74385,0.4199 -2.12461,1.59438 -2.68817,4.25661 -2.43681,4.6392 0.43391,0.66278 1.72772,1.88304 5.34458,0.12144 z"
         fill="#00ffb6"
         id="path858"
         style="stroke-width:0.264583" />
      <path
         d="m -4.0285242,45.531901 c 0,0 4.00050001,-2.65827 2.88132,-5.021 -0.41011,-0.87206 -1.34409,-1.21973 -1.84415,-1.41393 -0.49742,-0.19394 -3.33375,-0.46408 -4.64873,0.52149 -2.6378998,1.98041 -3.3416898,5.28744 -3.0294798,5.76263 0.5424,0.82312 2.1484198,2.33944 6.6410398,0.15081 z"
         fill="#00ffb6"
         id="path860"
         style="stroke-width:0.264583" />
      <path
         d="m -12.415814,41.731161 c 0,0 2.5532298,-1.69862 1.8415,-3.20807 -0.26458,-0.55695 -0.85989,-0.7792 -1.18004,-0.90329 -0.3175,-0.12409 -2.1299,-0.2966 -2.96863,0.33338 -1.68804,1.26497 -2.13518,3.37793 -1.93675,3.68167 0.34661,0.52573 1.37319,1.49463 4.24392,0.0963 z"
         fill="#00ffb6"
         id="path862"
         style="stroke-width:0.264583" />
      <path
         d="m 100.92111,95.162711 c 0,0 3.29935,2.01295 4.64344,0.39423 0.49477,-0.59717 0.43127,-1.39621 0.40481,-1.82642 -0.0291,-0.43048 -0.7964,-2.59133 -1.96321,-3.21469 -2.34156,-1.25174 -4.995334,-0.63976 -5.236104,-0.2495 -0.4154,0.67521 -0.97367,2.36352 2.151064,4.89638 z"
         fill="#00ffb6"
         id="path864"
         style="stroke-width:0.264583" />
      <path
         d="m 110.28736,103.75373 c 0,0 4.09839,2.50058 5.76791,0.48974 0.61648,-0.74189 0.53711,-1.73461 0.50271,-2.26906 -0.0344,-0.53473 -0.98954,-3.218659 -2.43681,-3.993099 -2.91042,-1.55495 -6.20448,-0.79428 -6.50346,-0.30982 -0.51858,0.83873 -1.21179,2.935809 2.66965,6.082239 z"
         fill="#00ffb6"
         id="path866"
         style="stroke-width:0.264583" />
      <path
         d="m 110.18682,94.544641 c 0,0 2.61937,1.59755 3.68564,0.31274 0.39423,-0.47387 0.34131,-1.10808 0.32015,-1.44939 -0.0212,-0.34131 -0.63236,-2.05661 -1.5584,-2.55138 -1.85737,-0.99351 -3.96346,-0.50747 -4.15396,-0.1979 -0.33073,0.53604 -0.77523,1.87563 1.70657,3.88593 z"
         fill="#00ffb6"
         id="path868"
         style="stroke-width:0.264583" />
      <path
         d="m -95.259504,235.20243 c 0,0 3.302,2.01084 4.64609,0.39423 0.49477,-0.59796 0.43127,-1.397 0.40216,-1.82827 -0.0264,-0.42862 -0.79375,-2.59027 -1.96056,-3.21469 -2.34421,-1.25148 -4.99533,-0.64029 -5.2361,-0.24871 -0.4154,0.67469 -0.97632,2.36273 2.14841,4.89744 z"
         fill="#190735"
         id="path870"
         style="stroke-width:0.264583" />
      <path
         d="m -85.890604,243.79081 c 0,0 4.0984,2.50296 5.76792,0.49212 0.61648,-0.74348 0.5371,-1.73566 0.5027,-2.27012 -0.037,-0.53446 -0.98954,-3.21998 -2.43945,-3.99257 -2.90777,-1.55575 -6.20184,-0.79375 -6.50082,-0.30956 -0.51858,0.83873 -1.21443,2.93423 2.66965,6.08013 z"
         fill="#190735"
         id="path872"
         style="stroke-width:0.264583" />
      <path
         d="m -85.991144,234.58331 c 0,0 2.61937,1.59808 3.68564,0.31221 0.39159,-0.47361 0.34132,-1.10861 0.32015,-1.44992 -0.0238,-0.34131 -0.63235,-2.05581 -1.5584,-2.55058 -1.86002,-0.99219 -3.96345,-0.508 -4.15395,-0.19844 -0.33073,0.5371 -0.77523,1.87589 1.70656,3.88673 z"
         fill="#190735"
         id="path874"
         style="stroke-width:0.264583" />
      <path
         d="m 50.245456,210.04056 c 0,0 -0.4445,-3.83911 -2.54794,-3.90261 -0.77522,-0.0238 -1.36789,0.51859 -1.68804,0.80698 -0.32279,0.28575 -1.5531,2.2225 -1.32556,3.52425 0.45508,2.61673 2.5691,4.33123 3.02419,4.28096 0.78846,-0.09 2.46327,-0.68792 2.53735,-4.70958 z"
         fill="#7655c6"
         id="path876"
         style="stroke-width:0.264583" />
      <path
         d="m 51.250876,197.37231 c 0,0 -0.55298,-4.77044 -3.16706,-4.84982 -0.96309,-0.0291 -1.69598,0.64559 -2.0955,1.00278 -0.39952,0.35454 -1.92882,2.7596 -1.64571,4.37885 0.56356,3.24908 3.19087,5.37898 3.75708,5.31548 0.97896,-0.10848 3.05858,-0.85196 3.15119,-5.84729 z"
         fill="#7655c6"
         id="path878"
         style="stroke-width:0.264583" />
      <path
         d="m 44.054206,203.11906 c 0,0 -0.35189,-3.048 -2.02141,-3.09827 -0.61648,-0.0185 -1.0848,0.41275 -1.34144,0.64029 -0.254,0.22754 -1.23031,1.76477 -1.0504,2.79664 0.35984,2.07698 2.03994,3.43694 2.39977,3.39725 0.62707,-0.0688 1.95527,-0.54504 2.01348,-3.73591 z"
         fill="#7655c6"
         id="path880"
         style="stroke-width:0.264583" />
      <path
         d="m 0.47204581,72.506441 c 0,0 -3.15384001,2.23573 -2.19605001,4.1103 0.3519,0.69162 1.11125001,0.94853 1.51607001,1.09299 0.40745,0.1442 2.69609999,0.2929 3.73061999,-0.53207 2.07433,-1.65735 2.56117,-4.3352 2.29658,-4.71038 -0.45508,-0.64902 -1.78329,-1.83039 -5.34721999,0.0392 z"
         fill="#190735"
         id="path882"
         style="stroke-width:0.264583" />
      <path
         d="m -11.122004,77.715021 c 0,0 -3.91583,2.77734 -2.72785,5.10567 0.43656,0.8591 1.38112,1.17845 1.88383,1.35758 0.50536,0.17912 3.3496298,0.36406 4.6328598,-0.66067 2.57704,-2.05846 3.18029,-5.38506 2.85485,-5.85099 -0.56621,-0.80645 -2.21721,-2.27357 -6.6436898,0.0484 z"
         fill="#190735"
         id="path884"
         style="stroke-width:0.264583" />
      <path
         d="m 1.6229758,81.231601 c -0.36248,-0.51541 -1.41815999,-1.45256 -4.24391,0.031 0,0 -2.50296,1.77456 -1.74625,3.26205 0.28045,0.54874 0.8837,0.75273 1.2065,0.8673"
         fill="#190735"
         id="path886"
         style="stroke-width:0.264583" />
      <path
         d="m 68.496416,-14.239059 c 0.7964,-2.14921 1.53194,-4.32329 2.15371,-6.54077 2.0955,-7.49326 3.22262,-15.224385 3.35492,-23.004458 0.24077,-15.476802 -3.27555,-30.357498 -8.65982,-43.628205 -5.63827,-14.387248 -16.55233,-27.768578 -30.63346,-34.877088 -6.98235,-3.56158 -14.52297,-5.7658 -22.05037,-6.2766 -7.5141702,-0.49501 -15.0071702,0.40029 -21.8545802,2.97786 -5.7943798,2.15794 -11.1574798,5.44624 -15.4728398,9.68518 2.88396,-2.72166 43.93936,-26.97501 76.4884,13.9555 27.70452,34.839273 17.92817,83.633731 16.67404,87.708581 z"
         fill="#190735"
         id="path888"
         style="stroke-width:0.264583" />
      <path
         d="m -28.513064,95.412211 c 32.6125398,-31.41213 76.44342,-32.80066 76.44342,-32.80066 0,0 -7.50623,-3.89176 -16.95715,-3.52134 0,0 44.64844,-8.30395 75.795194,19.27278 31.1441,27.576729 29.27879,58.559959 29.27879,58.559959 0,0 6.70454,-22.1988 -15.0495,-56.170509 -10.49073,-10.6889 -23.878644,-18.46262 -37.652854,-22.92932 -1.78859,-0.56541 -3.55071,-1.16893 -5.38692,-1.64465 -1.81769,-0.50826 -3.63537,-1.01124 -5.50333,-1.41102 l -2.78607,-0.61172 -2.82839,-0.50218 c -1.8759,-0.36248 -3.79413,-0.58632 -5.69913,-0.83476 -15.24529,-1.79414 -30.6996,0.1606 -45.0162,5.69463 -3.44488,1.30201 -6.7283602,2.81437 -9.9218802,4.37938 -3.14854,1.63777 -6.22034999,3.31735 -9.11754,5.13556 -11.6575398,7.23001 -21.2354598,15.66413 -29.6280398,23.93897 -2.10873,2.05899 -4.09575,4.17672 -6.04573,6.23967 -0.97102,1.04299 -1.93675,2.077779 -2.8919,3.104889 -0.96837,1.03478 -1.89706,2.05052 -2.76225,3.06467 -0.4445,0.50694 -0.88371,1.0115 -1.32291,1.51394 -0.22755,0.25136 -0.42069,0.50192 -0.67469,0.75195 l -0.61648,0.64505 c -0.80963,0.87472 -1.64571,1.67826 -2.47121,2.49317 -1.65894,1.59279 -3.3655,3.02207 -5.05354,4.34949 -6.79186,5.31945 -13.91179,7.77504 -20.49198,6.8961 0,0 13.7504,5.79755 46.36029,-25.614049 z"
         fill="#190735"
         id="path890"
         style="stroke-width:0.264583" />
      <path
         d="m -95.230394,116.32435 c 1.96056,2.84374 4.24656,5.44909 6.81037,7.76314 3.23057,2.88819 6.97707,5.14112 11.04107,6.64104 4.50056,1.61898 9.85308,2.23361 15.25322,1.56792 5.40809,-0.6858 10.75532,-2.57149 15.77975,-5.14377 2.53207,-1.31021 4.97946,-2.77495 7.33161,-4.38599 1.16946,-0.81915 2.36537,-1.64465 3.50837,-2.52307 l 0.87048,-0.65484 0.80434,-0.56462 c 0.54768,-0.37995 1.10066,-0.76148 1.65364,-1.14459 2.159,-1.50019 4.35769,-3.02525 6.59077,-4.57465 2.23309,-1.50363 4.49792,-3.02921 6.79979,-4.57703 9.1572298,-6.10737 18.87802981,-12.048859 28.96394,-16.738069 2.25161,-1.04722 4.51644,-2.01268 6.79979,-2.89665 l -0.0185,-0.003 c 0,0 27.77067,-12.37774 60.95471,-8.69024 0,0 -8.39258,1.55311 -15.5231,4.18571 3.82852,0.73925 7.60941,1.6973 11.32416,2.86914 10.66271,3.28269 20.10569,8.60716 27.532554,15.757259 7.41627,7.10777 12.75556,16.06444 15.24,25.48996 2.5347,9.39588 2.14841,19.14049 -0.94457,26.96422 -0.762,1.90764 -1.7145,3.73327 -2.83898,5.45306 -0.55827,0.83344 -1.11918,1.66158 -1.7436,2.42623 -0.1905,0.23812 -0.37835,0.46566 -0.5715,0.69321 4.29419,-1.15623 8.36083,-3.04536 12.01737,-5.57742 -7.91897,15.28762 -25.556104,16.53381 -33.705274,16.23219 -0.0106,0 -0.0185,0 -0.0265,0 -1.39965,0 -2.79665,-0.11642 -4.17778,-0.34661 -0.0529,-0.008 -0.082,-0.0106 -0.082,-0.0106 v -0.003 c -1.99231,-0.33337 -3.94229,-0.8837 -5.81554,-1.64306 -2.95804,-1.23296 -5.68325,-2.96333 -8.05921,-5.11704 -2.10608,-1.93675 -3.91583,-4.16719 -5.37898,-6.62781 -2.14577,-3.70152 -3.5507,-7.78404 -4.13808,-12.02267 -0.20637,-1.51871 -0.32014,-2.71462 -0.35983,-3.5216 -0.0344,-0.81227 -0.0529,-1.23032 -0.0529,-1.23032 0,0 -2.9501,36.93319 34.57575,36.37757 37.525864,-0.55563 34.467274,-36.69242 34.467274,-36.69242 -0.97102,1.8071 -3.98198,3.61421 -3.98198,3.61421 0,0 1.29646,-25.38783 -9.26571,-41.13954 C 105.83972,90.779171 83.604136,82.903051 83.604136,82.903051 c 4.16719,-0.27781 11.85862,-0.27781 11.85862,-0.27781 -46.69895,-31.32429 -105.7222,11.29665 -119.11012,21.403729 -10.71298,8.08752 -30.80808,25.4807 -49.66229,22.70098 -18.85421,-2.77971 -29.802666,-27.331979 -29.802666,-27.331979 0.40217,1.561569 0.89429,3.099059 1.46844,4.605329 1.62719,4.35293 3.780886,8.49048 6.413496,12.32086 z"
         fill="#00ffb6"
         id="path892"
         style="stroke-width:0.264583" />
      <path
         d="m -120.12504,97.995341 c 0.82815,1.83515 1.55311,3.716859 2.16429,5.635359 0.78846,2.54741 1.38642,5.15011 1.7833,7.78642 0.46566,3.22897 0.67468,6.4897 0.62706,9.75175 -0.0767,3.85762 -0.37306,7.70757 -0.89429,11.53133 -0.56621,4.13809 -1.30175,8.55663 -2.1299,13.3985 -0.40481,2.43682 -0.83608,4.93448 -1.14829,7.70732 -0.13758,1.31497 -0.27781,2.64583 -0.41804,3.99256 -0.14817,1.27264 -0.29634,2.55587 -0.4445,3.85498 -1.25677,10.78706 -2.04259,23.50029 0.39423,37.08135 1.21973,7.13581 3.3602,14.08642 6.36587,20.67454 1.59015,3.50044 3.43165,6.88446 5.50863,10.11767 2.159,3.31523 4.56406,6.46112 7.19666,9.41123 5.360456,6.01133 11.562286,11.21569 18.412356,15.45167 3.40518,2.11931 6.92943,4.03754 10.55687,5.74675 1.80181,0.86518 3.63009,1.65364 5.46629,2.413 0.92869,0.37041 1.82298,0.74612 2.78871,1.10595 l 2.9554,1.06098 2.51883,0.84138 0.81492,0.26723 0.7276,0.22225 1.45256,0.44185 c 1.94734,0.57415 3.91848,1.10596 5.91609,1.56369 4.03225,0.92075 8.11477,1.60602 12.22639,2.04787 8.4164,0.87842 16.91217,0.60061 25.25448,-0.8202 16.8222098,-2.86015 33.20257,-10.96169 45.20671,-23.65111 2.99508,-3.16177 5.70442,-6.58283 8.09361,-10.22614 0.90222,-1.4023 1.74095,-2.84428 2.54529,-4.30213 -0.0953,0.13494 -31.63094,44.81777 -88.63542,30.353 -57.091786,-14.48858 -68.310116,-58.74544 -68.310116,-58.74544 2.8522,3.70682 9.34243,7.22842 9.34243,7.22842 -5.50333,-6.9506 -14.23193,-32.52258 -8.67304,-66.71469 5.5589,-34.18999 -10.01183,-49.799079 -10.01183,-49.799079 0,0 0.21696,0.39555 0.63764,1.16152 0.43657,0.74851 0.99219,1.91982 1.70921,3.41022 z"
         fill="#190735"
         id="path894"
         style="stroke-width:0.264583" />
      <path
         d="m -14.074754,243.01558 c 35.31923,-3.89202 49.9745,-32.24477 45.1485,-56.70815 -4.826,-24.46073 -19.28018,-34.18946 -19.28018,-34.18946 0,0 7.13581,2.0373 9.72873,4.26244 0,0 -5.89757,-15.07331 -27.7971302,-19.45746 -21.8995598,-4.38679 -42.5502898,9.67317 -44.7172298,30.68638 0,0 0.32279,-1.79917 1.50813,-4.88686 0.72495,-1.86002 1.59543,-3.66183 2.60085,-5.38691 0.62442,-1.06363 1.31233,-2.08492 2.0611,-3.06652 2.21721,-3.00567 5.04296,-5.50863 8.29469,-7.34748 -0.003,0 -0.005,-0.008 -0.005,-0.008 0,0 18.33298,-11.61521 45.6961898,0 0,0 -5.25727,-0.4789 -12.64179,0.29633 0.96308,0.43127 1.91823,0.89959 2.86279001,1.41288 8.47459999,4.49791 15.48606019,11.32152 20.20887019,19.67441 1.1774,2.18282 2.21457,4.43707 3.10621,6.75217 0.87313,2.36273 1.56633,4.78631 2.07169,7.25223 0.49212,2.52413 0.79639,5.08265 0.90487,7.65175 0.0609,0.64294 0.0635,1.2991 0.0609,1.95792 -0.003,0.65616 0.0317,1.30968 0.008,1.97114 l -0.0952,1.99232 -0.0185,0.49741 -0.005,0.12436 c -0.003,0.0847 0.005,-0.33073 -0.005,-0.0794 l -0.0238,0.31221 -0.10583,1.24619 c -0.09,0.69585 -0.14288,1.03716 -0.24871,1.70656 -0.10054,0.62442 -0.20902,1.24619 -0.34132,1.86531 -0.254,1.23825 -0.5662,2.46063 -0.93662,3.66977 -0.69585,2.44211 -1.6219,4.81277 -2.7596,7.0829 -2.37067,4.63814 -5.50863,8.84502 -9.28159,12.43542 -7.6543902,7.366 -18.0340002,12.40895 -29.22852,14.35364 -5.68325,0.98954 -11.46969,1.26206 -17.22437,0.80963 -2.92894,-0.21167 -5.84465,-0.59267 -8.73125,-1.143 -1.44992,-0.2884 -2.90248,-0.57944 -4.34446,-0.93398 l -1.08215,-0.27252 -0.53975,-0.13494 c 0.32809,0.10054 0,0.003 0.0317,0.0132 l -0.15875,-0.045 -0.31485,-0.09 -2.50296,-0.71967 -2.01348,-0.62706 -2.12725,-0.6985 c -1.41817,-0.48948 -2.8231,-0.98954 -4.18835,-1.54517 -2.66965,-1.05833 -5.27844,-2.27012 -7.8105,-3.62479 0,0 18.9177,16.83015 54.23693,12.93813 z"
         fill="#00ffb6"
         id="path896"
         style="stroke-width:0.264583" />
      <path
         d="m 50.332766,214.78983 c 0.26988,-1.05304 0.51594,-2.10609 0.7329,-3.16706 0.42069,-2.08492 0.72496,-4.18042 0.93398,-6.27328 0.11112,-1.0451 0.18785,-2.0902 0.24606,-3.13266 0.0635,-0.99484 0.0979,-2.32569 0.11113,-3.29406 l -0.0159,-1.24884 -0.005,-0.31221 0.003,-0.39158 -0.008,-0.18785 -0.0318,-0.74877 c -0.045,-0.99484 -0.09,-1.98703 -0.13494,-2.97921 -0.0582,-0.98954 -0.18256,-1.98173 -0.27517,-2.96598 -0.0926,-0.9869 -0.19579,-1.9685 -0.36512,-2.94746 -0.15875,-0.97631 -0.3175,-1.94998 -0.47625,-2.921 -0.21696,-0.96308 -0.43127,-1.92617 -0.64558,-2.88396 -0.0979,-0.46831 -0.24077,-0.92604 -0.36248,-1.38906 -4.71752,-11.78454 -12.39309,-19.2114 -12.39309,-19.2114 0,0 13.89857,20.2909 8.61748,48.64365 -5.28373,28.35539 -37.8063102,41.97614 -37.8063102,41.97614 0,0 29.8264802,-6.42937 41.8756002,-36.56541 z"
         fill="#7655c6"
         id="path898"
         style="stroke-width:0.264583" />
      <path
         d="m -246.44083,37.594141 c -46.32854,-24.83221 -67.08405,-50.59098 -67.08405,-82.279599 0,-31.688881 13.15747,-47.243206 13.15747,-47.243206 0.37068,4.64476 2.03862,9.624218 2.03862,9.624218 7.96845,-20.754974 27.42644,-27.982304 27.42644,-27.982304 -3.33586,-3.8916 -11.11885,-7.7832 -11.11885,-7.7832 42.25158,-10.62672 62.88537,25.567933 52.25865,48.089002 -10.62699,22.521069 -32.27202,18.430346 -32.27202,18.430346 -0.78264,-0.224102 -1.17528,-0.366183 -1.17528,-0.366183 1.58141,-0.06165 3.15674,-0.229923 4.7154,-0.503767 2.9927,-0.508794 7.44961,-1.463675 12.11951,-3.990975 2.46433,-1.331383 4.68074,-3.077104 6.55214,-5.160698 2.03279,-2.329127 3.55282,-5.059627 4.46167,-8.014229 1.02208,-3.439319 1.49622,-7.018073 1.40467,-10.604765 -0.009,-0.974989 -0.0677,-1.986491 -0.13176,-2.894541 -0.009,-1.365515 -0.16616,-2.725738 -0.4699,-4.056857 -0.27279,-1.471877 -0.68289,-2.91465 -1.22529,-4.309797 -0.5289,-1.326886 -1.18401,-2.600061 -1.95659,-3.801534 -4.00579,-6.819902 -12.396,-14.636692 -30.00216,-18.128142 0,0 5.67584,3.42972 9.90282,8.11472 -6.79476,-0.0659 -13.45856,1.8677 -19.16298,5.56022 -1.89177,1.251215 -3.68088,2.65139 -5.35014,4.187031 -1.69809,1.593321 -3.25146,3.33428 -4.64132,5.202767 -1.43748,1.938073 -2.71277,3.99124 -3.81344,6.138598 -0.55827,1.077912 -1.12315,2.251869 -1.5875,3.331369 l -0.31247,0.755385 c -0.10769,0.258498 -0.20002,0.453496 -0.35983,0.885031 l -0.4326,1.131623 -0.21669,0.566209 -0.054,0.141816 c 0.1704,-0.425979 0.0214,-0.04498 0.0479,-0.107156 l -0.0892,0.254529 c -2.04999,5.608902 -3.61897,11.382111 -4.68974,17.257448 -2.71119,-6.50531 -4.27091,-14.119754 -4.27091,-14.119754 -7.18079,35.321346 14.29544,66.2230955 14.29544,66.2230955 l 0.007,-0.0249 c 0.26802,0.40719 0.51699,0.82391 0.79348,1.22687 1.52321,2.26748 3.16151,4.45532 4.90829,6.55531999 1.75445,2.11402001 3.61447,4.15713001 5.55307,6.13224001 1.95792,1.95766 3.97828,3.86715 6.03621,5.7343195 4.15925,3.674 8.52699,7.10485 13.08153,10.27562 4.49421,3.20278 9.10219,6.155 13.74087,8.85349 2.30372,1.37186 4.62121,2.70642 6.90509,3.9706 1.13903,0.61807 2.26933,1.23137 3.39064,1.84018 1.17686,0.61039 2.34394,1.21629 3.50149,1.81742 4.89056,2.53921 9.53903,5.19218 13.94804,7.86686 4.38997,2.71118 8.50054,5.52661 12.31239,8.39364 3.63352,2.76119 7.07998,5.76024 10.31663,8.97758 3.03663,3.10567 5.6896,6.30766 7.756,9.6049 2.04364,3.30359 3.55864,6.70004 4.18676,10.00125 0.66332,3.28533 0.48366,6.37408 -0.26749,8.80163 -0.58208,2.01374 -1.56792,3.88752 -2.89772,5.50783 -0.77496,0.9615 -1.6674,1.82219 -2.65641,2.561959 14.84577,-17.783439 -15.42839,-39.514199 -58.58008,-62.643539 z"
         fill="#00ffb6"
         id="path900"
         style="stroke-width:0.264583" />
      <path
         d="m -239.16664,50.390441 c 0,0 -3.21918,-2.14021 -2.32013,-4.0423 0.33179,-0.70194 1.08294,-0.98187 1.48484,-1.13824 0.40191,-0.1561 2.68473,-0.37359 3.74254,0.4199 2.12486,1.59438 2.69054,4.25661 2.43893,4.6392 -0.43604,0.66278 -1.72959,1.88304 -5.34618,0.12144 z"
         fill="#00ffb6"
         id="path902"
         style="stroke-width:0.264583" />
      <path
         d="m -250.91123,45.531901 c 0,0 -3.99891,-2.65827 -2.8821,-5.021 0.41222,-0.87206 1.3454,-1.21973 1.84441,-1.41393 0.499,-0.19394 3.33507,-0.46408 4.64899,0.52149 2.63949,1.98041 3.34222,5.28744 3.02922,5.76263 -0.5416,0.82312 -2.14789,2.33944 -6.64052,0.15081 z"
         fill="#00ffb6"
         id="path904"
         style="stroke-width:0.264583" />
      <path
         d="m -242.52261,41.731161 c 0,0 -2.55482,-1.69862 -1.84124,-3.20807 0.26326,-0.55695 0.85937,-0.7792 1.17819,-0.90329 0.31909,-0.12409 2.13096,-0.2966 2.97048,0.33338 1.68619,1.26497 2.13519,3.37793 1.93516,3.68167 -0.34581,0.52573 -1.37239,1.49463 -4.24259,0.0963 z"
         fill="#00ffb6"
         id="path906"
         style="stroke-width:0.264583" />
      <path
         d="m -355.85953,95.162711 c 0,0 -3.30015,2.01295 -4.64423,0.39423 -0.49583,-0.59717 -0.4318,-1.39621 -0.40376,-1.82642 0.028,-0.43048 0.79613,-2.59133 1.96242,-3.21469 2.34262,-1.25174 4.99454,-0.63976 5.23504,-0.2495 0.41619,0.67521 0.97579,2.36352 -2.14947,4.89638 z"
         fill="#00ffb6"
         id="path908"
         style="stroke-width:0.264583" />
      <path
         d="m -365.22658,103.75373 c 0,0 -4.09918,2.50058 -5.76871,0.48974 -0.61621,-0.74189 -0.53657,-1.73461 -0.50165,-2.26906 0.0349,-0.53473 0.98875,-3.218659 2.43761,-3.993099 2.90989,-1.55495 6.20395,-0.79428 6.50267,-0.30982 0.51699,0.83873 1.21232,2.935809 -2.66992,6.082239 z"
         fill="#00ffb6"
         id="path910"
         style="stroke-width:0.264583" />
      <path
         d="m -365.1255,94.544641 c 0,0 -2.61938,1.59755 -3.68591,0.31274 -0.39344,-0.47387 -0.3429,-1.10808 -0.32068,-1.44939 0.0222,-0.34131 0.63183,-2.05661 1.55734,-2.55138 1.85949,-0.99351 3.96399,-0.50747 4.15475,-0.1979 0.33046,0.53604 0.77444,1.87563 -1.7055,3.88593 z"
         fill="#00ffb6"
         id="path912"
         style="stroke-width:0.264583" />
      <path
         d="m -159.68078,235.20243 c 0,0 -3.30014,2.01084 -4.64423,0.39423 -0.49583,-0.59796 -0.43206,-1.397 -0.40375,-1.82827 0.0283,-0.42862 0.79587,-2.59027 1.96215,-3.21469 2.34288,-1.25148 4.9948,-0.64029 5.23505,-0.24871 0.41618,0.67469 0.97578,2.36273 -2.14922,4.89744 z"
         fill="#190735"
         id="path914"
         style="stroke-width:0.264583" />
      <path
         d="m -169.04755,243.79081 c 0,0 -4.09946,2.50296 -5.76898,0.49212 -0.61595,-0.74348 -0.53657,-1.73566 -0.50165,-2.27012 0.0349,-0.53446 0.98875,-3.21998 2.43761,-3.99257 2.90988,-1.55575 6.20395,-0.79375 6.50266,-0.30956 0.517,0.83873 1.21206,2.93423 -2.66964,6.08013 z"
         fill="#190735"
         id="path916"
         style="stroke-width:0.264583" />
      <path
         d="m -168.94701,234.58331 c 0,0 -2.61911,1.59808 -3.68565,0.31221 -0.39343,-0.47361 -0.3429,-1.10861 -0.32067,-1.44992 0.0222,-0.34131 0.63182,-2.05581 1.5576,-2.55058 1.85923,-0.99219 3.96372,-0.508 4.15449,-0.19844 0.33046,0.5371 0.77443,1.87589 -1.70577,3.88673 z"
         fill="#190735"
         id="path918"
         style="stroke-width:0.264583" />
      <path
         d="m -305.18415,210.04056 c 0,0 0.44476,-3.83911 2.54794,-3.90261 0.77576,-0.0238 1.36631,0.51859 1.68804,0.80698 0.32173,0.28575 1.55204,2.2225 1.32556,3.52425 -0.45535,2.61673 -2.57043,4.33123 -3.02577,4.28096 -0.78846,-0.09 -2.46301,-0.68792 -2.53577,-4.70958 z"
         fill="#190735"
         id="path920"
         style="stroke-width:0.264583" />
      <path
         d="m -306.18904,197.37231 c 0,0 0.55272,-4.77044 3.16495,-4.84982 0.96388,-0.0291 1.6973,0.64559 2.09682,1.00278 0.39979,0.35454 1.92828,2.7596 1.6465,4.37885 -0.56541,3.24908 -3.19272,5.37898 -3.7584,5.31548 -0.97923,-0.10848 -3.05964,-0.85196 -3.14987,-5.84729 z"
         fill="#190735"
         id="path922"
         style="stroke-width:0.264583" />
      <path
         d="m -298.99343,203.11906 c 0,0 0.35322,-3.048 2.02248,-3.09827 0.61569,-0.0185 1.08426,0.41275 1.33959,0.64029 0.25505,0.22754 1.2319,1.76477 1.05198,2.79664 -0.36142,2.07698 -2.03994,3.43694 -2.40136,3.39725 -0.62574,-0.0688 -1.95475,-0.54504 -2.01269,-3.73591 z"
         fill="#190735"
         id="path924"
         style="stroke-width:0.264583" />
      <path
         d="m -255.41205,72.506441 c 0,0 3.1533,2.23573 2.19763,4.1103 -0.35243,0.69162 -1.11178,0.94853 -1.51818,1.09299 -0.40614,0.1442 -2.69478,0.2929 -3.72825,-0.53207 -2.07592,-1.65735 -2.56169,-4.3352 -2.29843,-4.71038 0.45561,-0.64902 1.78514,-1.83039 5.34723,0.0392 z"
         fill="#190735"
         id="path926"
         style="stroke-width:0.264583" />
      <path
         d="m -243.81828,77.715021 c 0,0 3.9169,2.77734 2.72998,5.10567 -0.43815,0.8591 -1.38113,1.17845 -1.88595,1.35758 -0.50483,0.17912 -3.34751,0.36406 -4.63127,-0.66067 -2.57863,-2.05846 -3.18188,-5.38506 -2.85512,-5.85099 0.56621,-0.80645 2.21747,-2.27357 6.64236,0.0484 z"
         fill="#190735"
         id="path928"
         style="stroke-width:0.264583" />
      <path
         d="m -252.31722,81.262561 c 0,0 2.50243,1.77456 1.74413,3.26205 -0.28019,0.54874 -0.88238,0.75273 -1.20491,0.8673 -0.32253,0.11456 -2.13889,0.2323 -2.9591,-0.42228 -1.64756,-1.31497 -2.03279,-3.44037 -1.82404,-3.73803 0.36169,-0.51541 1.41685,-1.45256 4.24392,0.031 z"
         fill="#190735"
         id="path930"
         style="stroke-width:0.264583" />
      <path
         d="m -323.4367,-14.239059 c -0.79428,-2.14921 -1.53167,-4.32329 -2.15212,-6.54077 -2.09656,-7.49326 -3.22421,-15.224385 -3.35491,-23.004458 -0.24157,-15.476802 3.27448,-30.357498 8.65849,-43.628205 5.64012,-14.387248 16.55418,-27.768578 30.63319,-34.877088 6.98368,-3.56158 14.52351,-5.7658 22.05091,-6.2766 7.51549,-0.49501 15.00796,0.40029 21.8559,2.97786 5.79306,2.15794 11.15643,5.44624 15.47204,9.68518 -2.8829,-2.72166 -43.93935,-26.97501 -76.4876,13.9555 -27.70452,34.839273 -17.93002,83.633731 -16.6759,87.708581 z"
         fill="#190735"
         id="path932"
         style="stroke-width:0.264583" />
      <path
         d="m -226.42695,95.412211 c -32.61201,-31.41213 -76.44342,-32.80066 -76.44342,-32.80066 0,0 7.50623,-3.89176 16.95742,-3.52134 0,0 -44.64898,-8.30395 -75.79334,19.27278 -31.14443,27.576729 -29.27977,58.559959 -29.27977,58.559959 0,0 -6.70455,-22.1988 15.04891,-56.170509 10.49071,-10.6889 23.87783,-18.46262 37.65362,-22.92932 1.787,-0.56541 3.55177,-1.16893 5.38692,-1.64465 1.81742,-0.50826 3.63591,-1.01124 5.50281,-1.41102 l 2.78712,-0.61172 2.8276,-0.50218 c 1.87484,-0.36248 3.79307,-0.58632 5.69939,-0.83476 15.24529,-1.79414 30.69802,0.1606 45.01621,5.69463 3.44329,1.30201 6.72835,2.81411 9.92267,4.37938 3.14801,1.63777 6.21824,3.31735 9.11595,5.13556 11.65728,7.23001 21.23705,15.66413 29.62805,23.93897 2.1082,2.05899 4.09495,4.17672 6.04599,6.23967 0.97208,1.04273 1.93648,2.077779 2.89322,3.104889 0.96758,1.03478 1.89441,2.05052 2.76172,3.06467 0.44265,0.50694 0.88344,1.0115 1.32239,1.51394 0.2278,0.25136 0.41989,0.50192 0.67548,0.75195 l 0.61462,0.64505 c 0.81175,0.87472 1.6473,1.67826 2.47121,2.49317 1.66106,1.59279 3.36603,3.02207 5.05513,4.34949 6.7908,5.31945 13.911,7.77504 20.49198,6.8961 0,0 -13.74987,5.79755 -46.36188,-25.614049 z"
         fill="#190735"
         id="path934"
         style="stroke-width:0.264583" />
      <path
         d="m -159.70882,116.32435 c -1.96083,2.84374 -4.2463,5.44909 -6.81064,7.76314 -3.23003,2.88819 -6.97574,5.14112 -11.0408,6.64104 -4.50188,1.61898 -9.85255,2.23361 -15.25429,1.56792 -5.40649,-0.6858 -10.75346,-2.57149 -15.77763,-5.14377 -2.53233,-1.31021 -4.98157,-2.77495 -7.33398,-4.38599 -1.16893,-0.81915 -2.36353,-1.64465 -3.50653,-2.52307 l -0.86995,-0.65484 -0.80565,-0.56462 c -0.54849,-0.37995 -1.09935,-0.76148 -1.65233,-1.14459 -2.16138,-1.50019 -4.35821,-3.02525 -6.5905,-4.57465 -2.23362,-1.50363 -4.5003,-3.02921 -6.80006,-4.57703 -9.15855,-6.10737 -18.87908,-12.048859 -28.96632,-16.738069 -2.24949,-1.04722 -4.51591,-2.01268 -6.79979,-2.89665 l 0.0196,-0.003 c 0,0 -27.76935,-12.37774 -60.95577,-8.69024 0,0 8.39338,1.55311 15.52337,4.18571 -3.82641,0.73925 -7.60757,1.6973 -11.32443,2.86914 -10.66112,3.28269 -20.10357,8.60716 -27.53069,15.757259 -7.4176,7.10777 -12.75689,16.06444 -15.24186,25.48996 -2.53304,9.39588 -2.14656,19.14049 0.94536,26.96422 0.76227,1.90764 1.71371,3.73327 2.83951,5.45306 0.55695,0.83344 1.11786,1.66158 1.74413,2.42623 0.18971,0.23812 0.37862,0.46566 0.57177,0.69321 -4.29604,-1.15623 -8.36134,-3.04536 -12.01841,-5.57742 7.91895,15.28762 25.55555,16.53381 33.70577,16.23219 0.009,0 0.0183,0 0.0272,0 1.39965,0 2.79691,-0.11642 4.17777,-0.34661 0.0529,-0.008 0.0807,-0.0106 0.0807,-0.0106 v -0.003 c 1.99285,-0.33337 3.94283,-0.8837 5.81528,-1.64306 2.95884,-1.23296 5.68431,-2.96333 8.05895,-5.11704 2.10555,-1.93675 3.91742,-4.16719 5.37845,-6.62781 2.14709,-3.70152 3.55308,-7.78404 4.13914,-12.02267 0.20796,-1.51871 0.31908,-2.71462 0.35983,-3.5216 0.0352,-0.81227 0.0532,-1.23032 0.0532,-1.23032 0,0 2.95037,36.93319 -34.57575,36.37757 -37.52599,-0.55563 -34.46857,-36.69242 -34.46857,-36.69242 0.9729,1.8071 3.98434,3.61421 3.98434,3.61421 0,0 -1.29736,-25.38783 9.26571,-41.13954 10.56269,-15.751429 32.80039,-23.627549 32.80039,-23.627549 -4.16957,-0.27781 -11.85995,-0.27781 -11.85995,-0.27781 46.69923,-31.32429 105.72248,11.29665 119.11066,21.403729 10.71298,8.08752 30.80862,25.4807 49.66229,22.70098 18.85342,-2.77971 29.80161,-27.331979 29.80161,-27.331979 -0.40269,1.561569 -0.89297,3.099059 -1.46843,4.605329 -1.62746,4.35293 -3.78117,8.49048 -6.41271,12.32086 z"
         fill="#00ffb6"
         id="path936"
         style="stroke-width:0.264583" />
      <path
         d="m -134.81312,97.995341 c -0.82999,1.83515 -1.5531,3.716859 -2.16561,5.635359 -0.78846,2.54741 -1.38483,5.15011 -1.78382,7.78642 -0.46488,3.22897 -0.67416,6.4897 -0.62601,9.75175 0.0759,3.85762 0.37439,7.70757 0.8935,11.53133 0.56753,4.13809 1.30307,8.55663 2.12963,13.3985 0.4064,2.43682 0.83767,4.93448 1.14882,7.70732 0.13812,1.31497 0.27808,2.64583 0.41937,3.99256 0.14658,1.27264 0.29474,2.55587 0.44476,3.85498 1.25492,10.78706 2.04073,23.50029 -0.39476,37.08135 -1.22105,7.13581 -3.361,14.08642 -6.36614,20.67454 -1.58961,3.50044 -3.43111,6.88446 -5.50994,10.11767 -2.15821,3.31523 -4.56354,6.46112 -7.19535,9.41123 -5.36178,6.01133 -11.56335,11.21569 -18.41235,15.45167 -3.40492,2.11931 -6.9297,4.03754 -10.55688,5.74675 -1.80287,0.86518 -3.62981,1.65364 -5.46708,2.413 -0.92895,0.37041 -1.82272,0.74612 -2.78712,1.10595 l -2.95566,1.06098 -2.51963,0.84138 -0.81518,0.26723 -0.72628,0.22225 -1.45468,0.44185 c -1.94733,0.57415 -3.91848,1.10596 -5.91556,1.56369 -4.03198,0.92075 -8.1145,1.60602 -12.22692,2.04787 -8.41587,0.87842 -16.91243,0.60061 -25.25342,-0.8202 -16.82168,-2.86015 -33.20151,-10.96169 -45.20724,-23.65111 -2.99588,-3.16177 -5.70415,-6.58283 -8.09228,-10.22614 -0.90329,-1.4023 -1.74255,-2.84428 -2.54714,-4.30213 0.0953,0.13494 31.63199,44.81777 88.63647,30.353 57.09126,-14.48858 68.30986,-58.74544 68.30986,-58.74544 -2.85062,3.70682 -9.34217,7.22842 -9.34217,7.22842 5.50386,-6.9506 14.23167,-32.52258 8.67225,-66.71469 -5.55943,-34.18999 10.01183,-49.799079 10.01183,-49.799079 0,0 -0.21696,0.39555 -0.635,1.16152 -0.43921,0.74851 -0.99483,1.91982 -1.71027,3.41022 z"
         fill="#190735"
         id="path938"
         style="stroke-width:0.264583" />
      <path
         d="m -240.8642,243.01558 c -35.31976,-3.89202 -49.9745,-32.24477 -45.14877,-56.70815 4.82574,-24.46073 19.28019,-34.18946 19.28019,-34.18946 0,0 -7.13449,2.0373 -9.72899,4.26244 0,0 5.89703,-15.07331 27.79712,-19.45746 21.90009,-4.38679 42.55109,9.67317 44.71776,30.68638 0,0 -0.32173,-1.79917 -1.5076,-4.88686 -0.72654,-1.86002 -1.59596,-3.66183 -2.60085,-5.38691 -0.62415,-1.06363 -1.3126,-2.08492 -2.0611,-3.06652 -2.21721,-3.00567 -5.04376,-5.50863 -8.29469,-7.34748 l 0.005,-0.008 c 0,0 -18.33245,-11.61521 -45.69672,0 0,0 5.25886,-0.4789 12.64233,0.29633 -0.96203,0.43127 -1.9185,0.89959 -2.86359,1.41288 -8.47408,4.49791 -15.48553,11.32152 -20.20755,19.67441 -1.1766,2.18282 -2.21456,4.43707 -3.10727,6.75217 -0.87339,2.36273 -1.56554,4.78631 -2.07063,7.25223 -0.49318,2.52413 -0.7956,5.08265 -0.90461,7.65175 -0.0611,0.64294 -0.0632,1.2991 -0.0624,1.95792 0.003,0.65616 -0.031,1.30968 -0.006,1.97114 l 0.0937,1.99232 0.0206,0.49741 0.005,0.12436 c 0.002,0.0847 -0.007,-0.33073 0.004,-0.0794 l 0.0257,0.31221 0.10425,1.24619 c 0.0892,0.69585 0.14234,1.03716 0.25029,1.70656 0.099,0.62442 0.2077,1.24619 0.34132,1.86531 0.25241,1.23825 0.56435,2.46063 0.93609,3.66977 0.69612,2.44211 1.62004,4.81277 2.75961,7.0829 2.36881,4.63814 5.50677,8.84502 9.28052,12.43542 7.65413,7.366 18.03374,12.40895 29.22852,14.35364 5.68484,0.98954 11.47128,1.26206 17.22358,0.80963 2.93053,-0.21167 5.84597,-0.59267 8.73205,-1.143 1.44912,-0.2884 2.90168,-0.57944 4.34498,-0.93398 l 1.08162,-0.27252 0.54107,-0.13494 c -0.32834,0.10054 -2.6e-4,0.003 -0.0323,0.0132 l 0.15796,-0.045 0.31644,-0.09 2.50111,-0.71967 2.01295,-0.62706 2.12831,-0.6985 c 1.41763,-0.48948 2.82363,-0.98954 4.18782,-1.54517 2.67044,-1.05833 5.27791,-2.27012 7.80997,-3.62479 0,0 -18.91638,16.83015 -54.23561,12.93813 z"
         fill="#00ffb6"
         id="path940"
         style="stroke-width:0.264583" />
      <path
         d="m -305.27226,214.78983 c -0.27067,-1.05304 -0.51514,-2.10609 -0.73316,-3.16706 -0.42016,-2.08492 -0.7231,-4.18042 -0.93345,-6.27328 -0.11192,-1.0451 -0.18812,-2.0902 -0.24553,-3.13266 -0.0635,-0.99484 -0.0984,-2.32569 -0.11113,-3.29406 l 0.0161,-1.24884 0.004,-0.31221 -0.002,-0.39158 0.008,-0.18785 0.031,-0.74877 c 0.046,-0.99484 0.0913,-1.98703 0.13627,-2.97921 0.0582,-0.98954 0.1815,-1.98173 0.27331,-2.96598 0.0942,-0.9869 0.19764,-1.9685 0.36698,-2.94746 0.15928,-0.97631 0.31803,-1.94998 0.47625,-2.921 0.2159,-0.96308 0.43127,-1.92617 0.64611,-2.88396 0.0974,-0.46831 0.23892,-0.92604 0.36168,-1.38906 4.71805,-11.78454 12.39336,-19.2114 12.39336,-19.2114 0,0 -13.89857,20.2909 -8.61696,48.64365 5.28135,28.35539 37.80394,41.97614 37.80394,41.97614 0,0 -29.8241,-6.42937 -41.87482,-36.56541 z"
         fill="#190735"
         id="path942"
         style="stroke-width:0.264583" />
      <path
         d="m -55.937124,-31.576149 c -0.36513,2.58577 -0.82815,5.15858 -1.35731,7.72292 -0.5424,2.56117 -1.19327,5.1017 -1.94734,7.62159 -0.75141,2.52704 -1.64041,5.01174 -2.65906,7.4432605 -1.01865,2.45295 -2.20398,4.8342 -3.54277,7.12735 -1.35731,2.31747999 -2.91835,4.50876 -4.6646,6.54764 -1.77271,2.0619 -3.77032,3.92007 -5.95578,5.5401095 -1.10331,0.81201 -2.25425,1.55522 -3.44752,2.22488 -1.19856,0.6649 -2.43152,1.26127 -3.69623,1.7862 -2.51883,1.04749 -5.05089,1.81584 -7.4586,2.65959 -2.3839,0.8181 -4.70958,1.80129 -6.95854,2.9427 -2.24367,1.15332 -4.413246,2.44449 -6.498166,3.86636 -2.15106,1.4515 -4.22275,2.91094 -6.18066,4.48442 -1.94469,1.55152 -3.75973,3.25993 -5.42396,5.10778 -1.64307,1.83145 -3.10357,3.81714 -4.36034,5.92958 -0.62706,1.05436 -1.19856,2.14021 -1.71185,3.25358 -0.49742,1.08347 -0.91546,2.2016 -1.24883,3.34592 -0.68792,2.37808 -1.1774,4.8088 -1.4658,7.26784 -0.1561,1.24354 -0.27252,2.4974 -0.35454,3.75311 -0.0397,0.62786 -0.0714,1.25572 -0.0926,1.88331 l -0.0265,0.93715 c -0.005,0.3048 -0.008,0.63474 -0.005,0.90223 l -4.75986,-0.0497 c 0.1905,-4.93765 -0.5371,-9.86764 -2.14577,-14.53938 -1.60602,-4.6617 -4.1312,-8.95324 -7.42711,-12.61983 -1.66053,-1.85447 -3.47293,-3.56712 -5.41841,-5.12022 -1.95527,-1.57454 -4.0296,-3.03213 -6.18199,-4.45717 -1.08849,-0.72496 -2.13571,-1.40362 -3.22262,-2.05952 -1.08162,-0.65484 -2.18017,-1.27185 -3.29618,-1.85155 -2.23811,-1.16073 -4.55692,-2.15821 -6.9387,-2.98503 -2.39686,-0.84905 -4.93263,-1.5965 -7.46151,-2.63657 -1.26921,-0.51938 -2.50693,-1.11205 -3.70708,-1.77536 -1.1983,-0.66675 -2.3532,-1.40811 -3.45837,-2.21985 -2.19048,-1.6173995 -4.19312,-3.4747795 -5.97032,-5.5374695 -1.75101,-2.03941 -3.31497,-4.23201001 -4.67334,-6.55161 -1.3417,-2.29526 -2.52703,-4.67889 -3.54753,-7.13423 -1.01997,-2.4339005 -1.90765,-4.9209805 -2.65959,-7.4506605 -0.75142,-2.52148 -1.40071,-5.06439 -1.94813,-7.629 -0.5297,-2.56672 -0.99298,-5.14217 -1.35731,-7.73006 0.63579,2.53523 1.2946,5.05989 2.05396,7.55147 0.73898,2.49661 1.57215,4.9575 2.49952,7.3824 1.86002,4.83394 4.06638,9.5369105 6.93578,13.7657405 2.82946,4.23969 6.3164,8.01132 10.45951,10.77093 2.06852,1.37239 4.2934,2.4936995 6.62729,3.3403595 2.33653,0.86122 4.8461,1.48908 7.39563,2.30585 2.57942,0.80459 5.09773,1.79387 7.53507,2.95989 1.22026,0.58526 2.41168,1.22237 3.58166,1.88807 1.16523,0.66331 2.32701,1.37609 3.42874,2.07089 2.28282,1.40282 4.49209,2.92259 6.61882,4.55269 2.16667,1.66766 4.1902,3.5134 6.04996,5.51735 3.76475,4.0722 6.66194,8.86645 8.51667,14.09197 1.82827,5.21812 2.66435,10.73124 2.46856,16.25653 v 0.0127 c -0.0185,0.62363 -0.2831,1.21444 -0.73289,1.64545 -0.45244,0.43127 -1.05304,0.66807 -1.67746,0.65987 -0.62442,-0.008 -1.21973,-0.26088 -1.65894,-0.70353 -0.43921,-0.44291 -0.68527,-1.04061 -0.69056,-1.66423 0,-0.38444 0.003,-0.70644 0.0106,-1.05357 l 0.0317,-1.01785 c 0.0265,-0.67601 0.0635,-1.35043 0.10848,-2.02274 0.0926,-1.3462 0.21961,-2.68975 0.39423,-4.03304 0.16933,-1.34303 0.38894,-2.68553 0.65881,-4.02696 0.26723,-1.35493 0.60325,-2.69505 1.01071,-4.01479 0.41275,-1.35546 0.9234,-2.67917 1.52929,-3.96002 0.59267,-1.2483 1.24884,-2.46539 1.9685,-3.64596 1.4314,-2.35955 3.10092,-4.56776 4.97946,-6.59024 1.86531,-1.99549 3.88938,-3.83487 6.05367,-5.49989 2.13254,-1.6637 4.37621,-3.14219 6.58283,-4.55454 2.26219,-1.465 4.61433,-2.78368 7.045856,-3.94758 2.4421,-1.14274 4.96093,-2.11455 7.53797,-2.90804 2.54,-0.80486 5.03767,-1.44859 7.3713,-2.31987 2.32833,-0.85751 4.54818,-1.9848995 6.61458,-3.3591495 4.13544,-2.76727 7.61735,-6.53759 10.4431,-10.77515 2.86544,-4.22646 5.06942,-8.9257205 6.92944,-13.7546305 0.92604,-2.41856 1.75948,-4.87707 2.49767,-7.37579 0.75671,-2.48947 1.41552,-5.01147 2.05052,-7.54486 z"
         fill="#00ffb6"
         id="path944"
         style="stroke-width:0.264583" />
      <path
         d="m -107.17898,25.309271 5.82084,-1.5875 c 0,0 -3.43959,-0.52917 -1.85209,-1.85209 1.5875,-1.32291 -3.96875,3.43959 -3.96875,3.43959 z"
         fill="#00ffb6"
         id="path946"
         style="stroke-width:0.264583" />
      <path
         d="m -197.2696,-45.069898 c 0,-39.015458 31.62829,-70.643612 70.64375,-70.643612 39.015456,0 70.643746,31.628154 70.643746,70.643612 -6.70719,-33.482227 -36.25056,-57.826802 -70.270686,-58.002222 -34.29476,-0.17674 -64.25538,24.250385 -71.01681,58.002222 z"
         fill="#00ffb6"
         id="path948"
         style="stroke-width:0.264583" />
    </g>
  </g>
</svg>
