<svg version="1.1" viewBox="0 0 427.53 374.98" xmlns="http://www.w3.org/2000/svg">
  <style type="text/css">.st0{display:none;}
	.st1{display:inline;stroke:#000000;stroke-width:0.9608;stroke-miterlimit:10;}
	.st2{stroke:#000000;stroke-width:0.9608;stroke-miterlimit:10;}
	.st3{fill:#632D6D;}
	.st4{fill:#993092;}
	.st5{fill:#993192;}
	.st6{fill:#632D6E;}
	.st7{fill:#9A3192;}
	.st8{fill:#9A3193;}
	.st9{fill:#632E6E;}
	.st10{fill:#9A3293;}
	.st11{fill:#642E6E;}
	.st12{fill:#642F6E;}
	.st13{fill:#9A3393;}
	.st14{fill:#932990;}
	.st15{fill:#9A3493;}
	.st16{fill:#65306F;}
	.st17{fill:#64306F;}
	.st18{fill:#642F6F;}
	.st19{fill:#942A90;}
	.st20{fill:#673471;}
	.st21{fill:#942B90;}
	.st22{fill:#9B3895;}
	.st23{fill:#9A3494;}
	.st24{fill:#9B3594;}
	.st25{fill:#9B3694;}
	.st26{fill:#653170;}
	.st27{fill:#9C3995;}
	.st28{fill:#983092;}
	.st29{fill:#4C2754;}
	.st30{fill:#663370;}
	.st31{fill:#683571;}
	.st32{fill:#9A3794;}
	.st33{fill:#983995;}
	.st34{fill:#963393;}
	.st35{fill:#663270;}
	.st36{fill:#9C3B96;}
	.st37{fill:#9A3795;}
	.st38{fill:#953092;}
	.st39{fill:#4E2956;}
	.st40{fill:#6B3B74;}
	.st41{fill:#973794;}
	.st42{fill:#A63934;}
	.st43{fill:#53305A;}
	.st44{fill:#9C4297;}
	.st45{fill:#9A3D96;}
	.st46{fill:#993694;}
	.st47{fill:#9B4198;}
	.st48{fill:#9C3D97;}
	.st49{fill:#9D3D97;}
	.st50{fill:#A1489B;}
	.st51{fill:#683672;}
	.st52{fill:#693873;}
	.st53{fill:#993393;}
	.st54{fill:#943F8E;}
	.st55{fill:#73477C;}
	.st56{fill:#4D2956;}
	.st57{fill:#A14A9C;}
	.st58{fill:#6C3D75;}
	.st59{fill:#6C3C75;}
	.st60{fill:#6E3F77;}
	.st61{fill:#6D3E76;}
	.st62{fill:#56345D;}
	.st63{fill:#693773;}
	.st64{fill:#A3509F;}
	.st65{fill:#6A3973;}
	.st66{fill:#9E4299;}
	.st67{fill:#A353A0;}
	.st68{fill:#8B8A8A;}
	.st69{fill:#824380;}
	.st70{fill:#692468;}
	.st71{fill:#772163;}
	.st72{fill:#853A84;}
	.st73{fill:#81246D;}
	.st74{fill:#8C368A;}
	.st75{fill:#9C268F;}
	.st76{fill:#8A3384;}
	.st77{fill:#902787;}
	.st78{fill:#962A90;}
	.st79{fill:#792266;}
	.st80{fill:#853C85;}
	.st81{fill:#94288E;}
	.st82{fill:#8A3484;}
	.st83{fill:#9E2B91;}
	.st84{fill:#74215F;}
	.st85{fill:#81246F;}
	.st86{fill:#9C2A90;}
	.st87{fill:#823973;}
	.st88{fill:#863385;}
	.st89{fill:#9F2B91;}
	.st90{fill:#8B2577;}
	.st91{fill:#722469;}
	.st92{fill:#8A2677;}
	.st93{fill:#962587;}
	.st94{fill:#892575;}
	.st95{fill:#9E2990;}
	.st96{fill:#892576;}
	.st97{fill:#952688;}
	.st98{fill:#A02B90;}
	.st99{fill:#72246A;}
	.st100{fill:#A02C91;}
	.st101{fill:#8C2578;}
	.st102{fill:#9F559A;}
	.st103{fill:#53183F;}
	.st104{fill:#9C258F;}
	.st105{fill:#9F2A90;}
	.st106{fill:#671E5B;}
	.st107{fill:#832571;}
	.st108{fill:#8A3587;}
	.st109{fill:#7A2266;}
	.st110{fill:#91257D;}
	.st111{fill:#9E278F;}
	.st112{fill:#6C266B;}
	.st113{fill:#882573;}
	.st114{fill:#934086;}
	.st115{fill:#6E1E59;}
	.st116{fill:#7F246F;}
	.st117{fill:#7D2571;}
	.st118{fill:#8D3881;}
	.st119{fill:#96268C;}
	.st120{fill:#892574;}
	.st121{fill:#9D248F;}
	.st122{fill:#642972;}
	.st123{fill:#A23393;}
	.st124{fill:#90267C;}
	.st125{fill:#76266F;}
	.st126{fill:#8A2576;}
	.st127{fill:#A42F92;}
	.st128{fill:#752162;}
	.st129{fill:#6E276B;}
	.st130{fill:#63276B;}
	.st131{fill:#742263;}
	.st132{fill:#8B2578;}
	.st133{fill:#65266C;}
	.st134{fill:#8D2578;}
	.st135{fill:#632466;}
	.st136{fill:#752060;}
	.st137{fill:#642465;}
	.st138{fill:#77417C;}
	.st139{fill:#782266;}
	.st140{fill:#6B266C;}
	.st141{fill:#882576;}
	.st142{fill:#934189;}
	.st143{fill:#7D2878;}
	.st144{fill:#8A2679;}
	.st145{fill:#712263;}
	.st146{fill:#6C266C;}
	.st147{fill:#812677;}
	.st148{fill:#6A266A;}
	.st149{fill:#822677;}
	.st150{fill:#6E2870;}
	.st151{fill:#742162;}
	.st152{fill:#5A1F44;}
	.st153{fill:#9D539B;}
	.st154{fill:#712469;}
	.st155{fill:#852470;}
	.st156{fill:#8E368E;}
	.st157{fill:#81246C;}
	.st158{fill:#802B6C;}
	.st159{fill:#862A70;}
	.st160{fill:#8B387F;}
	.st161{fill:#992B90;}
	.st162{fill:#67446F;}
	.st163{fill:#632F6A;}
	.st164{fill:#966F9A;}
	.st165{fill:#80236A;}
	.st166{fill:#932688;}
	.st167{fill:#6D256C;}
	.st168{fill:#69276D;}
	.st169{fill:#762162;}
	.st170{fill:#8B3189;}
	.st171{fill:#952689;}
	.st172{fill:#8E2579;}
	.st173{fill:#8C267F;}
	.st174{fill:#782162;}
	.st175{fill:#78256E;}
	.st176{fill:#752161;}
	.st177{fill:#65276B;}
	.st178{fill:#5D2463;}
	.st179{fill:#A6499B;}
	.st180{fill:#722162;}
	.st181{fill:#613D67;}
	.st182{fill:#56215B;}
	.st183{fill:#5E2464;}
	.st184{fill:#7F2E7D;}
	.st185{fill:#5D2363;}
	.st186{fill:#79256F;}
	.st187{fill:#682569;}
	.st188{fill:#69256B;}
	.st189{fill:#A33092;}
	.st190{fill:#A53794;}
	.st191{fill:#733276;}
	.st192{fill:#642467;}
	.st193{fill:#9C2E91;}
	.st194{fill:#A12F92;}
	.st195{fill:#71256B;}
	.st196{fill:#6F246A;}
	.st197{fill:#612B67;}
	.st198{fill:#D76257;}
	.st199{fill:#D4564A;}
	.st200{fill:#DE7F76;}
	.st201{fill:#C15B5D;}
	.st202{fill:#CF554D;}
	.st203{fill:#DC5847;}
	.st204{fill:#722365;}
	.st205{fill:#772367;}
	.st206{fill:#A22D91;}
	.st207{fill:#A32F92;}
	.st208{fill:#712368;}
	.st209{fill:#61266A;}
	.st210{fill:#663074;}
	.st211{fill:#782061;}
	.st212{fill:#782264;}
	.st213{fill:#74205F;}
	.st214{fill:#7A2164;}
	.st215{fill:#74205E;}
	.st216{fill:#9F248F;}
	.st217{fill:#73246A;}
	.st218{fill:#73256B;}
	.st219{fill:#A32D91;}
	.st220{fill:#8B2782;}
	.st221{fill:#A43092;}
	.st222{fill:#8E2578;}
	.st223{fill:#76205F;}
	.st224{fill:#762060;}
	.st225{fill:#8A2577;}
	.st226{fill:#8D2579;}
	.st227{fill:#882575;}
	.st228{fill:#6E246A;}
	.st229{fill:#5E266C;}
	.st230{fill:#7E2776;}
	.st231{fill:#5B266B;}
	.st232{fill:#832676;}
	.st233{fill:#58276D;}
	.st234{fill:#792775;}
	.st235{fill:#572870;}
	.st236{fill:#722875;}
	.st237{fill:#572971;}
	.st238{fill:#75205F;}
	.st239{fill:#7C2E63;}
	.st240{fill:#9B258D;}
	.st241{fill:#431B37;}
	.st242{fill:#422034;}
	.st243{fill:#8E3895;}
	.st244{fill:#622D6C;}
	.st245{fill:#75246B;}
	.st246{display:inline;}</style>
  <g transform="translate(-83.87,-110.15)">
    <g>
      <polygon class="st69" points="449.49 170.4 451.15 138.49 454.98 181.13"/>
      <polygon class="st70" points="440.43 132.36 438.13 160.45 447.28 169.89"/>
      <polygon class="st71" points="436.72 159.81 428.43 125.6 438.77 131.85"/>
      <polygon class="st72" points="426.51 125.47 426.64 152.53 434.81 158.79"/>
      <polygon class="st73" points="440.17 123.55 449.36 135.94 427.4 123.43"/>
      <polygon class="st74" points="437.87 121.25 425.49 115 425.74 121.77"/>
      <polygon class="st75" points="423.57 120.23 416.04 111.81 423.45 113.34"/>
      <polygon class="st73" points="401.87 119.21 421.53 120.62 413.11 111.55"/>
      <polygon class="st75" points="391.28 110.15 409.02 110.79 397.66 119.47"/>
      <polygon class="st76" points="388.08 121.64 389.11 110.28 394.47 119.98"/>
      <polygon class="st75" points="375.06 110.4 386.17 110.28 385.66 121.64"/>
      <polygon class="st77" points="416.81 123.81 425.23 124.7 424.34 148.19"/>
      <polyline class="st78" points="415.02 124.32 423.19 150.11 414 147.04 415.02 124.32"/>
      <polygon class="st79" points="401.11 122.53 412.85 123.17 410.94 144.49"/>
      <polygon class="st78" points="406.77 144.36 397.23 121.64 389.83 123.51"/>
      <polygon class="st80" points="394.6 145.55 388.47 124.96 405.15 145.04"/>
      <polygon class="st81" points="374.85 128.87 385.83 124.53 391.87 144.45"/>
      <polygon class="st82" points="372.3 125.89 372.38 111.08 384.3 122.83"/>
      <polygon class="st73" points="354.85 115.08 370.08 111.25 369.57 126.49"/>
      <polygon class="st83" points="338 123.34 352.64 116.36 367.62 127.6"/>
      <polygon class="st84" points="377.15 146.06 372.98 129.98 389.23 145.47"/>
      <polygon class="st78" points="367.96 147.85 370 130.23 374.51 147.17"/>
      <polygon class="st80" points="357.83 138.83 367.7 131.85 365.66 148.19"/>
      <polygon class="st78" points="350.77 154.23 356.38 140.02 363.45 149.04"/>
      <polygon class="st74" points="354.94 136.36 336.3 124.45 366.43 129.81"/>
      <polygon class="st85" points="331.7 132.96 331.96 125.55 352.64 137.89"/>
      <polygon class="st86" points="343.53 146.15 332.38 135.34 352.04 139.94"/>
      <polygon class="st74" points="324.89 155.17 330.94 137.64 342.08 147.43"/>
      <polygon class="st74" points="335.96 158.57 353.15 141.89 346.77 157.89"/>
      <polygon class="st86" points="323.11 167.94 342.17 149.3 324.55 157.3"/>
      <polygon class="st87" points="330.51 169.89 335.19 159.85 345.91 159.17"/>
      <polygon class="st88" points="329.06 169.55 332.64 161.47 323.7 169.81"/>
      <polygon class="st89" points="342.68 192.62 344.04 162.66 330.94 171.51"/>
      <polygon class="st90" points="362.08 153.3 347.11 160.11 346.25 167.43"/>
      <polygon class="st89" points="387.96 148.02 357.66 159.94 367.7 150.23"/>
      <polygon class="st91" points="448.72 200.96 450.38 175.77 453.83 184.45"/>
      <polygon class="st92" points="412.81 195.51 435.79 162.66 421.66 211.34"/>
      <polygon class="st93" points="415.36 160.11 434.25 160.79 411.62 192.11"/>
      <polygon class="st94" points="396.47 157.21 431.87 158.23 412.98 149.38"/>
      <polygon class="st95" points="382.68 160.28 407.02 148.53 393.91 148.7"/>
      <polygon class="st96" points="374.85 163.6 390.43 148.7 355.45 163.08"/>
      <polygon class="st97" points="356.17 174.36 344.87 177.94 344.74 170.6"/>
      <polygon class="st97" points="369.25 177.87 358.98 174.43 362.81 170.34"/>
      <polygon class="st98" points="358.21 192.91 368.04 185 368.25 192.49"/>
      <polygon class="st99" points="361.23 201.72 353.91 194.06 371.02 194.49"/>
      <polygon class="st100" points="373.74 217.38 345.49 188.87 346.6 199.68"/>
      <polygon class="st101" points="374.77 214.74 362.68 202.83 371.19 196.87"/>
      <polygon class="st102" points="376.38 169.89 351.19 167.43 373.74 164.79"/>
      <polygon class="st103" points="361.56 179.85 353.44 176.24 358.05 175.32"/>
      <polygon class="st104" points="394.98 172.77 395.94 159.62 412.53 159.36"/>
      <polygon class="st95" points="380.21 182.4 366.51 170.49 376.04 171.43"/>
      <polygon class="st101" points="371.7 191.51 370.34 177.3 378.77 184.7"/>
      <polygon class="st99" points="386.08 193.81 373.57 192.96 380.38 186.57"/>
      <polygon class="st105" points="383.87 182.32 386.17 161.3 392.81 158.91"/>
      <polygon class="st99" points="384.04 162.4 382.17 179.77 376.98 167.08"/>
      <polygon class="st106" points="393.57 163.51 384.47 185.64 390.6 194.32"/>
      <polygon class="st107" points="409.23 190.57 396.72 173.21 412.64 162.06"/>
      <polygon class="st91" points="396.55 176.96 419.62 212.11 413.06 223.25"/>
      <polygon class="st92" points="444.89 204.79 448.21 175.51 430.68 203.25"/>
      <polygon class="st91" points="444.21 207.85 429.49 205.98 425.06 212.11"/>
      <polygon class="st108" points="422.51 214.74 444.3 210.66 432.04 220.62"/>
      <polygon class="st109" points="414.34 225.98 421.49 216.28 429.23 221.89"/>
      <polygon class="st107" points="409.32 224.02 394.77 177.04 393.23 197.55"/>
      <polygon class="st105" points="408.47 226.32 374.77 196.45 389.23 196.87"/>
      <polygon class="st91" points="380.3 223.17 374.17 199.6 406.25 227.68"/>
      <polygon class="st110" points="348.04 203.34 377.06 222.32 365.83 220.19"/>
      <polygon class="st111" points="356.04 219.68 349.32 206.83 363.87 222.06"/>
      <polygon class="st99" points="367.28 231.94 357.49 221.81 365.23 224.62"/>
      <polygon class="st96" points="395.45 273.55 368.3 233.55 393.23 248.79"/>
      <polygon class="st98" points="373.83 260.45 357.83 224.11 394.25 275.25"/>
      <polygon class="st98" points="399.96 278.15 396.81 251.94 407.11 261.47"/>
      <polygon class="st112" points="401.4 281.04 409.57 264.79 408.47 290.66"/>
      <polygon class="st98" points="418 282.49 412.13 268.53 410.25 293.21"/>
      <polygon class="st113" points="420.89 301.3 419.11 285.98 411.7 298.15"/>
      <polygon class="st112" points="421.91 317.21 413.74 302.06 439.62 310.23"/>
      <polygon class="st98" points="464.3 313.64 444.81 311.51 427.7 318.74"/>
      <polygon class="st114" points="469.15 316.45 429.83 320.96 443.36 324.79"/>
      <polygon class="st112" points="493.15 324.53 477.66 317.13 456.13 324.62"/>
      <polyline class="st115" points="478.25 327.77 495.96 328.02 499.53 336.87 478.25 327.77"/>
      <polygon class="st95" points="510.38 352.96 497.74 328.06 504.38 330.11"/>
      <polygon class="st116" points="502.72 357.68 490.21 335.6 501.57 342.36"/>
      <polygon class="st117" points="504.19 380.4 505.15 347.21 511.4 360.11"/>
      <polygon class="st112" points="502.91 377.91 498.32 353.15 502.72 360.11"/>
      <polygon class="st118" points="497.4 390.91 499.4 368.02 502.66 381.74"/>
      <polygon class="st118" points="486.13 400.32 496.53 385.38 495.38 393.62"/>
      <polygon class="st112" points="470.94 400.64 487.47 395.72 482.81 401.34"/>
      <polygon class="st118" points="456.13 403.32 478.72 402.43 460.4 400.51"/>
      <polygon class="st112" points="447.51 394.83 458.36 400.38 455.04 402.36"/>
      <polygon class="st118" points="446.81 385 447.64 393.49 452.94 396.43"/>
      <polygon class="st119" points="380.98 282.4 393.49 278.83 373.32 264.19"/>
      <polygon class="st112" points="385.32 292.7 394.43 281.04 382.43 284.7"/>
      <polygon class="st120" points="386 295.25 394.85 284.19 393.83 322.49"/>
      <polygon class="st121" points="388.47 358.32 387.62 311.43 394.43 331.6"/>
      <polygon class="st122" points="382.51 385.38 394.08 348.11 390.51 377.89"/>
      <polygon class="st123" points="381.23 390.06 389.32 381.89 380.81 407.85"/>
      <polygon class="st124" points="374.6 410.49 379.87 393.68 376.81 421.64"/>
      <polygon class="st125" points="370.34 434.4 374.43 417.55 377.23 447.17"/>
      <polygon class="st126" points="376.66 457.32 372.64 442.7 382 457.72"/>
      <polygon class="st127" points="389.68 470.02 377.81 459.3 382.7 459.98"/>
      <path class="st99" d="m349.23 209.72s21.96 49.74 21.96 50.51-16.04-21.15-16.04-21.15z"/>
      <polygon class="st110" points="356.17 248.02 355.15 242.15 369.45 260.02"/>
      <polygon class="st99" points="367.15 268.19 357.19 251.72 369.19 264.11"/>
      <polygon class="st115" points="366.38 270.23 357.32 255.81 350.3 289.51"/>
      <polygon class="st115" points="371.23 311.85 371.62 267.17 381.45 292.06"/>
      <path class="st128" d="m369.19 267.94-11.19 32.21s11.06-19.06 10.94-17.53.25-14.68.25-14.68z"/>
      <polygon class="st110" points="368.68 315.55 369.23 284.06 359.49 301.38"/>
      <polygon class="st112" points="370.77 348.19 380.72 299.43 370.85 320.19"/>
      <polygon class="st120" points="385.57 324.87 382.94 299.08 371.45 351"/>
      <polygon class="st129" points="368.04 374.91 384.98 331.77 371.28 353.89"/>
      <polygon class="st120" points="385.83 362.32 385.83 336.36 369.66 377.13"/>
      <polygon class="st130" points="360.89 406.23 383.19 367.68 367.96 382.91"/>
      <polygon class="st131" points="372.47 409.38 382.25 373.47 358 416.36"/>
      <polygon class="st132" points="359.17 418.32 371.81 412.25 366.96 429.68"/>
      <polygon class="st133" points="356.04 435.11 358.15 419.85 366.25 432.55"/>
      <polygon class="st131" points="366.38 434.91 356.49 437.47 360.7 448.83"/>
      <polygon class="st134" points="368.21 465.47 368.04 438.06 362.43 454.23"/>
      <polygon class="st99" points="373.98 455.21 369.74 439.77 369.7 467.4"/>
      <polygon class="st135" points="376.04 475.17 374.85 458.15 372.51 470.21"/>
      <polygon class="st136" points="385.06 481.47 377.68 464.02 377.87 477.3"/>
      <polygon class="st137" points="386.94 480.28 378 461.47 388.3 471.94"/>
      <polygon class="st90" points="388.02 480.62 390.85 473.3 399.36 474.83"/>
      <polygon class="st128" points="394.43 484.53 387.96 482.34 399.36 476.53"/>
      <polygon class="st138" points="397.74 484.62 403.28 474.83 410.25 470.91"/>
      <polygon class="st126" points="408.64 483.6 409.91 473.47 399.62 485.13"/>
      <polygon class="st139" points="423.28 473.64 413.49 469.47 410.43 482.49"/>
      <polygon class="st140" points="424.98 471.34 415.36 467.43 421.23 460.11"/>
      <polygon class="st141" points="426.51 469.13 422.25 458.15 424.3 445.81"/>
      <polygon class="st135" points="431.02 456.28 426.08 446.74 427.7 467.51"/>
      <polygon class="st142" points="432.38 455.6 423.45 429.13 424.64 441.55"/>
      <polygon class="st135" points="431.87 434.74 423.87 426.06 432.81 451.08"/>
      <polygon class="st143" points="433.91 433.3 423.36 423.34 422.43 416.45"/>
      <polygon class="st135" points="432.21 421.72 423.28 415.17 432.81 428.11"/>
      <polygon class="st134" points="427.11 410.15 423.36 413.21 432.04 419.34"/>
      <polygon class="st128" points="418.43 404.79 421.23 412.19 426.17 409.04"/>
      <polygon class="st144" points="413.66 412.45 416.81 405.13 419.96 412.45"/>
      <polygon class="st140" points="405.83 415 415.11 404.87 411.96 412.79"/>
      <polygon class="st101" points="403.96 423.43 405.83 416.28 412.04 414.23"/>
      <polygon class="st145" points="405.83 434.83 404.04 425.47 411.11 417.55"/>
      <path class="st134" d="m406.94 436.19c0-.26 3.66-12.51 3.66-12.51l.26 9.96z"/>
      <polygon class="st140" points="416.72 443.51 407.53 438.32 411.19 435.68"/>
      <polygon class="st134" points="410.77 446.06 407.62 440.45 416.98 444.96"/>
      <polygon class="st146" points="417.4 454.66 411.96 448.02 417.57 446.83"/>
      <polygon class="st147" points="411.7 461.04 412.3 450.66 416.04 456.45"/>
      <polygon class="st148" points="406.77 461.47 410.77 454.83 410.6 461.3"/>
      <polygon class="st149" points="399.02 456.45 407.79 456.79 404.55 460.96"/>
      <polygon class="st150" points="397.74 452.19 404.04 455.17 398.25 454.91"/>
      <polygon class="st151" points="401.91 452.45 398.08 449.98 398.77 444.96"/>
      <polygon class="st134" points="401.4 447.08 398.85 442.06 400.38 435.08"/>
      <polygon class="st150" points="404.13 439.51 401.66 435.25 402.25 444.79"/>
      <polygon class="st103" points="347.64 183.11 355.02 177.94 352.4 176.69"/>
      <polygon class="st103" points="353.8 192.27 345.32 186.46 347.93 185.12"/>
      <polygon class="st152" points="354.35 191.96 352.05 189.36 360.98 187.34"/>
      <polygon class="st152" points="361.08 185.85 361.4 181.13 355.6 187.19"/>
      <polygon class="st68" points="353.77 186.08 351.89 181.95 357.51 182.17"/>
      <polygon class="st153" points="319.02 139.89 329.62 127.38 328.6 134.91"/>
      <polygon class="st103" points="345.38 185.72 350.65 177.49 345.19 180.2"/>
      <polygon class="st152" points="355.62 178.57 352.64 180.4 361.02 180.57"/>
      <polygon class="st102" points="357.83 174.17 347.49 170.08 362.23 169.89"/>
      <polygon class="st97" points="368.81 183.81 360.51 176.28 368.94 179.4"/>
      <polygon class="st108" points="428.3 201.98 437.83 163.34 447.02 172.19"/>
      <polygon class="st99" points="450.13 139.25 441.7 133.38 448.72 168.49"/>
      <polygon class="st134" points="343.02 198.06 330.6 174.23 329.06 186.15"/>
      <polygon class="st100" points="323.62 171.85 328.89 171.85 327.19 181.89"/>
      <polygon class="st154" points="326.34 183.6 322.08 173.72 321.91 179.51"/>
      <polygon class="st155" points="315.28 171.68 321.06 172.02 319.53 177.47"/>
      <polygon class="st156" points="314.77 170.15 322.08 159.94 321.06 169.98"/>
      <polygon class="st157" points="326.34 143.94 328.38 136.79 319.19 141.21"/>
      <polygon class="st86" points="317.66 152.79 318.51 142.91 325.32 145.98"/>
      <polygon class="st158" points="310.34 155 316.81 142.74 315.79 154.15"/>
      <polygon class="st74" points="313.4 163.85 310 156.87 315.45 156.02"/>
      <polygon class="st159" points="320.89 158.91 316.98 157.55 323.45 150.23"/>
      <polygon class="st160" points="319.7 160.45 315.96 159.25 314.77 166.91"/>
      <polygon class="st161" points="308.13 165.81 305.4 160.96 308.81 156.87"/>
      <polygon class="st162" points="309.57 166.66 309.66 159.08 312.47 164.79"/>
      <polygon class="st163" points="306.43 176.36 313.06 165.72 312.21 170.4"/>
      <polygon class="st162" points="304.85 170.02 311.19 166.83 305.81 174.55"/>
      <polygon class="st164" points="304.89 168.87 304.55 162.83 307.96 167"/>
      <polygon class="st86" points="302.3 171.3 302.94 163.89 298.98 163.64"/>
      <polygon class="st165" points="303.25 182.6 303.57 170.72 305.62 179.28"/>
      <polygon class="st166" points="293.43 188.98 302.11 173.4 301.98 180.04"/>
      <polygon class="st167" points="302.11 181.83 293.94 189.87 296.68 192.74"/>
      <polygon class="st168" points="311.11 178.77 297.32 193.51 306 180.36"/>
      <polygon class="st169" points="309.77 183.17 298.08 194.53 299.81 198.49"/>
      <polygon class="st170" points="311.17 177.81 307.53 177.74 312.32 172.77"/>
      <polygon class="st133" points="313.15 178.38 313.85 172.83 318.77 178.32"/>
      <polygon class="st169" points="313.98 188.28 313.21 180.43 319.72 179.91"/>
      <polygon class="st171" points="300.38 200.6 311.87 182.72 311.62 191.98"/>
      <polygon class="st172" points="320.64 198.74 314.94 191.25 320.89 181.3"/>
      <polygon class="st100" points="351.19 231.34 328.21 187.34 345.15 203.08"/>
      <polygon class="st99" points="324.21 204.62 324.04 183.77 349.57 234.15"/>
      <polygon class="st99" points="315.7 214.23 315.19 194.57 321.57 205.38"/>
      <polygon class="st173" points="297.06 215.08 312.72 194.83 311.7 214.15"/>
      <polygon class="st174" points="297.57 204.53 310.43 194.57 296.64 213.98"/>
      <polygon class="st171" points="294.25 202.66 295.02 194.15 298.43 199.43"/>
      <polygon class="st175" points="277.83 200.53 293.74 193.64 291.36 202.4"/>
      <polygon class="st165" points="275.02 199.17 292.21 192.11 286.17 191.08"/>
      <polygon class="st130" points="268.64 199.77 280.55 192.11 253.66 197.81"/>
      <polygon class="st136" points="242.43 213.21 269.74 202.23 288.13 204.36"/>
      <polygon class="st166" points="243.28 215.6 293.66 205.81 276.98 216.7"/>
      <polygon class="st166" points="224.3 207.17 260.72 202.32 232.3 212.87"/>
      <polygon class="st176" points="223.87 204.19 256.13 200.19 237.74 196.7"/>
      <polygon class="st130" points="207.62 199.08 234.6 195.6 220.04 203"/>
      <polygon class="st166" points="194.25 194.4 231.19 193.3 203.7 196.53"/>
      <polygon class="st130" points="216.81 186.91 227.96 191 192.04 192.45"/>
      <polygon class="st176" points="159.53 186.91 211.11 185.72 170.85 193.38"/>
      <polygon class="st166" points="160.98 185.38 209.83 183.08 194.43 176.19"/>
      <polygon class="st177" points="160.04 183.85 186.6 175.68 171.62 176.7"/>
      <polygon class="st178" points="157.23 203.77 159.28 188.87 169.23 194.66"/>
      <polygon class="st176" points="151.36 195.85 157.66 188.45 152.55 215.85"/>
      <polygon class="st178" points="145.06 215.25 150.08 199.77 150.85 229.55"/>
      <polygon class="st179" points="139.62 212.7 146.85 201.64 139.45 225.21"/>
      <polygon class="st180" points="150.43 245.89 146 221.89 151.53 237.04"/>
      <polygon class="st181" points="139.02 233.55 143.79 220.28 142.34 247.25"/>
      <polygon class="st166" points="152.38 260.11 144.55 226.83 144.3 250.49"/>
      <polygon class="st182" points="154.34 258.57 152.72 241.3 151.28 251.25"/>
      <polygon class="st183" points="147.45 277.47 144.55 255.34 153.74 263.17"/>
      <polygon class="st121" points="148.81 277.64 154.85 265.72 160.04 277.89"/>
      <polygon class="st184" points="139.36 303.94 148.3 279.51 160.3 279"/>
      <polygon class="st166" points="137.36 291.55 145.32 281.21 137.32 302.83"/>
      <path class="st185" d="m145.74 299.85c-.26.26-7.74 8.94-7.74 8.94l.51 7.83z"/>
      <path class="st186" d="m146.94 301.89c-.26.34-7.06 16-7.06 16l7.74 7.4z"/>
      <polygon class="st187" points="138.94 339.51 139.53 319.17 146.77 328.11"/>
      <path class="st166" d="m137.66 329.81-1.36 12.77s-11.83 5.7-11.74 5.36 13.1-18.13 13.1-18.13z"/>
      <polygon class="st188" points="124.81 349.47 135.28 346.32 124.38 362.15"/>
      <polygon class="st166" points="130.85 373.38 131.11 356.87 124.98 366.15"/>
      <polygon class="st189" points="132 316.13 135.36 296.28 137.49 324.81"/>
      <polygon class="st190" points="130.79 335.21 131.45 318.06 136.98 326.66"/>
      <polygon class="st191" points="124.31 346.06 129.32 330.23 129.51 337.19"/>
      <polygon class="st192" points="121.66 303.77 132.55 303.43 131.62 311.17"/>
      <polygon class="st193" points="113.06 305.3 117.66 302.23 127.02 309.64"/>
      <polygon class="st186" points="108.3 297.81 115.62 301.13 109.74 304.11"/>
      <polygon class="st194" points="98 294.83 105.23 295.77 107.62 302.4"/>
      <polygon class="st195" points="89.15 300.62 95.02 294.74 103.79 301.89"/>
      <polygon class="st194" points="84.55 314.57 88.3 302.4 94.77 302.66"/>
      <polygon class="st196" points="92.21 328.36 87.7 313.04 83.87 318.06"/>
      <polygon class="st197" points="95.02 334.83 84.64 321.3 84.72 327.85"/>
      <polygon class="st196" points="91.02 344.53 90.51 332.7 96.13 336.62"/>
      <polygon class="st196" points="84.55 339.6 89.23 338.4 89.15 345.47"/>
      <polygon class="st198" points="104.87 294.55 96.57 293.53 109.02 293.02"/>
      <polygon class="st199" points="114.85 298.57 106.77 295 110.43 293.98"/>
      <polygon class="st200" points="131.43 301.77 115.91 298.83 120.13 301.51"/>
      <polygon class="st178" points="183.62 197.98 176.3 195.68 184.04 194.06"/>
      <polygon class="st201" points="188.98 195.08 185.74 193.98 185.23 197.81"/>
      <polygon class="st178" points="195.36 201.13 186.68 198.15 191.28 196.79"/>
      <polygon class="st201" points="196.55 200.87 193.66 196.53 202.43 199.6"/>
      <polygon class="st176" points="204.81 205.72 197.57 202.49 203.79 201.55"/>
      <polygon class="st202" points="216.64 206.49 206 201.13 207.45 206.32"/>
      <polygon class="st130" points="216.04 213.04 208.21 208.45 215.7 208.62"/>
      <polygon class="st203" points="230.51 216.45 217.66 207.6 219.19 215.25"/>
      <polygon class="st178" points="237.91 225.72 230.85 218.23 232.89 226.91"/>
      <polygon class="st204" points="222.6 219.43 229.4 218.91 230.51 226.74"/>
      <polygon class="st205" points="215.11 232.36 221.4 220.19 228.89 228.02"/>
      <polygon class="st130" points="204.04 225.89 218.34 220.28 212.38 233.13"/>
      <polygon class="st206" points="201.49 239.34 201.66 227.34 209.91 234.83"/>
      <polygon class="st205" points="190.51 249.98 199.62 228.96 199.19 241.21"/>
      <polygon class="st121" points="189.91 235.94 196.64 230.23 190.02 245.72"/>
      <polygon class="st176" points="269.06 219.17 235.96 218.66 240.38 225.21"/>
      <polygon class="st207" points="240.13 235.85 268.04 221.21 241.32 227.68"/>
      <path class="st171" d="m268.3 223.34c-.26.09-26.81 13.96-26.81 13.96l-9.28 13.02z"/>
      <path class="st71" d="m239.7 227.94c-.09.26-2.04 8-2.04 8l-22.13 4.17z"/>
      <polygon class="st71" points="206.6 250.23 234.43 238.4 212.64 242.74"/>
      <polygon class="st171" points="223.62 256.19 236.89 239.85 223.87 245.64"/>
      <polygon class="st208" points="207.36 267.08 221.83 247.08 220.89 257.64"/>
      <polygon class="st171" points="206.43 265.3 219.53 246.91 206.68 253.21"/>
      <polygon class="st130" points="189.57 285.38 204.89 257.47 204.21 268.53"/>
      <path class="st71" d="m204.21 255.08c0 .26-16.51 28.09-16.51 28.09l3.57-19.15z"/>
      <polygon class="st166" points="191.19 261.89 208.13 245.21 202 254.15"/>
      <polygon class="st209" points="188.3 263.34 200.38 250.74 180.98 266.15"/>
      <polygon class="st166" points="169.74 286.23 187.7 265.81 180.13 268.96"/>
      <polygon class="st130" points="183.11 289.81 188.21 267.94 180.98 277.3"/>
      <polyline class="st130" points="181.74 294.49 182.34 298.23 179.28 307.6 180.3 285.38 181.74 294.49"/>
      <polygon class="st166" points="171.11 290.15 178.6 279.17 177.06 305.72"/>
      <polygon class="st130" points="177.83 326.06 172.98 300.62 178.85 313.98"/>
      <polygon class="st166" points="176.04 327.43 169.83 297.72 168.38 314.91"/>
      <polygon class="st71" points="166.08 309.47 168.81 291.34 163.11 303.08"/>
      <polygon class="st71" points="163.02 336.7 165.74 314.4 162.34 307.68"/>
      <polygon class="st71" points="169.4 339.17 168.55 319.08 177.91 335.17"/>
      <polygon class="st166" points="164.89 339.85 166.77 323.34 167.62 354.06"/>
      <polygon class="st130" points="184.89 355.94 169.83 341.47 178.85 337.13"/>
      <polygon class="st166" points="185.32 368.19 170.85 345.13 185.23 358.57"/>
      <polygon class="st71" points="169.49 359.25 170.25 347.25 175.7 359.43"/>
      <polygon class="st166" points="174.43 374.06 170.43 361.72 176.47 361.89"/>
      <polygon class="st130" points="180.21 385.72 178.34 360.45 184.64 371.34"/>
      <polygon class="st166" points="170.51 393.98 177.15 372.53 178 386.66"/>
      <polygon class="st71" points="167.28 386.06 173.15 377.64 167.79 393.81"/>
      <polygon class="st130" points="166.43 410.4 177.4 390.74 167.45 398.91"/>
      <polygon class="st190" points="156.98 419 165.4 401.47 163.87 413.38"/>
      <polygon class="st190" points="158.08 403.85 165.74 391.25 165.83 397.47"/>
      <polygon class="st130" points="151.96 424.79 162 403.85 155.36 409.98"/>
      <polygon class="st130" points="158.17 429.3 161.83 417.13 156.81 422.15"/>
      <polygon class="st190" points="157.06 436.11 154.43 423.68 152.3 429.72"/>
      <polygon class="st71" points="162.77 436.36 161.57 424.53 158.77 432.19"/>
      <polygon class="st190" points="173.32 434.49 163.87 430.74 164.81 437.72"/>
      <polygon class="st130" points="180.47 432.62 168.21 437.64 175.62 438.15"/>
      <polygon class="st71" points="194.68 426.57 180.72 434.83 186.6 427.94"/>
      <polygon class="st190" points="208.98 426.83 193.15 429.13 197.66 426.23"/>
      <polygon class="st71" points="217.32 438.49 203.7 429.3 210.94 429.04"/>
      <polygon class="st130" points="163.53 441.89 157.91 434.74 158.85 439"/>
      <polygon class="st71" points="178 441.98 163.19 439 166.08 442.57"/>
      <polygon class="st190" points="190.51 432.79 176.21 440.19 179.96 440.96"/>
      <polygon class="st130" points="202.34 429.55 187.6 436.96 195.57 429.91"/>
      <polygon class="st190" points="208.02 438.43 197.3 435.79 202.83 434.94"/>
      <polygon class="st210" points="211.47 444.81 204.55 438.3 208.55 439.49"/>
      <polygon class="st190" points="217.32 451.08 212.47 437.81 218 441.04"/>
      <polygon class="st210" points="210.51 458.06 214.08 447.25 216.21 453.04"/>
      <polygon class="st190" points="200.98 456.28 210.43 453.55 207.96 458.57"/>
      <polygon class="st71" points="195.96 447.43 205.91 453.13 198.68 453.81"/>
      <polygon class="st130" points="195.79 436.96 200.72 448.28 195.36 443.51"/>
      <polygon class="st71" points="199.62 437.72 197.23 437.13 199.4 442.83"/>
      <polygon class="st71" points="208.28 449.02 207.77 443.15 211.21 446.02"/>
      <polygon class="st175" points="294 215.94 294.85 206.91 263.19 237.38"/>
      <polygon class="st136" points="239.36 255.94 231.53 255.6 274.25 221.89"/>
      <polygon class="st171" points="258.43 255.77 245.83 255.94 288.72 222.74"/>
      <polygon class="st211" points="264.21 254.74 295.87 218.49 311.02 216.28"/>
      <polygon class="st119" points="300.81 226.49 263.87 257.47 270.17 260.02"/>
      <polygon class="st212" points="276.81 257.3 312.21 217.64 310.68 227"/>
      <polygon class="st119" points="303.19 236.7 275.11 261.89 275.45 267.68"/>
      <polygon class="st213" points="302 241.3 276.81 270.57 277.66 281.13"/>
      <polygon class="st119" points="301.66 263.77 279.36 281.47 310 232.28"/>
      <polygon class="st214" points="317.15 251.85 315.11 219.68 322.08 209.81"/>
      <polygon class="st110" points="313.26 233.47 314.6 265.98 306.94 262.06 313.23 232.79"/>
      <polygon class="st99" points="298.77 300.53 306.25 263.94 314.6 268.19"/>
      <polygon class="st215" points="278.34 287.25 300.13 269.89 290.6 286.91"/>
      <polygon class="st110" points="295.7 299.17 294.85 287.43 302.34 273.3"/>
      <polygon class="st215" points="312.72 294.57 297.91 308.87 314.6 273.13"/>
      <polygon class="st99" points="287.19 319.6 293.66 298.15 292.64 312.79"/>
      <polygon class="st215" points="287.02 296.11 292.64 288.96 287.7 308.87"/>
      <polygon class="st216" points="261.15 309.38 287.7 290.49 280.89 299.68"/>
      <polygon class="st217" points="276.64 290.32 285.66 289.13 267.45 300.53"/>
      <polygon class="st96" points="259.62 332.7 284.98 301.55 283.79 319.77"/>
      <polygon class="st218" points="256.38 312.79 279.02 304.11 269.49 312.79"/>
      <polygon class="st219" points="253.83 315.68 266.08 314.66 247.53 325.21"/>
      <polygon class="st218" points="230.34 330.83 248.21 319.08 241.06 330.15"/>
      <polygon class="st215" points="267.28 317.21 254.34 325.21 254.68 336.28"/>
      <polygon class="st110" points="242.6 346.66 251.28 329.3 250.25 338.83"/>
      <polygon class="st215" points="237.66 335.94 249.06 327.6 238.17 349.38"/>
      <polygon class="st220" points="225.23 333.89 237.15 332.36 229.32 338.15"/>
      <polygon class="st221" points="224.38 336.62 228.47 340.87 223.36 355.34"/>
      <polygon class="st222" points="233.74 351.94 230.34 345.81 234.94 338.49"/>
      <polygon class="st215" points="223.53 363.68 228.47 348.7 231.87 355"/>
      <polygon class="st99" points="218.43 347.68 222.34 340.79 221.66 361.89"/>
      <polygon class="st99" points="215.53 383.77 214.68 366.57 218.94 373.64"/>
      <polygon class="st99" points="231.7 377.13 223.19 367.43 233.74 359.6"/>
      <polygon class="st223" points="230.85 380.36 221.66 369.98 222.68 377.64"/>
      <polygon class="st91" points="230.17 382.91 223.02 381.21 229.15 393.3"/>
      <polygon class="st224" points="216.21 389.21 219.96 380.19 224.89 395"/>
      <polygon class="st134" points="230.85 394.15 232.21 386.15 238.51 394.66"/>
      <polygon class="st225" points="228.13 405.72 220.3 395.34 229.15 397.72"/>
      <polygon class="st91" points="240.38 407.6 230.68 400.11 230.68 407.43"/>
      <polygon class="st224" points="241.06 406.23 232.55 396.19 241.06 396.19"/>
      <polygon class="st226" points="252.3 401.13 243.11 398.23 243.79 406.74"/>
      <polygon class="st101" points="247.19 414.4 236.47 410.15 246 410.15"/>
      <polygon class="st91" points="274.77 413.04 248.04 410.83 249.57 413.72"/>
      <polygon class="st99" points="272.72 401.47 248.89 405.38 255.53 401.47"/>
      <polygon class="st101" points="271.87 404.36 250.43 407.08 259.79 409.13"/>
      <polygon class="st99" points="287.02 408.62 263.87 409.81 278 404.19"/>
      <polygon class="st96" points="292.98 420.53 277.32 411.68 288.72 411.17"/>
      <path class="st99" d="m289.91 421.21 6.81 4.43s1.53 6.47 1.53 6.98-8.34-11.41-8.34-11.41z"/>
      <polygon class="st227" points="296.21 450.32 293.83 429.72 297.91 434.83"/>
      <polygon class="st228" points="289.57 465.13 293.83 443.34 294.85 453.21"/>
      <polygon class="st96" points="278 469.89 288.21 461.21 285.66 468.87"/>
      <polygon class="st229" points="268.13 473.47 283.28 470.4 274.08 477.21"/>
      <polygon class="st230" points="257.06 478.4 265.91 474.83 271.19 478.06"/>
      <polygon class="st231" points="247.36 472.45 262.68 474.49 253.49 477.04"/>
      <polygon class="st232" points="242.43 465.3 251.96 471.43 244.13 469.38"/>
      <polygon class="st233" points="243.62 452.53 247.53 466.15 243.19 463.6"/>
      <polygon class="st234" points="251.28 447.43 247.19 457.81 246.34 450.83"/>
      <polygon class="st235" points="263.7 450.83 251.62 451.85 254.34 446.91"/>
      <polygon class="st236" points="271.36 461.21 257.06 453.04 265.06 452.87"/>
      <polygon class="st237" points="265.06 463.43 264.21 459.34 269.66 462.23"/>
      <polygon class="st110" points="317.23 290.66 323.11 221.72 325.66 281.47"/>
      <polygon class="st99" points="345.32 288.11 325.15 212.79 325.91 231.68"/>
      <polygon class="st211" points="342.51 286.06 326.17 241.38 329.49 281.47"/>
      <polygon class="st110" points="350.94 272.28 328.72 216.62 348.89 287.85"/>
      <polygon class="st99" points="342.77 230.15 332.04 218.4 351.7 269.21"/>
      <polygon class="st238" points="353.11 262.57 346.72 235 353.62 241.64"/>
      <polygon class="st239" points="292.21 170.79 300.77 170.91 296.94 164.53"/>
      <polygon class="st240" points="287.11 172.86 293.62 166.45 288.1 174.58"/>
      <polygon class="st165" points="287.36 183.07 286.72 174.65 293.68 182.66"/>
      <polygon class="st168" points="291.36 188.06 287.53 184.36 294.81 183.85"/>
      <polygon class="st241" points="294.73 182.75 292.02 179.18 296.78 179.53"/>
      <polygon class="st241" points="297.62 175.3 294.94 178.47 297.32 178.7"/>
      <polygon class="st242" points="297.24 173.87 295.23 172.06 289.96 173.64"/>
      <polygon class="st68" points="292.86 177.7 290.5 175.05 295.89 175.05"/>
      <polygon class="st166" points="135.02 413.47 129.57 409.38 134.25 409.04"/>
      <polygon class="st188" points="126.08 413.55 127.28 408.7 132.64 414.06"/>
      <polygon class="st166" points="119.28 406.83 125.06 406.23 124.55 412.45"/>
      <polygon class="st188" points="119.45 399.34 123.96 404.79 119.11 404.7"/>
      <polygon class="st166" points="114.6 397.21 118 400.79 117.91 394.74"/>
      <polygon class="st166" points="111.11 391.17 113.74 395.43 116.81 393.38"/>
      <polygon class="st188" points="104.55 394.83 109.06 391.43 111.96 395.6"/>
      <polygon class="st166" points="106.68 403.51 103.28 396.79 108.04 397.04"/>
      <polygon class="st205" points="161.32 275.85 155.96 265.38 167.87 251.6"/>
      <polygon class="st130" points="177.23 261.72 188.13 237.72 187.79 251.85"/>
      <polygon class="st121" points="177.4 244.53 185.4 238.91 175.36 262.57"/>
      <polygon class="st121" points="163.45 274.15 169.4 250.83 175.87 245.38"/>
      <polygon class="st205" points="173.66 263.43 167.11 269.91 175.53 249.98"/>
      <polyline class="st188" points="132.98 357.72 132.81 381.04 137.06 369.64 132.98 357.85"/>
      <polygon class="st166" points="135.57 395.79 134.17 383.08 137.62 370.83"/>
      <polygon class="st188" points="135.89 405.43 138.83 376.19 142.66 391.77"/>
      <polygon class="st188" points="136.08 407.85 135.96 413.08 141.57 405.43"/>
      <polygon class="st166" points="141 403.83 136.34 406.38 142.21 395.15"/>
      <polygon class="st243" points="394.98 353.15 394.02 363.23 399.28 372.53"/>
      <polygon class="st211" points="408.45 383.21 402.43 365.13 402.17 375.51"/>
      <polygon class="st110" points="400.81 374.32 396.64 355.17 401.57 363.77"/>
      <polygon class="st110" points="421.15 384.87 405.06 369.89 410.04 384.9"/>
      <polygon class="st211" points="426.51 385.47 412.04 386.15 420.64 391.94"/>
      <polygon class="st243" points="426.98 384.66 422.04 384.68 429.4 371.94"/>
      <polygon class="st110" points="433.79 376.57 430.34 372.57 428.08 383.77"/>
      <polygon class="st211" points="422.04 392.23 434.17 377.77 434.08 386.23"/>
      <polygon class="st243" points="411.79 374.74 418.51 380.7 409.23 367.43"/>
      <polygon class="st211" points="405.77 354.11 409.4 372.28 405.19 364.64"/>
      <polygon class="st243" points="404.68 341.6 404.17 361.83 401.15 348.87"/>
      <polygon class="st110" points="404.21 338.4 400.89 346.32 401.4 331.25"/>
      <polygon class="st211" points="406.51 325.3 402.34 330.06 405.53 335.43"/>
      <polygon class="st243" points="412.89 326.32 407.96 325.13 408.21 333.98"/>
      <polygon class="st110" points="409.45 334.96 413.23 328.02 412.55 345"/>
      <polygon class="st243" points="416.38 334.06 414.25 330.49 413.96 346.57"/>
      <polygon class="st211" points="417.91 367.85 411.54 345.04 411.7 363.6"/>
      <polygon class="st110" points="417.66 362.15 416.33 343.67 414.29 349.57"/>
      <polygon class="st243" points="424.38 365.89 418.17 363.21 420.51 369.55"/>
      <polygon class="st211" points="426.68 369.43 422.34 370.28 429.57 362.06"/>
      <polygon class="st243" points="436.38 359.77 429.36 366.11 433.32 356.87"/>
      <polygon class="st211" points="437.66 349.81 433.91 355.43 437.06 358.15"/>
      <polygon class="st110" points="445.57 340.74 438.85 347 438.55 353.51"/>
      <polygon class="st244" points="452.81 343.51 443.79 345.77 446.98 340.23"/>
      <polygon class="st243" points="453.66 338.83 448.77 339.55 456.47 344.79"/>
      <polygon class="st211" points="453.66 344.36 455.62 345.55 454.6 350.83"/>
      <polygon class="st240" points="301.32 172.23 296.25 172.02 298.89 175.64"/>
      <polygon class="st152" points="366.45 184.06 362.68 180.28 362.43 187.13"/>
      <polygon class="st110" points="421.57 383.25 419.19 379.43 424.47 377.98"/>
      <polygon class="st99" points="219.53 370.15 217.4 353.72 215.19 362.91"/>
      <polygon class="st245" points="327.11 309.55 323.43 307.05 330.9 289.45"/>
      <polygon class="st245" points="328.93 317.85 324.6 310.42 327.13 312.36"/>
      <polygon class="st128" points="367.87 338.87 363.24 330.24 366.16 324.97"/>
      <polygon class="st211" points="330.2 304.24 333.26 285.46 337.6 286.99"/>
      <polygon class="st110" points="330.36 309.04 337.48 292.26 338.59 303.81"/>
      <polygon class="st110" points="328.73 321.22 323.78 317.36 323.27 311.86"/>
      <polygon class="st245" points="340.4 301.21 339.38 287.5 346.79 290.31"/>
      <polygon class="st245" points="331.63 320.6 329.41 312.33 337.42 307.2"/>
      <polygon class="st110" points="332.63 323.19 336.5 315.19 347.47 321.2"/>
      <polygon class="st110" points="361.44 328.69 354.23 323.05 364.63 323.31"/>
      <polygon class="st211" points="357.16 328.15 336.94 324.51 350.55 322.79"/>
      <polygon class="st128" points="360.88 320.75 351.03 320.61 341.23 315.02"/>
      <polygon class="st110" points="341.43 312.78 338.1 311.47 344.84 298.08"/>
      <polygon class="st245" points="356.55 296.7 351.53 290.91 363.53 276.28"/>
    </g>
  </g>
  <g id="a" class="st0" transform="translate(-83.935 -110.02)">
    <g class="st246">
      <polygon points="455.04 180.65 449.55 169.93 451.21 138.01"/>
      <polygon points="447.34 169.42 440.49 131.88 438.19 159.97"/>
      <polygon points="438.83 131.37 436.79 159.33 428.49 125.12"/>
      <polygon points="434.87 158.31 426.57 124.99 426.7 152.05"/>
      <polygon points="427.47 122.95 440.23 123.08 449.43 135.46"/>
      <polygon points="425.81 121.29 437.94 120.78 425.55 114.52"/>
      <polygon points="423.51 112.86 423.64 119.76 416.11 111.33"/>
      <polygon points="413.17 111.08 401.94 118.74 421.6 120.14"/>
      <polygon points="397.72 118.99 391.34 109.67 409.09 110.31"/>
      <polygon points="394.53 119.5 388.15 121.16 389.17 109.8"/>
      <polygon points="385.72 121.16 375.13 109.93 386.23 109.8"/>
      <polygon points="424.4 147.71 416.87 123.33 425.3 124.22"/>
      <polyline points="415.09 123.84 423.26 149.63 414.06 146.57 415.09 123.84"/>
      <polygon points="411 144.01 401.17 122.05 412.91 122.69"/>
      <polygon points="389.89 123.03 406.83 143.88 397.3 121.16"/>
      <polygon points="405.21 144.57 394.66 145.08 388.53 124.48"/>
      <polygon points="391.94 143.97 374.91 128.4 385.89 124.05"/>
      <polygon points="384.36 122.35 372.36 125.42 372.45 110.61"/>
      <polygon points="369.64 126.01 354.91 114.61 370.15 110.78"/>
      <polygon points="367.68 127.12 338.06 122.86 352.7 115.88"/>
      <polygon points="389.3 144.99 377.21 145.59 373.04 129.5"/>
      <polygon points="374.57 146.69 368.02 147.37 370.06 129.76"/>
      <polygon points="365.72 147.71 357.89 138.35 367.77 131.37"/>
      <polygon points="363.51 148.57 350.83 153.76 356.45 139.54"/>
      <polygon points="366.49 129.33 355 135.88 336.36 123.97"/>
      <polygon points="352.7 137.42 331.77 132.48 332.02 125.08"/>
      <polygon points="352.11 139.46 343.6 145.67 332.45 134.86"/>
      <polygon points="342.15 146.95 324.96 154.69 331 137.16"/>
      <polygon points="346.83 157.42 336.02 158.1 353.21 141.42"/>
      <polygon points="324.62 156.82 323.17 167.46 342.23 148.82"/>
      <polygon points="345.98 158.69 330.57 169.42 335.26 159.37"/>
      <polygon points="323.77 169.33 329.13 169.08 332.7 160.99"/>
      <polygon points="331 171.03 342.74 192.14 344.11 162.18"/>
      <polygon points="346.32 166.95 362.15 152.82 347.17 159.63"/>
      <polygon points="367.77 149.76 388.02 147.54 357.72 159.46"/>
      <polygon points="453.89 183.97 448.79 200.48 448.87 173.16"/>
      <polygon points="421.72 210.86 412.87 195.03 435.85 162.18"/>
      <polygon points="411.68 191.63 415.43 159.63 434.32 160.31"/>
      <polygon points="413.04 148.91 396.53 156.74 431.94 157.76"/>
      <polygon points="393.98 148.22 382.74 159.8 407.09 148.05"/>
      <polygon points="355.51 162.61 374.91 163.12 390.49 148.22"/>
      <polygon points="344.81 170.12 356.23 173.88 344.94 177.46"/>
      <polygon points="362.87 169.86 369.32 177.4 359.04 173.95"/>
      <polygon points="368.32 192.01 358.28 192.44 368.11 184.52"/>
      <polygon points="371.09 194.01 361.3 201.25 353.98 193.59"/>
      <polygon points="346.66 199.2 373.81 216.91 345.55 188.4"/>
      <polygon points="371.26 196.4 374.83 214.27 362.74 202.35"/>
      <polygon points="373.81 164.31 376.45 169.42 351.26 166.95"/>
      <polygon points="358.12 174.84 361.63 179.37 353.5 175.77"/>
      <polygon points="412.6 158.88 395.04 172.29 396 159.14"/>
      <polygon points="376.11 170.95 380.28 181.93 366.57 170.01"/>
      <polygon points="378.83 184.22 371.77 191.03 370.4 176.82"/>
      <polygon points="380.45 186.1 386.15 193.33 373.64 192.48"/>
      <polygon points="392.87 158.44 383.94 181.84 386.23 160.82"/>
      <polygon points="377.04 166.61 384.11 161.93 382.23 179.29"/>
      <polygon points="390.66 193.84 393.64 163.03 384.53 185.16"/>
      <polygon points="412.7 161.59 409.3 190.1 396.79 172.74"/>
      <polygon points="413.13 222.78 396.62 176.48 419.68 211.63"/>
      <polygon points="430.74 202.78 444.96 204.31 448.36 172.82"/>
      <polygon points="425.13 211.63 444.28 207.37 429.55 205.5"/>
      <polygon points="432.11 220.14 422.57 214.27 444.36 210.18"/>
      <polygon points="429.3 221.42 414.4 225.5 421.55 215.8"/>
      <polygon points="393.3 197.08 409.38 223.54 394.83 176.57"/>
      <polygon points="389.3 196.4 408.53 225.84 374.83 195.97"/>
      <polygon points="406.32 227.2 380.36 222.69 374.23 199.12"/>
      <polygon points="365.89 219.71 348.11 202.86 377.13 221.84"/>
      <polygon points="363.94 221.59 356.11 219.2 349.38 206.35"/>
      <polygon points="365.3 224.14 367.34 231.46 357.55 221.33"/>
      <polygon points="393.3 248.31 395.51 273.08 368.36 233.08"/>
      <polygon points="394.32 274.78 373.89 259.97 357.89 223.63"/>
      <polygon points="407.17 260.99 400.02 277.67 396.87 251.46"/>
      <polygon points="408.53 290.18 401.47 280.57 409.64 264.31"/>
      <polygon points="410.32 292.74 418.06 282.01 412.19 268.05"/>
      <polygon points="411.77 297.67 420.96 300.82 419.17 285.5"/>
      <polygon points="439.68 309.76 421.98 316.74 413.81 301.59"/>
      <polygon points="427.77 318.27 464.36 313.16 444.87 311.03"/>
      <polygon points="443.43 324.31 469.21 315.97 429.89 320.48"/>
      <polygon points="456.19 324.14 493.21 324.05 477.72 316.65"/>
      <polyline points="478.32 327.29 496.02 327.54 499.6 336.4 478.32 327.29"/>
      <polygon points="504.45 329.63 510.45 352.48 497.81 327.59"/>
      <polygon points="501.64 341.88 502.79 357.2 490.28 335.12"/>
      <polygon points="511.47 359.63 504.26 379.93 505.21 346.74"/>
      <polygon points="502.79 359.63 502.98 377.44 498.38 352.67"/>
      <polygon points="502.72 381.27 497.17 390.4 499.47 367.54"/>
      <polygon points="495.45 393.14 486.19 399.84 496.6 384.91"/>
      <polygon points="482.87 400.86 471 400.16 487.53 395.25"/>
      <polygon points="460.47 400.03 456.19 402.84 478.79 401.95"/>
      <polygon points="455.11 401.88 447.57 394.35 458.43 399.91"/>
      <polygon points="453 395.95 446.87 384.52 447.7 393.01"/>
      <polygon points="373.38 263.71 381.04 281.93 393.55 278.35"/>
      <polygon points="382.49 284.22 385.38 292.22 394.49 280.57"/>
      <polygon points="393.89 322.01 386.06 294.78 394.91 283.71"/>
      <polygon points="394.49 331.12 388.53 357.84 387.68 310.95"/>
      <polygon points="390.57 377.42 382.57 384.91 395.09 340.14"/>
      <polygon points="380.87 407.37 381.3 389.59 389.38 381.42"/>
      <polygon points="376.87 421.16 374.66 410.01 379.94 393.2"/>
      <polygon points="377.3 446.69 369.45 432.2 374.11 413.95"/>
      <polygon points="382.06 457.25 376.72 456.84 372.7 442.22"/>
      <polygon points="382.77 459.5 389.74 469.54 377.87 458.82"/>
      <path d="m349.3 209.25s21.96 49.74 21.96 50.51-16.04-21.15-16.04-21.15z"/>
      <polygon points="369.51 259.54 356.23 247.54 355.21 241.67"/>
      <polygon points="369.26 263.63 367.21 267.71 357.26 251.25"/>
      <polygon points="350.36 289.03 366.45 269.76 357.38 255.33"/>
      <polygon points="381.51 291.59 371.3 311.37 371.68 266.69"/>
      <path d="m369.26 267.46-11.19 32.21s11.06-19.06 10.94-17.53c-.14 1.53.25-14.68.25-14.68z"/>
      <polygon points="359.55 300.91 368.74 315.08 369.3 283.59"/>
      <polygon points="370.91 319.71 370.83 347.71 380.79 298.95"/>
      <polygon points="371.51 350.52 385.64 324.4 383 298.61"/>
      <polygon points="371.34 353.42 368.11 374.44 385.04 331.29"/>
      <polygon points="369.72 376.65 385.89 361.84 385.89 335.88"/>
      <polygon points="368.02 382.44 360.96 405.76 383.26 367.2"/>
      <polygon points="358.06 415.88 372.53 408.91 382.32 372.99"/>
      <polygon points="367.02 429.2 359.23 417.84 371.87 411.78"/>
      <polygon points="366.32 432.08 356.11 434.63 358.21 419.37"/>
      <polygon points="360.77 448.35 366.45 434.44 356.55 436.99"/>
      <polygon points="362.49 453.76 368.28 464.99 368.11 437.59"/>
      <polygon points="369.77 466.93 374.04 454.74 369.81 439.29"/>
      <polygon points="372.57 469.74 376.11 474.69 374.91 457.67"/>
      <polygon points="377.94 476.82 385.13 480.99 377.74 463.54"/>
      <polygon points="388.36 471.46 387 479.8 378.06 460.99"/>
      <polygon points="399.43 474.35 388.09 480.14 390.91 472.82"/>
      <polygon points="399.43 476.05 394.49 484.05 388.02 481.86"/>
      <polygon points="410.32 470.44 397.81 484.14 403.34 474.35"/>
      <polygon points="399.68 484.65 408.7 483.12 409.98 472.99"/>
      <polygon points="410.49 482.01 423.34 473.16 413.55 468.99"/>
      <polygon points="421.3 459.63 425.04 470.86 415.43 466.95"/>
      <polygon points="424.36 445.33 426.57 468.65 422.32 457.67"/>
      <polygon points="427.77 467.03 431.09 455.8 426.15 446.27"/>
      <polygon points="424.7 441.08 432.45 455.12 423.51 428.65"/>
      <polygon points="432.87 450.61 431.94 434.27 423.94 425.59"/>
      <polygon points="422.49 415.97 433.98 432.82 423.43 422.86"/>
      <polygon points="432.87 427.63 432.28 421.25 423.34 414.69"/>
      <polygon points="432.11 418.86 427.17 409.67 423.43 412.74"/>
      <polygon points="426.23 408.57 418.49 404.31 421.3 411.71"/>
      <polygon points="420.02 411.97 413.72 411.97 416.87 404.65"/>
      <polygon points="412.02 412.31 405.89 414.52 415.17 404.4"/>
      <polygon points="412.11 413.76 404.02 422.95 405.89 415.8"/>
      <polygon points="411.17 417.08 405.89 434.35 404.11 424.99"/>
      <path d="m407 435.71c0-.26 3.66-12.51 3.66-12.51l.26 9.96z"/>
      <polygon points="411.26 435.2 416.79 443.03 407.6 437.84"/>
      <polygon points="417.04 444.48 410.83 445.59 407.68 439.97"/>
      <polygon points="417.64 446.35 417.47 454.18 412.02 447.54"/>
      <polygon points="416.11 455.97 411.77 460.57 412.36 450.18"/>
      <polygon points="410.66 460.82 406.83 460.99 410.83 454.35"/>
      <polygon points="404.62 460.48 399.09 455.97 407.85 456.31"/>
      <polygon points="398.32 454.44 397.81 451.71 404.11 454.69"/>
      <polygon points="398.83 444.48 401.98 451.97 398.15 449.5"/>
      <polygon points="400.45 434.61 401.47 446.61 398.91 441.59"/>
      <polygon points="402.32 444.31 404.19 439.03 401.72 434.78"/>
      <polygon points="352.47 176.21 347.7 182.63 355.09 177.46"/>
      <polygon points="347.99 184.64 353.86 191.79 345.38 185.98"/>
      <polygon points="361.04 186.86 354.41 191.48 352.12 188.88"/>
      <polygon points="355.66 186.71 361.15 185.37 361.47 180.65"/>
      <polygon points="357.57 181.7 353.84 185.6 351.95 181.48"/>
      <polygon points="328.66 134.44 319.09 139.42 329.68 126.91"/>
      <polygon points="345.26 179.72 345.45 185.25 350.71 177.01"/>
      <polygon points="361.09 180.1 355.68 178.1 352.7 179.93"/>
      <polygon points="362.3 169.42 357.89 173.69 347.55 169.61"/>
      <polygon points="369 178.93 368.87 183.33 360.57 175.8"/>
      <polygon points="447.09 171.71 428.36 201.5 437.89 162.86"/>
      <polygon points="448.79 168.01 450.19 138.78 441.77 132.91"/>
      <polygon points="329.13 185.67 343.09 197.59 330.66 173.76"/>
      <polygon points="327.26 181.42 323.68 171.37 328.96 171.37"/>
      <polygon points="321.98 179.03 326.4 183.12 322.15 173.25"/>
      <polygon points="319.6 176.99 315.34 171.2 321.13 171.54"/>
      <polygon points="321.13 169.5 314.83 169.67 322.15 159.46"/>
      <polygon points="319.26 140.74 326.4 143.46 328.45 136.31"/>
      <polygon points="325.38 145.5 317.72 152.31 318.57 142.44"/>
      <polygon points="315.85 153.67 310.4 154.52 316.87 142.27"/>
      <polygon points="315.51 155.54 313.47 163.37 310.06 156.4"/>
      <polygon points="323.51 149.76 320.96 158.44 317.04 157.08"/>
      <polygon points="314.83 166.44 319.77 159.97 316.02 158.78"/>
      <polygon points="308.87 156.4 308.19 165.33 305.47 160.48"/>
      <polygon points="312.53 164.31 309.64 166.18 309.72 158.61"/>
      <polygon points="312.28 169.93 306.49 175.88 313.13 165.25"/>
      <polygon points="305.87 174.08 304.91 169.54 311.26 166.35"/>
      <polygon points="308.02 166.52 304.96 168.4 304.62 162.35"/>
      <polygon points="299.04 163.16 302.36 170.82 303 163.42"/>
      <polygon points="305.68 178.8 303.32 182.12 303.64 170.25"/>
      <polygon points="302.04 179.57 293.49 188.5 302.17 172.93"/>
      <polygon points="296.74 192.27 302.17 181.35 294 189.4"/>
      <polygon points="306.06 179.88 311.17 178.29 297.38 193.03"/>
      <polygon points="299.87 198.01 309.83 182.69 298.15 194.05"/>
      <polygon points="312.38 172.29 311.23 177.33 307.6 177.27"/>
      <polygon points="318.83 177.84 313.21 177.91 313.91 172.35"/>
      <polygon points="319.79 179.44 314.04 187.8 313.28 179.95"/>
      <polygon points="311.68 191.5 300.45 200.12 311.94 182.25"/>
      <polygon points="320.96 180.82 320.7 198.27 315 190.78"/>
      <polygon points="345.21 202.61 351.26 230.86 328.28 186.86"/>
      <polygon points="349.64 233.67 324.28 204.14 324.11 183.29"/>
      <polygon points="321.64 204.91 315.77 213.76 315.26 194.1"/>
      <polygon points="311.77 213.67 297.13 214.61 312.79 194.35"/>
      <polygon points="296.7 213.5 297.64 204.05 310.49 194.1"/>
      <polygon points="298.49 198.95 294.32 202.18 295.09 193.67"/>
      <polygon points="291.43 201.93 277.89 200.05 293.81 193.16"/>
      <polygon points="286.23 190.61 275.09 198.69 292.28 191.63"/>
      <polygon points="253.72 197.33 268.7 199.29 280.62 191.63"/>
      <polygon points="288.19 203.88 242.49 212.74 269.81 201.76"/>
      <polygon points="277.04 216.22 243.34 215.12 293.72 205.33"/>
      <polygon points="232.36 212.4 224.36 206.69 260.79 201.84"/>
      <polygon points="237.81 196.22 223.94 203.71 256.19 199.71"/>
      <polygon points="220.11 202.52 207.68 198.61 234.66 195.12"/>
      <polygon points="203.77 196.05 194.32 193.93 231.26 192.82"/>
      <polygon points="192.11 191.97 216.87 186.44 228.02 190.52"/>
      <polygon points="170.91 192.91 159.6 186.44 211.17 185.25"/>
      <polygon points="194.49 175.71 161.04 184.91 209.89 182.61"/>
      <polygon points="171.68 176.22 160.11 183.37 186.66 175.2"/>
      <polygon points="169.3 194.18 157.3 203.29 159.34 188.4"/>
      <polygon points="152.62 215.37 151.43 195.37 157.72 187.97"/>
      <polygon points="150.49 230.86 145.13 214.78 150.15 199.29"/>
      <polygon points="139.51 224.74 139.68 212.22 146.91 201.16"/>
      <polygon points="151.6 236.57 150.83 246.86 146.06 221.42"/>
      <polygon points="142.4 246.78 139.09 233.08 143.85 219.8"/>
      <polygon points="144.36 250.01 152.45 259.63 144.62 226.35"/>
      <polygon points="151.34 250.78 154.4 258.1 152.79 240.82"/>
      <polygon points="153.81 262.69 147.51 276.99 144.62 254.86"/>
      <polygon points="160.11 277.42 148.87 277.16 154.91 265.25"/>
      <polygon points="160.36 278.52 139.43 303.46 148.36 279.03"/>
      <polygon points="137.38 302.35 136.19 291.29 145.38 280.74"/>
      <path d="m145.81 299.37c-.26.26-7.74 8.94-7.74 8.94l.51 7.83z"/>
      <path d="m147 301.42c-.26.34-7.06 16-7.06 16l7.74 7.4z"/>
      <polygon points="146.83 327.63 139 339.03 139.6 318.69"/>
      <path d="m137.72 329.33-1.36 12.77s-11.83 5.7-11.74 5.36 13.1-18.13 13.1-18.13z"/>
      <polygon points="124.45 361.67 124.87 348.99 135.34 345.84"/>
      <polygon points="125.04 365.67 130.91 372.91 131.17 356.4"/>
      <polygon points="136.02 319.97 132.45 314.52 134.23 302.69"/>
      <polygon points="135.6 323.71 130.15 332.74 131.51 317.59"/>
      <polygon points="128.79 335.71 122.66 343.54 129.38 329.76"/>
      <polygon points="131.68 310.69 121.72 303.29 132.62 302.95"/>
      <polygon points="127.09 309.16 113.13 304.82 117.72 301.76"/>
      <polygon points="109.81 303.63 108.36 297.33 115.68 300.65"/>
      <polygon points="107.68 301.93 98.06 294.35 105.3 295.29"/>
      <polygon points="103.85 301.42 89.21 300.14 95.09 294.27"/>
      <polygon points="94.83 302.18 84.62 314.1 88.36 301.93"/>
      <polygon points="83.94 317.59 92.28 327.88 87.77 312.57"/>
      <polygon points="84.79 327.37 95.09 334.35 84.7 320.82"/>
      <polygon points="96.19 336.14 91.09 344.05 90.57 332.22"/>
      <polygon points="89.21 344.99 84.62 339.12 89.3 337.93"/>
      <polygon points="109.09 292.54 104.94 294.08 96.64 293.05"/>
      <polygon points="110.49 293.5 114.91 298.1 106.83 294.52"/>
      <polygon points="120.19 301.03 131.49 301.29 115.98 298.35"/>
      <polygon points="184.11 193.59 183.68 197.5 176.36 195.2"/>
      <polygon points="185.3 197.33 189.04 194.61 185.81 193.5"/>
      <polygon points="191.34 196.31 195.43 200.65 186.74 197.67"/>
      <polygon points="202.49 199.12 196.62 200.4 193.72 196.05"/>
      <polygon points="203.85 201.08 204.87 205.25 197.64 202.01"/>
      <polygon points="207.51 205.84 216.7 206.01 206.06 200.65"/>
      <polygon points="215.77 208.14 216.11 212.57 208.28 207.97"/>
      <polygon points="219.26 214.78 230.57 215.97 217.72 207.12"/>
      <polygon points="232.96 226.44 237.98 225.25 230.91 217.76"/>
      <polygon points="230.57 226.27 222.66 218.95 229.47 218.44"/>
      <polygon points="228.96 227.54 215.17 231.88 221.47 219.71"/>
      <polygon points="212.45 232.65 204.11 225.42 218.4 219.8"/>
      <polygon points="209.98 234.35 201.55 238.86 201.72 226.86"/>
      <polygon points="199.26 240.74 190.57 249.5 199.68 228.48"/>
      <polygon points="189.04 246.35 189.98 235.46 196.7 229.76"/>
      <polygon points="240.45 224.74 269.13 218.69 236.02 218.18"/>
      <polygon points="241.38 227.2 240.19 235.37 268.11 220.74"/>
      <path d="m268.36 222.86c-.26.09-26.81 13.96-26.81 13.96l-9.28 13.02z"/>
      <path d="m239.77 227.46c-.09.26-2.04 8-2.04 8l-22.13 4.17z"/>
      <polygon points="212.7 242.27 206.66 249.76 234.49 237.93"/>
      <polygon points="223.94 245.16 223.68 255.71 236.96 239.37"/>
      <polygon points="220.96 257.16 207.43 266.61 221.89 246.61"/>
      <polygon points="206.74 252.74 206.49 264.82 219.6 246.44"/>
      <polygon points="204.28 268.05 189.64 284.91 204.96 256.99"/>
      <path d="m204.28 254.61c0 .26-16.51 28.09-16.51 28.09l3.57-19.15z"/>
      <polygon points="201.64 253.67 190.83 261.42 207.77 244.74"/>
      <polygon points="181.04 265.67 188.36 262.86 200.45 250.27"/>
      <polygon points="180.19 268.48 169.81 285.76 187.77 265.33"/>
      <polygon points="181.04 276.82 183.17 289.33 188.28 267.46"/>
      <polyline points="181.81 294.01 182.4 297.76 179.34 307.12 180.36 284.91 181.81 294.01"/>
      <polygon points="177.13 305.25 171.17 289.67 178.66 278.69"/>
      <polygon points="178.91 313.5 177.89 325.59 173.04 300.14"/>
      <polygon points="168.45 314.44 176.11 326.95 169.89 297.25"/>
      <polygon points="163.17 302.61 166.15 308.99 168.87 290.86"/>
      <polygon points="162.4 307.2 163.09 336.22 165.81 313.93"/>
      <polygon points="177.98 334.69 169.47 338.69 168.62 318.61"/>
      <polygon points="167.68 353.59 164.96 339.37 166.83 322.86"/>
      <polygon points="178.91 336.65 184.96 355.46 169.89 340.99"/>
      <polygon points="185.3 358.1 185.38 367.71 170.91 344.65"/>
      <polygon points="175.77 358.95 169.55 358.78 170.32 346.78"/>
      <polygon points="176.53 361.42 174.49 373.59 170.49 361.25"/>
      <polygon points="184.7 370.86 180.28 385.25 178.4 359.97"/>
      <polygon points="178.06 386.18 170.57 393.5 177.21 372.05"/>
      <polygon points="167.85 393.33 167.34 385.59 173.21 377.16"/>
      <polygon points="167.51 398.44 166.49 409.93 177.47 390.27"/>
      <polygon points="163.94 412.91 157.04 418.52 165.47 400.99"/>
      <polygon points="165.89 396.99 158.15 403.37 165.81 390.78"/>
      <polygon points="155.43 409.5 152.02 424.31 162.06 403.37"/>
      <polygon points="156.87 421.67 158.23 428.82 161.89 416.65"/>
      <polygon points="152.36 429.25 157.13 435.63 154.49 423.2"/>
      <polygon points="158.83 431.71 162.83 435.88 161.64 424.05"/>
      <polygon points="164.87 437.25 173.38 434.01 163.94 430.27"/>
      <polygon points="175.68 437.67 180.53 432.14 168.28 437.16"/>
      <polygon points="186.66 427.46 194.74 426.1 180.79 434.35"/>
      <polygon points="197.72 425.76 209.04 426.35 193.21 428.65"/>
      <polygon points="211 428.57 217.38 438.01 203.77 428.82"/>
      <polygon points="158.91 438.52 163.6 441.42 157.98 434.27"/>
      <polygon points="166.15 442.1 178.06 441.5 163.26 438.52"/>
      <polygon points="180.02 440.48 190.57 432.31 176.28 439.71"/>
      <polygon points="195.64 429.44 202.4 429.08 187.66 436.48"/>
      <polygon points="202.89 434.46 208.09 437.95 197.36 435.31"/>
      <polygon points="208.62 439.01 211.53 444.33 204.62 437.82"/>
      <polygon points="218.06 440.57 217.38 450.61 212.53 437.33"/>
      <polygon points="216.28 452.57 210.57 457.59 214.15 446.78"/>
      <polygon points="208.02 458.1 201.04 455.8 210.49 453.08"/>
      <polygon points="198.74 453.33 196.02 446.95 205.98 452.65"/>
      <polygon points="195.43 443.03 195.85 436.48 200.79 447.8"/>
      <polygon points="199.47 442.35 199.68 437.25 197.3 436.65"/>
      <polygon points="211.28 445.54 208.34 448.54 207.83 442.67"/>
      <polygon points="263.26 236.91 294.06 215.46 294.91 206.44"/>
      <polygon points="274.32 221.42 239.43 255.46 231.6 255.12"/>
      <polygon points="288.79 222.27 258.49 255.29 245.89 255.46"/>
      <polygon points="311.09 215.8 264.28 254.27 295.94 218.01"/>
      <polygon points="270.23 259.54 300.87 226.01 263.94 256.99"/>
      <polygon points="310.74 226.52 276.87 256.82 312.28 217.16"/>
      <polygon points="275.51 267.2 303.26 236.22 275.17 261.42"/>
      <polygon points="277.72 280.65 302.06 240.82 276.87 270.1"/>
      <polygon points="310.06 231.8 301.72 263.29 279.43 280.99"/>
      <polygon points="322.15 209.33 317.21 251.37 315.17 219.2"/>
      <polygon points="313.3 232.31 313.33 232.99 314.66 265.5 307 261.59"/>
      <polygon points="314.66 267.71 298.83 300.05 306.32 263.46"/>
      <polygon points="290.66 286.44 278.4 286.78 300.19 269.42"/>
      <polygon points="302.4 272.82 295.77 298.69 294.91 286.95"/>
      <polygon points="314.66 272.65 312.79 294.1 297.98 308.4"/>
      <polygon points="292.7 312.31 287.26 319.12 293.72 297.67"/>
      <polygon points="287.77 308.4 287.09 295.63 292.7 288.48"/>
      <polygon points="280.96 299.2 261.21 308.91 287.77 290.01"/>
      <polygon points="267.51 300.05 276.7 289.84 285.72 288.65"/>
      <polyline points="259.68 332.22 283.85 319.29 285.04 301.08"/>
      <polygon points="269.55 312.31 256.45 312.31 279.09 303.63"/>
      <polygon points="247.6 324.74 253.89 315.2 266.15 314.18"/>
      <polygon points="241.13 329.67 230.4 330.35 248.28 318.61"/>
      <polygon points="254.74 335.8 267.34 316.74 254.4 324.74"/>
      <polygon points="250.32 338.35 242.66 346.18 251.34 328.82"/>
      <polygon points="238.23 348.91 237.72 335.46 249.13 327.12"/>
      <polygon points="229.38 337.67 225.3 333.42 237.21 331.88"/>
      <polygon points="223.43 354.86 224.45 336.14 228.53 340.4"/>
      <polygon points="235 338.01 233.81 351.46 230.4 345.33"/>
      <polygon points="231.94 354.52 223.6 363.2 228.53 348.22"/>
      <polygon points="221.72 361.42 217.98 351.2 222.4 340.31"/>
      <polygon points="219 373.16 215.6 383.29 215.09 364.14"/>
      <polygon points="233.81 359.12 231.77 376.65 223.26 366.95"/>
      <polygon points="222.74 377.16 230.91 379.88 221.72 369.5"/>
      <polygon points="229.21 392.82 230.23 382.44 223.09 380.74"/>
      <polygon points="224.96 394.52 216.28 388.74 220.02 379.71"/>
      <polygon points="238.57 394.18 230.91 393.67 232.28 385.67"/>
      <polygon points="229.21 397.25 228.19 405.25 220.36 394.86"/>
      <polygon points="230.74 406.95 240.45 407.12 230.74 399.63"/>
      <polygon points="241.13 395.71 241.13 405.76 232.62 395.71"/>
      <polygon points="243.85 406.27 252.36 400.65 243.17 397.76"/>
      <polygon points="246.06 409.67 247.26 413.93 236.53 409.67"/>
      <polygon points="249.64 413.25 274.83 412.57 248.11 410.35"/>
      <polygon points="255.6 400.99 272.79 400.99 248.96 404.91"/>
      <polygon points="259.85 408.65 271.94 403.88 250.49 406.61"/>
      <polygon points="278.06 403.71 287.09 408.14 263.94 409.33"/>
      <polygon points="288.79 410.69 293.04 420.05 277.38 411.2"/>
      <path d="m289.98 420.74 6.81 4.43s1.53 6.47 1.53 6.98c0 .5-8.34-11.41-8.34-11.41z"/>
      <polygon points="297.98 434.35 296.28 449.84 293.89 429.25"/>
      <polygon points="294.91 452.74 289.64 464.65 293.89 442.86"/>
      <polygon points="285.72 468.4 278.06 469.42 288.28 460.74"/>
      <polygon points="274.15 476.74 268.19 472.99 283.34 469.93"/>
      <polygon points="271.26 477.59 257.13 477.93 265.98 474.35"/>
      <polygon points="253.55 476.57 247.43 471.97 262.74 474.01"/>
      <polygon points="244.19 468.91 242.49 464.82 252.02 470.95"/>
      <polygon points="242.83 459.71 243.68 452.05 247.6 465.33"/>
      <polygon points="246.4 450.35 251.34 446.95 247.26 457.33"/>
      <polygon points="254.4 446.44 263.77 450.35 251.68 451.37"/>
      <polygon points="265.13 452.4 271.43 460.74 257.13 452.57"/>
      <polygon points="269.72 461.76 265.13 462.95 264.28 458.86"/>
      <polygon points="325.72 280.99 317.3 290.18 323.17 221.25"/>
      <polygon points="325.98 231.2 345.38 287.63 325.21 212.31"/>
      <polygon points="329.55 280.99 342.57 285.59 326.23 240.91"/>
      <polygon points="348.96 287.37 351 271.8 328.79 216.14"/>
      <polygon points="351.77 268.74 342.83 229.67 332.11 217.93"/>
      <polygon points="353.68 241.16 353.17 262.1 346.79 234.52"/>
      <polygon points="297 164.05 292.28 170.31 300.83 170.44"/>
      <polygon points="288.16 174.11 287.17 172.38 293.68 165.97"/>
      <polygon points="293.74 182.18 287.43 182.6 286.79 174.17"/>
      <polygon points="294.7 182.95 291.26 187.16 287.43 183.46"/>
      <polygon points="296.84 179.05 294.8 182.28 292.09 178.7"/>
      <polygon points="297.38 178.22 301.1 172.76 295 177.99"/>
      <polygon points="290.02 173.16 297.31 173.4 295.3 171.59"/>
      <polygon points="295.96 174.58 292.93 177.22 290.56 174.58"/>
      <polygon points="134.32 408.57 135.09 412.99 129.64 408.91"/>
      <polygon points="132.7 413.59 126.15 413.08 127.34 408.22"/>
      <polygon points="124.62 411.97 119.34 406.35 125.13 405.76"/>
      <polygon points="119.17 404.22 119.51 398.86 124.02 404.31"/>
      <polygon points="117.98 394.27 114.66 396.74 118.06 400.31"/>
      <polygon points="116.87 392.91 111.17 390.69 113.81 394.95"/>
      <polygon points="112.02 395.12 104.62 394.35 109.13 390.95"/>
      <polygon points="108.11 396.57 106.74 403.03 103.34 396.31"/>
      <polygon points="167.94 251.12 161.38 275.37 156.02 264.91"/>
      <polygon points="187.85 251.37 177.3 261.25 188.19 237.25"/>
      <polygon points="175.43 262.1 177.47 244.05 185.47 238.44"/>
      <polygon points="175.94 244.91 163.51 273.67 169.47 250.35"/>
      <polygon points="175.6 249.5 173.72 262.95 167.17 269.44"/>
      <polyline points="133.04 357.25 132.87 380.57 137.13 369.16 133.04 357.37"/>
      <polygon points="137.68 370.35 135.64 395.31 134.23 382.61"/>
      <polygon points="142.72 391.29 135.96 404.95 138.89 375.71"/>
      <polygon points="141.64 404.95 136.15 407.37 136.02 412.61"/>
      <polygon points="142.28 394.67 141.06 403.35 136.4 405.91"/>
      <polygon points="399.34 372.05 395.04 352.67 394.09 362.76"/>
      <polygon points="402.23 375.03 408.51 382.74 402.49 364.65"/>
      <polygon points="401.64 363.29 400.87 373.84 396.7 354.69"/>
      <polygon points="410.11 384.43 421.21 384.4 405.13 369.42"/>
      <polygon points="420.7 391.46 426.57 384.99 412.11 385.67"/>
      <polygon points="429.47 371.46 427.04 384.18 422.11 384.2"/>
      <polygon points="428.15 383.29 433.85 376.1 430.4 372.1"/>
      <polygon points="434.15 385.76 422.11 391.76 434.23 377.29"/>
      <polygon points="409.3 366.95 411.85 374.27 418.57 380.22"/>
      <polygon points="405.26 364.16 405.83 353.63 409.47 371.8"/>
      <polygon points="401.21 348.4 404.74 341.12 404.23 361.35"/>
      <polygon points="401.47 330.78 404.28 337.93 400.96 345.84"/>
      <polygon points="405.6 334.95 406.57 324.82 402.4 329.59"/>
      <polygon points="408.28 333.5 412.96 325.84 408.02 324.65"/>
      <polygon points="412.62 344.52 409.51 334.48 413.3 327.54"/>
      <polygon points="414.02 346.1 416.45 333.59 414.32 330.01"/>
      <polygon points="411.77 363.12 417.98 367.37 411.61 344.57"/>
      <polygon points="414.35 349.1 417.72 361.67 416.39 343.19"/>
      <polygon points="420.57 369.08 424.45 365.42 418.23 362.74"/>
      <polygon points="429.64 361.59 426.74 368.95 422.4 369.8"/>
      <polygon points="433.38 356.4 436.45 359.29 429.43 365.63"/>
      <polygon points="437.13 357.67 437.72 349.33 433.98 354.95"/>
      <polygon points="438.62 353.03 445.64 340.27 438.91 346.52"/>
      <polygon points="447.04 339.76 452.87 343.03 443.85 345.29"/>
      <polygon points="456.53 344.31 453.72 338.35 448.83 339.08"/>
      <polygon points="454.66 350.35 453.72 343.88 455.68 345.08"/>
      <polygon points="298.53 173.59 300.69 171.47 296.36 171.37"/>
      <polygon points="362.49 186.65 366.51 183.59 362.74 179.8"/>
      <polygon points="424.53 377.5 421.64 382.78 419.26 378.95"/>
      <polygon points="215.26 362.44 219.6 369.67 217.47 353.25"/>
      <g>
        <polygon points="330.96 288.97 327.18 309.08 323.49 306.57"/>
        <polygon points="327.2 311.89 329 317.37 324.67 309.94"/>
        <polygon points="366.22 324.49 367.94 338.39 363.3 329.76"/>
        <polygon points="337.09 287.21 330.27 303.76 334.21 285.31"/>
        <polygon points="338.66 303.34 330.42 308.56 337.54 291.78"/>
        <polygon points="323.33 311.38 328.8 320.74 323.84 316.89"/>
      </g>
      <polygon points="346.15 291.37 340.46 300.73 339.6 288.4"/>
      <polygon points="337.49 306.72 331.69 320.12 329.47 311.85"/>
      <polygon points="347.53 320.72 332.69 322.71 336.57 314.71"/>
      <polygon points="364.7 322.83 361.5 328.21 354.3 322.58"/>
      <polygon points="350.62 322.32 357.23 327.67 337.01 324.04"/>
      <polygon points="341.29 314.54 360.94 320.28 351.09 320.13"/>
      <polygon points="344.91 297.61 341.49 312.31 338.17 310.99"/>
      <polygon points="363.6 275.8 356.62 296.22 351.6 290.44"/>
    </g>
  </g>
</svg>
