<svg version="1.1" viewBox="0 0 422.37 374.85" xmlns="http://www.w3.org/2000/svg">
  <style type="text/css">.st0{display:none;}
	.st1{display:inline;stroke:#000000;stroke-width:0.9608;stroke-miterlimit:10;}
	.st2{stroke:#000000;stroke-width:0.9608;stroke-miterlimit:10;}
	.st3{fill:#632D6D;}
	.st4{fill:#993092;}
	.st5{fill:#993192;}
	.st6{fill:#632D6E;}
	.st7{fill:#9A3192;}
	.st8{fill:#9A3193;}
	.st9{fill:#632E6E;}
	.st10{fill:#9A3293;}
	.st11{fill:#642E6E;}
	.st12{fill:#642F6E;}
	.st13{fill:#9A3393;}
	.st14{fill:#932990;}
	.st15{fill:#9A3493;}
	.st16{fill:#65306F;}
	.st17{fill:#64306F;}
	.st18{fill:#642F6F;}
	.st19{fill:#942A90;}
	.st20{fill:#673471;}
	.st21{fill:#942B90;}
	.st22{fill:#9B3895;}
	.st23{fill:#9A3494;}
	.st24{fill:#9B3594;}
	.st25{fill:#9B3694;}
	.st26{fill:#653170;}
	.st27{fill:#9C3995;}
	.st28{fill:#983092;}
	.st29{fill:#4C2754;}
	.st30{fill:#663370;}
	.st31{fill:#683571;}
	.st32{fill:#9A3794;}
	.st33{fill:#983995;}
	.st34{fill:#963393;}
	.st35{fill:#663270;}
	.st36{fill:#9C3B96;}
	.st37{fill:#9A3795;}
	.st38{fill:#953092;}
	.st39{fill:#4E2956;}
	.st40{fill:#6B3B74;}
	.st41{fill:#973794;}
	.st42{fill:#A63934;}
	.st43{fill:#53305A;}
	.st44{fill:#9C4297;}
	.st45{fill:#9A3D96;}
	.st46{fill:#993694;}
	.st47{fill:#9B4198;}
	.st48{fill:#9C3D97;}
	.st49{fill:#9D3D97;}
	.st50{fill:#A1489B;}
	.st51{fill:#683672;}
	.st52{fill:#693873;}
	.st53{fill:#993393;}
	.st54{fill:#943F8E;}
	.st55{fill:#73477C;}
	.st56{fill:#4D2956;}
	.st57{fill:#A14A9C;}
	.st58{fill:#6C3D75;}
	.st59{fill:#6C3C75;}
	.st60{fill:#6E3F77;}
	.st61{fill:#6D3E76;}
	.st62{fill:#56345D;}
	.st63{fill:#693773;}
	.st64{fill:#A3509F;}
	.st65{fill:#6A3973;}
	.st66{fill:#9E4299;}
	.st67{fill:#A353A0;}
	.st68{fill:#8B8A8A;}
	.st69{fill:#824380;}
	.st70{fill:#692468;}
	.st71{fill:#772163;}
	.st72{fill:#853A84;}
	.st73{fill:#81246D;}
	.st74{fill:#8C368A;}
	.st75{fill:#9C268F;}
	.st76{fill:#8A3384;}
	.st77{fill:#902787;}
	.st78{fill:#962A90;}
	.st79{fill:#792266;}
	.st80{fill:#853C85;}
	.st81{fill:#94288E;}
	.st82{fill:#8A3484;}
	.st83{fill:#9E2B91;}
	.st84{fill:#74215F;}
	.st85{fill:#81246F;}
	.st86{fill:#9C2A90;}
	.st87{fill:#823973;}
	.st88{fill:#863385;}
	.st89{fill:#9F2B91;}
	.st90{fill:#8B2577;}
	.st91{fill:#722469;}
	.st92{fill:#8A2677;}
	.st93{fill:#962587;}
	.st94{fill:#892575;}
	.st95{fill:#9E2990;}
	.st96{fill:#892576;}
	.st97{fill:#952688;}
	.st98{fill:#A02B90;}
	.st99{fill:#72246A;}
	.st100{fill:#A02C91;}
	.st101{fill:#8C2578;}
	.st102{fill:#9F559A;}
	.st103{fill:#53183F;}
	.st104{fill:#9C258F;}
	.st105{fill:#9F2A90;}
	.st106{fill:#671E5B;}
	.st107{fill:#832571;}
	.st108{fill:#8A3587;}
	.st109{fill:#7A2266;}
	.st110{fill:#91257D;}
	.st111{fill:#9E278F;}
	.st112{fill:#6C266B;}
	.st113{fill:#882573;}
	.st114{fill:#934086;}
	.st115{fill:#6E1E59;}
	.st116{fill:#7F246F;}
	.st117{fill:#7D2571;}
	.st118{fill:#8D3881;}
	.st119{fill:#96268C;}
	.st120{fill:#892574;}
	.st121{fill:#9D248F;}
	.st122{fill:#642972;}
	.st123{fill:#A23393;}
	.st124{fill:#90267C;}
	.st125{fill:#76266F;}
	.st126{fill:#8A2576;}
	.st127{fill:#A42F92;}
	.st128{fill:#752162;}
	.st129{fill:#6E276B;}
	.st130{fill:#63276B;}
	.st131{fill:#742263;}
	.st132{fill:#8B2578;}
	.st133{fill:#65266C;}
	.st134{fill:#8D2578;}
	.st135{fill:#632466;}
	.st136{fill:#752060;}
	.st137{fill:#642465;}
	.st138{fill:#77417C;}
	.st139{fill:#782266;}
	.st140{fill:#6B266C;}
	.st141{fill:#882576;}
	.st142{fill:#934189;}
	.st143{fill:#7D2878;}
	.st144{fill:#8A2679;}
	.st145{fill:#712263;}
	.st146{fill:#6C266C;}
	.st147{fill:#812677;}
	.st148{fill:#6A266A;}
	.st149{fill:#822677;}
	.st150{fill:#6E2870;}
	.st151{fill:#742162;}
	.st152{fill:#5A1F44;}
	.st153{fill:#9D539B;}
	.st154{fill:#712469;}
	.st155{fill:#852470;}
	.st156{fill:#8E368E;}
	.st157{fill:#81246C;}
	.st158{fill:#802B6C;}
	.st159{fill:#862A70;}
	.st160{fill:#8B387F;}
	.st161{fill:#992B90;}
	.st162{fill:#67446F;}
	.st163{fill:#632F6A;}
	.st164{fill:#966F9A;}
	.st165{fill:#80236A;}
	.st166{fill:#932688;}
	.st167{fill:#6D256C;}
	.st168{fill:#69276D;}
	.st169{fill:#762162;}
	.st170{fill:#8B3189;}
	.st171{fill:#952689;}
	.st172{fill:#8E2579;}
	.st173{fill:#8C267F;}
	.st174{fill:#782162;}
	.st175{fill:#78256E;}
	.st176{fill:#752161;}
	.st177{fill:#65276B;}
	.st178{fill:#5D2463;}
	.st179{fill:#A6499B;}
	.st180{fill:#722162;}
	.st181{fill:#613D67;}
	.st182{fill:#56215B;}
	.st183{fill:#5E2464;}
	.st184{fill:#7F2E7D;}
	.st185{fill:#5D2363;}
	.st186{fill:#79256F;}
	.st187{fill:#682569;}
	.st188{fill:#69256B;}
	.st189{fill:#A33092;}
	.st190{fill:#A53794;}
	.st191{fill:#733276;}
	.st192{fill:#642467;}
	.st193{fill:#9C2E91;}
	.st194{fill:#A12F92;}
	.st195{fill:#71256B;}
	.st196{fill:#6F246A;}
	.st197{fill:#612B67;}
	.st198{fill:#D76257;}
	.st199{fill:#D4564A;}
	.st200{fill:#DE7F76;}
	.st201{fill:#C15B5D;}
	.st202{fill:#CF554D;}
	.st203{fill:#DC5847;}
	.st204{fill:#722365;}
	.st205{fill:#772367;}
	.st206{fill:#A22D91;}
	.st207{fill:#A32F92;}
	.st208{fill:#712368;}
	.st209{fill:#61266A;}
	.st210{fill:#663074;}
	.st211{fill:#782061;}
	.st212{fill:#782264;}
	.st213{fill:#74205F;}
	.st214{fill:#7A2164;}
	.st215{fill:#74205E;}
	.st216{fill:#9F248F;}
	.st217{fill:#73246A;}
	.st218{fill:#73256B;}
	.st219{fill:#A32D91;}
	.st220{fill:#8B2782;}
	.st221{fill:#A43092;}
	.st222{fill:#8E2578;}
	.st223{fill:#76205F;}
	.st224{fill:#762060;}
	.st225{fill:#8A2577;}
	.st226{fill:#8D2579;}
	.st227{fill:#882575;}
	.st228{fill:#6E246A;}
	.st229{fill:#5E266C;}
	.st230{fill:#7E2776;}
	.st231{fill:#5B266B;}
	.st232{fill:#832676;}
	.st233{fill:#58276D;}
	.st234{fill:#792775;}
	.st235{fill:#572870;}
	.st236{fill:#722875;}
	.st237{fill:#572971;}
	.st238{fill:#75205F;}
	.st239{fill:#7C2E63;}
	.st240{fill:#9B258D;}
	.st241{fill:#431B37;}
	.st242{fill:#422034;}
	.st243{fill:#8E3895;}
	.st244{fill:#622D6C;}
	.st245{fill:#75246B;}
	.st246{display:inline;}</style>
  <g transform="translate(-86.45,-110.21)">
    <g transform="translate(0 -.36762)">
      <path class="st3" d="m295.33 211.06-10.79 36.09c-1.43 5.42-3.54 7.84-9.52 7.88l-32.97.71z"/>
      <path class="st3" d="m386.6 183.22-12.92-27.06c-.92-1.88-1.01-3.14.6-4.77l38.37-38.14z"/>
      <path class="st4" d="m444.11 205.88c-3.14-1.34-6.27-2.69-9.41-4.02l-40.73-17.25c-3.06-1.26-3.52-2.52-2.18-5.49l9.78-23.2 43.2 49.04c-.22.3-.44.61-.66.92z"/>
      <path class="st3" d="m447.96 202.82c-15.17-16.77-29.56-32.68-43.95-48.59.16-.24 48.49 14.69 50.19 18.71 1.53 3.6-4.8 23.73-6.24 29.88z"/>
      <path class="st4" d="m318.22 225.12c3.62 15.99 7.53 33.43 11.25 49.16.62 2.64-.55 3.12-2.47 3.67-8.73 2.52-17.45 5.09-26.83 7.83 1.66-8.98 16.06-58.87 18.05-60.66z"/>
      <path class="st3" d="m444.93 211.15-28.92 14.827-25.37-39.637z"/>
      <path class="st5" d="m274.65 326.66 3.16-52.93 23.86 31.33c.96 1.26 1.14 2.13-.37 3.17z"/>
      <path class="st6" d="m349.9 121.78-5.42 82.93c-1.87-1.75-2.12-3.91-2.8-5.82l-9.9-27.6c-.56-1.56-1.37-3.06-.69-4.78z"/>
      <path class="st6" d="m233.85 328.94 39.99-33.65-4.53 32.52c-.27 2.02-.55 3.42-3.21 3.14z"/>
      <path class="st5" d="m371.96 147.97 6.612-36.602 32.198-1.1583z"/>
      <path class="st5" d="m246.89 227.41c.59-1.31 32.4-14.78 47.8-20.01l-59.5 47.96z"/>
      <path class="st6" d="m347.01 119.75-28.29 65.41c-.32-.07-.65-.13-.97-.2l4.52-40.57c.32746-2.9392 24.45-24.79 24.74-24.64z"/>
      <path class="st5" d="m408.65 152 40.26-8.94c1.67-.38 2.48.01 2.66 1.79l2.37 23.57z"/>
      <path class="st5" d="m351.32 282.79-24.78-51.74 23.74 15.33c5.5697 3.5966 6.5852 7.0597 5.41 13.28z"/>
      <path class="st6" d="m294.37 287.06c-8.47-9.4-16.67-18.49-25.01-27.75 1.45-1.46 24.27-.83 34.08-.78 1.43.01-7.91 26.11-9.07 28.53z"/>
      <path class="st5" d="m365.91 223.43 30.55 51.39c-.22.23-7.53-4.62-10.96-7.29-.1-.08-.21-.16-.31-.24l-23.56-18.04c-.94-1.02 2.24-18.36 4.28-25.82z"/>
      <path class="st5" d="m329.46 210.35c-.55-.74-.89-1.83-.89-2.76-.06-11.4-.04-22.8-.04-34.2.41-.07.81-.14 1.22-.21 8.46 23.21 16.93 46.42 25.39 69.64-.31.15-17.46-21.47-25.68-32.47z"/>
      <path class="st5" d="m215.39 365.82 12.41-31.13c.55-1.39 1.55-1.51 2.77-1.43l26.58 2.77z"/>
      <path class="st5" d="m298.48 213.11c2.83 12.77 6.08 41.92 5.48 41.88l-13.96-.39c-1.98-.01-2.62-.55-2.11-2.61z"/>
      <path class="st7" d="m236.45 385.9c12.83 8.38 25.09 16.39 37.36 24.39-.11.33-.23.65-.34.98-8.32-.84-16.63-1.68-24.95-2.53-.83-.08-1.64-.27-2.47-.36-12.12-1.3-12.12-1.3-10.75-13.21.32-2.8.69-5.6 1.15-9.27z"/>
      <path class="st6" d="m228.4 403.32c-3.91-9.44-7.79-18.91-11.77-28.32-.79-1.86-1.18-3.26.85-4.65 5.99-4.09 11.88-8.32 18.78-13.18-2.41 16.06-4.66 31.08-6.91 46.11-.32.02-.63.03-.95.04z"/>
      <path class="st4" d="m349.18 170.11 2.95-51.85 10.1 20.04c5.46 10.88 5.45 10.88-2.54 19.94z"/>
      <path class="st6" d="m184.16 293.23c-.46-8.55-1.7-26.24.23-26.45 9.81-1.08 20.36-2.15 31.49-3.39-10.86 10.22-20.81 19.58-31.72 29.84z"/>
      <path class="st6" d="m373.75 311.29c.58-13.57 1.95-30.04 2.59-45.09 6.6 5.66 12.57 10.95 18.22 15.86 1.02.88-20.47 29.36-20.81 29.23z"/>
      <path class="st5" d="m185.3 262.54c9.26-7.41 46.05-27.7 55.3-35.12 1.47-1.18-10.34 24.64-15.37 31.31-13.52 1.61-39.74 4.1-39.93 3.81z"/>
      <path class="st8" d="m430.11 306.12c15.01 2.75 28.93 5.31 42.85 7.86l.12.9c-10.8 3.7-21.61 7.38-32.41 11.11-1.93.67-2.29-.78-2.8-1.93-2.45-5.59-4.86-11.21-7.76-17.94z"/>
      <path class="st7" d="m405.16 148.05 11.4-31.67 21.8 4.74z"/>
      <path class="st9" d="m372.73 357.84c6.82-18.91 14.55-40.71 21.76-60.7 1.69 4.83 2.72 28.25 1.81 29.44-7.29 9.59-23.29 31.41-23.57 31.26z"/>
      <path class="st9" d="m350.9 289.87c-6.11-3.42-11.01-6.17-15.92-8.91-1.37-.76-1.47-2.2-1.74-3.43-3.31-14.61-6.56-29.23-9.82-43.85.39-.17 18.27 36.33 27.48 56.19z"/>
      <path class="st10" d="m180.05 270.95c0 17.63-.18 36.77-.18 55.68-4.4-10.06-8.36-19.06-12.25-28.09-.29-.68-.32-1.7-.02-2.36 3.75-8.02 12.15-25.32 12.45-25.23z"/>
      <path class="st8" d="m373.9 266.39-3.43 45.6-13.46-16.98c-.75-.94-.46-1.85.08-2.74l15.92-26.15c.29.1.59.19.89.27z"/>
      <path class="st9" d="m288.38 204.29c-15.11 6.23-26.94 11.6-42.03 17.89-1.34.56-11.23-1.79-16.72-4.98-2.3-1.33 58.68-13.11 58.75-12.91z"/>
      <path class="st7" d="m410.22 226.85c-5.09-.81-9-1.44-12.92-2.06-9.05-1.44-9.02-1.44-9.43-10.82-.33-7.46-.74-14.91-.27-22.83 7.33 11.57 14.66 23.14 22.62 35.71z"/>
      <path class="st11" d="m504.26 330.11c-17.31-1.05-34.63-2.11-52.4-3.19 2.74-2.44 21.37-8.79 23.76-10.19 3.15-.08 28.67 13.13 28.64 13.38z"/>
      <path class="st9" d="m396.38 342.26c-.54 7.44-1.15 14.88-1.56 22.33-.1 1.85-.89 3.06-2.09 4.28-8.29 8.41-26.73 27.34-27.06 27.1 9.59-17.17 20.46-36.88 30.04-54.05.22.11.45.23.67.34z"/>
      <path class="st6" d="m317.78 198.1 29.62 41.77c-.15.22-26.44-15.27-28.79-19.84-.9-3.21-.95-19.81-.83-21.93z"/>
      <path class="st6" d="m242.59 197.48c-3.78 3.25-7.62 6.44-11.31 9.79-1.3 1.18-2.27 2.17-4.24 1.22-9.8-4.73-19.65-9.34-29.3-15.03 14.56.67 29.11 1.34 43.67 2.01.39.67.78 1.34 1.18 2.01z"/>
      <path class="st9" d="m442.01 124.52 9.2531 14.327-44.4 11.25z"/>
      <path class="st9" d="m374.94 111.57-4.4 34.46c-1.0188.18615-1.7558-1.342-2.18-2.22l-12.39-25.64c-.86-1.35 13.28-5.12 18.97-6.6z"/>
      <path class="st7" d="m186.01 352.23c1.36 1.36-7.32 12.96-11.57 18.81-3.36-13-6.48-25.05-9.59-37.09.36-.18 14.58 12.25 21.16 18.28z"/>
      <path class="st12" d="m408.51 288.61-28.86-50.02 15.02 8.16c.77.48 1.42 1.45 1.71 2.33z"/>
      <path class="st7" d="m348.73 174.61 15.424 39.441c-.29.31-.59.61-.88.92-5.16-3.33-10.34-6.63-15.47-10.01-1.54-1.01-.9-2.74-.9-4.16-.03-8.78-.4836-17.081 1.8264-26.191z"/>
      <path class="st9" d="m359.01 426.44c9.48-13.03 19.56-27.84 29.04-40.88.3.11-6.89 25.73-8.08 31.85-.34 1.71-20.77 9.27-20.96 9.03z"/>
      <path class="st6" d="m330.22 281.34-22.45 21.15c-1.59 1.52-2.45 1.01-3.48-.5-2.14-3.16-4.3-6.3-6.55-9.38-1.5-2.05-.81-2.63 1.43-3.24l30.46-8.66c.2.2.39.41.59.63z"/>
      <path class="st5" d="m314.96 217.88c-7.44-10.27-14.03-19.36-21.3-29.39 6.94.93 12.95 1.35 18.75 2.69 2.45.57 2.47 3.92 2.51 6.29.12 6.31.04 12.62.04 20.41z"/>
      <path class="st13" d="m278.41 202.44c-15.27 2.68-30.53 5.35-47.3 8.29 5.38-4.98 9.74-9 14.07-13.03.99-.92 2.05-.73 3.25-.54 9.98 1.57 29.97 5.05 29.98 5.28z"/>
      <path class="st10" d="m391.99 294.01c-5.77 15.9-11.57 32.28-17.34 48.18-.28-.04-1.95-13.94-2.46-20.61-.06-.77.09-1.73.52-2.34 6.09-8.6 18.99-25.39 19.28-25.23z"/>
      <path class="st7" d="m490 332.77c.85-.32 14.99.14 15.41 3.29.86 6.52 3.56 23.16 3.4 30.05-6.2-11.01-12.41-22.01-18.81-33.34z"/>
      <path class="st9" d="m368.65 152.3c0 9.01-.08 16.79.04 24.56.04 2.86-.82 3.52-3.47 2.38-4.09-1.77-8.27-3.35-12.43-4.98-1.66-.65-2.55-1.26-.91-3.06 5.42-5.98 10.72-12.07 16.77-18.9z"/>
      <path class="st11" d="m353.88 289.85 5.97-34.13c.53-3.14 1.59-2.47 3.44-1.03 9.01 7.02 9.03 6.99 3.05 16.71l-11.65 18.86c-.27-.13-.54-.27-.81-.41z"/>
      <path class="st12" d="m155.59 208.94v33.39c-.43.12-7.24-11.54-10.18-17.5-4.04-8.22-4.03-8.23 4.13-12.67 2-1.08 4.02-2.14 6.05-3.22z"/>
      <path class="st9" d="m166.49 329.24c-1.27-1.14-1.44-2.47-1.44-4.01.03-7.13.01-14.26.01-22.28 6.62 14.19 12.99 27.83 19.36 41.47-.26.17-12.17-10-17.93-15.18z"/>
      <path class="st14" d="m174.48 193.57c-10.68 6.65-20.64 12.85-30.6 19.05-.28-.21 12.35-23.79 16.16-24.55 3.65-.74 13.15 4.87 14.44 5.5z"/>
      <path class="st11" d="m347.47 207.89c4.77 3.29 9.48 6.67 14.34 9.82 2.11 1.37 2.24 2.81 1.57 5.02-1.73 5.7-3.23 11.47-5.18 18.51-4.15-11.67-7.92-22.26-11.7-32.85.33-.17.65-.33.97-.5z"/>
      <path class="st15" d="m415.6 296.68-13.26-40.47 16.73 20.1c.9 1.53-2.82 19.97-3.47 20.37z"/>
      <path class="st10" d="m361.79 451.24c-1.38-7.43-2.53-13.51-3.62-19.59-.33-1.82 1.24-2.07 2.41-2.58 5.15-2.22 10.3-4.43 16.75-7.2-5.31 10.03-10.08 19.05-15.54 29.37z"/>
      <path class="st15" d="m314.51 184.78-8.79-10.52c-.58-.69-.74-1.36-.28-2.24l13.32-24.31z"/>
      <path class="st16" d="m182.43 190.93c-1.23.6-2.42 1.11-3.78.63-5.24-1.86-10.48-3.74-15.66-6.54 13.73-1.83 27.46-3.65 41.18-5.48.02.32-14.49 7.88-21.74 11.39z"/>
      <path class="st17" d="m297.3 201.6c-12.13-1.74-23.23-3.34-34.34-4.94-.03-.25-.05-.5-.08-.75 8.29-2.17 16.6-4.26 24.85-6.58 1.98-.56 2.67.28 3.46 1.69 1.86 3.3 3.78 6.55 6.11 10.58z"/>
      <path class="st15" d="m390.95 376.23c-9.96 14.34-19.91 28.68-29.87 43.02 1.09-7.03 1.19-14.88 3.99-17.58 5.28-5.1 25.39-25.88 25.88-25.44z"/>
      <path class="st18" d="m434.77 325.33c-2.22-2.43-12.52-12.85-14.91-15.1-1.91-1.8-2.46-3.84-2.03-6.24 1.03-5.79 2.14-11.56 3.66-17.43 3.79 9.42 9.2 29.07 13.28 38.77z"/>
      <path class="st19" d="m147.73 264.25c-2.06-13.48-3.9-25.51-5.73-37.54.32-.14 9.08 14.97 13.08 22.69.72 1.39-.47 2.53-1.07 3.64-1.8 3.33-3.69 6.6-6.28 11.21z"/>
      <path class="st20" d="m383.94 218.84-10.95-35.43 10.27 3.98z"/>
      <path class="st15" d="m370.68 382.06c.37-8.05.27-15.88 1.8-17.58 6.12-6.8 15.49-19.91 21.35-26.41-7.72 14.66-15.44 29.33-23.15 43.99z"/>
      <path class="st8" d="m231.49 191.51h-40.34c-.06-.21 11.38-5.97 17.21-8.54.82-.36 2.05-.42 2.86-.08 6.35 2.61 12.64 5.35 20.27 8.62z"/>
      <path class="st16" d="m310.03 243.67-8.97-34.75 12.74 13.37c1.11 1.24.58 2.44.32 3.72l-3.41 17.54c-.23.04-.45.08-.68.12z"/>
      <path class="st17" d="m185.11 378.97c-.22 1.37-11.6 6.66-16.84 8.28 6.39-9.47 12.77-18.94 19.16-28.42.29.1-1.26 13.53-2.32 20.14z"/>
      <path class="st21" d="m158.86 281.25c-2.72 3.57-11.69 14.99-18.94 22.79-.23-.13 6.01-21.17 8.85-28.7.58-1.54 9.94 5.45 10.09 5.91z"/>
      <path class="st15" d="m379.63 475.64c-4.39-5.67-9.59-12-13.98-17.67-1.01-1.3 12.96-6.57 13.21-5.68 1.11 3.88 1.05 23.21.77 23.35z"/>
      <path class="st16" d="m363.09 454.62c4.96-9.58 10.84-21.94 15.13-30.23.28.05.9 24.36-.57 24.89-4.13 1.5-9.26 3.29-14.56 5.34z"/>
      <path class="st17" d="m380.85 220.95c-4.2-1.06-13.4-4.11-13.89-5.44-2.73-7.4-5.14-15.81-7.89-23.21.27-.17 20.96 27.32 21.78 28.65z"/>
      <path class="st13" d="m182.17 384.82c-5.01 7.96-10.02 15.92-15.71 24.95-.92-5.35-1.64-9.6-2.39-13.84-.24-1.38 17.85-11.38 18.1-11.11z"/>
      <path class="st18" d="m410.33 483.59c-.7-.34-8.32-9.28-7.43-10.51 2.99-2.34 14.2-11.26 18.36-14.49-3.98 9.11-7.43 16.99-10.93 25z"/>
      <path class="st22" d="m434.54 431.08c.99 1.49.24 2.33-.74 3.36-2.61 2.75-5.14 5.57-8.75 9.51-.47-10.33-.86-19.01-1.25-27.69.29-.11 7.41 9.8 10.74 14.82z"/>
      <path class="st16" d="m294.04 449.89c-1.88 5.76-3.75 11.53-5.66 17.28-.31.95-.86 1.66-1.91 2.1-4.67 1.97-9.29 4.06-14.72 5.21 7.2-8.32 14.39-16.64 21.59-24.96.24.13.47.25.7.37z"/>
      <path class="st23" d="m363.69 193.23c-1.27-1.51-1.01-2.56.15-3.85 1.88-2.09 3.67-4.26 6.08-7.08 3.28 10.44 6.34 20.21 9.42 30.02-5.21-6.37-10.36-12.79-15.65-19.09z"/>
      <path class="st24" d="m155.52 430.2c8.04 0 17.46.28 26.38.28-3.27 3.39-6.26 6.36-9.1 9.46-1.27 1.39-2.27.77-3.43.01-4.27-2.8-13.96-9.39-13.85-9.75z"/>
      <path class="st25" d="m371.2 155.86c3.78 8.2 8.28 19.12 12.13 27.45-.93.19-12.32-3-12.45-4.4-.04-3.87.06-22.98.32-23.05z"/>
      <path class="st15" d="m196.69 239.11c6.57-3.99 12.74-7.73 19.89-12.07-2 4.24-3.53 7.44-5 10.67-.43.95-1.09 1.39-2.01 1.39-4.1.01-8.19.01-12.88.01z"/>
      <path class="st15" d="m165.54 273.88c.22-.61 18.64-28.34 18.64-28.34s-2.04 12.26-2.81 14.21c-.49 1.25-15.51 14.25-15.83 14.13z"/>
      <path class="st18" d="m314.46 188.42c-7.68-.68-14.37-1.27-22.08-1.96 3.4-4.01 6.42-7.56 9.42-11.13 1.1-1.31 1.88-.79 2.73.31 3.1 4.04 6.24 8.05 9.93 12.78z"/>
      <path class="st17" d="m508.39 372.74c.71 1.21-.04 2.2-.59 3.23-2.8 5.25-5.58 10.52-9.43 15.64.86-9.77 1.68-21.27 2.53-31.04.32-.12 5.35 8.56 7.49 12.17z"/>
      <path class="st16" d="m295.11 420.47c-9.68-6.79-19.36-13.59-29.26-20.54 7.64-1.69 12.92-.02 17.51 5.37 4.08 4.79 8.13 9.6 12.2 14.4-.15.25-.3.51-.45.77z"/>
      <path class="st26" d="m431.04 464.24c-2.63-5.27-7.39-14.35-6.67-15.2 3.21-3.76 7.28-8.57 10.48-12.34.55.55-1.78 17.93-3.81 27.54z"/>
      <path class="st16" d="m161.55 401.23c1.49 6.93 4.12 17.87 5.14 25.15.12.88-11.68.64-11.68-.13 1.27-5.11 6.28-25.1 6.54-25.02z"/>
      <path class="st27" d="m199.33 178.25c-11.04 1.42-22.07 2.84-34.57 4.45 6.15-4.8 10.35-9.84 18.28-7.74 5.28 1.41 16.31 2.96 16.29 3.29z"/>
      <path class="st17" d="m238.94 224.74c-8.08 2.52-14.33 6.09-22.34 8.58 2.72-4.32 4.87-7.64 6.89-11.02.91-1.52 1.87-1.68 3.49-1.01 3.77 1.55 6.91 1.52 11.96 3.45z"/>
      <path class="st17" d="m205.87 242.69c-6.87 4.74-12.78 8.83-19.59 13.53 1.29-4.78 2.83-9.55 3.74-13.27.4-1.67 10.52-.5 15.85-.26z"/>
      <path class="st28" d="m427.8 376.17c-.94 4.01-2.39 13.37-3.25 13.51-4.78-2.13-11.52-5.07-15.27-6.74 6.75-2.47 12.51-4.57 18.52-6.77z"/>
      <path class="st29" d="m402.66 358.7c5.95 6.5 10.95 11.97 15.89 17.38-.31.53-9.14 4.49-9.82 3.21-.96-3.67-4.73-15.38-6.07-20.59z"/>
      <path class="st30" d="m148.77 299.62v26.02c-3.07-5.95-5.83-11.38-8.69-16.77-.81-1.52.27-2.1 1.1-2.82 2.1-1.83 4.24-3.6 7.59-6.43z"/>
      <path class="st30" d="m140.48 379.63c0 6.09-.34 15.4-.34 21.24-2.02-3.92-3.84-7.51-5.73-11.06-.08-1.51 4.9-8.5 6.07-10.18z"/>
      <path class="st24" d="m415.39 478.8c2.9-7.4 5.79-14.79 9.07-23.17 1.66 3.91 2.96 6.9 4.2 9.9.49 1.18.27 2.21-.73 3.13-3.87 3.57-12.21 10.35-12.54 10.14z"/>
      <path class="st24" d="m406.38 485.06c-6.38-1.5-12.77-3-20.2-4.75 3.25-2.83 9.81-8.63 10.64-7.66 3.1 3.62 9.73 12.12 9.56 12.41z"/>
      <path class="st31" d="m383.49 457.45c3.17 4.04 6.04 7.79 9.02 11.46 1.03 1.27 1.16 2.12-.3 3.13-2.69 1.87-5.28 3.86-8.72 6.39v-20.98z"/>
      <path class="st13" d="m325.67 205.5c-8.45-12.48-8.47-15.06 0-27.48v27.48z"/>
      <path class="st25" d="m496.54 385.56c0 2.96-.05 4.92.01 6.87.07 2.36-.92 3.45-3.34 4-5.95 1.33-11.81 3.04-18.11 3.91 6.87-4.74 13.75-9.47 21.44-14.78z"/>
      <path class="st16" d="m315.8 148.78c-.48 1.17-10.85 19.4-12.64 21.32-1.52 1.63-7.4906-1.5337-11.95-3.31-.01-.01 24.07-17.88 24.59-18.01z"/>
      <path class="st32" d="m410.68 363.25c-4.51-4.56-8.07-8.44-7.07-15 .94-6.18.88-12.51 1.93-18.85 1.67 11.04 3.35 22.08 5.14 33.85z"/>
      <path class="st26" d="m199.71 429.76c-7.95 3.84-16.22 8.44-23.06 11.74-.25-.34 13.05-13.91 15.7-16.34.31-.28 4.04 2.09 7.36 4.6z"/>
      <path class="st33" d="m140.93 315.73c3.87 6.75 6.32 10.14 6.35 12.67.05 3.29-4.15 5.81-9.06 13.91 1.41-8.3 2.3-18.64 2.71-26.58z"/>
      <path class="st33" d="m134.12 360.5c8.92 15.56 8.67 9.65 0 23.96v-23.96z"/>
      <path class="st30" d="m138.22 331.33c-1.35 7.08-3.24 15.63-4.57 22.67-.72-.04-1.13.07-1.3-.09-6.23-5.69-6.23-5.7-1.49-12.83 1.94-2.92 7.04-9.91 7.36-9.75z"/>
      <path class="st20" d="m435.08 427.03c-5.39-7.56-10.77-15.13-16.52-23.2 3.07.52 10.47 2.69 10.86 4.23 1.01 4.41 5.96 18.82 5.66 18.97z"/>
      <path class="st34" d="m137.84 319.59c-4.92-6.53-9.74-11.19-13.98-16.81 5.68-.43 12.07.59 12.07.59s1.44 7.61 1.91 16.22z"/>
      <path class="st35" d="m249.18 464.8c-1.29-4.66-2.24-8.27-3.3-11.85-.42-1.43.19-2.17 1.37-2.69 3.23-1.41 6.46-2.82 10.75-4.69-3.11 6.79-5.72 12.49-8.82 19.23z"/>
      <path class="st20" d="m451.53 393.8c8.55 1.14 16.11 2.15 24.15 3.23-9.06 7.04-10.99 6.79-24.15-3.23z"/>
      <path class="st30" d="m156.14 256.31c.94 6.26 1.84 14.4 2.38 21.02-2.89-1.91-6.59-4.7-9.11-6.98-1.03-.93-1.12-1.79-.34-2.98 1.95-3.01 6.72-11.17 7.07-11.06z"/>
      <path class="st25" d="m247.6 466.77c6.67 1.71 13.35 3.41 20.23 5.17-6.23 6.24-7.63 6.35-13.86 1.39-2.3-1.83-4.58-3.67-6.88-5.5.17-.35.34-.7.51-1.06z"/>
      <path class="st36" d="m297.87 450.94c-1.7-8.98-3.4-17.97-5.14-27.18 6.23 2.67 6.52 3.23 6.43 9.42-.09 5.79-.02 11.58-.02 17.37-.42.13-.85.26-1.27.39z"/>
      <path class="st27" d="m412.78 426.77c2.56 7.74 4.72 14.29 7.04 21.33-11.09-8.72-11.32-9.37-7.04-21.33z"/>
      <path class="st37" d="m420.41 368.1c-2.06-5.48-6.44-17.42-8.62-22.85-.36-.79 3.21-2.14 5.04-2.81.23.47 3.9 25.56 3.58 25.66z"/>
      <path class="st38" d="m96.53 333.17c-12.71-9.85-11.32-5.64-5.72-19.02 1.09 3.68 1.89 6.4 2.71 9.11.9 2.99 1.81 5.97 3.01 9.91z"/>
      <path class="st39" d="m430.9 370.45c7.71 10.6 7.58 7.53-2.47 18.9.87-6.63 1.62-12.4 2.47-18.9z"/>
      <path class="st40" d="m408.19 434.73c-1.96-5.83-1.61-11.01-1.69-16.01-.06-3.78 4.22-1.86 6.91-2.98-1.66 6.03-3.32 12.05-5.22 18.99z"/>
      <path class="st41" d="m111.99 299.07h-18.53c1.88-1.85 3.39-4.91 6.93-5.66.01 0 7.93 3.04 11.6 5.66z"/>
      <path class="st42" d="m177.81 195.45c3.51-1.44 6.74-3.4 9.39-2.88 4.19.81 8.79 6.15 11.83 8.94-7.83-1.95-14.61-4.43-21.22-6.06z"/>
      <path class="st43" d="m416.17 338.53c1.62 2.78-1.09 2.4-2.3 3.04-1.51.8-3 1.65-3.46-1.19-.8-4.87-1.8-9.71-2.72-14.57.27-.12 5.94 8.35 8.48 12.72z"/>
      <path class="st44" d="m203.07 440.78c.7 5.81 2.49 10.61 3.19 16.43-.22.11-6.12-9.38-8.35-13.16-.88-1.49 5.03-3.95 5.16-3.27z"/>
      <path class="st45" d="m221.2 447.84c.09.47-5.31.62-5.45.09-.81-3.17-2.21-17.94-2.21-22.83.51-.06 6.74 17.7 7.66 22.74z"/>
      <path class="st42" d="m198.45 196.83c6.91 3.26 15.31 6.92 21.35 9.77-4.43 0-10.3.09-12.19-.63-1.21-.45-5.39-4.07-9.16-9.14z"/>
      <path class="st46" d="m259.34 449.19c4.55-1.8 7.51-1.81 9.23 2.79 1.13 3 2.82 5.79 3.45 9.28-4.08-3.88-8.17-7.77-12.68-12.07z"/>
      <path class="st47" d="m126.82 351.74c9.44 4.38 5.54 11.95 5.28 18.49-1.68-5.89-3.36-11.78-5.28-18.49z"/>
      <path class="st48" d="m425.5 360.57c3.74-4.26 10.47-10.81 14.54-15-.76 5.9-1.86 13.3-1.95 14.49-.04.6-8.93.34-12.59.51z"/>
      <path class="st49" d="m416.3 404.33c.96 1.46 1.68 2.72 2.56 3.86 1.71 2.2.6 3.07-1.52 3.71-3.29.98-6.55 2.06-10.56 3.33.68-1.05.91-1.54 1.26-1.92 2.66-2.92 5.35-5.82 8.26-8.98z"/>
      <path class="st36" d="m120.1 394c2.82 4.18 5.63 8.35 8.55 12.67-4.72 1.85-5.94 2.36-6.39 1.5-1.26-2.43-2.4-14.06-2.16-14.17z"/>
      <path class="st50" d="m212.07 432.69c-4.92-2.42-12.18-5.68-16.98-8.04 6.26-.77 13.91-.57 15.81-.43 1.01.08 1.3 6.24 1.17 8.47z"/>
      <path class="st51" d="m221.07 449.33c-1.35 2.17-12.72 8.64-12.94 7.96-.75-2.39-.96-5.27-1.66-7.57 3.33-.22 9.11-.05 14.6-.39z"/>
      <path class="st52" d="m86.45 315.29c.7-2.69 1.56-5.34 2.05-8.06.8-4.46 3.17-6.08 8.08-4.51-3.25 4.41-6.39 8.66-9.52 12.91-.2-.11-.4-.22-.61-.34z"/>
      <path class="st42" d="m111.73 292.14c1.66 1.4 3.48 3.96 5.74 6.45-4.91-1.79-9.32-4.28-13.66-5.87.01-.01 6.97-1.39 7.92-.58z"/>
      <path class="st53" d="m459.76 392.98c-5.2-.14-10.43.26-10.48-1.65-.04-1.57-.38-3.4-.35-7.17 4.03 2.49 7.33 5.45 10.83 8.82z"/>
      <path class="st42" d="m230.36 212.03c-2.48 1.39-6.74 3.86-8.35 3.43-2.21-.58-4.97-3.46-8.85-6.64 2.64.26 13.89 2.62 17.2 3.21z"/>
      <path class="st54" d="m205.84 444.48c-.34-1.36-.36-.86-.94-4.72.68-.64 3.7-2.64 4.38-2.17.42.28-2.72 5.57-3.44 6.89z"/>
      <path class="st55" d="m402.61 437.17c.59 4.05 1.18 8.11 1.79 12.16.2 1.33.68 2.8-1.55 2.63-1.7-.13-3.4-.31-2.95-2.81.73-4.03 1.39-8.07 2.07-12.1.22.03.43.07.64.12z"/>
      <path class="st42" d="m131.55 299.69c-3.44.35-9.13.33-10.18-.08-.97-.38-3.45-3.48-5.21-6.71 5.47 2.41 10.43 4.6 15.39 6.79z"/>
      <path class="st56" d="m451.03 340.18c-.04.51-7.36 8.04-9.7 10.34.18-4.06.26-9.28.85-9.28z"/>
      <path class="st57" d="m400.16 454.32c3.98 0 6.43-.03 8.88.01 1.11.02 2.56-.18 2.65 1.47.07 1.29.21 2.96-.48 3.83-1.11 1.39-2.38-.19-3.43-.75-2.17-1.15-4.22-2.5-7.62-4.56z"/>
      <path class="st58" d="m106.2 393.58c3.69-.68 11.17-2.59 11.51-1.74.57 1.42.82 4.03.11 5.27-.61 1.07-2.32-.11-3.49-.54-2.28-.83-4.56-1.67-8.13-2.99z"/>
      <path class="st59" d="m415.83 458.17c-1.54-4.94-2.84-9.11-4.35-13.96 8.52 7.44 8.52 7.44 4.35 13.96z"/>
      <path class="st60" d="m123.9 409.75c4.02-.97 6.74-1.68 9.48-2.27 1.02-.22 2.42-1.02 2.91.68.35 1.2 1.43 2.55.48 3.71-.82 1-2.2.3-3.29.07-2.74-.55-5.46-1.24-9.58-2.19z"/>
      <path class="st60" d="m108.48 300.62c7.34-.75 12.65-.12 15.55 6.88-4.98-2.2-9.57-4.23-15.55-6.88z"/>
      <path class="st61" d="m262.37 455.66c1.7 1.33 3.05 2.26 4.23 3.37 1.04.97 3.34 1.59 2.84 2.99-.62 1.72-3.07 1.7-4.76 1.95-2.44.37-1.5-2.03-1.96-3.22-.55-1.37-.99-2.83-.35-5.09z"/>
      <path class="st62" d="m421.16 362.01c3.32-.09 11.57.26 17.11.26-3.83 1.37-13.07 4.91-16.06 5.98-.8-2.11-.8-3.77-1.05-6.24z"/>
      <path class="st63" d="m89.16 342.04c1.42-3.82 2.38-6.4 3.43-9.23 2.12.98 4.91 2.81 4.54 4.02-.89 2.9-4.44 3.22-7.97 5.21z"/>
      <path class="st64" d="m289.94 171.44c1.34 2.3 4.21 6.86 5.23 8.49-.06 1.26-4.21 4.89-4.34 4.47z"/>
      <path class="st65" d="m209.18 436.21c-.59.38-11.37 5.26-11.77 5.12.43-1.19 2.66-6.87 2.94-7.19.51-.6 7.19-.01 8.83 2.07z"/>
      <path class="st66" d="m458.42 340.76c-2.2 2.24-7.56 4.32-8.84 4.66.53-1.24 3.32-4.81 4.26-6.04 1.11-1.47 3.52.86 4.58 1.38z"/>
      <path class="st67" d="m109.78 402.82c-1.82-2.53-3.37-4.68-5.16-7.17 4.92.17 6.57 2.23 5.16 7.17z"/>
      <path class="st67" d="m139.15 408.18c-1.82-2.53-3.37-4.68-5.16-7.17 4.91.17 6.57 2.23 5.16 7.17z"/>
      <path class="st5" d="m152.22 297.42c-.6 1.5-1.87 25.7-1.7 25.87s16.51-33.7 16.51-33.7-14.47 6.98-14.81 7.83z"/>
      <polygon class="st6" points="176.65 268.4 168.52 286.61 153.71 293.76"/>
      <polygon class="st15" points="398.14 363.76 405.46 379.93 395.07 373.59"/>
      <path class="st6" d="m354.32 342.14-7.32-22s-11.84 10.17-13.12 10.68 20.44 11.32 20.44 11.32z"/>
      <path class="st10" d="m340.02 286.22-8.43-3.57s-6.34 22.95-5.49 22.21c.99-.85 13.92-18.64 13.92-18.64z"/>
      <path class="st10" d="m343.6 288.78-10.55 40.21s9.55-8.71 10.72-10.04-.17-30.17-.17-30.17z"/>
      <path class="st6" d="m341.68 287.76-14.98 20.21s3.2282 17.869 3.87 15.79z"/>
      <polygon class="st68" points="354.69 178.35 364.86 181.5 357.71 188.05"/>
      <polygon class="st68" points="292.37 169.97 299.71 173.23 296.22 177.42"/>
    </g>
    <path class="st10" d="m368.87 332.18c.7-.79.97 17.61 1.69 17.98s-9.8-4.17-10.24-4.45c-.45-.27 7.45-12.28 8.55-13.53z"/>
    <polygon class="st10" points="357.38 343.67 350.57 321.33 366.83 330.27"/>
  </g>
</svg>
