<?xml version="1.0" encoding="utf-8"?>
<!-- Generator: Adobe Illustrator 24.1.2, SVG Export Plug-In . SVG Version: 6.00 Build 0)  -->
<svg version="1.1" xmlns="http://www.w3.org/2000/svg" xmlns:xlink="http://www.w3.org/1999/xlink" x="0px" y="0px"
	 viewBox="0 0 595.28 595.28" style="enable-background:new 0 0 595.28 595.28;" xml:space="preserve">
<style type="text/css">
	.st0{display:none;}
	.st1{display:inline;stroke:#000000;stroke-width:0.9608;stroke-miterlimit:10;}
	.st2{stroke:#000000;stroke-width:0.9608;stroke-miterlimit:10;}
	.st3{fill:#632D6D;}
	.st4{fill:#993092;}
	.st5{fill:#993192;}
	.st6{fill:#632D6E;}
	.st7{fill:#9A3192;}
	.st8{fill:#9A3193;}
	.st9{fill:#632E6E;}
	.st10{fill:#9A3293;}
	.st11{fill:#642E6E;}
	.st12{fill:#642F6E;}
	.st13{fill:#9A3393;}
	.st14{fill:#932990;}
	.st15{fill:#9A3493;}
	.st16{fill:#65306F;}
	.st17{fill:#64306F;}
	.st18{fill:#642F6F;}
	.st19{fill:#942A90;}
	.st20{fill:#673471;}
	.st21{fill:#942B90;}
	.st22{fill:#9B3895;}
	.st23{fill:#9A3494;}
	.st24{fill:#9B3594;}
	.st25{fill:#9B3694;}
	.st26{fill:#653170;}
	.st27{fill:#9C3995;}
	.st28{fill:#983092;}
	.st29{fill:#4C2754;}
	.st30{fill:#663370;}
	.st31{fill:#683571;}
	.st32{fill:#9A3794;}
	.st33{fill:#983995;}
	.st34{fill:#963393;}
	.st35{fill:#663270;}
	.st36{fill:#9C3B96;}
	.st37{fill:#9A3795;}
	.st38{fill:#953092;}
	.st39{fill:#4E2956;}
	.st40{fill:#6B3B74;}
	.st41{fill:#973794;}
	.st42{fill:#A63934;}
	.st43{fill:#53305A;}
	.st44{fill:#9C4297;}
	.st45{fill:#9A3D96;}
	.st46{fill:#993694;}
	.st47{fill:#9B4198;}
	.st48{fill:#9C3D97;}
	.st49{fill:#9D3D97;}
	.st50{fill:#A1489B;}
	.st51{fill:#683672;}
	.st52{fill:#693873;}
	.st53{fill:#993393;}
	.st54{fill:#943F8E;}
	.st55{fill:#73477C;}
	.st56{fill:#4D2956;}
	.st57{fill:#A14A9C;}
	.st58{fill:#6C3D75;}
	.st59{fill:#6C3C75;}
	.st60{fill:#6E3F77;}
	.st61{fill:#6D3E76;}
	.st62{fill:#56345D;}
	.st63{fill:#693773;}
	.st64{fill:#A3509F;}
	.st65{fill:#6A3973;}
	.st66{fill:#9E4299;}
	.st67{fill:#A353A0;}
	.st68{fill:#8B8A8A;}
	.st69{fill:#824380;}
	.st70{fill:#692468;}
	.st71{fill:#772163;}
	.st72{fill:#853A84;}
	.st73{fill:#81246D;}
	.st74{fill:#8C368A;}
	.st75{fill:#9C268F;}
	.st76{fill:#8A3384;}
	.st77{fill:#902787;}
	.st78{fill:#962A90;}
	.st79{fill:#792266;}
	.st80{fill:#853C85;}
	.st81{fill:#94288E;}
	.st82{fill:#8A3484;}
	.st83{fill:#9E2B91;}
	.st84{fill:#74215F;}
	.st85{fill:#81246F;}
	.st86{fill:#9C2A90;}
	.st87{fill:#823973;}
	.st88{fill:#863385;}
	.st89{fill:#9F2B91;}
	.st90{fill:#8B2577;}
	.st91{fill:#722469;}
	.st92{fill:#8A2677;}
	.st93{fill:#962587;}
	.st94{fill:#892575;}
	.st95{fill:#9E2990;}
	.st96{fill:#892576;}
	.st97{fill:#952688;}
	.st98{fill:#A02B90;}
	.st99{fill:#72246A;}
	.st100{fill:#A02C91;}
	.st101{fill:#8C2578;}
	.st102{fill:#9F559A;}
	.st103{fill:#53183F;}
	.st104{fill:#9C258F;}
	.st105{fill:#9F2A90;}
	.st106{fill:#671E5B;}
	.st107{fill:#832571;}
	.st108{fill:#8A3587;}
	.st109{fill:#7A2266;}
	.st110{fill:#91257D;}
	.st111{fill:#9E278F;}
	.st112{fill:#6C266B;}
	.st113{fill:#882573;}
	.st114{fill:#934086;}
	.st115{fill:#6E1E59;}
	.st116{fill:#7F246F;}
	.st117{fill:#7D2571;}
	.st118{fill:#8D3881;}
	.st119{fill:#96268C;}
	.st120{fill:#892574;}
	.st121{fill:#9D248F;}
	.st122{fill:#642972;}
	.st123{fill:#A23393;}
	.st124{fill:#90267C;}
	.st125{fill:#76266F;}
	.st126{fill:#8A2576;}
	.st127{fill:#A42F92;}
	.st128{fill:#752162;}
	.st129{fill:#6E276B;}
	.st130{fill:#63276B;}
	.st131{fill:#742263;}
	.st132{fill:#8B2578;}
	.st133{fill:#65266C;}
	.st134{fill:#8D2578;}
	.st135{fill:#632466;}
	.st136{fill:#752060;}
	.st137{fill:#642465;}
	.st138{fill:#77417C;}
	.st139{fill:#782266;}
	.st140{fill:#6B266C;}
	.st141{fill:#882576;}
	.st142{fill:#934189;}
	.st143{fill:#7D2878;}
	.st144{fill:#8A2679;}
	.st145{fill:#712263;}
	.st146{fill:#6C266C;}
	.st147{fill:#812677;}
	.st148{fill:#6A266A;}
	.st149{fill:#822677;}
	.st150{fill:#6E2870;}
	.st151{fill:#742162;}
	.st152{fill:#5A1F44;}
	.st153{fill:#9D539B;}
	.st154{fill:#712469;}
	.st155{fill:#852470;}
	.st156{fill:#8E368E;}
	.st157{fill:#81246C;}
	.st158{fill:#802B6C;}
	.st159{fill:#862A70;}
	.st160{fill:#8B387F;}
	.st161{fill:#992B90;}
	.st162{fill:#67446F;}
	.st163{fill:#632F6A;}
	.st164{fill:#966F9A;}
	.st165{fill:#80236A;}
	.st166{fill:#932688;}
	.st167{fill:#6D256C;}
	.st168{fill:#69276D;}
	.st169{fill:#762162;}
	.st170{fill:#8B3189;}
	.st171{fill:#952689;}
	.st172{fill:#8E2579;}
	.st173{fill:#8C267F;}
	.st174{fill:#782162;}
	.st175{fill:#78256E;}
	.st176{fill:#752161;}
	.st177{fill:#65276B;}
	.st178{fill:#5D2463;}
	.st179{fill:#A6499B;}
	.st180{fill:#722162;}
	.st181{fill:#613D67;}
	.st182{fill:#56215B;}
	.st183{fill:#5E2464;}
	.st184{fill:#7F2E7D;}
	.st185{fill:#5D2363;}
	.st186{fill:#79256F;}
	.st187{fill:#682569;}
	.st188{fill:#69256B;}
	.st189{fill:#A33092;}
	.st190{fill:#A53794;}
	.st191{fill:#733276;}
	.st192{fill:#642467;}
	.st193{fill:#9C2E91;}
	.st194{fill:#A12F92;}
	.st195{fill:#71256B;}
	.st196{fill:#6F246A;}
	.st197{fill:#612B67;}
	.st198{fill:#D76257;}
	.st199{fill:#D4564A;}
	.st200{fill:#DE7F76;}
	.st201{fill:#C15B5D;}
	.st202{fill:#CF554D;}
	.st203{fill:#DC5847;}
	.st204{fill:#722365;}
	.st205{fill:#772367;}
	.st206{fill:#A22D91;}
	.st207{fill:#A32F92;}
	.st208{fill:#712368;}
	.st209{fill:#61266A;}
	.st210{fill:#663074;}
	.st211{fill:#782061;}
	.st212{fill:#782264;}
	.st213{fill:#74205F;}
	.st214{fill:#7A2164;}
	.st215{fill:#74205E;}
	.st216{fill:#9F248F;}
	.st217{fill:#73246A;}
	.st218{fill:#73256B;}
	.st219{fill:#A32D91;}
	.st220{fill:#8B2782;}
	.st221{fill:#A43092;}
	.st222{fill:#8E2578;}
	.st223{fill:#76205F;}
	.st224{fill:#762060;}
	.st225{fill:#8A2577;}
	.st226{fill:#8D2579;}
	.st227{fill:#882575;}
	.st228{fill:#6E246A;}
	.st229{fill:#5E266C;}
	.st230{fill:#7E2776;}
	.st231{fill:#5B266B;}
	.st232{fill:#832676;}
	.st233{fill:#58276D;}
	.st234{fill:#792775;}
	.st235{fill:#572870;}
	.st236{fill:#722875;}
	.st237{fill:#572971;}
	.st238{fill:#75205F;}
	.st239{fill:#7C2E63;}
	.st240{fill:#9B258D;}
	.st241{fill:#431B37;}
	.st242{fill:#422034;}
	.st243{fill:#8E3895;}
	.st244{fill:#622D6C;}
	.st245{fill:#75246B;}
	.st246{display:inline;}
</style>
<g id="Layer_2" class="st0">
</g>
<g id="Layer_1">
	<g>
		<path class="st3" d="M295.33,211.06c-3.64,12.02-7.59,23.96-10.79,36.09c-1.43,5.42-3.54,7.84-9.52,7.88
			c-10.78,0.07-21.55,1.13-32.97,0.71C259.46,240.66,294.98,210.87,295.33,211.06z"/>
		<path class="st3" d="M386.6,183.22c-4.64-9.76-8.71-18.45-12.92-27.06c-0.92-1.88-1.01-3.14,0.6-4.77
			c12.43-12.66,37.9-38.51,38.37-38.14C404.03,135.87,395.6,159.59,386.6,183.22z"/>
		<path class="st4" d="M444.11,205.88c-3.14-1.34-6.27-2.69-9.41-4.02c-13.57-5.77-27.1-11.63-40.73-17.25
			c-3.06-1.26-3.52-2.52-2.18-5.49c3.33-7.36,6.3-14.87,9.78-23.2c14.7,16.68,28.95,32.86,43.2,49.04
			C444.55,205.26,444.33,205.57,444.11,205.88z"/>
		<path class="st3" d="M447.96,202.82c-15.17-16.77-29.56-32.68-43.95-48.59c0.16-0.24,48.49,14.69,50.19,18.71
			C455.73,176.54,449.4,196.67,447.96,202.82z"/>
		<path class="st4" d="M318.22,225.12c3.62,15.99,7.53,33.43,11.25,49.16c0.62,2.64-0.55,3.12-2.47,3.67
			c-8.73,2.52-17.45,5.09-26.83,7.83C301.83,276.8,316.23,226.91,318.22,225.12z"/>
		<path class="st3" d="M444.93,211.15c-9.54,4.64-18.46,8.95-27.35,13.34c-1.81,0.9-2.65,0.1-3.57-1.3
			c-7.92-12.03-15.88-24.03-23.37-36.85C408.52,194.51,426.41,202.69,444.93,211.15z"/>
		<path class="st5" d="M274.65,326.66c1.07-18,2.08-34.88,3.16-52.93c8.43,11.09,16.13,21.22,23.86,31.33
			c0.96,1.26,1.14,2.13-0.37,3.17C292.73,314.09,284.21,320.03,274.65,326.66z"/>
		<path class="st6" d="M349.9,121.78c-1.8,27.49-3.6,54.97-5.42,82.93c-1.87-1.75-2.12-3.91-2.8-5.82c-3.31-9.2-6.58-18.41-9.9-27.6
			c-0.56-1.56-1.37-3.06-0.69-4.78C337.06,151.49,349.61,121.67,349.9,121.78z"/>
		<path class="st6" d="M233.85,328.94c13.56-11.41,26.48-22.29,39.99-33.65c-1.59,11.36-3.11,21.94-4.53,32.52
			c-0.27,2.02-0.55,3.42-3.21,3.14C255.7,329.88,245.2,330.69,233.85,328.94z"/>
		<path class="st5" d="M371.96,147.97c1.94-10.53,4.08-22.23,6.24-33.93c0.25-1.38,0.76-2.42,2.51-2.48
			c9.84-0.39,19.68-0.87,30.06-1.35C397.36,123.27,384.48,135.8,371.96,147.97z"/>
		<path class="st5" d="M246.89,227.41c0.59-1.31,32.4-14.78,47.8-20.01c-19.83,15.99-39.67,31.97-59.5,47.96
			C234.91,255.18,242.75,236.57,246.89,227.41z"/>
		<path class="st6" d="M347.01,119.75c-9.43,21.8-18.86,43.61-28.29,65.41c-0.32-0.07-0.65-0.13-0.97-0.2
			c0.79-6.91,3.63-32.66,4.52-40.57C322.59,141.45,346.72,119.6,347.01,119.75z"/>
		<path class="st5" d="M408.65,152c14.42-3.19,27.34-6.04,40.26-8.94c1.67-0.38,2.48,0.01,2.66,1.79
			c0.73,7.56,1.52,15.11,2.37,23.57C438.8,162.93,424.44,157.72,408.65,152z"/>
		<path class="st5" d="M351.32,282.79c-8.6-17.95-16.69-34.84-24.78-51.74c0.3-0.27,19.1,12.85,23.74,15.33
			c5.85,3.12,6.99,7.15,5.41,13.28C353.85,266.81,352.9,274.19,351.32,282.79z"/>
		<path class="st6" d="M294.37,287.06c-8.47-9.4-16.67-18.49-25.01-27.75c1.45-1.46,24.27-0.83,34.08-0.78
			C304.87,258.54,295.53,284.64,294.37,287.06z"/>
		<path class="st5" d="M365.91,223.43c10.66,17.94,20.61,34.66,30.55,51.39c-0.22,0.23-7.53-4.62-10.96-7.29
			c-0.1-0.08-0.21-0.16-0.31-0.24c-7.49-5.82-15.97-12.35-23.56-18.04C360.69,248.23,363.87,230.89,365.91,223.43z"/>
		<path class="st5" d="M329.46,210.35c-0.55-0.74-0.89-1.83-0.89-2.76c-0.06-11.4-0.04-22.8-0.04-34.2
			c0.41-0.07,0.81-0.14,1.22-0.21c8.46,23.21,16.93,46.42,25.39,69.64C354.83,242.97,337.68,221.35,329.46,210.35z"/>
		<path class="st5" d="M215.39,365.82c4.52-11.3,8.49-21.2,12.41-31.13c0.55-1.39,1.55-1.51,2.77-1.43
			c8.73,0.56,17.46,1.12,26.58,2.77C243.66,345.66,230.17,355.28,215.39,365.82z"/>
		<path class="st5" d="M298.48,213.11c2.83,12.77,6.08,41.92,5.48,41.88c-4.63-0.32-9.3-0.37-13.96-0.39
			c-1.98-0.01-2.62-0.55-2.11-2.61C291.1,239.02,298.11,213.08,298.48,213.11z"/>
		<path class="st7" d="M236.45,385.9c12.83,8.38,25.09,16.39,37.36,24.39c-0.11,0.33-0.23,0.65-0.34,0.98
			c-8.32-0.84-16.63-1.68-24.95-2.53c-0.83-0.08-1.64-0.27-2.47-0.36c-12.12-1.3-12.12-1.3-10.75-13.21
			C235.62,392.37,235.99,389.57,236.45,385.9z"/>
		<path class="st6" d="M228.4,403.32c-3.91-9.44-7.79-18.91-11.77-28.32c-0.79-1.86-1.18-3.26,0.85-4.65
			c5.99-4.09,11.88-8.32,18.78-13.18c-2.41,16.06-4.66,31.08-6.91,46.11C229.03,403.3,228.72,403.31,228.4,403.32z"/>
		<path class="st4" d="M349.18,170.11c1-17.57,1.92-33.89,2.95-51.85c3.8,7.54,6.96,13.79,10.1,20.04
			c5.46,10.88,5.45,10.88-2.54,19.94C356.44,161.92,353.18,165.59,349.18,170.11z"/>
		<path class="st6" d="M184.16,293.23c-0.46-8.55-1.7-26.24,0.23-26.45c9.81-1.08,20.36-2.15,31.49-3.39
			C205.02,273.61,195.07,282.97,184.16,293.23z"/>
		<path class="st6" d="M373.75,311.29c0.58-13.57,1.95-30.04,2.59-45.09c6.6,5.66,12.57,10.95,18.22,15.86
			C395.58,282.94,374.09,311.42,373.75,311.29z"/>
		<path class="st5" d="M185.3,262.54c9.26-7.41,46.05-27.7,55.3-35.12c1.47-1.18-10.34,24.64-15.37,31.31
			C211.71,260.34,185.49,262.83,185.3,262.54z"/>
		<path class="st8" d="M430.11,306.12c15.01,2.75,28.93,5.31,42.85,7.86c0.04,0.3,0.08,0.6,0.12,0.9
			c-10.8,3.7-21.61,7.38-32.41,11.11c-1.93,0.67-2.29-0.78-2.8-1.93C435.42,318.47,433.01,312.85,430.11,306.12z"/>
		<path class="st7" d="M405.16,148.05c0.94-3.57,8.88-24.48,11.4-31.67c0.88-2.51,1.74-3.45,4.5-2.23
			c5.44,2.41,11.03,4.47,17.3,6.97C427.37,130.03,416.25,139.07,405.16,148.05z"/>
		<path class="st9" d="M372.73,357.84c6.82-18.91,14.55-40.71,21.76-60.7c1.69,4.83,2.72,28.25,1.81,29.44
			C389.01,336.17,373.01,357.99,372.73,357.84z"/>
		<path class="st9" d="M350.9,289.87c-6.11-3.42-11.01-6.17-15.92-8.91c-1.37-0.76-1.47-2.2-1.74-3.43
			c-3.31-14.61-6.56-29.23-9.82-43.85C323.81,233.51,341.69,270.01,350.9,289.87z"/>
		<path class="st10" d="M180.05,270.95c0,17.63-0.18,36.77-0.18,55.68c-4.4-10.06-8.36-19.06-12.25-28.09
			c-0.29-0.68-0.32-1.7-0.02-2.36C171.35,288.16,179.75,270.86,180.05,270.95z"/>
		<path class="st8" d="M373.9,266.39c-1.11,14.73-2.21,29.47-3.43,45.6c-4.96-6.26-9.21-11.62-13.46-16.98
			c-0.75-0.94-0.46-1.85,0.08-2.74c5.3-8.72,10.61-17.43,15.92-26.15C373.3,266.22,373.6,266.31,373.9,266.39z"/>
		<path class="st9" d="M288.38,204.29c-15.11,6.23-26.94,11.6-42.03,17.89c-1.34,0.56-11.23-1.79-16.72-4.98
			C227.33,215.87,288.31,204.09,288.38,204.29z"/>
		<path class="st7" d="M410.22,226.85c-5.09-0.81-9-1.44-12.92-2.06c-9.05-1.44-9.02-1.44-9.43-10.82
			c-0.33-7.46-0.74-14.91-0.27-22.83C394.93,202.71,402.26,214.28,410.22,226.85z"/>
		<path class="st11" d="M504.26,330.11c-17.31-1.05-34.63-2.11-52.4-3.19c2.74-2.44,21.37-8.79,23.76-10.19
			C478.77,316.65,504.29,329.86,504.26,330.11z"/>
		<path class="st9" d="M396.38,342.26c-0.54,7.44-1.15,14.88-1.56,22.33c-0.1,1.85-0.89,3.06-2.09,4.28
			c-8.29,8.41-26.73,27.34-27.06,27.1c9.59-17.17,20.46-36.88,30.04-54.05C395.93,342.03,396.16,342.15,396.38,342.26z"/>
		<path class="st6" d="M317.78,198.1c10.34,14.58,19.98,28.18,29.62,41.77c-0.15,0.22-26.44-15.27-28.79-19.84
			C317.71,216.82,317.66,200.22,317.78,198.1z"/>
		<path class="st6" d="M242.59,197.48c-3.78,3.25-7.62,6.44-11.31,9.79c-1.3,1.18-2.27,2.17-4.24,1.22
			c-9.8-4.73-19.65-9.34-29.3-15.03c14.56,0.67,29.11,1.34,43.67,2.01C241.8,196.14,242.19,196.81,242.59,197.48z"/>
		<path class="st9" d="M438.37,127.74c1.22-0.9,2.3-1.97,3.74-0.12c2.82,3.62,5.79,7.12,9.15,11.23
			c-14.28,3.75-30.84,7.69-44.4,11.25C406.74,149.84,428.75,134.81,438.37,127.74z"/>
		<path class="st9" d="M374.94,111.57c-1.52,11.88-2.96,23.17-4.4,34.46c-1.86,0.3-1.76-1.34-2.18-2.22
			c-3.75-7.94-8.63-17.7-12.39-25.64C355.11,116.82,369.25,113.05,374.94,111.57z"/>
		<path class="st7" d="M186.01,352.23c1.36,1.36-7.32,12.96-11.57,18.81c-3.36-13-6.48-25.05-9.59-37.09
			C165.21,333.77,179.43,346.2,186.01,352.23z"/>
		<path class="st12" d="M408.51,288.61c-9.77-16.94-19.32-33.48-28.86-50.02c0.16-0.21,10.22,5.16,15.02,8.16
			c0.77,0.48,1.42,1.45,1.71,2.33C400.56,261.61,408.67,287.64,408.51,288.61z"/>
		<path class="st7" d="M348.99,174.1c5.05,13.32,10.1,26.64,15.16,39.95c-0.29,0.31-0.59,0.61-0.88,0.92
			c-5.16-3.33-10.34-6.63-15.47-10.01c-1.54-1.01-0.9-2.74-0.9-4.16C346.87,192.02,346.68,183.21,348.99,174.1z"/>
		<path class="st9" d="M359.01,426.44c9.48-13.03,19.56-27.84,29.04-40.88c0.3,0.11-6.89,25.73-8.08,31.85
			C379.63,419.12,359.2,426.68,359.01,426.44z"/>
		<path class="st6" d="M330.22,281.34c-7.49,7.04-15.01,14.05-22.45,21.15c-1.59,1.52-2.45,1.01-3.48-0.5
			c-2.14-3.16-4.3-6.3-6.55-9.38c-1.5-2.05-0.81-2.63,1.43-3.24c10.18-2.77,20.31-5.76,30.46-8.66
			C329.83,280.91,330.02,281.12,330.22,281.34z"/>
		<path class="st5" d="M314.96,217.88c-7.44-10.27-14.03-19.36-21.3-29.39c6.94,0.93,12.95,1.35,18.75,2.69
			c2.45,0.57,2.47,3.92,2.51,6.29C315.04,203.78,314.96,210.09,314.96,217.88z"/>
		<path class="st13" d="M278.41,202.44c-15.27,2.68-30.53,5.35-47.3,8.29c5.38-4.98,9.74-9,14.07-13.03
			c0.99-0.92,2.05-0.73,3.25-0.54C258.41,198.73,278.4,202.21,278.41,202.44z"/>
		<path class="st10" d="M391.99,294.01c-5.77,15.9-11.57,32.28-17.34,48.18c-0.28-0.04-1.95-13.94-2.46-20.61
			c-0.06-0.77,0.09-1.73,0.52-2.34C378.8,310.64,391.7,293.85,391.99,294.01z"/>
		<path class="st7" d="M490,332.77c0.85-0.32,14.99,0.14,15.41,3.29c0.86,6.52,3.56,23.16,3.4,30.05
			C502.61,355.1,496.4,344.1,490,332.77z"/>
		<path class="st9" d="M368.65,152.3c0,9.01-0.08,16.79,0.04,24.56c0.04,2.86-0.82,3.52-3.47,2.38c-4.09-1.77-8.27-3.35-12.43-4.98
			c-1.66-0.65-2.55-1.26-0.91-3.06C357.3,165.22,362.6,159.13,368.65,152.3z"/>
		<path class="st11" d="M353.88,289.85c2-11.38,4.06-22.74,5.97-34.13c0.53-3.14,1.59-2.47,3.44-1.03
			c9.01,7.02,9.03,6.99,3.05,16.71c-3.88,6.29-7.77,12.58-11.65,18.86C354.42,290.13,354.15,289.99,353.88,289.85z"/>
		<path class="st12" d="M155.59,208.94c0,11.5,0,22.45,0,33.39c-0.43,0.12-7.24-11.54-10.18-17.5c-4.04-8.22-4.03-8.23,4.13-12.67
			C151.54,211.08,153.56,210.02,155.59,208.94z"/>
		<path class="st9" d="M166.49,329.24c-1.27-1.14-1.44-2.47-1.44-4.01c0.03-7.13,0.01-14.26,0.01-22.28
			c6.62,14.19,12.99,27.83,19.36,41.47C184.16,344.59,172.25,334.42,166.49,329.24z"/>
		<path class="st14" d="M174.48,193.57c-10.68,6.65-20.64,12.85-30.6,19.05c-0.28-0.21,12.35-23.79,16.16-24.55
			C163.69,187.33,173.19,192.94,174.48,193.57z"/>
		<path class="st11" d="M347.47,207.89c4.77,3.29,9.48,6.67,14.34,9.82c2.11,1.37,2.24,2.81,1.57,5.02
			c-1.73,5.7-3.23,11.47-5.18,18.51c-4.15-11.67-7.92-22.26-11.7-32.85C346.83,208.22,347.15,208.06,347.47,207.89z"/>
		<path class="st15" d="M415.6,296.68c-4.45-13.58-8.86-27.03-13.26-40.47c0.36-0.2,13.35,16.33,16.73,20.1
			C419.97,277.84,416.25,296.28,415.6,296.68z"/>
		<path class="st10" d="M361.79,451.24c-1.38-7.43-2.53-13.51-3.62-19.59c-0.33-1.82,1.24-2.07,2.41-2.58
			c5.15-2.22,10.3-4.43,16.75-7.2C372.02,431.9,367.25,440.92,361.79,451.24z"/>
		<path class="st15" d="M314.51,184.78c-3.38-4.04-6.08-7.28-8.79-10.52c-0.58-0.69-0.74-1.36-0.28-2.24
			c4.25-8.19,8.47-16.39,13.32-24.31C317.39,159.66,316.02,171.62,314.51,184.78z"/>
		<path class="st16" d="M182.43,190.93c-1.23,0.6-2.42,1.11-3.78,0.63c-5.24-1.86-10.48-3.74-15.66-6.54
			c13.73-1.83,27.46-3.65,41.18-5.48C204.19,179.86,189.68,187.42,182.43,190.93z"/>
		<path class="st17" d="M297.3,201.6c-12.13-1.74-23.23-3.34-34.34-4.94c-0.03-0.25-0.05-0.5-0.08-0.75
			c8.29-2.17,16.6-4.26,24.85-6.58c1.98-0.56,2.67,0.28,3.46,1.69C293.05,194.32,294.97,197.57,297.3,201.6z"/>
		<path class="st15" d="M390.95,376.23c-9.96,14.34-19.91,28.68-29.87,43.02c1.09-7.03,1.19-14.88,3.99-17.58
			C370.35,396.57,390.46,375.79,390.95,376.23z"/>
		<path class="st18" d="M434.77,325.33c-2.22-2.43-12.52-12.85-14.91-15.1c-1.91-1.8-2.46-3.84-2.03-6.24
			c1.03-5.79,2.14-11.56,3.66-17.43C425.28,295.98,430.69,315.63,434.77,325.33z"/>
		<path class="st19" d="M147.73,264.25c-2.06-13.48-3.9-25.51-5.73-37.54c0.32-0.14,9.08,14.97,13.08,22.69
			c0.72,1.39-0.47,2.53-1.07,3.64C152.21,256.37,150.32,259.64,147.73,264.25z"/>
		<path class="st20" d="M383.94,218.84c-3.75-12.15-7.37-23.85-10.95-35.43c0.47-0.34,10.02,2.39,10.27,3.98
			C383.37,195.33,383.94,210.2,383.94,218.84z"/>
		<path class="st15" d="M370.68,382.06c0.37-8.05,0.27-15.88,1.8-17.58c6.12-6.8,15.49-19.91,21.35-26.41
			C386.11,352.73,378.39,367.4,370.68,382.06z"/>
		<path class="st8" d="M231.49,191.51c-14.46,0-27.4,0-40.34,0c-0.06-0.21,11.38-5.97,17.21-8.54c0.82-0.36,2.05-0.42,2.86-0.08
			C217.57,185.5,223.86,188.24,231.49,191.51z"/>
		<path class="st16" d="M310.03,243.67c-2.99-11.58-5.98-23.17-8.97-34.75c0.23-0.14,8.68,8.82,12.74,13.37
			c1.11,1.24,0.58,2.44,0.32,3.72c-1.15,5.84-2.28,11.69-3.41,17.54C310.48,243.59,310.26,243.63,310.03,243.67z"/>
		<path class="st17" d="M185.11,378.97c-0.22,1.37-11.6,6.66-16.84,8.28c6.39-9.47,12.77-18.94,19.16-28.42
			C187.72,358.93,186.17,372.36,185.11,378.97z"/>
		<path class="st21" d="M158.86,281.25c-2.72,3.57-11.69,14.99-18.94,22.79c-0.23-0.13,6.01-21.17,8.85-28.7
			C149.35,273.8,158.71,280.79,158.86,281.25z"/>
		<path class="st15" d="M379.63,475.64c-4.39-5.67-9.59-12-13.98-17.67c-1.01-1.3,12.96-6.57,13.21-5.68
			C379.97,456.17,379.91,475.5,379.63,475.64z"/>
		<path class="st16" d="M363.09,454.62c4.96-9.58,10.84-21.94,15.13-30.23c0.28,0.05,0.9,24.36-0.57,24.89
			C373.52,450.78,368.39,452.57,363.09,454.62z"/>
		<path class="st17" d="M380.85,220.95c-4.2-1.06-13.4-4.11-13.89-5.44c-2.73-7.4-5.14-15.81-7.89-23.21
			C359.34,192.13,380.03,219.62,380.85,220.95z"/>
		<path class="st13" d="M182.17,384.82c-5.01,7.96-10.02,15.92-15.71,24.95c-0.92-5.35-1.64-9.6-2.39-13.84
			C163.83,394.55,181.92,384.55,182.17,384.82z"/>
		<path class="st18" d="M410.33,483.59c-0.7-0.34-8.32-9.28-7.43-10.51c2.99-2.34,14.2-11.26,18.36-14.49
			C417.28,467.7,413.83,475.58,410.33,483.59z"/>
		<path class="st22" d="M434.54,431.08c0.99,1.49,0.24,2.33-0.74,3.36c-2.61,2.75-5.14,5.57-8.75,9.51
			c-0.47-10.33-0.86-19.01-1.25-27.69C424.09,416.15,431.21,426.06,434.54,431.08z"/>
		<path class="st16" d="M294.04,449.89c-1.88,5.76-3.75,11.53-5.66,17.28c-0.31,0.95-0.86,1.66-1.91,2.1
			c-4.67,1.97-9.29,4.06-14.72,5.21c7.2-8.32,14.39-16.64,21.59-24.96C293.58,449.65,293.81,449.77,294.04,449.89z"/>
		<path class="st23" d="M363.69,193.23c-1.27-1.51-1.01-2.56,0.15-3.85c1.88-2.09,3.67-4.26,6.08-7.08
			c3.28,10.44,6.34,20.21,9.42,30.02C374.13,205.95,368.98,199.53,363.69,193.23z"/>
		<path class="st24" d="M155.52,430.2c8.04,0,17.46,0.28,26.38,0.28c-3.27,3.39-6.26,6.36-9.1,9.46c-1.27,1.39-2.27,0.77-3.43,0.01
			C165.1,437.15,155.41,430.56,155.52,430.2z"/>
		<path class="st25" d="M371.2,155.86c3.78,8.2,8.28,19.12,12.13,27.45c-0.93,0.19-12.32-3-12.45-4.4
			C370.84,175.04,370.94,155.93,371.2,155.86z"/>
		<path class="st15" d="M196.69,239.11c6.57-3.99,12.74-7.73,19.89-12.07c-2,4.24-3.53,7.44-5,10.67c-0.43,0.95-1.09,1.39-2.01,1.39
			C205.47,239.11,201.38,239.11,196.69,239.11z"/>
		<path class="st15" d="M165.54,273.88c0.22-0.61,18.64-28.34,18.64-28.34s-2.04,12.26-2.81,14.21
			C180.88,261,165.86,274,165.54,273.88z"/>
		<path class="st18" d="M314.46,188.42c-7.68-0.68-14.37-1.27-22.08-1.96c3.4-4.01,6.42-7.56,9.42-11.13
			c1.1-1.31,1.88-0.79,2.73,0.31C307.63,179.68,310.77,183.69,314.46,188.42z"/>
		<path class="st17" d="M508.39,372.74c0.71,1.21-0.04,2.2-0.59,3.23c-2.8,5.25-5.58,10.52-9.43,15.64
			c0.86-9.77,1.68-21.27,2.53-31.04C501.22,360.45,506.25,369.13,508.39,372.74z"/>
		<path class="st16" d="M295.11,420.47c-9.68-6.79-19.36-13.59-29.26-20.54c7.64-1.69,12.92-0.02,17.51,5.37
			c4.08,4.79,8.13,9.6,12.2,14.4C295.41,419.95,295.26,420.21,295.11,420.47z"/>
		<path class="st26" d="M431.04,464.24c-2.63-5.27-7.39-14.35-6.67-15.2c3.21-3.76,7.28-8.57,10.48-12.34
			C435.4,437.25,433.07,454.63,431.04,464.24z"/>
		<path class="st16" d="M161.55,401.23c1.49,6.93,4.12,17.87,5.14,25.15c0.12,0.88-11.68,0.64-11.68-0.13
			C156.28,421.14,161.29,401.15,161.55,401.23z"/>
		<path class="st27" d="M199.33,178.25c-11.04,1.42-22.07,2.84-34.57,4.45c6.15-4.8,10.35-9.84,18.28-7.74
			C188.32,176.37,199.35,177.92,199.33,178.25z"/>
		<path class="st17" d="M238.94,224.74c-8.08,2.52-14.33,6.09-22.34,8.58c2.72-4.32,4.87-7.64,6.89-11.02
			c0.91-1.52,1.87-1.68,3.49-1.01C230.75,222.84,233.89,222.81,238.94,224.74z"/>
		<path class="st17" d="M205.87,242.69c-6.87,4.74-12.78,8.83-19.59,13.53c1.29-4.78,2.83-9.55,3.74-13.27
			C190.42,241.28,200.54,242.45,205.87,242.69z"/>
		<path class="st28" d="M427.8,376.17c-0.94,4.01-2.39,13.37-3.25,13.51c-4.78-2.13-11.52-5.07-15.27-6.74
			C416.03,380.47,421.79,378.37,427.8,376.17z"/>
		<path class="st29" d="M402.66,358.7c5.95,6.5,10.95,11.97,15.89,17.38c-0.31,0.53-9.14,4.49-9.82,3.21
			C407.77,375.62,404,363.91,402.66,358.7z"/>
		<path class="st30" d="M148.77,299.62c0,9.23,0,17.16,0,26.02c-3.07-5.95-5.83-11.38-8.69-16.77c-0.81-1.52,0.27-2.1,1.1-2.82
			C143.28,304.22,145.42,302.45,148.77,299.62z"/>
		<path class="st30" d="M140.48,379.63c0,6.09-0.34,15.4-0.34,21.24c-2.02-3.92-3.84-7.51-5.73-11.06
			C134.33,388.3,139.31,381.31,140.48,379.63z"/>
		<path class="st24" d="M415.39,478.8c2.9-7.4,5.79-14.79,9.07-23.17c1.66,3.91,2.96,6.9,4.2,9.9c0.49,1.18,0.27,2.21-0.73,3.13
			C424.06,472.23,415.72,479.01,415.39,478.8z"/>
		<path class="st24" d="M406.38,485.06c-6.38-1.5-12.77-3-20.2-4.75c3.25-2.83,9.81-8.63,10.64-7.66
			C399.92,476.27,406.55,484.77,406.38,485.06z"/>
		<path class="st31" d="M383.49,457.45c3.17,4.04,6.04,7.79,9.02,11.46c1.03,1.27,1.16,2.12-0.3,3.13
			c-2.69,1.87-5.28,3.86-8.72,6.39C383.49,471.16,383.49,464.68,383.49,457.45z"/>
		<path class="st13" d="M325.67,205.5c-8.45-12.48-8.47-15.06,0-27.48C325.67,187.45,325.67,196.22,325.67,205.5z"/>
		<path class="st25" d="M496.54,385.56c0,2.96-0.05,4.92,0.01,6.87c0.07,2.36-0.92,3.45-3.34,4c-5.95,1.33-11.81,3.04-18.11,3.91
			C481.97,395.6,488.85,390.87,496.54,385.56z"/>
		<path class="st16" d="M315.8,148.78c-0.48,1.17-10.85,19.4-12.64,21.32c-1.52,1.63-6.83-1.7-11.95-3.31
			C291.2,166.78,315.28,148.91,315.8,148.78z"/>
		<path class="st32" d="M410.68,363.25c-4.51-4.56-8.07-8.44-7.07-15c0.94-6.18,0.88-12.51,1.93-18.85
			C407.21,340.44,408.89,351.48,410.68,363.25z"/>
		<path class="st26" d="M199.71,429.76c-7.95,3.84-16.22,8.44-23.06,11.74c-0.25-0.34,13.05-13.91,15.7-16.34
			C192.66,424.88,196.39,427.25,199.71,429.76z"/>
		<path class="st33" d="M140.93,315.73c3.87,6.75,6.32,10.14,6.35,12.67c0.05,3.29-4.15,5.81-9.06,13.91
			C139.63,334.01,140.52,323.67,140.93,315.73z"/>
		<path class="st33" d="M134.12,360.5c8.92,15.56,8.67,9.65,0,23.96C134.12,376,134.12,368.48,134.12,360.5z"/>
		<path class="st30" d="M138.22,331.33c-1.35,7.08-3.24,15.63-4.57,22.67c-0.72-0.04-1.13,0.07-1.3-0.09
			c-6.23-5.69-6.23-5.7-1.49-12.83C132.8,338.16,137.9,331.17,138.22,331.33z"/>
		<path class="st20" d="M435.08,427.03c-5.39-7.56-10.77-15.13-16.52-23.2c3.07,0.52,10.47,2.69,10.86,4.23
			C430.43,412.47,435.38,426.88,435.08,427.03z"/>
		<path class="st34" d="M137.84,319.59c-4.92-6.53-9.74-11.19-13.98-16.81c5.68-0.43,12.07,0.59,12.07,0.59
			S137.37,310.98,137.84,319.59z"/>
		<path class="st35" d="M249.18,464.8c-1.29-4.66-2.24-8.27-3.3-11.85c-0.42-1.43,0.19-2.17,1.37-2.69
			c3.23-1.41,6.46-2.82,10.75-4.69C254.89,452.36,252.28,458.06,249.18,464.8z"/>
		<path class="st20" d="M451.53,393.8c8.55,1.14,16.11,2.15,24.15,3.23C466.62,404.07,464.69,403.82,451.53,393.8z"/>
		<path class="st30" d="M156.14,256.31c0.94,6.26,1.84,14.4,2.38,21.02c-2.89-1.91-6.59-4.7-9.11-6.98
			c-1.03-0.93-1.12-1.79-0.34-2.98C151.02,264.36,155.79,256.2,156.14,256.31z"/>
		<path class="st25" d="M247.6,466.77c6.67,1.71,13.35,3.41,20.23,5.17c-6.23,6.24-7.63,6.35-13.86,1.39
			c-2.3-1.83-4.58-3.67-6.88-5.5C247.26,467.48,247.43,467.13,247.6,466.77z"/>
		<path class="st36" d="M297.87,450.94c-1.7-8.98-3.4-17.97-5.14-27.18c6.23,2.67,6.52,3.23,6.43,9.42
			c-0.09,5.79-0.02,11.58-0.02,17.37C298.72,450.68,298.29,450.81,297.87,450.94z"/>
		<path class="st27" d="M412.78,426.77c2.56,7.74,4.72,14.29,7.04,21.33C408.73,439.38,408.5,438.73,412.78,426.77z"/>
		<path class="st37" d="M420.41,368.1c-2.06-5.48-6.44-17.42-8.62-22.85c-0.36-0.79,3.21-2.14,5.04-2.81
			C417.06,342.91,420.73,368,420.41,368.1z"/>
		<path class="st38" d="M96.53,333.17c-12.71-9.85-11.32-5.64-5.72-19.02c1.09,3.68,1.89,6.4,2.71,9.11
			C94.42,326.25,95.33,329.23,96.53,333.17z"/>
		<path class="st39" d="M430.9,370.45c7.71,10.6,7.58,7.53-2.47,18.9C429.3,382.72,430.05,376.95,430.9,370.45z"/>
		<path class="st40" d="M408.19,434.73c-1.96-5.83-1.61-11.01-1.69-16.01c-0.06-3.78,4.22-1.86,6.91-2.98
			C411.75,421.77,410.09,427.79,408.19,434.73z"/>
		<path class="st41" d="M111.99,299.07c-6.22,0-12.44,0-18.53,0c1.88-1.85,3.39-4.91,6.93-5.66
			C100.4,293.41,108.32,296.45,111.99,299.07z"/>
		<path class="st42" d="M177.81,195.45c3.51-1.44,6.74-3.4,9.39-2.88c4.19,0.81,8.79,6.15,11.83,8.94
			C191.2,199.56,184.42,197.08,177.81,195.45z"/>
		<path class="st43" d="M416.17,338.53c1.62,2.78-1.09,2.4-2.3,3.04c-1.51,0.8-3,1.65-3.46-1.19c-0.8-4.87-1.8-9.71-2.72-14.57
			C407.96,325.69,413.63,334.16,416.17,338.53z"/>
		<path class="st44" d="M203.07,440.78c0.7,5.81,2.49,10.61,3.19,16.43c-0.22,0.11-6.12-9.38-8.35-13.16
			C197.03,442.56,202.94,440.1,203.07,440.78z"/>
		<path class="st45" d="M221.2,447.84c0.09,0.47-5.31,0.62-5.45,0.09c-0.81-3.17-2.21-17.94-2.21-22.83
			C214.05,425.04,220.28,442.8,221.2,447.84z"/>
		<path class="st42" d="M198.45,196.83c6.91,3.26,15.31,6.92,21.35,9.77c-4.43,0-10.3,0.09-12.19-0.63
			C206.4,205.52,202.22,201.9,198.45,196.83z"/>
		<path class="st46" d="M259.34,449.19c4.55-1.8,7.51-1.81,9.23,2.79c1.13,3,2.82,5.79,3.45,9.28
			C267.94,457.38,263.85,453.49,259.34,449.19z"/>
		<path class="st47" d="M126.82,351.74c9.44,4.38,5.54,11.95,5.28,18.49C130.42,364.34,128.74,358.45,126.82,351.74z"/>
		<path class="st48" d="M425.5,360.57c3.74-4.26,10.47-10.81,14.54-15c-0.76,5.9-1.86,13.3-1.95,14.49
			C438.05,360.66,429.16,360.4,425.5,360.57z"/>
		<path class="st49" d="M416.3,404.33c0.96,1.46,1.68,2.72,2.56,3.86c1.71,2.2,0.6,3.07-1.52,3.71c-3.29,0.98-6.55,2.06-10.56,3.33
			c0.68-1.05,0.91-1.54,1.26-1.92C410.7,410.39,413.39,407.49,416.3,404.33z"/>
		<path class="st36" d="M120.1,394c2.82,4.18,5.63,8.35,8.55,12.67c-4.72,1.85-5.94,2.36-6.39,1.5
			C121,405.74,119.86,394.11,120.1,394z"/>
		<path class="st50" d="M212.07,432.69c-4.92-2.42-12.18-5.68-16.98-8.04c6.26-0.77,13.91-0.57,15.81-0.43
			C211.91,424.3,212.2,430.46,212.07,432.69z"/>
		<path class="st51" d="M221.07,449.33c-1.35,2.17-12.72,8.64-12.94,7.96c-0.75-2.39-0.96-5.27-1.66-7.57
			C209.8,449.5,215.58,449.67,221.07,449.33z"/>
		<path class="st52" d="M86.45,315.29c0.7-2.69,1.56-5.34,2.05-8.06c0.8-4.46,3.17-6.08,8.08-4.51c-3.25,4.41-6.39,8.66-9.52,12.91
			C86.86,315.52,86.66,315.41,86.45,315.29z"/>
		<path class="st42" d="M111.73,292.14c1.66,1.4,3.48,3.96,5.74,6.45c-4.91-1.79-9.32-4.28-13.66-5.87
			C103.82,292.71,110.78,291.33,111.73,292.14z"/>
		<path class="st53" d="M459.76,392.98c-5.2-0.14-10.43,0.26-10.48-1.65c-0.04-1.57-0.38-3.4-0.35-7.17
			C452.96,386.65,456.26,389.61,459.76,392.98z"/>
		<path class="st42" d="M230.36,212.03c-2.48,1.39-6.74,3.86-8.35,3.43c-2.21-0.58-4.97-3.46-8.85-6.64
			C215.8,209.08,227.05,211.44,230.36,212.03z"/>
		<path class="st54" d="M205.84,444.48c-0.34-1.36-0.36-0.86-0.94-4.72c0.68-0.64,3.7-2.64,4.38-2.17
			C209.7,437.87,206.56,443.16,205.84,444.48z"/>
		<path class="st55" d="M402.61,437.17c0.59,4.05,1.18,8.11,1.79,12.16c0.2,1.33,0.68,2.8-1.55,2.63c-1.7-0.13-3.4-0.31-2.95-2.81
			c0.73-4.03,1.39-8.07,2.07-12.1C402.19,437.08,402.4,437.12,402.61,437.17z"/>
		<path class="st42" d="M131.55,299.69c-3.44,0.35-9.13,0.33-10.18-0.08c-0.97-0.38-3.45-3.48-5.21-6.71
			C121.63,295.31,126.59,297.5,131.55,299.69z"/>
		<path class="st56" d="M451.03,340.18c-0.04,0.51-7.36,8.04-9.7,10.34c0.18-4.06,0.26-9.28,0.85-9.28L451.03,340.18z"/>
		<path class="st57" d="M400.16,454.32c3.98,0,6.43-0.03,8.88,0.01c1.11,0.02,2.56-0.18,2.65,1.47c0.07,1.29,0.21,2.96-0.48,3.83
			c-1.11,1.39-2.38-0.19-3.43-0.75C405.61,457.73,403.56,456.38,400.16,454.32z"/>
		<path class="st58" d="M106.2,393.58c3.69-0.68,11.17-2.59,11.51-1.74c0.57,1.42,0.82,4.03,0.11,5.27
			c-0.61,1.07-2.32-0.11-3.49-0.54C112.05,395.74,109.77,394.9,106.2,393.58z"/>
		<path class="st59" d="M415.83,458.17c-1.54-4.94-2.84-9.11-4.35-13.96C420,451.65,420,451.65,415.83,458.17z"/>
		<path class="st60" d="M123.9,409.75c4.02-0.97,6.74-1.68,9.48-2.27c1.02-0.22,2.42-1.02,2.91,0.68c0.35,1.2,1.43,2.55,0.48,3.71
			c-0.82,1-2.2,0.3-3.29,0.07C130.74,411.39,128.02,410.7,123.9,409.75z"/>
		<path class="st60" d="M108.48,300.62c7.34-0.75,12.65-0.12,15.55,6.88C119.05,305.3,114.46,303.27,108.48,300.62z"/>
		<path class="st61" d="M262.37,455.66c1.7,1.33,3.05,2.26,4.23,3.37c1.04,0.97,3.34,1.59,2.84,2.99c-0.62,1.72-3.07,1.7-4.76,1.95
			c-2.44,0.37-1.5-2.03-1.96-3.22C262.17,459.38,261.73,457.92,262.37,455.66z"/>
		<path class="st62" d="M421.16,362.01c3.32-0.09,11.57,0.26,17.11,0.26c-3.83,1.37-13.07,4.91-16.06,5.98
			C421.41,366.14,421.41,364.48,421.16,362.01z"/>
		<path class="st63" d="M89.16,342.04c1.42-3.82,2.38-6.4,3.43-9.23c2.12,0.98,4.91,2.81,4.54,4.02
			C96.24,339.73,92.69,340.05,89.16,342.04z"/>
		<path class="st64" d="M289.94,171.44c1.34,2.3,4.21,6.86,5.23,8.49c-0.06,1.26-4.21,4.89-4.34,4.47
			C290.14,182.17,290.33,175.14,289.94,171.44z"/>
		<path class="st65" d="M209.18,436.21c-0.59,0.38-11.37,5.26-11.77,5.12c0.43-1.19,2.66-6.87,2.94-7.19
			C200.86,433.54,207.54,434.13,209.18,436.21z"/>
		<path class="st66" d="M458.42,340.76c-2.2,2.24-7.56,4.32-8.84,4.66c0.53-1.24,3.32-4.81,4.26-6.04
			C454.95,337.91,457.36,340.24,458.42,340.76z"/>
		<path class="st67" d="M109.78,402.82c-1.82-2.53-3.37-4.68-5.16-7.17C109.54,395.82,111.19,397.88,109.78,402.82z"/>
		<path class="st67" d="M139.15,408.18c-1.82-2.53-3.37-4.68-5.16-7.17C138.9,401.18,140.56,403.24,139.15,408.18z"/>
		<path class="st5" d="M152.22,297.42c-0.6,1.5-1.87,25.7-1.7,25.87c0.17,0.17,16.51-33.7,16.51-33.7S152.56,296.57,152.22,297.42z"
			/>
		<polygon class="st6" points="176.65,268.4 168.52,286.61 153.71,293.76 		"/>
		<polygon class="st15" points="398.14,363.76 405.46,379.93 395.07,373.59 		"/>
		<path class="st6" d="M354.32,342.14l-7.32-22c0,0-11.84,10.17-13.12,10.68C332.6,331.33,354.32,342.14,354.32,342.14z"/>
		<path class="st10" d="M340.02,286.22l-8.43-3.57c0,0-6.34,22.95-5.49,22.21C327.09,304.01,340.02,286.22,340.02,286.22z"/>
		<path class="st10" d="M343.6,288.78l-10.55,40.21c0,0,9.55-8.71,10.72-10.04C344.94,317.62,343.6,288.78,343.6,288.78z"/>
		<path class="st6" d="M341.68,287.76l-14.98,20.21c0,0,3.23,17.87,3.87,15.79C332.36,317.93,341.68,287.76,341.68,287.76z"/>
		<polygon class="st68" points="354.69,178.35 364.86,181.5 357.71,188.05 		"/>
		<polygon class="st68" points="292.37,169.97 299.71,173.23 296.22,177.42 		"/>
	</g>
	<path class="st10" d="M368.87,332.18c0.7-0.79,0.97,17.61,1.69,17.98s-9.8-4.17-10.24-4.45
		C359.87,345.44,367.77,333.43,368.87,332.18z"/>
	<polygon class="st10" points="350.57,321.33 366.83,330.27 357.38,343.67 	"/>
</g>
<g id="arm" class="st0">
</g>
</svg>
