<?xml version="1.0" encoding="UTF-8" standalone="no"?>
<!-- Created with Inkscape (http://www.inkscape.org/) -->

<svg
   version="1.1"
   id="svg2"
   viewBox="0 0 1090.3651 1013.7092"
   sodipodi:docname="YouTube Icon.svg"
   inkscape:version="1.2.2 (1:1.2.2+202212051551+b0a8486541)"
   inkscape:export-xdpi="50.815739"
   inkscape:export-ydpi="50.815739"
   inkscape:export-filename="../../../../../Detroit CwF YouTube Icon.png"
   xmlns:inkscape="http://www.inkscape.org/namespaces/inkscape"
   xmlns:sodipodi="http://sodipodi.sourceforge.net/DTD/sodipodi-0.dtd"
   xmlns="http://www.w3.org/2000/svg"
   xmlns:svg="http://www.w3.org/2000/svg">
  <defs
     id="defs6">
    <clipPath
       clipPathUnits="userSpaceOnUse"
       id="clipPath4354">
      <path
         d="m 0,21190 v 8810 h 9210 v -8810 z"
         id="path4352" />
    </clipPath>
    <clipPath
       clipPathUnits="userSpaceOnUse"
       id="clipPath4366">
      <path
         d="m 9180,21190 v 8810 h 9350 v -8810 z"
         id="path4364" />
    </clipPath>
    <clipPath
       clipPathUnits="userSpaceOnUse"
       id="clipPath4378">
      <path
         d="m 18500,21190 v 8810 h 9360 v -8810 z"
         id="path4376" />
    </clipPath>
    <clipPath
       clipPathUnits="userSpaceOnUse"
       id="clipPath4390">
      <path
         d="m 27830,21190 v 8810 h 9350 v -8810 z"
         id="path4388" />
    </clipPath>
    <clipPath
       clipPathUnits="userSpaceOnUse"
       id="clipPath4402">
      <path
         d="m 37150,21190 v 8810 h 9350 v -8810 z"
         id="path4400" />
    </clipPath>
    <clipPath
       clipPathUnits="userSpaceOnUse"
       id="clipPath4414">
      <path
         d="m 46470,6830 v 23170 h 3530 V 6830 Z"
         id="path4412" />
    </clipPath>
    <clipPath
       clipPathUnits="userSpaceOnUse"
       id="clipPath4426">
      <path
         d="m 0,12210 v 9010 h 9210 v -9010 z"
         id="path4424" />
    </clipPath>
    <clipPath
       clipPathUnits="userSpaceOnUse"
       id="clipPath4438">
      <path
         d="m 9180,12210 h 9350 v 9010 H 9180 Z"
         id="path4436" />
    </clipPath>
    <clipPath
       clipPathUnits="userSpaceOnUse"
       id="clipPath4450">
      <path
         d="m 18500,12210 h 9360 v 9010 h -9360 z"
         id="path4448" />
    </clipPath>
    <clipPath
       clipPathUnits="userSpaceOnUse"
       id="clipPath4462">
      <path
         d="m 27830,12210 h 9350 v 9010 h -9350 z"
         id="path4460" />
    </clipPath>
    <clipPath
       clipPathUnits="userSpaceOnUse"
       id="clipPath4474">
      <path
         d="m 37150,12210 h 9350 v 9010 h -9350 z"
         id="path4472" />
    </clipPath>
    <clipPath
       clipPathUnits="userSpaceOnUse"
       id="clipPath4486">
      <path
         d="m 0,3240 v 9000 H 9210 V 3240 Z"
         id="path4484" />
    </clipPath>
    <clipPath
       clipPathUnits="userSpaceOnUse"
       id="clipPath4498">
      <path
         d="m 9180,3240 h 9350 v 9000 H 9180 Z"
         id="path4496" />
    </clipPath>
    <clipPath
       clipPathUnits="userSpaceOnUse"
       id="clipPath4510">
      <path
         d="m 18500,3240 h 9360 v 9000 h -9360 z"
         id="path4508" />
    </clipPath>
    <clipPath
       clipPathUnits="userSpaceOnUse"
       id="clipPath4522">
      <path
         d="m 27830,3240 h 9350 v 9000 h -9350 z"
         id="path4520" />
    </clipPath>
    <clipPath
       clipPathUnits="userSpaceOnUse"
       id="clipPath4534">
      <path
         d="m 37150,3240 h 9350 v 9000 h -9350 z"
         id="path4532" />
    </clipPath>
    <clipPath
       clipPathUnits="userSpaceOnUse"
       id="clipPath4546">
      <path
         d="m 46470,0 v 6860 h 3530 V 0 Z"
         id="path4544" />
    </clipPath>
    <clipPath
       clipPathUnits="userSpaceOnUse"
       id="clipPath4558">
      <path
         d="M 0,3270 H 23200 V 0 H 0 Z"
         id="path4556" />
    </clipPath>
    <clipPath
       clipPathUnits="userSpaceOnUse"
       id="clipPath4570">
      <path
         d="M 23170,0 V 3270 H 46500 V 0 Z"
         id="path4568" />
    </clipPath>
    <clipPath
       clipPathUnits="userSpaceOnUse"
       id="clipPath4354-3">
      <path
         d="m 0,21190 v 8810 h 9210 v -8810 z"
         id="path4352-6" />
    </clipPath>
    <clipPath
       clipPathUnits="userSpaceOnUse"
       id="clipPath4366-7">
      <path
         d="m 9180,21190 v 8810 h 9350 v -8810 z"
         id="path4364-5" />
    </clipPath>
    <clipPath
       clipPathUnits="userSpaceOnUse"
       id="clipPath4378-3">
      <path
         d="m 18500,21190 v 8810 h 9360 v -8810 z"
         id="path4376-5" />
    </clipPath>
    <clipPath
       clipPathUnits="userSpaceOnUse"
       id="clipPath4390-6">
      <path
         d="m 27830,21190 v 8810 h 9350 v -8810 z"
         id="path4388-2" />
    </clipPath>
    <clipPath
       clipPathUnits="userSpaceOnUse"
       id="clipPath4402-9">
      <path
         d="m 37150,21190 v 8810 h 9350 v -8810 z"
         id="path4400-1" />
    </clipPath>
    <clipPath
       clipPathUnits="userSpaceOnUse"
       id="clipPath4414-2">
      <path
         d="m 46470,6830 v 23170 h 3530 V 6830 Z"
         id="path4412-7" />
    </clipPath>
    <clipPath
       clipPathUnits="userSpaceOnUse"
       id="clipPath4426-0">
      <path
         d="m 0,12210 v 9010 h 9210 v -9010 z"
         id="path4424-9" />
    </clipPath>
    <clipPath
       clipPathUnits="userSpaceOnUse"
       id="clipPath4438-3">
      <path
         d="m 9180,12210 h 9350 v 9010 H 9180 Z"
         id="path4436-6" />
    </clipPath>
    <clipPath
       clipPathUnits="userSpaceOnUse"
       id="clipPath4450-0">
      <path
         d="m 18500,12210 h 9360 v 9010 h -9360 z"
         id="path4448-6" />
    </clipPath>
    <clipPath
       clipPathUnits="userSpaceOnUse"
       id="clipPath4462-2">
      <path
         d="m 27830,12210 h 9350 v 9010 h -9350 z"
         id="path4460-6" />
    </clipPath>
    <clipPath
       clipPathUnits="userSpaceOnUse"
       id="clipPath4474-1">
      <path
         d="m 37150,12210 h 9350 v 9010 h -9350 z"
         id="path4472-8" />
    </clipPath>
    <clipPath
       clipPathUnits="userSpaceOnUse"
       id="clipPath4486-7">
      <path
         d="m 0,3240 v 9000 H 9210 V 3240 Z"
         id="path4484-9" />
    </clipPath>
    <clipPath
       clipPathUnits="userSpaceOnUse"
       id="clipPath4498-2">
      <path
         d="m 9180,3240 h 9350 v 9000 H 9180 Z"
         id="path4496-0" />
    </clipPath>
    <clipPath
       clipPathUnits="userSpaceOnUse"
       id="clipPath4510-2">
      <path
         d="m 18500,3240 h 9360 v 9000 h -9360 z"
         id="path4508-3" />
    </clipPath>
    <clipPath
       clipPathUnits="userSpaceOnUse"
       id="clipPath4522-7">
      <path
         d="m 27830,3240 h 9350 v 9000 h -9350 z"
         id="path4520-5" />
    </clipPath>
    <clipPath
       clipPathUnits="userSpaceOnUse"
       id="clipPath4534-9">
      <path
         d="m 37150,3240 h 9350 v 9000 h -9350 z"
         id="path4532-2" />
    </clipPath>
    <clipPath
       clipPathUnits="userSpaceOnUse"
       id="clipPath4546-2">
      <path
         d="m 46470,0 v 6860 h 3530 V 0 Z"
         id="path4544-8" />
    </clipPath>
    <clipPath
       clipPathUnits="userSpaceOnUse"
       id="clipPath4558-9">
      <path
         d="M 0,3270 H 23200 V 0 H 0 Z"
         id="path4556-7" />
    </clipPath>
    <clipPath
       clipPathUnits="userSpaceOnUse"
       id="clipPath4570-3">
      <path
         d="M 23170,0 V 3270 H 46500 V 0 Z"
         id="path4568-6" />
    </clipPath>
    <clipPath
       clipPathUnits="userSpaceOnUse"
       id="clipPath4354-8">
      <path
         d="m 0,21190 v 8810 h 9210 v -8810 z"
         id="path4352-4" />
    </clipPath>
    <clipPath
       clipPathUnits="userSpaceOnUse"
       id="clipPath4366-8">
      <path
         d="m 9180,21190 v 8810 h 9350 v -8810 z"
         id="path4364-1" />
    </clipPath>
    <clipPath
       clipPathUnits="userSpaceOnUse"
       id="clipPath4378-0">
      <path
         d="m 18500,21190 v 8810 h 9360 v -8810 z"
         id="path4376-3" />
    </clipPath>
    <clipPath
       clipPathUnits="userSpaceOnUse"
       id="clipPath4390-0">
      <path
         d="m 27830,21190 v 8810 h 9350 v -8810 z"
         id="path4388-4" />
    </clipPath>
    <clipPath
       clipPathUnits="userSpaceOnUse"
       id="clipPath4402-4">
      <path
         d="m 37150,21190 v 8810 h 9350 v -8810 z"
         id="path4400-4" />
    </clipPath>
    <clipPath
       clipPathUnits="userSpaceOnUse"
       id="clipPath4414-4">
      <path
         d="m 46470,6830 v 23170 h 3530 V 6830 Z"
         id="path4412-76" />
    </clipPath>
    <clipPath
       clipPathUnits="userSpaceOnUse"
       id="clipPath4426-3">
      <path
         d="m 0,12210 v 9010 h 9210 v -9010 z"
         id="path4424-1" />
    </clipPath>
    <clipPath
       clipPathUnits="userSpaceOnUse"
       id="clipPath4438-7">
      <path
         d="m 9180,12210 h 9350 v 9010 H 9180 Z"
         id="path4436-5" />
    </clipPath>
    <clipPath
       clipPathUnits="userSpaceOnUse"
       id="clipPath4450-9">
      <path
         d="m 18500,12210 h 9360 v 9010 h -9360 z"
         id="path4448-62" />
    </clipPath>
    <clipPath
       clipPathUnits="userSpaceOnUse"
       id="clipPath4462-1">
      <path
         d="m 27830,12210 h 9350 v 9010 h -9350 z"
         id="path4460-7" />
    </clipPath>
    <clipPath
       clipPathUnits="userSpaceOnUse"
       id="clipPath4474-8">
      <path
         d="m 37150,12210 h 9350 v 9010 h -9350 z"
         id="path4472-5" />
    </clipPath>
    <clipPath
       clipPathUnits="userSpaceOnUse"
       id="clipPath4486-74">
      <path
         d="m 0,3240 v 9000 H 9210 V 3240 Z"
         id="path4484-1" />
    </clipPath>
    <clipPath
       clipPathUnits="userSpaceOnUse"
       id="clipPath4498-8">
      <path
         d="m 9180,3240 h 9350 v 9000 H 9180 Z"
         id="path4496-5" />
    </clipPath>
    <clipPath
       clipPathUnits="userSpaceOnUse"
       id="clipPath4510-9">
      <path
         d="m 18500,3240 h 9360 v 9000 h -9360 z"
         id="path4508-7" />
    </clipPath>
    <clipPath
       clipPathUnits="userSpaceOnUse"
       id="clipPath4522-5">
      <path
         d="m 27830,3240 h 9350 v 9000 h -9350 z"
         id="path4520-3" />
    </clipPath>
    <clipPath
       clipPathUnits="userSpaceOnUse"
       id="clipPath4534-8">
      <path
         d="m 37150,3240 h 9350 v 9000 h -9350 z"
         id="path4532-8" />
    </clipPath>
    <clipPath
       clipPathUnits="userSpaceOnUse"
       id="clipPath4546-3">
      <path
         d="m 46470,0 v 6860 h 3530 V 0 Z"
         id="path4544-1" />
    </clipPath>
    <clipPath
       clipPathUnits="userSpaceOnUse"
       id="clipPath4558-8">
      <path
         d="M 0,3270 H 23200 V 0 H 0 Z"
         id="path4556-9" />
    </clipPath>
    <clipPath
       clipPathUnits="userSpaceOnUse"
       id="clipPath4570-6">
      <path
         d="M 23170,0 V 3270 H 46500 V 0 Z"
         id="path4568-4" />
    </clipPath>
    <clipPath
       clipPathUnits="userSpaceOnUse"
       id="clipPath4354-0">
      <path
         d="m 0,21190 v 8810 h 9210 v -8810 z"
         id="path4352-3" />
    </clipPath>
    <clipPath
       clipPathUnits="userSpaceOnUse"
       id="clipPath4366-4">
      <path
         d="m 9180,21190 v 8810 h 9350 v -8810 z"
         id="path4364-0" />
    </clipPath>
    <clipPath
       clipPathUnits="userSpaceOnUse"
       id="clipPath4378-39">
      <path
         d="m 18500,21190 v 8810 h 9360 v -8810 z"
         id="path4376-1" />
    </clipPath>
    <clipPath
       clipPathUnits="userSpaceOnUse"
       id="clipPath4390-9">
      <path
         d="m 27830,21190 v 8810 h 9350 v -8810 z"
         id="path4388-6" />
    </clipPath>
    <clipPath
       clipPathUnits="userSpaceOnUse"
       id="clipPath4402-93">
      <path
         d="m 37150,21190 v 8810 h 9350 v -8810 z"
         id="path4400-3" />
    </clipPath>
    <clipPath
       clipPathUnits="userSpaceOnUse"
       id="clipPath4414-8">
      <path
         d="m 46470,6830 v 23170 h 3530 V 6830 Z"
         id="path4412-0" />
    </clipPath>
    <clipPath
       clipPathUnits="userSpaceOnUse"
       id="clipPath4426-5">
      <path
         d="m 0,12210 v 9010 h 9210 v -9010 z"
         id="path4424-6" />
    </clipPath>
    <clipPath
       clipPathUnits="userSpaceOnUse"
       id="clipPath4438-6">
      <path
         d="m 9180,12210 h 9350 v 9010 H 9180 Z"
         id="path4436-4" />
    </clipPath>
    <clipPath
       clipPathUnits="userSpaceOnUse"
       id="clipPath4450-00">
      <path
         d="m 18500,12210 h 9360 v 9010 h -9360 z"
         id="path4448-4" />
    </clipPath>
    <clipPath
       clipPathUnits="userSpaceOnUse"
       id="clipPath4462-6">
      <path
         d="m 27830,12210 h 9350 v 9010 h -9350 z"
         id="path4460-2" />
    </clipPath>
    <clipPath
       clipPathUnits="userSpaceOnUse"
       id="clipPath4474-6">
      <path
         d="m 37150,12210 h 9350 v 9010 h -9350 z"
         id="path4472-7" />
    </clipPath>
    <clipPath
       clipPathUnits="userSpaceOnUse"
       id="clipPath4486-5">
      <path
         d="m 0,3240 v 9000 H 9210 V 3240 Z"
         id="path4484-6" />
    </clipPath>
    <clipPath
       clipPathUnits="userSpaceOnUse"
       id="clipPath4498-9">
      <path
         d="m 9180,3240 h 9350 v 9000 H 9180 Z"
         id="path4496-8" />
    </clipPath>
    <clipPath
       clipPathUnits="userSpaceOnUse"
       id="clipPath4510-7">
      <path
         d="m 18500,3240 h 9360 v 9000 h -9360 z"
         id="path4508-2" />
    </clipPath>
    <clipPath
       clipPathUnits="userSpaceOnUse"
       id="clipPath4522-8">
      <path
         d="m 27830,3240 h 9350 v 9000 h -9350 z"
         id="path4520-2" />
    </clipPath>
    <clipPath
       clipPathUnits="userSpaceOnUse"
       id="clipPath4534-99">
      <path
         d="m 37150,3240 h 9350 v 9000 h -9350 z"
         id="path4532-6" />
    </clipPath>
    <clipPath
       clipPathUnits="userSpaceOnUse"
       id="clipPath4546-0">
      <path
         d="m 46470,0 v 6860 h 3530 V 0 Z"
         id="path4544-2" />
    </clipPath>
    <clipPath
       clipPathUnits="userSpaceOnUse"
       id="clipPath4558-7">
      <path
         d="M 0,3270 H 23200 V 0 H 0 Z"
         id="path4556-6" />
    </clipPath>
    <clipPath
       clipPathUnits="userSpaceOnUse"
       id="clipPath4570-1">
      <path
         d="M 23170,0 V 3270 H 46500 V 0 Z"
         id="path4568-3" />
    </clipPath>
  </defs>
  <sodipodi:namedview
     id="namedview4"
     pagecolor="#505050"
     bordercolor="#ffffff"
     borderopacity="1"
     inkscape:showpageshadow="0"
     inkscape:pageopacity="0"
     inkscape:pagecheckerboard="1"
     inkscape:deskcolor="#505050"
     showgrid="false"
     inkscape:zoom="0.70710678"
     inkscape:cx="1264.4077"
     inkscape:cy="531.97197"
     inkscape:window-width="3440"
     inkscape:window-height="1369"
     inkscape:window-x="0"
     inkscape:window-y="34"
     inkscape:window-maximized="1"
     inkscape:current-layer="g10"
     inkscape:rotation="-1">
    <inkscape:page
       x="0"
       y="0"
       id="page8"
       width="1090.3651"
       height="1013.7092"
       inkscape:export-filename="../../../../../Detroit CwF YouTube Icon.png"
       inkscape:export-xdpi="96"
       inkscape:export-ydpi="96" />
  </sodipodi:namedview>
  <g
     id="g10"
     inkscape:groupmode="layer"
     inkscape:label="Page 1"
     transform="matrix(1.3333333,0,0,-1.3333333,-2190.3696,-2155.4335)">
    <g
       id="Detroit"
       transform="matrix(0.1,0,0,0.1,978.212,-2577.6594)">
      <path
         id="path16"
         style="fill:#000000;fill-opacity:1;fill-rule:evenodd;stroke:#bb0303;stroke-width:697.5;stroke-dasharray:none;stroke-opacity:0.968695;paint-order:stroke fill markers"
         d="m 8268.6191,2356.8574 c -80.7042,1.0562 -161.4883,7.3148 -240.9453,21.8011 -63.0839,11.5075 -125.3019,28.2591 -185.0959,51.5168 -46.9619,18.2085 -92.3447,40.5787 -135.0834,67.2564 -46.4334,28.9726 -89.7707,63.0006 -128.3925,101.8076 -55.8796,56.0395 -102.0631,121.6487 -136.4098,192.9265 -39.5194,81.5712 -64.787,169.8247 -76.212,259.6783 -9.5463,75.0517 -9.4679,151.2909 -0.1929,226.3655 5.8058,47.0517 15.0941,93.6573 27.4152,139.4317 7.8384,29.1828 16.955,58.0138 27.0621,86.4879 12.956,36.5432 27.2307,72.621 42.9228,108.0766 36.762,83.1435 81.0711,162.9644 132.3945,238.0029 17.1154,25.0555 35.0243,49.5643 53.5863,73.5677 30.3915,39.369 62.2838,77.5606 94.9991,115.013 70.4342,80.4436 145.5666,156.7131 223.9813,229.3734 53.2015,49.3666 107.7935,97.2144 163.1054,144.1986 56.5027,47.9177 114.0758,94.5875 173.0099,139.4884 42.9672,32.716 86.769,64.3263 131.1428,95.1047 50.2279,34.882 100.9732,69.0205 152.2392,102.3565 67.274,43.7366 135.5348,85.9542 204.6883,126.6528 68.0851,40.0776 137.0546,78.6445 206.819,115.7234 53.2726,28.3174 107.001,55.776 161.1544,82.3707 21.9413,10.7709 43.952,21.4004 66.0264,31.8952 -3.984,123.8476 -6.7434,247.738 -7.674,371.6484 -1.4493,184.5114 0.3982,369.0538 5.8718,553.4898 5.8369,198.269 15.5977,396.4232 29.4246,594.2949 6.2759,89.9315 13.3809,179.8038 21.3066,269.6043 7.9007,89.4194 16.604,178.7694 26.1356,268.0296 11.2281,105.1066 23.5672,210.0957 37.028,314.9374 8.3123,64.7946 17.0808,129.5285 26.2531,194.2066 8.0083,56.2657 16.3182,112.4898 25.0294,168.6512 1.7982,11.6649 3.7811,23.3193 6.7172,34.7595 13.4718,53.6122 41.8867,103.6163 82.0965,141.677 32.7936,31.0988 72.8298,54.3638 115.8416,68.1277 38.8031,12.5196 80.0312,17.7847 120.7142,14.6052 72.2362,-5.5702 141.8731,-38.7855 191.9164,-91.1338 29.143,-30.3613 50.9293,-67.6383 63.5256,-107.7689 7.8883,-25.031 12.1547,-51.1846 12.7668,-77.4176 0.5637,-21.43 -1.2621,-42.8755 -4.6751,-64.024 -9.3812,-62.738 -18.5507,-125.5075 -27.3459,-188.3337 -7.3238,-52.4166 -14.2878,-104.882 -21.0308,-157.3895 -5.9368,-46.3664 -11.6621,-92.78 -17.1638,-139.2134 -4.2234,-35.7949 -8.3313,-71.6601 -12.2733,-107.491 -5.4174,-49.0233 -10.5255,-98.0576 -15.4099,-147.1395 -2.7825,-28.0404 -5.4989,-56.1392 -8.1269,-84.2149 -3.5542,-38.0489 -6.9689,-76.1625 -10.2287,-114.2581 -3.5774,-42.084 -7.033,-84.2304 -10.2832,-126.3612 -6.146,-80.1842 -11.6023,-160.4585 -16.4167,-240.7537 -1.9997,-33.8454 -3.84,-67.7018 -5.6254,-101.5684 -2.1558,-41.1198 -4.209,-82.2558 -5.9843,-123.3815 -2.4192,-55.9473 -4.5748,-111.9064 -6.3938,-167.8766 -1.3782,-42.3495 -2.5327,-84.67 -3.4622,-127.0201 -1.7571,-77.9696 -2.9657,-155.9521 -3.5062,-233.9399 -0.82,-116.1986 -0.1951,-232.4069 1.8349,-348.5905 0.4357,0 1.1489,0.3981 1.6912,0.5502 111.8338,41.0134 224.6937,79.2164 338.3947,114.7171 75.501,23.588 151.382,45.9613 227.581,67.1933 60.465,16.8458 121.128,32.9733 181.964,48.4254 54.133,13.7427 108.402,26.9514 162.791,39.6479 58.512,13.6672 117.166,26.7281 175.941,39.2155 106.585,22.6548 213.583,43.3465 320.894,62.2537 71.245,12.5666 142.644,24.258 214.135,35.3429 93.431,14.4684 186.946,28.3931 280.559,41.6273 163.075,23.0392 326.45,44.0119 490.152,62.0799 66.278,7.3185 132.611,14.1222 198.986,20.4996 82.708,7.9899 165.452,15.5857 248.228,22.853 104.581,9.169 209.209,17.8003 313.871,26.0057 78.916,6.1951 157.847,12.1746 236.79,18.027 43.409,57.2961 88.345,113.4028 131.653,170.7773 10.178,13.4626 20.201,27.0382 30.046,40.6729 28.52,39.501 55.6,80.0945 79.862,122.3634 9.988,17.2598 19.968,34.5329 30.676,51.3596 13.169,21.0925 26.291,42.2159 39.089,63.5361 33.739,55.8861 66.156,112.6487 97.403,170.0011 15.137,27.8073 30.056,55.8264 44.693,83.9363 18.341,35.2936 36.548,70.6761 53.216,106.7986 3.479,7.5215 6.958,15.224 10.324,22.7999 7.926,17.861 15.545,35.8581 22.803,54.0009 10.105,25.2631 19.593,50.9069 28.286,76.7404 0.974,2.9133 2.004,5.9843 2.964,8.9221 1.799,5.4727 3.566,10.9595 5.278,16.4109 6.253,19.864 12.015,39.8101 17.269,59.9518 5.786,22.1233 10.907,44.4641 15.433,66.9875 4.134,20.4981 7.835,41.2222 11.168,61.8678 6.02,37.3554 10.7,74.8676 14.074,112.5642 0.928,10.4043 1.779,21.0432 2.502,31.4652 1.591,23.0278 2.709,46.0333 3.352,69.097 0.8,29.1016 0.781,58.3587 0.04,87.4613 -0.271,10.3891 -0.701,20.7962 -1.366,31.1288 -0.937,14.3523 -2.355,28.7848 -4.213,43.1018 -1.609,12.3425 -3.583,24.7671 -5.878,37.0585 -4.541,24.3249 -10.435,48.5662 -17.521,72.3423 -1.782,5.9433 -3.655,12.0217 -5.6,17.9769 -1.271,3.8935 -2.646,7.9682 -4,11.9258 -9.475,27.4566 -20.592,54.4687 -32.997,80.7866 -22.247,47.1736 -48.675,92.4503 -78.194,135.4834 -8.652,12.6124 -17.58,25.0336 -26.744,37.2785 -12.517,16.6926 -25.582,33.1727 -39.009,49.2219 -30.827,36.8836 -63.938,72.0139 -98.489,105.5027 -21.8,21.1581 -44.397,41.4921 -67.703,60.9793 -6.348,5.3104 -12.734,10.6253 -19.112,15.8258 -51.86,42.4274 -106.03,82.0297 -162.192,118.5708 -13.446,8.7534 -27.063,17.3662 -40.688,25.7588 -19.568,12.0454 -39.373,23.7555 -59.378,35.1146 -19.952,11.3241 -40.132,22.3212 -60.501,32.9723 -38.753,20.2787 -78.252,39.2998 -118.208,57.1663 -22.978,10.2834 -46.128,20.2184 -69.407,29.8757 -59.544,24.6566 -120.03,47.1333 -181.321,67.1837 -27.983,9.1467 -56.199,17.8096 -84.529,25.9223 -11.939,3.4252 -24.007,6.7721 -36.012,10.0151 -22.394,6.0333 -44.822,11.7109 -67.376,17.0753 -13.818,3.2851 -27.763,6.4655 -41.644,9.4805 -34.999,7.6374 -70.223,14.2331 -105.526,20.459 -54.061,9.5375 -108.345,18.0249 -162.749,25.6161 -52.21,7.2768 -104.557,13.6686 -156.996,19.2578 -35.74,3.8133 -71.516,7.2287 -107.349,10.3112 -50.429,4.3375 -100.951,7.8533 -151.509,10.783 -27.394,1.5752 -54.924,2.9836 -82.345,4.153 -28.439,1.2137 -56.888,2.1764 -85.344,2.9051 -52.819,1.3227 -105.727,1.8539 -158.589,1.5257 -30.022,-0.1983 -60.043,-0.6992 -90.057,-1.426 -25.147,-0.6642 -50.447,-1.5372 -75.598,-2.6418 -48.658,-2.179 -97.246,-5.2159 -145.866,-8.0816 -40.745,-2.4396 -81.49,-4.8797 -122.219,-7.5768 -52.944,-3.6172 -105.825,-7.6593 -158.705,-12.1395 -75.937,-6.4354 -151.798,-13.9478 -227.551,-22.4253 -42.014,-4.7043 -84.007,-9.6992 -125.956,-15.1174 -62.645,-8.0414 -125.21,-17.2847 -187.555,-27.4896 -47.924,-7.8328 -95.702,-16.2414 -143.446,-25.2269 -53.602,-10.0718 -107.15,-20.8757 -160.499,-32.2914 -34.465,-7.3878 -68.919,-15.0209 -103.2477,-22.9043 -38.3701,-8.8257 -76.6914,-18.0022 -114.8653,-27.5625 -83.6932,-20.9747 -166.9166,-43.8066 -249.5742,-68.6343 -71.0013,-21.3527 -141.56,-44.186 -211.5567,-68.6336 -35.8218,-12.5116 -71.4767,-25.448 -106.9676,-38.8545 -50.7784,-19.1992 -101.0929,-39.6185 -150.9503,-61.0944 -40.576,-17.4897 -80.9053,-35.7273 -120.8635,-54.6488 -70.4654,-33.342 -139.9362,-68.9332 -208.3165,-106.4177 -40.6567,-22.3041 -81.0595,-45.3652 -120.8991,-69.2117 -28.9459,-17.3238 -57.6961,-35.1797 -86.1015,-53.4526 -33.5186,-21.5701 -66.6702,-43.8319 -99.3545,-66.7234 -4.9573,-3.4642 -9.9331,-6.9895 -14.8516,-10.4677 -44.8347,-31.8295 -88.7775,-64.9173 -131.7057,-99.2754 -49.0565,-39.2781 -96.908,-80.195 -143.0663,-122.8884 -30.4502,-28.2225 -60.1125,-57.2972 -88.8599,-87.2534 -32.2595,-33.5754 -63.4477,-68.1769 -93.5986,-103.657 -32.6971,-38.4971 -64.1959,-78.1387 -94.3992,-118.6683 -26.4216,-35.4643 -51.9971,-71.7056 -76.6071,-108.505 -21.0079,-31.4349 -41.3044,-63.3667 -60.7378,-95.8355 -12.8892,-21.5387 -25.427,-43.3812 -37.5879,-65.3779 -26.4364,-47.831 -51.1566,-96.7072 -74.0452,-146.3694 -13.1495,-28.5303 -25.7246,-57.3705 -37.7136,-86.448 -22.3982,-54.2999 -42.7432,-109.5349 -61.0739,-165.3727 -4.6847,-14.2068 -9.207,-28.4101 -13.7744,-42.6516 -4.0288,-12.3846 -8.0099,-24.8101 -13.1312,-36.7978 -17.9042,-42.4227 -45.8422,-80.6448 -81.1638,-110.2239 -25.0069,-20.9298 -53.8038,-37.2329 -84.4444,-48.3416 -58.8266,-21.3834 -124.3099,-23.9563 -184.6291,-7.2366 -20.8824,5.7689 -41.1032,13.903 -60.1826,24.1643 -46.4509,24.9194 -86.3732,61.8073 -115.0585,106.0161 -16.6783,25.7939 -29.2577,54.2485 -36.9232,83.9998 -8.4479,32.6149 -11.0681,66.7089 -7.8654,100.2415 2.325,24.9378 7.847,49.521 15.6907,73.2875 6.4676,20.4493 13.2712,40.7899 20.1105,61.1174 34.377,101.3094 74.1416,200.8111 119.5122,297.7044 46.2928,99.0853 98.2849,195.5063 155.5762,288.6624 49.9562,81.2455 103.9206,160.024 161.5665,236.0072 57.8992,76.3043 119.4277,149.8244 183.7671,220.7704 94.3407,103.9468 195.3143,201.892 302.3559,292.7137 65.9167,55.9262 134.1257,109.1547 204.3829,159.5225 53.1136,38.0761 107.4069,74.5053 162.7864,109.2054 45.853,28.7266 92.2279,56.6087 139.0173,83.7784 113.3641,65.7597 229.4371,126.8215 347.6904,183.316 54.654,26.1102 109.7687,51.2503 165.2995,75.4398 68.3592,29.7593 137.3428,58.0809 206.8772,84.9784 95.6969,36.9864 192.408,71.3467 290.06,102.8086 114.8753,36.999 231.0455,69.9719 348.2144,98.9096 91.0965,22.4963 182.7941,42.5595 274.9661,60.1333 78.161,14.8883 156.658,28.0154 235.409,39.3816 56.531,8.1509 113.187,15.4334 169.888,22.2976 143.136,17.2309 286.746,30.5708 430.627,39.6977 98.223,6.2367 196.571,10.5548 294.966,12.8644 81.493,1.9144 163.019,2.4557 244.531,1.5543 154.426,-1.7352 308.8,-8.8787 462.69,-21.8814 118.285,-10.0043 236.275,-23.5067 353.728,-40.727 38.711,-5.6636 77.355,-11.7885 115.946,-18.2197 35.084,-5.8472 70.133,-11.9088 105.137,-18.2183 44.22,-8.0388 88.303,-16.8355 132.175,-26.598 109.431,-24.1886 217.794,-53.3722 324.215,-88.5634 89.305,-29.5084 177.217,-63.165 263.643,-100.2412 41.141,-17.6727 81.967,-36.0844 122.393,-55.3402 62.922,-29.9874 124.756,-62.265 185.202,-96.9743 61.16,-35.1217 120.925,-72.6902 178.842,-112.9431 35.8,-24.8859 70.817,-50.9041 104.832,-78.1804 55.515,-44.4417 108.552,-91.9618 158.99,-142.0879 36.303,-36.0972 71.282,-73.5268 104.831,-112.1958 31.31,-36.1081 61.249,-73.414 89.493,-111.9729 55.197,-75.2957 104.286,-155.0899 146.317,-238.4636 7.757,-15.384 15.282,-30.8874 22.367,-46.5932 15.353,-33.945 29.139,-68.5811 41.951,-103.5586 33.842,-92.5454 58.847,-188.3279 74.343,-285.6412 14.147,-88.868 20.389,-179.0303 18.007,-269.002 -1.359,-51.1764 -5.582,-102.2717 -12.54,-152.9886 -4.152,-30.382 -9.333,-60.6189 -15.26,-90.7044 -15.901,-82.2503 -35.589,-163.7849 -59.57,-244.06 -13.664,-45.8947 -28.69,-91.385 -45.132,-136.3599 -17.039,-46.5935 -35.687,-92.5998 -55.891,-137.9104 -29.288,-65.5756 -61.677,-129.7478 -96.403,-192.6063 -12.472,-22.6175 -25.3,-45.0441 -38.297,-67.3599 -56.423,-97.3598 -114.698,-193.6781 -176.392,-287.8034 34.624,-7.9918 68.108,-21.6318 97.649,-41.4942 21.378,-14.3629 40.61,-31.9678 56.529,-52.2302 22.251,-28.1291 38.31,-61.2144 46.121,-96.2474 11.147,-49.701 6.278,-102.7973 -13.474,-149.7284 -13.607,-33.2025 -33.625,-63.6227 -57.836,-90.0455 -31.669,-34.8479 -69.636,-63.5788 -110.355,-87.038 -49.992,-28.871 -104.318,-50.0848 -160.446,-63.4822 -48.62,-11.5722 -98.759,-16.7754 -148.72,-15.3064 -12.04,0.2701 -24.096,0.598 -36.132,-0.01 -4.078,-0.2125 -8.413,-0.4456 -12.529,-0.6864 -27.87,-1.6372 -55.706,-3.923 -83.553,-6.0553 -10.936,-0.8543 -21.872,-1.7086 -32.808,-2.563 -65.806,-80.3082 -132.813,-159.6388 -201.365,-237.6198 -66.432,-75.6021 -134.183,-150.0465 -203.201,-223.2963 -57.555,-61.081 -115.997,-121.3287 -175.3,-180.7147 -72.48,-72.5679 -146.247,-143.8518 -221.272,-213.7874 -90.304,-84.1808 -182.408,-166.4293 -276.213,-246.6917 -103.149,-88.2727 -208.36,-174.1327 -315.496,-257.5181 -105.664,-82.2443 -213.191,-162.0922 -322.445,-239.5025 -126.689,-89.762 -255.676,-176.2771 -386.758,-259.4888 -129.525,-82.21 -261.155,-161.0999 -394.761,-236.4959 -92.23,-52.0316 -185.401,-102.396 -279.46,-151.0485 -66.5,-34.3957 -133.447,-67.9306 -200.813,-100.5982 -95.604,-46.3575 -192.059,-90.956 -289.311,-133.7444 -72.853,-32.0542 -146.155,-63.0865 -219.87,-93.1042 -79.9646,-32.5547 -160.4215,-63.8978 -241.3307,-94.0309 -113.7858,-42.3662 -228.4671,-82.3316 -343.9454,-119.8407 -82.361,-26.7352 -165.1132,-52.2557 -248.2287,-76.5442 -68.4011,-19.998 -137.0587,-39.1426 -206.1759,-56.5203 -96.0693,-24.206 -192.9198,-45.4243 -290.5284,-62.4536 -89.7244,-15.6176 -180.1292,-27.6166 -270.9819,-34.2317 -51.7776,-3.7385 -103.69,-5.6913 -155.605,-5.5746 -2.474,0.016 -4.9479,0.054 -7.4219,0.078 z m 80.7637,586.5313 c 9.8376,0.1069 19.8401,0.3058 29.5723,0.4863 20.9152,0.5688 41.7885,1.7336 62.6736,3.3438 7.225,0.5437 14.5011,1.1665 21.7065,1.8217 7.7417,0.6673 15.575,1.4999 23.2195,2.4575 5.5346,0.7046 11.1082,1.471 16.5621,2.2974 31.8511,4.7902 63.4576,10.8841 94.9582,17.46 13.8962,2.9243 27.7974,5.9522 41.6136,9.074 41.1956,9.2873 82.1843,19.3994 123.0795,29.9613 47.0645,12.1786 94.0311,24.9222 140.9804,37.6084 42.1306,11.4297 84.1906,23.1243 126.1194,35.2753 40.2481,11.6417 80.4256,23.6365 120.4544,35.9467 22.0049,6.7632 44.0168,13.6588 65.9336,20.6074 25.2662,8.0304 50.4908,16.1911 75.6757,24.4727 56.3829,18.5739 112.63,37.8005 168.593,57.6901 61.6947,21.9244 123.1076,44.6425 184.2194,68.1427 28.821,11.0701 57.5994,22.3536 86.2658,33.7551 41.2238,16.4281 82.2911,33.2113 123.2259,50.3299 58.3429,24.3935 116.4403,49.357 174.2673,74.9683 121.513,53.8407 241.718,110.6574 360.471,170.3605 73.582,36.9811 146.594,75.0256 219.029,114.2015 44.386,24.0049 88.56,48.4277 132.52,73.2389 56.87,32.1002 113.337,64.9137 169.432,98.3867 63.52,37.9028 126.569,76.6849 189.066,116.2843 50.003,31.6834 99.713,63.9284 149.049,96.6769 51.008,33.8749 101.689,68.3355 151.952,103.3416 46.856,32.6155 93.431,65.7926 139.658,99.3673 63.379,46.0719 126.158,93.018 188.232,140.8627 23.453,18.0642 46.8,36.2659 70.059,54.579 71.549,56.386 142.22,113.9914 211.863,172.7715 35.608,30.0388 70.998,60.428 106.102,91.09 69.921,61.0641 138.831,123.377 206.586,186.8696 102.493,96.0246 202.521,194.684 299.859,295.931 16.204,16.873 32.385,33.8311 48.447,50.8516 -42.304,-3.8112 -84.611,-7.8084 -126.899,-11.9225 -58.681,-5.6913 -117.333,-11.6327 -175.974,-17.8099 -44.304,-4.6733 -88.623,-9.5459 -132.917,-14.4395 -38.271,-4.2832 -76.56,-8.6906 -114.788,-13.1699 -64.147,-7.576 -128.233,-15.445 -192.3,-23.6685 -48.478,-6.2214 -96.931,-12.6602 -145.36,-19.3077 -52.586,-7.2358 -105.168,-14.709 -157.701,-22.4486 -67.13,-9.8769 -134.227,-20.224 -201.226,-31.0374 -45.968,-7.4161 -91.899,-15.0641 -137.792,-22.9343 -29.12,-5.0216 -58.307,-10.1483 -87.413,-15.4618 -47.655,-8.6933 -95.284,-17.8877 -142.778,-27.5504 -43.296,-8.8032 -86.5,-17.9993 -129.648,-27.6068 -59.661,-13.2856 -119.154,-27.3215 -178.463,-42.1298 -63.616,-15.892 -127.064,-32.7161 -190.234,-50.4231 -48.758,-13.6677 -97.422,-27.9086 -145.891,-42.6871 -92.559,-28.2095 -184.517,-58.4205 -275.763,-90.6567 -41.65,-14.7109 -83.159,-29.8514 -124.504,-45.4232 -41.3291,-15.5622 -82.5094,-31.5537 -123.5304,-47.9624 -15.2072,-6.086 -30.449,-12.2514 -45.6446,-18.4503 2.9702,-51.4871 6.1916,-102.9601 9.6847,-154.4143 2.5302,-35.8041 5.1208,-71.6041 7.8416,-107.3941 4.2301,-52.8721 8.4904,-105.7198 13.273,-158.5408 3.5058,-39.0504 7.1834,-78.1135 11.0405,-117.1097 6.3183,-63.391 13.191,-126.7025 20.2744,-190.0149 1.2934,-12.0244 2.731,-24.0368 3.6963,-36.0932 0.9726,-12.3626 1.2965,-24.7819 0.7415,-37.1737 -1.9668,-48.1703 -15.4224,-95.992 -39.8974,-137.5997 -18.5332,-31.5875 -43.3429,-59.3585 -72.0928,-81.9893 -29.154,-22.9753 -62.4202,-40.7665 -97.8058,-52.0109 -34.1177,-10.8057 -70.2248,-15.4196 -105.9573,-13.1701 -44.7603,2.6272 -88.9133,15.1496 -128.384,36.4213 -28.3181,15.3212 -54.0739,35.4327 -75.5513,59.4375 -23.9531,26.623 -42.7115,57.8432 -55.2949,91.3572 -10.0753,26.6702 -16.2507,54.7377 -19.1021,83.0818 -6.2494,54.8207 -12.1798,109.679 -17.8845,164.5571 -9.6847,93.7179 -18.4604,187.5298 -26.3001,281.4196 -2.7399,32.7395 -5.3696,65.4882 -7.9068,98.2441 -85.749,-45.1156 -170.5276,-92.0902 -253.9997,-141.2963 -37.5766,-22.1425 -74.8655,-44.7739 -111.8526,-67.8877 -73.3829,-45.9045 -145.5894,-93.8483 -215.9085,-144.3776 -11.6563,-8.3669 -23.2498,-16.8208 -34.8017,-25.331 -50.8158,-37.5098 -100.6802,-76.4858 -149.0369,-117.1787 -56.2773,-47.3644 -110.5911,-97.1153 -161.886,-149.8528 -11.3128,-11.6427 -22.4734,-23.433 -33.4658,-35.3787 -2.2123,-2.4275 -4.5014,-4.9011 -6.7113,-7.3436 -32.3615,-35.6089 -63.2416,-72.5887 -92.0292,-111.1523 -4.755,-6.3715 -9.4775,-12.8237 -14.0761,-19.2432 -2.3478,-3.2565 -4.6141,-6.4717 -6.9436,-9.7705 -7.1675,-10.2154 -14.3119,-20.7166 -21.1623,-31.1674 -5.1556,-7.8677 -10.2158,-15.7936 -15.1785,-23.8168 -7.598,-12.2623 -15.0563,-24.8657 -22.1517,-37.4726 -4.039,-7.189 -8.0884,-14.5926 -11.9401,-21.8876 -6.0635,-11.4495 -11.911,-23.1132 -17.4518,-34.7632 -2.6908,-5.6885 -5.2874,-11.2882 -7.8684,-17.0608 -7.4104,-16.5319 -14.2726,-33.3096 -20.5495,-50.3044 -5.7018,-15.4448 -10.9692,-31.3058 -15.628,-47.1969 -9.9783,-34.0451 -17.4345,-68.8499 -21.8159,-104.0797 -1.5267,-12.1956 -2.6876,-24.6082 -3.5048,-36.9425 -0.9648,-14.3966 -1.3659,-29.0192 -1.2829,-43.5242 0.039,-6.3102 0.1465,-12.4925 0.3866,-18.7837 0.4649,-12.3215 1.2498,-24.7882 2.3737,-37.0703 1.0226,-11.2641 2.3157,-22.5057 3.9791,-33.6937 0.1953,-1.2523 0.3981,-2.644 0.6042,-3.9355 0.9674,-6.1093 2.0366,-12.1951 3.2501,-18.3061 0.3641,-1.8169 0.7293,-3.6221 1.1037,-5.3592 3.3543,-15.5914 7.6364,-31.0476 13.8685,-45.7525 2.6378,-6.0159 5.4873,-12.0174 9.454,-17.2873 3.1357,-3.9425 7.5514,-6.5495 11.7898,-9.1387 11.9144,-6.9762 24.7877,-12.1467 37.8409,-16.5591 7.2031,-2.4127 14.5512,-4.5743 21.8283,-6.5291 2.8486,-0.7553 5.9025,-1.5439 8.8434,-2.2673 3.5056,-0.849 7.038,-1.6801 10.4965,-2.4453 4.8331,-1.0799 9.7976,-2.1097 14.5847,-3.0488 8.0876,-1.5788 16.288,-3.0022 24.4849,-4.2753 4.8038,-0.7408 9.818,-1.4715 14.646,-2.1098 15.1702,-2.0329 30.5197,-3.7638 45.7226,-5.4665 10.2947,-1.1422 20.6092,-2.1062 30.9394,-2.8652 1.686,-0.1183 3.5918,-0.2441 5.3623,-0.3653 4.4339,-0.2928 8.8703,-0.5476 13.3076,-0.7832 6.9033,-0.3445 13.9894,-0.6254 21.0098,-0.8261 10.0582,-0.2706 20.2671,-0.3985 30.375,-0.5332 z" />
    </g>
  </g>
</svg>
