<?xml version="1.0" encoding="UTF-8" standalone="no"?>
<!-- Created with Inkscape (http://www.inkscape.org/) -->

<svg
   version="1.1"
   viewBox="0 0 26442.062 20292.33"
   sodipodi:docname="יהוה.svg"
   inkscape:version="1.2.2 (1:1.2.2+202212051551+b0a8486541)"
   id="svg9057"
   xmlns:inkscape="http://www.inkscape.org/namespaces/inkscape"
   xmlns:sodipodi="http://sodipodi.sourceforge.net/DTD/sodipodi-0.dtd"
   xmlns="http://www.w3.org/2000/svg"
   xmlns:svg="http://www.w3.org/2000/svg">
  <defs
     id="defs9061">
    <linearGradient
       x1="0"
       y1="0"
       x2="1"
       y2="0"
       gradientUnits="userSpaceOnUse"
       gradientTransform="matrix(19766.8,0,0,-19766.8,15116.6,13628.5)"
       spreadMethod="pad"
       id="linearGradient18135">
      <stop
         style="stop-opacity:1;stop-color:#fcf78f"
         offset="0"
         id="stop18125" />
      <stop
         style="stop-opacity:1;stop-color:#f5df5a"
         offset="0.33"
         id="stop18127" />
      <stop
         style="stop-opacity:1;stop-color:#ab751d"
         offset="0.63"
         id="stop18129" />
      <stop
         style="stop-opacity:1;stop-color:#f5df5a"
         offset="0.84"
         id="stop18131" />
      <stop
         style="stop-opacity:1;stop-color:#ab751d"
         offset="1"
         id="stop18133" />
    </linearGradient>
  </defs>
  <sodipodi:namedview
     id="namedview9059"
     pagecolor="#505050"
     bordercolor="#ffffff"
     borderopacity="1"
     inkscape:showpageshadow="0"
     inkscape:pageopacity="0"
     inkscape:pagecheckerboard="1"
     inkscape:deskcolor="#505050"
     showgrid="false"
     inkscape:zoom="0.04"
     inkscape:cx="2187.5"
     inkscape:cy="10687.5"
     inkscape:window-width="3440"
     inkscape:window-height="1369"
     inkscape:window-x="0"
     inkscape:window-y="34"
     inkscape:window-maximized="1"
     inkscape:current-layer="g9065">
    <inkscape:page
       x="0"
       y="0"
       id="page9063"
       width="26442.062"
       height="20292.33" />
  </sodipodi:namedview>
  <g
     id="g9065"
     inkscape:groupmode="layer"
     inkscape:label="الله"
     transform="matrix(1.3333333,0,0,-1.3333333,-20112.301,28317.564)">
    <path
       d="m 25658.8,8027.8 v -658.7 h -7906.7 v 658.7 z M 18411,9345.7 v -659 h -658.9 v 659 z m -1317.8,0 v -659 h -658.8 v 659 z m 9883.5,3953.4 v -658.9 h -658.9 v 658.9 z m -1317.9,0 v -658.9 h -7906.7 v 658.9 z m 9224.6,1317.8 V 13958 h -658.9 v 658.9 z m -9224.6,3953.3 v -658.9 h -7906.7 v 658.9 z m 7906.8,-5271.1 v -5930 H 32247.8 V 6051.3 h -4612.2 v 658.8 h 3953.3 v 1317.7 h 1317.8 v 5271.3 z m -17131.2,-5930 v -659 h -658.9 v 659 z m 3953.3,3294.4 v -658.9 H 31588.9 V 9345.7 H 19728.8 v 1317.8 H 15116.6 V 6051.3 H 26976.7 V 7369.1 H 30930 v 658.7 H 26317.8 V 6710.1 h -9224.6 v 1317.7 h -1317.7 v 1976.8 h 3294.4 V 8686.7 h 13177.9 v 1976.8 z m 14495.7,2635.6 V 6051.3 h -1976.7 v 658.8 h 1317.8 v 6589 z m -5271.1,3953.3 v -658.9 h -1976.7 v 4612.3 h 658.9 v -3953.4 z m -9224.6,-2635.5 h -658.9 v 658.8 h 658.9 z m 13836.8,2635.5 v -1317.8 h -658.9 v 1317.8 h -658.9 v -1317.8 h -658.9 v 1317.8 h -658.9 V 15934.6 H 30930 v 1317.8 h -658.9 V 15934.6 H 19069.9 V 13958 h 14495.7 v 658.9 h -12519 v 658.8 h 13836.8 v 1976.7 z m -18449,658.9 h 658.9 v -1976.7 h -658.9 z m 11860.1,-4612.2 v -658.9 h 3953.3 v -658.9 H 17093.2 v 1317.8 h -658.8 v -1317.8 h -658.9 v 3294.4 h 1317.7 v 3294.5 h -1317.7 v 658.9 h 9883.3 v 1976.7 H 15116.6 v -658.9 h 9883.3 V 19888 h -9883.3 v -8565.6 h 17131.2 v 1976.7 z m 7247.8,7906.7 v -3294.5 h -658.9 v 3294.5 z m -7906.7,0 V 16593.5 H 18411 V 13958 h -1976.6 v 658.9 h 1317.7 v 2635.5 h 8565.7 v 3953.4 z m 3294.4,-2635.6 h -658.8 v 658.9 h 658.8 z m 2635.6,2635.6 v -2635.6 h -658.9 v 2635.6 h -658.9 V 18570.2 H 30930 v 2635.6 h -1976.6 v -658.9 h 1317.7 V 19888 h -1317.7 v -1976.7 h 4612.2 v 3294.5 h -658.9"
       style="fill:url(#linearGradient18135);fill-opacity:1;fill-rule:nonzero;stroke:#aadd00;stroke-width:64.7475;stroke-dasharray:none;stroke-opacity:0.832155;paint-order:stroke fill markers"
       id="path18137"
       clip-path="none" />
  </g>
</svg>
