<?xml version="1.0" encoding="utf-8"?>
<!-- Generator: Adobe Illustrator 25.2.3, SVG Export Plug-In . SVG Version: 6.00 Build 0)  -->
<svg version="1.1" xmlns="http://www.w3.org/2000/svg" viewBox="1675 1785 2350 2100">
<style type="text/css">
	.st0{display:none;}
	.st1{display:inline;}
	.st2{display:inline;fill:none;}
	.st3{display:inline;fill:none;stroke:#000000;stroke-width:9;stroke-miterlimit:10;}
</style>
<g id="Слой_1" class="st0">
	<path class="st1" d="M-1274.19,1181c-86.28-80.87-227.34-50.8-268.62,55.88c-37.69,97.41,8.46,216.52,102.21,264.03
		c13.18-6.14,12.14-14,6.57-26.34c-12.8-28.35-25.57-57.12-33.94-86.96c-17.49-62.37-9.21-122.13,25.21-177.83
		c9.04-14.62,19.98-19.44,37.28-15.68c52.52,11.43,88.47,41.41,106.24,92.04c43.98,125.29-12.49,261.83-131.1,321.87
		c-30.02,15.2-60.94,21.69-92.88,15.96c-48.3-8.67-96.17-20.12-143.67-32.51c-10.68-2.78-22.69-12.4-27.87-22.17
		c-20.46-38.58-36.84-79.35-57.82-117.61c-20.14-36.75-40.35-74.58-67.21-106.26c-47.18-55.65-113.83-80.55-182.2-100.18
		c-8.26-2.37-16.41-5.13-28.88-9.06c34.51-13.45,64.33-22.73,92.06-36.28c99.87-48.79,155.15-127.18,157.95-240.65
		c2.26-91.48-11.49-180.47-34.96-268.5c-14.59-54.75-19.56-109.65,9.91-161.68c34.22-60.43,65.15-71.85,136.97-62.48
		c28.79,3.76,45.33,22.07,54.38,48.62c14.6,42.84-3.57,93.86-44.89,129.39c-7.58,6.52-11.45,17.35-17.84,27.46
		c79.61,27.67,159.33-27.87,159.51-104.59c0.15-65.13-43.91-124.67-111.76-142.32c-39.66-10.32-81.44-15.7-122.46-16.99
		c-79.79-2.52-136.86,36.79-166.56,109.6c-13.85,33.94-23.52,72.35-23.31,108.68c0.42,75.6,9.44,151.12,13.49,226.75
		c3.7,69.3-12.18,133.91-56.04,188.92c-37.13,46.56-83.01,78.43-146.69,72.13c-21.87-2.17-42.38-8.31-49.25-32.55
		c-7.17-25.31-8.14-48.62,11-72.16c24.49-30.13,46.81-63.04,31.9-106.67c-2.44-7.15,1.25-18.42,5.69-25.56
		c35.14-56.41,58.43-117.12,69.92-182.54c1.29-7.36,3.91-15.79,8.8-21.03c50.06-53.6,44.36-112.66,19.4-174.62
		c-5.62-13.93-9.65-29.56-9.77-44.44c-0.47-55.79-21.04-102.35-62.58-138.62c-30.31-26.47-62.8-50.49-94.8-74.96
		c-7.95-6.08-17.32-11.17-26.83-14.18c-46.83-14.81-93.25-31.98-141.14-41.95c-34.55-7.2-71.94-9.78-106.69-4.8
		c-48.27,6.91-95.15,23.22-142.8,34.78c-40.74,9.88-76.16,27.28-101.5,62.45c-5.59,7.77-15.75,12.42-24.14,17.99
		c-59.26,39.26-91.31,93.89-88.6,165.38c0.84,22.13-3.28,40.38-12.6,59.96c-26.26,55.18-28.4,108.37,19.39,155.08
		c4.59,4.47,7.42,11.99,8.57,18.54c10.97,62.36,33.73,119.92,67.33,173.6c5.7,9.11,10.31,23.16,7.51,32.58
		c-12.46,41.91,5.18,74.26,27.96,106.37c24.3,34.26,4.2,87.05-36.08,97.62c-34.03,8.93-65.48,0.77-94.69-15.6
		c-65.23-36.56-103.96-95.06-112.82-166.79c-7.27-58.93,0.13-119.66,0.91-179.59c0.75-57.62,7.84-116.08,0.44-172.65
		c-10.19-77.94-49.67-142.4-131.42-163.13c-68.94-17.49-138.85-8.38-203.83,21.56c-48.87,22.53-77.77,63.3-83.14,116.88
		c-8.44,84.22,60.9,138.22,158.1,116.99c-6.18-11.54-8.93-22.47-15.89-28.66c-25.9-22.98-40.68-51.36-44.94-85.1
		c-7.32-58.05,30.01-98.46,88.46-97.76c36.67,0.43,64.06,17.28,85.76,45.31c43.9,56.68,44.08,119.9,26.38,185.15
		c-24.07,88.68-37.72,178.46-35.47,270.68c2.14,88.09,36.99,158.75,108.08,210.77c48.18,35.25,103.78,53.45,161.34,66.49
		c7.13,1.61,14.23,3.36,21.34,5.04c-26.64,11.24-52.86,18.23-79.07,25.25c-115.96,31.07-200.99,97.32-245.12,211.97
		c-13.15,34.14-29.84,67.07-47.09,99.4c-5.22,9.77-16.61,18.88-27.19,22.66c-32.28,11.55-65.23,21.58-98.48,29.97
		c-58.72,14.81-116.72,21.32-171.38-16c-92.67-63.26-134.01-149.89-121.44-261.31c9.37-83.07,62.17-122.36,122.33-141.09
		c15.82-4.92,26.93-1.15,35.83,12.99c21.23,33.73,34.33,69.84,35.86,109.99c2.19,57.3-15.53,109.33-42.4,158.67
		c-7.23,13.28-6.1,21.16,7.83,26.72c44.22-27.57,74.6-60.45,94.27-101.93c32.84-69.27,24.56-160.38-20.71-207.55
		c-65.7-68.46-174.78-90.67-260.85,7.95c-97.9,112.17-93.74,288.91,9.42,408.98c72.29,84.14,162.72,125.33,273.26,99.96
		c65.08-14.94,127.66-40.92,191.18-62.45c73.48-24.91,133.16-66.16,171.32-136.74c30.81-56.97,80.08-89.67,145.76-98.23
		c45.06-5.88,89.58-16.01,134.83-24.32c0,3.59,0.33,4.63-0.05,5.1c-1.95,2.39-3.87,4.88-6.2,6.87
		c-37.06,31.76-59.39,72.32-68.72,119.61c-20.7,104.86-2.6,204.93,40.31,301.37c25.98,58.37,55.67,115.28,78.38,174.86
		c20.32,53.31,18.11,108.83-4.42,162.51c-5.82,13.87-12.68,19.74-30.02,17.27c-61.05-8.7-116.85-30.24-164.97-67.88
		c-78.08-61.07-123.75-138.06-105.99-241.7c2.77-16.13-5.04-17.2-18.71-15.52c-6.14,23.62-12.29,47.7-18.69,71.72
		c-13.83,51.88-11.58,103.67,1.68,155.13c35.2,136.62,163.94,219.78,309.68,195.8c144.84-23.83,203.51-159.02,188.99-255.65
		c-10.54-70.13-48.29-124.34-95.06-173.87c-32.21-34.12-66.73-66.11-97.9-101.13c-8.37-9.39-12.43-26.75-11.22-39.77
		c3.84-41.27,23.6-76.76,53.76-104.01c30.59-27.64,64.03-52.48,98.05-75.9c50.96-35.08,96.92-74.12,123.97-131.36
		c1.34-2.83,1.18-6.36,1.72-9.56c32.43,59.95,77.93,96.41,127.1,129.39c21.42,14.37,42.97,28.68,63.47,44.31
		c39.93,30.46,71.59,67.18,86.34,116.69c8.25,27.69,6.72,51.26-16.54,72.15c-23.83,21.41-46.83,44.04-67.9,68.14
		c-29.23,33.44-59.07,66.91-83.59,103.73c-27.34,41.07-39.78,88.59-34.28,138.46c14.95,135.33,120.17,210.08,230.85,212.49
		c134.24,2.91,255.91-92.69,278.34-223.8c11.48-67.12-7.24-130.11-23.9-193.42c-1.31-4.97-11.34-7.65-20.72-13.53
		c1.62,25.97,4.25,44.58,3.52,63.05c-0.73,18.55-2.79,37.53-7.76,55.33c-29.73,106.33-141.98,195.33-259.03,210.19
		c-25.78,3.27-34.72-5.75-41.95-27.06c-12.61-37.15-15.55-74.61-9.67-113.16c9.13-59.73,34.46-113.47,63.51-165.26
		c51.7-92.19,78.67-189.93,74.35-295.99c-3.17-77.94-30.21-143.03-97.65-187.34c-6.09-4-11.63-8.85-17.42-13.31
		c50.15,4.71,97.91,17.17,146.45,22.18c76.34,7.88,128.77,47.16,165.68,111.6c4.27,7.44,9.91,14.08,14.32,21.45
		c23.21,38.73,56.72,66.13,95.52,87.96c74.72,42.04,154.48,72.27,237.33,91.96c34.46,8.18,73.74,7.47,108.66,0.28
		c115.99-23.9,215.12-134.19,234.9-256.45C-1172.22,1348.45-1195.11,1255.12-1274.19,1181z M-1470.09,1447.85
		c-42.83-22.51-74.69-104.5-65.09-161.7c10.59-63.06,46.56-108.16,96.42-116.47C-1508.35,1256.31-1510.09,1349.22-1470.09,1447.85z
		 M-1538.1,576.16c-4.67,49.42-53.49,88.7-99.96,80.44c65.96-99.8,66.29-140.95-0.6-206.56
		C-1583.15,450.26-1532.38,515.66-1538.1,576.16z M-3296.92,540.84c0.13,41.49,18.47,74.4,45.51,104.85
		c-55.32,10.65-106.11-34.32-104.47-89.79c1.56-52.62,43.52-105.78,94.34-119.08c4.18-1.1,8.89-0.15,20.45-0.15
		C-3283.72,464.57-3297.05,498.75-3296.92,540.84z M-3362.65,1278.74c16.75,71.53-6.37,131.24-58.33,181.68
		c37.36-99.56,36.27-193.67-38.6-284.02C-3403.87,1195.16-3374.23,1229.26-3362.65,1278.74z M-2153.38,1130.45
		c45.1,12.53,87.09,3.12,125.29-21.7c81.74-53.1,117.67-133.02,118.99-226.65c0.98-69.17-9.3-138.46-13.77-207.75
		c-3.41-52.71,0.08-104.56,23.82-153.24c34.5-70.74,100.07-105.34,177.38-93.1c4.37,0.69,8.52,2.76,16.89,5.58
		c-7.54,2.63-10.78,4.21-14.2,4.89c-94.48,18.81-134.47,114.64-126.19,183.34c6.7,55.51,23.89,109.79,30.14,165.33
		c7.56,67.19,12.71,135.24,11.1,202.73c-1.53,64.03-35.07,116.85-85.62,155.2c-95.77,72.65-199.89,95.53-313.97,43.83
		c-55.32-25.06-93.11-98.85-79.39-157.75c1.02-4.37,3.71-8.35,5.4-12.06c24.72,3.69,46.26,6.91,71.44,10.67
		c0,9.82-0.2,21.17,0.04,32.51C-2205.29,1098.17-2187.97,1120.84-2153.38,1130.45z M-2258.32,979.01
		c15.45,20.58,36.94,23.86,60.77,17.43c2.62-0.71,5.6-0.1,10.42-0.1c-22.48,15.09-69.65,13.98-83.3-3.89
		c-7.36-9.62-13.67-29.51-8.72-37.43c21.18-33.82,44.95-66.48,71.44-96.32c12.6-14.19,31.12-4.51,40.39,17.08
		c-16.73,5.98-33.96,10.86-49.98,18.34c-10.29,4.79-20.16,12.15-27.81,20.55C-2262.76,934.06-2269.07,964.67-2258.32,979.01z
		 M-2163.84,956.09c-13.23,12.53-33.35,17.8-42.74,22.35c-33.65-0.33-41.82-12.77-32.73-35.23c8.22-20.33,44.03-44.63,65.61-42.05
		c6.63,0.8,17.34,9.31,17.48,14.51C-2155.87,929.45-2155.6,948.28-2163.84,956.09z M-2103.54,680.59
		c-49.53,20.23-101.76,34.81-153.86,47.52c-49.89,12.17-93.4,30.89-124.21,77.34c0.45-7.63-0.03-15.46,1.51-22.87
		c10.22-49.36,40.19-83.77,83.72-106.87c44.81-23.77,89.88-47.09,135.35-69.56c44.17-21.83,84.83-47.06,106.01-98.01
		C-2014.53,577.07-2035.31,652.71-2103.54,680.59z M-2722.83,350.43c83.65-119.55,231.19-184.63,375.48-140.6
		c75.08,22.91,135.04,67.03,183.22,128.38c17.35,22.09,12.25,46.04,6.92,69.46c-10.71,47.05-39.23,83.05-76.31,112.16
		c-49.81,39.12-100.79,76.75-150.92,115.46c-21.52,16.61-42.18,34.34-59.61,48.61c-37.55-30.98-79.87-66.35-122.69-101.11
		c-36.38-29.54-74.94-56.6-109.57-88.03c-33.4-30.32-52.43-69.93-54.07-115.94C-2730.72,369.37-2728.15,358.04-2722.83,350.43z
		 M-2819.77,522.89c34.73,70.49,106.94,89.85,167.67,124.89c29.75,17.17,60.75,32.41,89.26,51.42
		c37.35,24.91,57.81,60.87,59.3,102.58c-33.19-55.33-85.84-64.34-137.2-77.04c-38.56-9.54-76.83-20.75-114.37-33.7
		c-18.88-6.51-37.08-16.82-53.45-28.42C-2849.97,633.29-2853.98,565.48-2819.77,522.89z M-2725.62,922.42
		c3.59-17.73,12.41-26.46,31.35-19.66c21.43,7.69,42.88,15.06,53.1,38.43c10.66,24.34,1.69,38.05-24.68,37.05
		C-2704.35,976.77-2731.47,951.36-2725.62,922.42z M-2620.47,938.31c-10.39-29.82-34.3-43.06-61.47-52.7
		c-9.47-3.36-19.35-5.6-30.59-8.79c12.51-26.3,30.34-31.74,47.77-13.11c21.21,22.66,41.97,46.59,58.14,72.91
		c23.19,37.76,4.73,67.84-40.05,69.24c-14.61,0.46-29.29-1.71-43.94-2.67c0.2-2.35,0.41-4.7,0.62-7.05
		c8.86,1.02,17.71,2.82,26.58,2.91C-2626.4,999.44-2608.35,973.08-2620.47,938.31z M-2842.01,1208.36
		c-69.44-15.82-134.69-39.89-185.49-93.07c-41.26-43.19-61.32-94.36-64.27-154.01c-4.75-96.28,13.1-189.12,34.35-282.29
		c8.63-37.88,11.23-79.76,4.85-117.85c-11.38-67.9-53.57-114.61-123-135.15c43.63-18.27,110.11-0.86,147,37.84
		c43.52,45.66,60.15,102.23,58.3,163.26c-1.86,61.55-8.88,122.95-13.73,184.4c-7.75,98.12,8.84,188.85,82.4,260.95
		c39.08,38.3,85.61,59.27,141.97,53.83c45.86-4.43,71.15-30.14,73.08-75.66c0.3-6.95,0.66-13.89,1.03-21.85
		c20.27-1.81,38.05-4.67,55.76-4.26c5.75,0.13,14.48,7.77,16.43,13.74c16.7,51.13-16.69,129.72-64.63,155.88
		C-2730.67,1222.89-2785.83,1221.17-2842.01,1208.36z M-3328.94,1690.99c-95.05,35.02-179.32,14.8-254.21-51.13
		c-113.64-100.04-140.52-266.41-62.42-386.37c23.62-36.29,54.12-64.63,94.88-80.65c20.68-8.13,40.96-9.11,60.84,7.84
		c-4.63,2.66-8.02,5.4-11.9,6.72c-83.66,28.3-127.07,87.49-131.6,174.65c-6.12,117.56,42.41,206.62,142.77,268.3
		c54.8,33.67,112.32,26.28,170.26,13.71c28.72-6.22,56.93-14.84,91.81-24.09C-3258.74,1655.88-3291.4,1677.16-3328.94,1690.99z
		 M-2753.61,1386.1c-41.46,7.43-82.74,15.88-124.17,23.44c-45.16,8.23-81.65,30.61-109.17,67.01
		c-16.49,21.8-32.53,44.06-47.07,67.19c-19.83,31.52-46.13,54.85-80.16,69.55c-37.56,16.22-75.24,32.18-112.87,48.26
		c-1.39-2.53-2.78-5.05-4.17-7.57c51.05-47.32,78.19-109.1,102.23-171.67c43.72-113.82,128.32-176.99,243.02-206.46
		c61.91-15.91,124.38-30.48,184.89-50.76c84.22-28.22,126.13-108.78,107.35-195.54c-1.6-7.35-1.77-17.67,2.2-23.1
		c19.13-26.2,18.73-54.08,2.9-79.11c-17.82-28.19-39.25-54.65-62.3-78.84c-22.7-23.83-44.26-20.63-81.04,7.41
		c-32.23-46.78-51.54-98.2-63.96-157.39c21.97,7.74,40.24,15.3,59.14,20.62c44.26,12.47,88.88,23.68,133.26,35.72
		c66.05,17.92,107.34,75.6,106.64,144.32c-0.47,44.93-15.69,85.44-30.48,126.58c-9.74,27.09-19.53,54.44-25.76,82.47
		c-9.7,43.64,1.53,85.03,18.9,125.29c18.39,42.64,10.91,62.5-27.77,88.77C-2620.03,1361.69-2686.63,1374.1-2753.61,1386.1z
		 M-2815.22,2244.21c-99.41-10.11-149-68.54-175.73-159.95c-10.18-34.82-9.46-72.82-9.45-111.39
		c51.57,137.46,152.67,211.37,297.69,237.63C-2738.56,2240.79-2775.78,2248.22-2815.22,2244.21z M-2613.56,1877.95
		c47.95,52.14,84.65,110.18,83.38,185.12c-2.05,121.77-115.18,219.45-240.47,203.19c7.69-3.09,12.05-5.25,16.64-6.63
		c68.42-20.59,106.41-69.1,114.18-140.93c7.14-65.98-7.99-127.06-35.41-185.93c-23.02-49.44-48.02-97.96-70.33-147.7
		c-9.11-20.3-13.44-42.73-20.54-66.18C-2713.59,1773.47-2662.51,1824.73-2613.56,1877.95z M-1879.18,1960.42
		c22.06,85.71-10.93,192.52-92.23,242.66c-67.96,41.92-151.04,46.81-196.7-3.07C-2028.47,2173.69-1927.03,2101.69-1879.18,1960.42z
		 M-2148.46,1819.22c-25.38,59.45-55.04,117.24-77.5,177.73c-17.68,47.61-16.05,98.66-1.62,147.7
		c15.82,53.79,48.78,91.83,106.02,104.55c5,1.11,9.66,3.73,14.48,5.64c-76.56,6.55-142.8-14.02-190.77-75.7
		c-49.88-64.12-61.62-135.34-30.49-211.59c20.5-50.2,56.51-89.32,93.15-128.14c40.67-43.1,79.87-87.59,119.78-131.41
		c1.33-1.46,3.42-2.23,10.79-0.79C-2119.16,1744.58-2132.73,1782.36-2148.46,1819.22z M-2105.27,1515.67
		c13.68,55.79,10.17,110.04-16.6,161.74c-3.41,6.59-7.82,12.66-12.91,20.8c-8.8-22.16-15.02-42.3-24.5-60.79
		c-23.12-45.12-61.11-76.25-101.49-105.38c-37.28-26.89-75.05-53.67-108.98-84.5c-42.86-38.95-59.08-89.38-55.12-148.05
		c2.39-35.37-0.77-71.5-5.14-106.83c-5.02-40.63-9.6-80.53,2.78-120.68c1.49-4.85-4.36-11.96-6.81-18.01
		c-2.72,1.23-5.44,2.47-8.16,3.71c-20.61,47.3-14.31,96.28-6.42,144.81c6.06,37.25,8.76,73.27,1.48,111.33
		c-5.84,30.56,3.74,64.56-18.24,91.55c-23.52,28.88-47.87,57.25-73.83,83.92c-12.87,13.23-29.98,22.43-45.5,32.98
		c-101.57,69.03-107.16,75.56-155.79,185.54c-31.02-43.34-38.87-90.46-34.36-140.37c7.16-79.24,48.44-134.76,119.3-169.61
		c33.63-16.54,67.04-33.55,99.9-51.55c12.16-6.65,23.35-15.79,33.38-25.46c21.77-20.95,27.1-44.9,15.84-74.55
		c-12.36-32.55-28.09-66.64-28.38-100.19c-0.33-36.06,11.36-73.98,25.24-108.06c31.27-76.74,40.74-155.01,29.87-236.5
		c-7.66-57.45-36.81-101.09-86.74-129.41c-54.34-30.83-110.01-59.33-165.06-88.93c-42.15-22.68-70.51-55.9-80.36-103.81
		c-11.02-53.6,18.46-125.39,62.6-152.54c0,23.11-2.59,47.13,0.52,70.39c7.3,54.55,36.38,98,78.41,131.86
		c48.7,39.24,98.56,77.13,149.23,113.79c49.45,35.77,78.01,79.95,69.15,143.38c-1.37,9.77,1.36,20.12,2.26,31.06
		c14.48,5.57,22.18,2.66,21.54-14.2c-0.63-16.41-0.61-32.84-1.06-49.26c-0.92-33.98,9.37-63.43,36.61-84.89
		c44.83-35.32,90.93-69.06,135.16-105.1c28.97-23.6,58.72-47.45,82.52-75.87c36.16-43.16,50.6-94.5,37.95-151.28
		c-0.51-2.27-0.67-4.66-0.6-6.99c0.05-1.48,0.82-2.95,1.99-6.85c5.43,3.55,10.76,6.14,15,9.94c86.35,77.51,72.13,191.96-30.6,245.32
		c-45.76,23.77-91.47,47.73-137.94,70.06c-79.76,38.33-114.32,100.56-116.79,189.22c-1.64,59.19,11.26,112.29,32.21,165.45
		c4.29,10.9,8,22.03,12.32,32.91c20.78,52.31,19.1,103.89-5.92,154.26c-31.3,63.03-7.23,95.57,37.1,125.64
		c41.96,28.47,87.76,51.29,129.8,79.65C-2156.47,1424.96-2118.61,1461.21-2105.27,1515.67z M-1831.95,1540.97
		c-14.06-17.7-27-36.52-38.57-55.94c-38.85-65.21-96.09-98.54-171.05-108.82c-63.23-8.67-126.48-20.79-187.85-38.04
		c-35.06-9.85-68.48-29.94-98.82-50.95c-34.7-24.04-39.43-47.28-21.68-85.01c29.15-61.97,28.77-123.24,3.12-185.81
		c-10.94-26.68-21.23-53.76-29.7-81.3c-23.79-77.36,20.61-158.27,98.51-180.35c63.62-18.04,127.44-35.38,194.25-53.88
		c-10.64,56.21-30.11,109.35-62.13,158.45c-41.02-36.98-64.37-35.22-98.95,6.18c-12.53,14.99-25.02,30.05-36.83,45.62
		c-18.02,23.77-24.2,50.02-16.07,79.48c1.67,6.03,0.84,14.07-1.83,19.78c-30.02,64.14,13.82,170.58,85.55,194.98
		c58.92,20.04,120.01,33.61,179.4,52.39c44.47,14.06,89.05,29.08,131.25,48.69c47.85,22.25,83.5,59.85,109.28,106.23
		c41.39,74.46,62.19,159.98,121.69,225.73C-1731.3,1614.15-1790.97,1592.56-1831.95,1540.97z M-1441.93,1693.14
		c-80.67,14.94-149.92-14.04-207.81-72.98c29.52,6.21,58.89,13.31,88.6,18.47c145.44,25.27,279.01-72.98,296.56-221.23
		c4.58-38.69,1.92-79.73-5.7-118.04c-12.92-64.92-54.21-107.36-119.59-124.32c-3.52-0.91-6.88-2.48-12.76-4.63
		c14.56-15.54,29.55-18.78,47.29-13.16c58.26,18.46,96.32,59.33,122.65,112.19C-1148.47,1438.49-1256.37,1658.78-1441.93,1693.14z"
		/>
	<path class="st1" d="M-434.86,1609.07c-52.71,28.77-107.87,27.05-164.05,14.24c-69.44-15.82-134.69-39.89-185.49-93.07
		c-41.26-43.19-61.32-94.36-64.27-154.01c-4.75-96.28,13.1-189.12,34.35-282.29c8.63-37.88,11.23-79.76,4.85-117.85
		c-11.38-67.9-53.57-114.61-123-135.15c43.63-18.27,110.11-0.86,147,37.84c43.52,45.66,60.15,102.23,58.3,163.26
		c-1.86,61.55-8.88,122.95-13.73,184.4c-7.75,98.12,8.84,188.85,82.4,260.95c39.08,38.3,85.61,59.27,141.97,53.83
		c45.86-4.43,71.15-30.14,73.08-75.66c0.3-6.95,0.66-13.89,1.03-21.85c20.27-1.81,38.05-4.67,55.76-4.26
		c5.75,0.13,14.48,7.77,16.43,13.74C-353.53,1504.32-386.92,1582.91-434.86,1609.07z"/>
	<path class="st2" d="M-1687.37,4079.54c2.11-4.62,4.56-15.29-6.81-18.01c-3.2,1.45-4.51,2.05-5.61,2.55v47.43
		C-1696.97,4102.07-1692.89,4091.62-1687.37,4079.54z"/>
	<path class="st1" d="M-898.8,3457.6C-898.8,3457.61-898.8,3457.61-898.8,3457.6c19.09,0.08,37.61,7.86,53.46,20.49
		C-861.2,3465.46-879.72,3457.68-898.8,3457.6z"/>
	<path class="st1" d="M-864.15,3498.64c25.24,40.05,19.51,77.34-16.7,138.05C-844.64,3575.97-838.9,3538.69-864.15,3498.64z"/>
	<path class="st1" d="M-864.63,3662.31c27.68-7.77,51.96-30.18,61.93-58.44C-812.67,3632.13-836.95,3654.53-864.63,3662.31z"/>
	<path class="st1" d="M-1419.42,4644.98c9.48,18.49,15.7,38.63,24.5,60.79c5.09-8.14,9.5-14.21,12.91-20.8
		c26.77-51.7,30.28-105.95,16.6-161.74c-13.34-54.46-51.2-90.71-95.14-120.35c-42.04-28.36-87.84-51.18-129.8-79.65
		c-44.33-30.07-68.4-62.61-37.1-125.64c25.02-50.37,26.7-101.95,5.92-154.26c-4.32-10.88-8.03-22.01-12.32-32.91
		c-20.95-53.16-33.85-106.26-32.21-165.45c2.47-88.66,37.03-150.89,116.79-189.22c46.47-22.33,92.18-46.29,137.94-70.06
		c102.73-53.36,116.95-167.81,30.6-245.32c-4.24-3.8-9.57-6.39-15-9.94c-1.17,3.9-1.94,5.37-1.99,6.85
		c-0.07,2.33,0.09,4.72,0.6,6.99c12.65,56.78-1.79,108.12-37.95,151.28c-23.8,28.42-53.55,52.27-82.52,75.87
		c-44.23,36.04-90.33,69.78-135.16,105.1c-27.24,21.46-37.53,50.91-36.61,84.89c0.45,16.42,0.43,32.85,1.06,49.26
		c0.47,12.39-3.57,17.24-11.49,16.73v236.68c1.1-0.5,2.41-1.1,5.61-2.55c11.37,2.72,8.92,13.39,6.81,18.01
		c-5.52,12.08-9.6,22.52-12.42,31.97v61.9c2.44,8.2,5.71,16.93,9.64,26.81c15,37.66,7.53,71.46,5.14,106.83
		c-3.96,58.67,12.26,109.1,55.12,148.05c33.93,30.83,71.7,57.61,108.98,84.5C-1480.53,4568.73-1442.54,4599.86-1419.42,4644.98z"/>
	<path class="st1" d="M-1644.58,3642.85c50.13-38.71,101.11-76.34,150.92-115.46c37.08-29.11,65.6-65.11,76.31-112.16
		c5.33-23.42,10.43-47.37-6.92-69.46c-48.18-61.35-108.14-105.47-183.22-128.38c-30.84-9.41-61.82-13.82-92.3-13.8v484.25
		C-1683.33,3674.26-1664.32,3658.09-1644.58,3642.85z"/>
	<path class="st1" d="M-1163.49,4314c-42.2-19.61-86.78-34.63-131.25-48.69c-59.39-18.78-120.48-32.35-179.4-52.39
		c-71.73-24.4-115.57-130.84-85.55-194.98c2.67-5.71,3.5-13.75,1.83-19.78c-8.13-29.46-1.95-55.71,16.07-79.48
		c11.81-15.57,24.3-30.63,36.83-45.62c34.58-41.4,57.93-43.16,98.95-6.18c32.02-49.1,51.49-102.24,62.13-158.45
		c-66.81,18.5-130.63,35.84-194.25,53.88c-77.9,22.08-122.3,102.99-98.51,180.35c8.47,27.54,18.76,54.62,29.7,81.3
		c25.65,62.57,26.03,123.84-3.12,185.81c-17.75,37.73-13.02,60.97,21.68,85.01c30.34,21.01,63.76,41.1,98.82,50.95
		c61.37,17.25,124.62,29.37,187.85,38.04c74.96,10.28,132.2,43.61,171.05,108.82c11.57,19.42,24.51,38.24,38.57,55.94
		c40.98,51.59,100.65,73.18,159.57,97.43c-59.5-65.75-80.3-151.27-121.69-225.73C-1079.99,4373.85-1115.64,4336.25-1163.49,4314z"/>
	<path class="st1" d="M-1413.52,4138.01c-34.59-9.61-51.91-32.28-52.65-68.17c-0.24-11.34-0.04-22.69-0.04-32.51
		c-25.18-3.76-46.72-6.98-71.44-10.67c-1.69,3.71-4.38,7.69-5.4,12.06c-13.72,58.9,24.07,132.69,79.39,157.75
		c114.08,51.7,218.2,28.82,313.97-43.83c50.55-38.35,84.09-91.17,85.62-155.2c1.61-67.49-3.54-135.54-11.1-202.73
		c-6.25-55.54-23.44-109.82-30.14-165.33c-8.28-68.7,31.71-164.53,126.19-183.34c3.42-0.68,6.66-2.26,14.2-4.89
		c-8.37-2.82-12.52-4.89-16.89-5.58c-77.31-12.24-142.88,22.36-177.38,93.1c-23.74,48.68-27.23,100.53-23.82,153.24
		c4.47,69.29,14.75,138.58,13.77,207.75c-1.32,93.63-37.25,173.55-118.99,226.65C-1326.43,4141.13-1368.42,4150.54-1413.52,4138.01z
		"/>
	<path class="st1" d="M-1487.72,5152.21c-14.43-49.04-16.06-100.09,1.62-147.7c22.46-60.49,52.12-118.28,77.5-177.73
		c15.73-36.86,29.3-74.64,43.84-112.01c-7.37-1.44-9.46-0.67-10.79,0.79c-39.91,43.82-79.11,88.31-119.78,131.41
		c-36.64,38.82-72.65,77.94-93.15,128.14c-31.13,76.25-19.39,147.47,30.49,211.59c47.97,61.68,114.21,82.25,190.77,75.7
		c-4.82-1.91-9.48-4.53-14.48-5.64C-1438.94,5244.04-1471.9,5206-1487.72,5152.21z"/>
	<path class="st1" d="M-492.83,4277c-26.33-52.86-64.39-93.73-122.65-112.19c-17.74-5.62-32.73-2.38-47.29,13.16
		c5.88,2.15,9.24,3.72,12.76,4.63c65.38,16.96,106.67,59.4,119.59,124.32c7.62,38.31,10.28,79.35,5.7,118.04
		c-17.55,148.25-151.12,246.5-296.56,221.23c-29.71-5.16-59.08-12.26-88.6-18.47c57.89,58.94,127.14,87.92,207.81,72.98
		C-516.51,4666.34-408.61,4446.05-492.83,4277z"/>
	<path class="st1" d="M-1421.17,3613.71c-45.47,22.47-90.54,45.79-135.35,69.56c-43.53,23.1-73.5,57.51-83.72,106.87
		c-1.54,7.41-1.06,15.24-1.51,22.87c30.81-46.45,74.32-65.17,124.21-77.34c52.1-12.71,104.33-27.29,153.86-47.52
		c68.23-27.88,89.01-103.52,48.52-172.45C-1336.34,3566.65-1377,3591.88-1421.17,3613.71z"/>
	<path class="st1" d="M-1428.25,5207.57c45.66,49.88,128.74,44.99,196.7,3.07c81.3-50.14,114.29-156.95,92.23-242.66
		C-1187.17,5109.25-1288.61,5181.25-1428.25,5207.57z"/>
	<path class="st1" d="M-798.24,3583.72c-0.66,6.95-2.19,13.7-4.46,20.14C-800.42,3597.42-798.89,3590.67-798.24,3583.72
		c3.76-39.7-16.82-81.52-47.1-105.63C-815.06,3502.21-794.49,3544.02-798.24,3583.72z"/>
	<path class="st1" d="M-898.2,3664.16c6.4-9.69,12.18-18.82,17.35-27.48C-886.02,3645.34-891.8,3654.48-898.2,3664.16
		c11.27,2.01,22.68,1.2,33.57-1.85C-875.52,3665.37-886.93,3666.17-898.2,3664.16z"/>
	<path class="st1" d="M-864.15,3498.64c-8.24-13.08-19.78-26.45-34.64-41.03c0,0-0.01,0-0.01,0
		C-883.93,3472.19-872.4,3485.56-864.15,3498.64z"/>
	<path class="st1" d="M-864.15,3498.64c25.25,40.05,19.51,77.33-16.7,138.05c-5.17,8.66-10.94,17.79-17.35,27.48
		c11.27,2,22.68,1.2,33.57-1.85c27.68-7.78,51.96-30.18,61.93-58.44c2.27-6.44,3.8-13.19,4.46-20.14
		c3.75-39.7-16.82-81.52-47.1-105.63c-15.86-12.63-34.38-20.41-53.46-20.48C-883.93,3472.19-872.39,3485.56-864.15,3498.64z"/>
	<path class="st1" d="M-730.23,4455.41c-40-98.63-38.26-191.54,31.33-278.17c-49.86,8.31-85.83,53.41-96.42,116.47
		C-804.92,4350.91-773.06,4432.9-730.23,4455.41z"/>
	<path class="st1" d="M-1499.45,3950.77c-9.09,22.46-0.92,34.9,32.73,35.23c9.39-4.55,29.51-9.82,42.74-22.35
		c8.24-7.81,7.97-26.64,7.62-40.42c-0.14-5.2-10.85-13.71-17.48-14.51C-1455.42,3906.14-1491.23,3930.44-1499.45,3950.77z"/>
	<path class="st1" d="M-1467.85,3866.26c-26.49,29.84-50.26,62.5-71.44,96.32c-4.95,7.92,1.36,27.81,8.72,37.43
		c13.65,17.87,60.82,18.98,83.3,3.89c-4.82,0-7.8-0.61-10.42,0.1c-23.83,6.43-45.32,3.15-60.77-17.43
		c-10.75-14.34-4.44-44.95,13.21-64.34c7.65-8.4,17.52-15.76,27.81-20.55c16.02-7.48,33.25-12.36,49.98-18.34
		C-1436.73,3861.75-1455.25,3852.07-1467.85,3866.26z"/>
	<path class="st3" d="M7535,1548.8v-47.43c-0.77,0.35-1.43,0.65-2.55,1.16c-20.61,47.3-9.72,95.75-6.42,144.81
		c13.18,195.99-36.86,284.16-160.54,329.09c-86.79,31.53-127.88,64.34-103.37,264.51c-178.55-118.47-101.66-348.25,56.97-398.27
		c57.1-18,164.98-70.5,149.12-151.56c-6.68-34.17-28.09-66.64-28.38-100.19c-0.33-36.06,11.36-73.98,25.24-108.06
		c31.27-76.74,40.74-155.01,29.87-236.5c-7.66-57.45-36.81-101.09-86.74-129.41c-54.34-30.83-110.01-59.33-165.06-88.93
		c-42.15-22.68-70.51-55.9-80.36-103.81c-11.02-53.6,18.46-125.39,62.6-152.54c0,23.11-2.59,47.13,0.52,70.39
		c7.3,54.55,36.38,98,78.41,131.86c48.7,39.24,98.56,77.13,149.23,113.79c49.45,35.77,78.01,79.95,69.15,143.38
		c-1.37,9.77,1.36,20.12,2.26,31.06c3.84,1.48,7.19,2.35,10.05,2.53v-139.56c-1.48,1.23-2.96,2.44-4.4,3.62
		c-37.55-30.98-79.87-66.35-122.69-101.11c-36.38-29.54-74.94-56.6-109.57-88.03c-33.4-30.32-52.43-69.93-54.07-115.94
		c-0.34-9.45,2.23-20.78,7.55-28.39c65.77-94,171.05-154.31,283.18-154.4V472.67H6153.34v2552.62H7535V1610.71
		C7528.79,1589.86,7527.92,1572.49,7535,1548.8z M7154.88,967.75c34.73,70.49,106.94,89.85,167.67,124.89
		c29.75,17.17,60.75,32.41,89.26,51.42c37.35,24.91,57.81,60.87,59.3,102.58c-33.19-55.33-85.84-64.34-137.2-77.04
		c-38.56-9.54-76.83-20.75-114.37-33.7c-18.88-6.51-37.08-16.82-53.45-28.42C7124.68,1078.15,7120.67,1010.34,7154.88,967.75z
		 M6961.68,895.93c43.52,45.66,46.01,113.45,42.7,176.02c-3.25,61.49-13.59,123.73-13.73,184.4
		c-0.22,98.43,8.79,184.34,82.35,256.44c39.08,38.3,90.19,71.82,146.55,66.38c45.86-4.43,66.62-38.18,68.55-83.7
		c0.3-6.95,0.66-13.89,1.03-21.85c20.27-1.81,38.05-4.67,55.76-4.26c5.75,0.13,14.48,7.77,16.43,13.74
		c16.7,51.13-19.22,124.94-64.63,155.88c-49.63,33.81-92.45,44.82-154.75,43.34c-70.31-1.68-136.85-18.74-210.38-110.81
		c-37.28-46.67-45.72-105.72-48.67-165.37c-4.75-96.28,13.1-189.12,34.35-282.29c8.63-37.88,11.23-79.76,4.85-117.85
		c-11.38-67.9-53.57-114.61-123-135.15C6837.6,837.72,6924.79,857.23,6961.68,895.93z M7354.18,1383.17
		c-10.39-29.82-34.3-43.06-61.47-52.7c-9.47-3.36-19.35-5.6-30.59-8.79c12.51-26.3,30.34-31.74,47.77-13.11
		c21.21,22.66,41.97,46.59,58.14,72.91c23.19,37.76,4.73,67.84-40.05,69.24c-14.61,0.46-29.29-1.71-43.94-2.67
		c0.2-2.35,0.41-4.7,0.62-7.05c8.86,1.02,17.71,2.82,26.58,2.91C7348.25,1444.3,7366.3,1417.94,7354.18,1383.17z M7280.38,1347.62
		c21.43,7.69,42.88,15.06,53.1,38.43c10.66,24.34,1.69,38.05-24.68,37.05c-38.5-1.47-65.62-26.88-59.77-55.82
		C7252.62,1349.55,7261.44,1340.82,7280.38,1347.62z M6667,855.7c76.78-63.63,150.13-57.19,199.73-28.21
		c0.07,0.04,0.92,1.08,0.84,1.08c-148.5,16.61-186.51,153.03-146.67,254.57c0.03,0.08-0.05,0.15-0.13,0.12
		C6593.26,1025.94,6615.25,898.59,6667,855.7z M6681,1655.75c-41.58-84.11-137.92-113.45-265.31-10.4
		C6527.77,1427.85,6782.39,1502.91,6681,1655.75z M6453.23,2067.35c-112.34-71.49-132.39-223.77-77.85-338.53
		c21.36-44.95,71.74-111.84,116.5-115.09c-20.72,47.41-29.92,45.66-47.93,128.07c-22.37,102.32,31.3,248.14,124.86,277.97
		c52.61,16.78,114.89,17.41,163.16-1.99c23.93-9.61,34.96-12.84,63.78-26c-21.02,35.91-62.57,57.81-93.04,75.38
		C6625.57,2111.65,6527.26,2114.47,6453.23,2067.35z M6858.02,2069.38c-36.77,27.23-102.64,40.08-166.64,27.23
		c91.36-50.46,160.51-94.63,158.31-192.25c-2.75-121.9,124.55-168.93,236.99-183.65c63.38-8.29,128.72-20.46,184.89-50.76
		c52.68-28.42,126.13-108.78,107.35-195.54c-1.6-7.35-1.77-17.67,2.2-23.1c19.13-26.2,18.73-54.08,2.9-79.11
		c-17.82-28.19-39.25-54.65-62.3-78.84c-22.7-23.83-44.26-20.63-81.04,7.41c-32.23-46.78-51.54-98.2-63.96-157.39
		c21.97,7.74,40.24,15.3,59.14,20.62c44.26,12.47,88.88,23.68,133.26,35.72c66.05,17.92,107.34,75.6,106.64,144.32
		c-0.47,44.93-15.69,85.44-30.48,126.58c-9.74,27.09-19.53,54.44-25.76,82.47c-9.7,43.64,1.53,85.03,18.9,125.29
		c18.39,42.64,10.91,62.5-27.77,88.77c-58.03,39.4-125.65,77.29-192.63,89.29c-41.46,7.43-81.72-9.6-123.15-2.04
		c-45.16,8.23-81.65,30.61-109.17,67.01c-16.49,21.8-32.53,44.06-47.07,67.19C6918.8,2020.12,6887.81,2047.31,6858.02,2069.38z
		 M6978.38,2667.63c-51.72-59.75-73.3-197.74-6.57-259.33c0.29,126.4,95.5,256.91,261.6,276.97
		C7155.33,2752.21,7035.17,2733.23,6978.38,2667.63z M7414.36,2532.63c-2.4,121.76-115.82,219.11-241.06,202.49
		c7.7-3.07,12.07-5.21,16.66-6.58c68.48-20.39,106.61-68.79,114.59-140.6c7.33-65.96-7.62-127.08-34.87-186.03
		c-22.88-49.51-47.73-98.1-69.9-147.9c-9.05-20.33-13.32-42.77-20.35-66.24c52.36,54.73,103.29,106.14,152.09,159.5
		C7379.31,2399.55,7415.84,2457.7,7414.36,2532.63z"/>
	<path class="st1" d="M-1699.79,4173.42v-61.9C-1706.87,4135.2-1706,4152.56-1699.79,4173.42z"/>
	<g class="st1">
		<path d="M2020.41,2228.98c0.08,0.03,0.16-0.04,0.13-0.12c-39.84-101.54-1.82-237.96,146.67-254.57c0.09-0.01-0.76-1.04-0.84-1.08
			c-49.6-28.98-122.95-35.42-199.73,28.21C1914.9,2044.3,1892.91,2171.66,2020.41,2228.98z"/>
		<path d="M2597.99,2085.33c34.63,31.43,73.19,58.49,109.57,88.03c42.82,34.76,85.14,70.13,122.69,101.11
			c1.44-1.18,2.91-2.39,4.4-3.62c1.49,1.23,2.96,2.44,4.4,3.62c37.55-30.98,79.87-66.35,122.69-101.11
			c36.38-29.54,74.94-56.6,109.57-88.03c33.4-30.32,52.43-69.93,54.07-115.94c0.34-9.45-2.23-20.78-7.55-28.39
			c-65.77-94-171.05-154.31-283.18-154.4c-112.13,0.09-217.41,60.4-283.18,154.4c-5.32,7.61-7.89,18.94-7.55,28.39
			C2545.56,2015.4,2564.59,2055.01,2597.99,2085.33z"/>
		<path d="M2285.35,3067.12c27.52-36.4,64.01-58.78,109.17-67.01c41.43-7.56,81.69,9.47,123.15,2.04
			c66.98-12,134.6-49.89,192.63-89.29c38.68-26.27,46.16-46.13,27.77-88.77c-17.37-40.26-28.6-81.65-18.9-125.29
			c6.23-28.03,16.02-55.38,25.76-82.47c14.79-41.14,30.01-81.65,30.48-126.58c0.7-68.72-40.59-126.4-106.64-144.32
			c-44.38-12.04-89-23.25-133.26-35.72c-18.9-5.32-37.17-12.88-59.14-20.62c12.42,59.19,31.73,110.61,63.96,157.39
			c36.78-28.04,58.34-31.24,81.04-7.41c23.05,24.19,44.48,50.65,62.3,78.84c15.83,25.03,16.23,52.91-2.9,79.11
			c-3.97,5.43-3.8,15.75-2.2,23.1c18.78,86.76-54.67,167.12-107.35,195.54c-56.17,30.3-121.51,42.47-184.89,50.76
			c-112.44,14.71-239.74,61.75-236.99,183.65c2.21,97.62-66.95,141.79-158.31,192.25c64,12.85,129.88,0,166.64-27.23
			c29.79-22.06,60.78-49.26,80.61-80.78C2252.82,3111.18,2268.86,3088.92,2285.35,3067.12z"/>
		<path d="M2098.73,2016.56c69.43,20.54,111.62,67.25,123,135.15c6.38,38.09,3.78,79.97-4.85,117.85
			c-21.25,93.17-39.1,186.01-34.35,282.29c2.95,59.65,11.4,118.7,48.67,165.37c73.53,92.07,140.07,109.13,210.38,110.81
			c62.3,1.49,105.13-9.53,154.75-43.34c45.41-30.94,81.33-104.75,64.63-155.88c-1.95-5.97-10.68-13.61-16.43-13.74
			c-17.71-0.41-35.49,2.45-55.76,4.26c-0.37,7.96-0.73,14.9-1.03,21.85c-1.93,45.52-22.69,79.27-68.55,83.7
			c-56.36,5.44-107.47-28.08-146.55-66.38c-73.56-72.1-82.58-158.01-82.35-256.44c0.14-60.67,10.48-122.91,13.73-184.4
			c3.31-62.56,0.82-130.36-42.7-176.02C2224.44,2002.94,2137.24,1983.43,2098.73,2016.56z"/>
		<path d="M2479.08,3333.48c7.03,23.47,11.3,45.91,20.35,66.24c22.17,49.8,47.02,98.4,69.9,147.9
			c27.25,58.95,42.2,120.07,34.87,186.03c-7.98,71.81-46.11,120.21-114.59,140.6c-4.59,1.37-8.96,3.51-16.66,6.58
			c125.24,16.62,238.66-80.73,241.06-202.49c1.49-74.94-35.04-133.08-82.84-185.36C2582.37,3439.62,2531.44,3388.21,2479.08,3333.48
			z"/>
		<path d="M2095.39,3137.5c-28.82,13.16-39.85,16.39-63.78,26c-48.27,19.41-110.55,18.77-163.16,1.99
			c-93.55-29.84-147.22-175.66-124.86-277.97c18.01-82.41,27.21-80.66,47.93-128.07c-44.76,3.25-95.14,70.14-116.5,115.09
			c-54.54,114.76-34.49,267.04,77.85,338.53c74.03,47.12,172.34,44.3,249.48-0.19C2032.82,3195.31,2074.37,3173.41,2095.39,3137.5z"
			/>
		<path d="M2465.74,2253.19c16.37,11.6,34.57,21.91,53.45,28.42c37.54,12.95,75.81,24.16,114.37,33.7
			c51.36,12.7,104.01,21.71,137.2,77.04c-1.49-41.71-21.95-77.67-59.3-102.58c-28.51-19.01-59.51-34.25-89.26-51.42
			c-60.73-35.04-132.94-54.4-167.67-124.89C2420.32,2156.05,2424.33,2223.86,2465.74,2253.19z"/>
		<path d="M2271.46,3554c-66.73,61.59-45.15,199.59,6.57,259.33c56.79,65.6,176.95,84.58,255.03,17.63
			C2366.95,3810.91,2271.75,3680.4,2271.46,3554z"/>
		<path d="M1980.65,2801.46c101.38-152.84-153.23-227.9-265.31-10.4C1842.73,2688.01,1939.07,2717.35,1980.65,2801.46z"/>
		<path d="M2548.68,2512.99c-5.85,28.94,21.27,54.35,59.77,55.82c26.37,1,35.34-12.71,24.68-37.05
			c-10.22-23.37-31.67-30.74-53.1-38.43C2561.09,2486.53,2552.27,2495.26,2548.68,2512.99z"/>
		<path d="M2610.89,2589.62c-8.87-0.09-17.72-1.89-26.58-2.91c-0.21,2.35-0.42,4.7-0.62,7.05c14.65,0.96,29.33,3.13,43.94,2.67
			c44.78-1.4,63.24-31.48,40.05-69.24c-16.17-26.32-36.93-50.25-58.14-72.91c-17.43-18.63-35.26-13.19-47.77,13.11
			c11.24,3.19,21.12,5.43,30.59,8.79c27.17,9.64,51.08,22.88,61.47,52.7C2665.95,2563.65,2647.9,2590.01,2610.89,2589.62z"/>
		<path d="M3648.75,2228.86c-0.03,0.08,0.05,0.15,0.13,0.12c127.5-57.32,105.51-184.68,53.76-227.56
			c-76.78-63.63-150.13-57.19-199.73-28.21c-0.07,0.04-0.92,1.07-0.84,1.08C3650.58,1990.9,3688.59,2127.32,3648.75,2228.86z"/>
		<path d="M3107.53,3386.66c178.54-118.47,101.66-348.25-56.97-398.27c-57.1-18-164.98-70.5-149.12-151.56
			c6.68-34.17,28.09-66.64,28.38-100.19c0.33-36.06-11.36-73.98-25.24-108.06c-31.27-76.74-40.74-155.01-29.87-236.5
			c7.66-57.45,36.81-101.09,86.74-129.41c54.34-30.83,110.01-59.33,165.06-88.93c42.15-22.68,70.51-55.9,80.36-103.81
			c11.02-53.6-18.46-125.39-62.6-152.54c0,23.11,2.59,47.13-0.52,70.39c-7.3,54.55-36.38,98-78.41,131.86
			c-48.7,39.24-98.56,77.13-149.23,113.79c-49.45,35.77-78.01,79.95-69.15,143.38c1.37,9.77-1.36,20.12-2.26,31.06
			c-3.84,1.48-7.19,2.35-10.05,2.53c-2.86-0.18-6.21-1.06-10.05-2.53c-0.9-10.94-3.63-21.29-2.26-31.06
			c8.86-63.43-19.7-107.61-69.15-143.38c-50.67-36.66-100.53-74.55-149.23-113.79c-42.03-33.86-71.11-77.31-78.41-131.86
			c-3.11-23.26-0.52-47.28-0.52-70.39c-44.14,27.15-73.62,98.94-62.6,152.54c9.85,47.91,38.21,81.13,80.36,103.81
			c55.05,29.6,110.72,58.1,165.06,88.93c49.93,28.32,79.08,71.96,86.74,129.41c10.87,81.49,1.4,159.76-29.87,236.5
			c-13.88,34.08-25.57,72-25.24,108.06c0.29,33.55,21.7,66.02,28.38,100.19c15.86,81.06-92.02,133.56-149.12,151.56
			c-158.63,50.02-235.52,279.8-56.97,398.27c-24.51-200.17,16.58-232.98,103.37-264.51c123.69-44.94,173.73-133.1,160.54-329.09
			c-3.3-49.06-14.19-97.51,6.42-144.81c1.12-0.51,1.78-0.81,2.55-1.16c0.77,0.35,1.43,0.65,2.55,1.16
			c20.61,47.3,9.72,95.75,6.42,144.81c-13.18,195.99,36.86,284.16,160.54,329.09C3090.95,3153.68,3132.04,3186.49,3107.53,3386.66z"
			/>
		<path d="M3519.96,3050.07c2.75-121.9-124.55-168.93-236.99-183.65c-63.38-8.29-128.72-20.46-184.89-50.76
			c-52.68-28.42-126.13-108.78-107.35-195.54c1.6-7.35,1.77-17.67-2.2-23.1c-19.13-26.2-18.73-54.08-2.9-79.11
			c17.82-28.19,39.25-54.65,62.3-78.84c22.7-23.83,44.26-20.63,81.04,7.41c32.23-46.78,51.54-98.2,63.96-157.39
			c-21.97,7.74-40.24,15.3-59.14,20.62c-44.26,12.47-88.88,23.68-133.26,35.72c-66.05,17.92-107.34,75.6-106.64,144.32
			c0.47,44.93,15.69,85.44,30.48,126.58c9.74,27.09,19.53,54.44,25.76,82.47c9.7,43.64-1.53,85.03-18.9,125.29
			c-18.39,42.64-10.91,62.5,27.77,88.77c58.03,39.4,125.65,77.29,192.63,89.29c41.46,7.43,81.72-9.6,123.15-2.04
			c45.16,8.23,81.65,30.61,109.17,67.01c16.49,21.8,32.53,44.06,47.07,67.19c19.83,31.52,50.82,58.72,80.61,80.78
			c36.77,27.23,102.64,40.08,166.64,27.23C3586.91,3191.86,3517.75,3147.69,3519.96,3050.07z"/>
		<path d="M3150.09,2724.88c-45.86-4.43-66.62-38.18-68.55-83.7c-0.3-6.95-0.66-13.89-1.03-21.85c-20.27-1.81-38.05-4.67-55.76-4.26
			c-5.75,0.13-14.48,7.77-16.43,13.74c-16.7,51.13,19.22,124.94,64.63,155.88c49.63,33.81,92.45,44.82,154.75,43.34
			c70.31-1.68,136.85-18.74,210.38-110.81c37.28-46.67,45.72-105.72,48.67-165.37c4.75-96.28-13.1-189.12-34.35-282.29
			c-8.63-37.88-11.23-79.76-4.85-117.85c11.38-67.9,53.57-114.61,123-135.15c-38.52-33.13-125.71-13.62-162.6,25.08
			c-43.52,45.66-46.01,113.45-42.7,176.02c3.25,61.49,13.59,123.73,13.73,184.4c0.23,98.43-8.79,184.34-82.35,256.44
			C3257.56,2696.79,3206.45,2730.32,3150.09,2724.88z"/>
		<path d="M3065.1,3733.66c-7.33-65.96,7.62-127.08,34.87-186.03c22.88-49.51,47.73-98.1,69.9-147.9
			c9.05-20.33,13.32-42.77,20.35-66.24c-52.36,54.73-103.29,106.14-152.09,159.5c-47.8,52.28-84.33,110.43-82.84,185.36
			c2.4,121.76,115.82,219.11,241.06,202.49c-7.7-3.07-12.07-5.21-16.66-6.58C3111.21,3853.86,3073.08,3805.46,3065.1,3733.66z"/>
		<path d="M3994.27,2874.54c-21.36-44.95-71.74-111.84-116.5-115.09c20.72,47.41,29.92,45.66,47.93,128.07
			c22.37,102.32-31.3,248.14-124.86,277.97c-52.61,16.78-114.89,17.41-163.16-1.99c-23.93-9.61-34.96-12.84-63.78-26
			c21.02,35.91,62.57,57.81,93.04,75.38c77.14,44.49,175.45,47.31,249.48,0.19C4028.76,3141.57,4048.8,2989.29,3994.27,2874.54z"/>
		<path d="M3047.1,2238.35c-29.75,17.17-60.75,32.41-89.26,51.42c-37.35,24.91-57.81,60.87-59.3,102.58
			c33.19-55.33,85.84-64.34,137.2-77.04c38.56-9.54,76.83-20.75,114.37-33.7c18.88-6.51,37.08-16.82,53.45-28.42
			c41.41-29.33,45.42-97.14,11.21-139.73C3180.04,2183.95,3107.83,2203.31,3047.1,2238.35z"/>
		<path d="M3397.83,3554c-0.29,126.4-95.5,256.91-261.6,276.97c78.08,66.95,198.24,47.97,255.03-17.63
			C3442.99,3753.59,3464.56,3615.6,3397.83,3554z"/>
		<path d="M3688.64,2801.46c41.58-84.11,137.92-113.45,265.31-10.4C3841.87,2573.56,3587.26,2648.63,3688.64,2801.46z"/>
		<path d="M3036.17,2531.76c-10.66,24.34-1.69,38.05,24.68,37.05c38.5-1.47,65.62-26.88,59.77-55.82
			c-3.59-17.73-12.41-26.46-31.35-19.66C3067.84,2501.02,3046.39,2508.39,3036.17,2531.76z"/>
		<path d="M3059.76,2454.28c-21.21,22.66-41.97,46.59-58.14,72.91c-23.19,37.76-4.73,67.84,40.05,69.24
			c14.61,0.46,29.29-1.71,43.94-2.67c-0.2-2.35-0.41-4.7-0.62-7.05c-8.86,1.02-17.71,2.82-26.58,2.91
			c-37.01,0.39-55.06-25.97-42.94-60.74c10.39-29.82,34.3-43.06,61.47-52.7c9.47-3.36,19.35-5.6,30.59-8.79
			C3095.02,2441.09,3077.19,2435.65,3059.76,2454.28z"/>
	</g>
</g>
<g id="Слой_2">
	<g>
		<path d="M2020.41,2228.98c0.08,0.03,0.16-0.04,0.13-0.12c-39.84-101.54-1.82-237.96,146.67-254.57c0.09-0.01-0.76-1.04-0.84-1.08
			c-49.6-28.98-122.95-35.42-199.73,28.21C1914.9,2044.3,1892.91,2171.66,2020.41,2228.98z"/>
		<path d="M2597.99,2085.33c34.63,31.43,73.19,58.49,109.57,88.03c42.82,34.76,85.14,70.13,122.69,101.11
			c1.44-1.18,2.91-2.39,4.4-3.62c1.49,1.23,2.96,2.44,4.4,3.62c37.55-30.98,79.87-66.35,122.69-101.11
			c36.38-29.54,74.94-56.6,109.57-88.03c33.4-30.32,52.43-69.93,54.07-115.94c0.34-9.45-2.23-20.78-7.55-28.39
			c-65.77-94-171.05-154.31-283.18-154.4c-112.13,0.09-217.41,60.4-283.18,154.4c-5.32,7.61-7.89,18.94-7.55,28.39
			C2545.56,2015.4,2564.59,2055.01,2597.99,2085.33z"/>
		<path d="M2285.35,3067.12c27.52-36.4,64.01-58.78,109.17-67.01c41.43-7.56,81.69,9.47,123.15,2.04
			c66.98-12,134.6-49.89,192.63-89.29c38.68-26.27,46.16-46.13,27.77-88.77c-17.37-40.26-28.6-81.65-18.9-125.29
			c6.23-28.03,16.02-55.38,25.76-82.47c14.79-41.14,30.01-81.65,30.48-126.58c0.7-68.72-40.59-126.4-106.64-144.32
			c-44.38-12.04-89-23.25-133.26-35.72c-18.9-5.32-37.17-12.88-59.14-20.62c12.42,59.19,31.73,110.61,63.96,157.39
			c36.78-28.04,58.34-31.24,81.04-7.41c23.05,24.19,44.48,50.65,62.3,78.84c15.83,25.03,16.23,52.91-2.9,79.11
			c-3.97,5.43-3.8,15.75-2.2,23.1c18.78,86.76-54.67,167.12-107.35,195.54c-56.17,30.3-121.51,42.47-184.89,50.76
			c-112.44,14.71-239.74,61.75-236.99,183.65c2.21,97.62-66.95,141.79-158.31,192.25c64,12.85,129.88,0,166.64-27.23
			c29.79-22.06,60.78-49.26,80.61-80.78C2252.82,3111.18,2268.86,3088.92,2285.35,3067.12z"/>
		<path d="M2098.73,2016.56c69.43,20.54,111.62,67.25,123,135.15c6.38,38.09,3.78,79.97-4.85,117.85
			c-21.25,93.17-39.1,186.01-34.35,282.29c2.95,59.65,11.4,118.7,48.67,165.37c73.53,92.07,140.07,109.13,210.38,110.81
			c62.3,1.49,105.13-9.53,154.75-43.34c45.41-30.94,81.33-104.75,64.63-155.88c-1.95-5.97-10.68-13.61-16.43-13.74
			c-17.71-0.41-35.49,2.45-55.76,4.26c-0.37,7.96-0.73,14.9-1.03,21.85c-1.93,45.52-22.69,79.27-68.55,83.7
			c-56.36,5.44-107.47-28.08-146.55-66.38c-73.56-72.1-82.58-158.01-82.35-256.44c0.14-60.67,10.48-122.91,13.73-184.4
			c3.31-62.56,0.82-130.36-42.7-176.02C2224.44,2002.94,2137.24,1983.43,2098.73,2016.56z"/>
		<path d="M2479.08,3333.48c7.03,23.47,11.3,45.91,20.35,66.24c22.17,49.8,47.02,98.4,69.9,147.9
			c27.25,58.95,42.2,120.07,34.87,186.03c-7.98,71.81-46.11,120.21-114.59,140.6c-4.59,1.37-8.96,3.51-16.66,6.58
			c125.24,16.62,238.66-80.73,241.06-202.49c1.49-74.94-35.04-133.08-82.84-185.36C2582.37,3439.62,2531.44,3388.21,2479.08,3333.48
			z"/>
		<path d="M2095.39,3137.5c-28.82,13.16-39.85,16.39-63.78,26c-48.27,19.41-110.55,18.77-163.16,1.99
			c-93.55-29.84-147.22-175.66-124.86-277.97c18.01-82.41,27.21-80.66,47.93-128.07c-44.76,3.25-95.14,70.14-116.5,115.09
			c-54.54,114.76-34.49,267.04,77.85,338.53c74.03,47.12,172.34,44.3,249.48-0.19C2032.82,3195.31,2074.37,3173.41,2095.39,3137.5z"
			/>
		<path d="M2465.74,2253.19c16.37,11.6,34.57,21.91,53.45,28.42c37.54,12.95,75.81,24.16,114.37,33.7
			c51.36,12.7,104.01,21.71,137.2,77.04c-1.49-41.71-21.95-77.67-59.3-102.58c-28.51-19.01-59.51-34.25-89.26-51.42
			c-60.73-35.04-132.94-54.4-167.67-124.89C2420.32,2156.05,2424.33,2223.86,2465.74,2253.19z"/>
		<path d="M2271.46,3554c-66.73,61.59-45.15,199.59,6.57,259.33c56.79,65.6,176.95,84.58,255.03,17.63
			C2366.95,3810.91,2271.75,3680.4,2271.46,3554z"/>
		<path d="M1980.65,2801.46c101.38-152.84-153.23-227.9-265.31-10.4C1842.73,2688.01,1939.07,2717.35,1980.65,2801.46z"/>
		<path d="M2548.68,2512.99c-5.85,28.94,21.27,54.35,59.77,55.82c26.37,1,35.34-12.71,24.68-37.05
			c-10.22-23.37-31.67-30.74-53.1-38.43C2561.09,2486.53,2552.27,2495.26,2548.68,2512.99z"/>
		<path d="M2610.89,2589.62c-8.87-0.09-17.72-1.89-26.58-2.91c-0.21,2.35-0.42,4.7-0.62,7.05c14.65,0.96,29.33,3.13,43.94,2.67
			c44.78-1.4,63.24-31.48,40.05-69.24c-16.17-26.32-36.93-50.25-58.14-72.91c-17.43-18.63-35.26-13.19-47.77,13.11
			c11.24,3.19,21.12,5.43,30.59,8.79c27.17,9.64,51.08,22.88,61.47,52.7C2665.95,2563.65,2647.9,2590.01,2610.89,2589.62z"/>
		<path d="M3648.75,2228.86c-0.03,0.08,0.05,0.15,0.13,0.12c127.5-57.32,105.51-184.68,53.76-227.56
			c-76.78-63.63-150.13-57.19-199.73-28.21c-0.07,0.04-0.92,1.07-0.84,1.08C3650.58,1990.9,3688.59,2127.32,3648.75,2228.86z"/>
		<path d="M3107.53,3386.66c178.54-118.47,101.66-348.25-56.97-398.27c-57.1-18-164.98-70.5-149.12-151.56
			c6.68-34.17,28.09-66.64,28.38-100.19c0.33-36.06-11.36-73.98-25.24-108.06c-31.27-76.74-40.74-155.01-29.87-236.5
			c7.66-57.45,36.81-101.09,86.74-129.41c54.34-30.83,110.01-59.33,165.06-88.93c42.15-22.68,70.51-55.9,80.36-103.81
			c11.02-53.6-18.46-125.39-62.6-152.54c0,23.11,2.59,47.13-0.52,70.39c-7.3,54.55-36.38,98-78.41,131.86
			c-48.7,39.24-98.56,77.13-149.23,113.79c-49.45,35.77-78.01,79.95-69.15,143.38c1.37,9.77-1.36,20.12-2.26,31.06
			c-3.84,1.48-7.19,2.35-10.05,2.53c-2.86-0.18-6.21-1.06-10.05-2.53c-0.9-10.94-3.63-21.29-2.26-31.06
			c8.86-63.43-19.7-107.61-69.15-143.38c-50.67-36.66-100.53-74.55-149.23-113.79c-42.03-33.86-71.11-77.31-78.41-131.86
			c-3.11-23.26-0.52-47.28-0.52-70.39c-44.14,27.15-73.62,98.94-62.6,152.54c9.85,47.91,38.21,81.13,80.36,103.81
			c55.05,29.6,110.72,58.1,165.06,88.93c49.93,28.32,79.08,71.96,86.74,129.41c10.87,81.49,1.4,159.76-29.87,236.5
			c-13.88,34.08-25.57,72-25.24,108.06c0.29,33.55,21.7,66.02,28.38,100.19c15.86,81.06-92.02,133.56-149.12,151.56
			c-158.63,50.02-235.52,279.8-56.97,398.27c-24.51-200.17,16.58-232.98,103.37-264.51c123.69-44.94,173.73-133.1,160.54-329.09
			c-3.3-49.06-14.19-97.51,6.42-144.81c1.12-0.51,1.78-0.81,2.55-1.16c0.77,0.35,1.43,0.65,2.55,1.16
			c20.61,47.3,9.72,95.75,6.42,144.81c-13.18,195.99,36.86,284.16,160.54,329.09C3090.95,3153.68,3132.04,3186.49,3107.53,3386.66z"
			/>
		<path d="M3519.96,3050.07c2.75-121.9-124.55-168.93-236.99-183.65c-63.38-8.29-128.72-20.46-184.89-50.76
			c-52.68-28.42-126.13-108.78-107.35-195.54c1.6-7.35,1.77-17.67-2.2-23.1c-19.13-26.2-18.73-54.08-2.9-79.11
			c17.82-28.19,39.25-54.65,62.3-78.84c22.7-23.83,44.26-20.63,81.04,7.41c32.23-46.78,51.54-98.2,63.96-157.39
			c-21.97,7.74-40.24,15.3-59.14,20.62c-44.26,12.47-88.88,23.68-133.26,35.72c-66.05,17.92-107.34,75.6-106.64,144.32
			c0.47,44.93,15.69,85.44,30.48,126.58c9.74,27.09,19.53,54.44,25.76,82.47c9.7,43.64-1.53,85.03-18.9,125.29
			c-18.39,42.64-10.91,62.5,27.77,88.77c58.03,39.4,125.65,77.29,192.63,89.29c41.46,7.43,81.72-9.6,123.15-2.04
			c45.16,8.23,81.65,30.61,109.17,67.01c16.49,21.8,32.53,44.06,47.07,67.19c19.83,31.52,50.82,58.72,80.61,80.78
			c36.77,27.23,102.64,40.08,166.64,27.23C3586.91,3191.86,3517.75,3147.69,3519.96,3050.07z"/>
		<path d="M3150.09,2724.88c-45.86-4.43-66.62-38.18-68.55-83.7c-0.3-6.95-0.66-13.89-1.03-21.85c-20.27-1.81-38.05-4.67-55.76-4.26
			c-5.75,0.13-14.48,7.77-16.43,13.74c-16.7,51.13,19.22,124.94,64.63,155.88c49.63,33.81,92.45,44.82,154.75,43.34
			c70.31-1.68,136.85-18.74,210.38-110.81c37.28-46.67,45.72-105.72,48.67-165.37c4.75-96.28-13.1-189.12-34.35-282.29
			c-8.63-37.88-11.23-79.76-4.85-117.85c11.38-67.9,53.57-114.61,123-135.15c-38.52-33.13-125.71-13.62-162.6,25.08
			c-43.52,45.66-46.01,113.45-42.7,176.02c3.25,61.49,13.59,123.73,13.73,184.4c0.23,98.43-8.79,184.34-82.35,256.44
			C3257.56,2696.79,3206.45,2730.32,3150.09,2724.88z"/>
		<path d="M3065.1,3733.66c-7.33-65.96,7.62-127.08,34.87-186.03c22.88-49.51,47.73-98.1,69.9-147.9
			c9.05-20.33,13.32-42.77,20.35-66.24c-52.36,54.73-103.29,106.14-152.09,159.5c-47.8,52.28-84.33,110.43-82.84,185.36
			c2.4,121.76,115.82,219.11,241.06,202.49c-7.7-3.07-12.07-5.21-16.66-6.58C3111.21,3853.86,3073.08,3805.46,3065.1,3733.66z"/>
		<path d="M3994.27,2874.54c-21.36-44.95-71.74-111.84-116.5-115.09c20.72,47.41,29.92,45.66,47.93,128.07
			c22.37,102.32-31.3,248.14-124.86,277.97c-52.61,16.78-114.89,17.41-163.16-1.99c-23.93-9.61-34.96-12.84-63.78-26
			c21.02,35.91,62.57,57.81,93.04,75.38c77.14,44.49,175.45,47.31,249.48,0.19C4028.76,3141.57,4048.8,2989.29,3994.27,2874.54z"/>
		<path d="M3047.1,2238.35c-29.75,17.17-60.75,32.41-89.26,51.42c-37.35,24.91-57.81,60.87-59.3,102.58
			c33.19-55.33,85.84-64.34,137.2-77.04c38.56-9.54,76.83-20.75,114.37-33.7c18.88-6.51,37.08-16.82,53.45-28.42
			c41.41-29.33,45.42-97.14,11.21-139.73C3180.04,2183.95,3107.83,2203.31,3047.1,2238.35z"/>
		<path d="M3397.83,3554c-0.29,126.4-95.5,256.91-261.6,276.97c78.08,66.95,198.24,47.97,255.03-17.63
			C3442.99,3753.59,3464.56,3615.6,3397.83,3554z"/>
		<path d="M3688.64,2801.46c41.58-84.11,137.92-113.45,265.31-10.4C3841.87,2573.56,3587.26,2648.63,3688.64,2801.46z"/>
		<path d="M3036.17,2531.76c-10.66,24.34-1.69,38.05,24.68,37.05c38.5-1.47,65.62-26.88,59.77-55.82
			c-3.59-17.73-12.41-26.46-31.35-19.66C3067.84,2501.02,3046.39,2508.39,3036.17,2531.76z"/>
		<path d="M3059.76,2454.28c-21.21,22.66-41.97,46.59-58.14,72.91c-23.19,37.76-4.73,67.84,40.05,69.24
			c14.61,0.46,29.29-1.71,43.94-2.67c-0.2-2.35-0.41-4.7-0.62-7.05c-8.86,1.02-17.71,2.82-26.58,2.91
			c-37.01,0.39-55.06-25.97-42.94-60.74c10.39-29.82,34.3-43.06,61.47-52.7c9.47-3.36,19.35-5.6,30.59-8.79
			C3095.02,2441.09,3077.19,2435.65,3059.76,2454.28z"/>
	</g>
</g>
</svg>
