<?xml version="1.0" encoding="UTF-8" standalone="no"?>
<!-- Created with Inkscape (http://www.inkscape.org/) -->

<svg
   version="1.1"
   id="svg2"
   xml:space="preserve"
   width="4117.2534"
   height="2733.3333"
   viewBox="0 0 4117.2534 2733.3333"
   sodipodi:docname="svg.svg"
   inkscape:version="1.1.2 (0a00cf5339, 2022-02-04)"
   xmlns:inkscape="http://www.inkscape.org/namespaces/inkscape"
   xmlns:sodipodi="http://sodipodi.sourceforge.net/DTD/sodipodi-0.dtd"
   xmlns="http://www.w3.org/2000/svg"
   xmlns:svg="http://www.w3.org/2000/svg"><defs
     id="defs6" /><sodipodi:namedview
     id="namedview4"
     pagecolor="#505050"
     bordercolor="#ffffff"
     borderopacity="1"
     inkscape:pageshadow="0"
     inkscape:pageopacity="0"
     inkscape:pagecheckerboard="1"
     showgrid="false"
     inkscape:zoom="0.38545944"
     inkscape:cx="1328.285"
     inkscape:cy="1290.6676"
     inkscape:window-width="3440"
     inkscape:window-height="1369"
     inkscape:window-x="0"
     inkscape:window-y="34"
     inkscape:window-maximized="1"
     inkscape:current-layer="g8" /><g
     id="g8"
     inkscape:groupmode="layer"
     inkscape:label="ink_ext_XXXXXX"
     transform="matrix(1.3333333,0,0,-1.3333333,0,2733.3333)"><rect
       style="fill:#832584;fill-opacity:1;stroke:none;stroke-width:3.3;stroke-linecap:round;stroke-linejoin:round"
       id="rect1757"
       width="2761.6309"
       height="1264.834"
       x="180.66788"
       y="-1625.7085"
       transform="scale(1,-1)"
       inkscape:export-filename="/home/dys/.../code/MetaGame assets/artists/dysbulic/Discord Covers/Pairing: 2022⁄04⁄05/png.png"
       inkscape:export-xdpi="52.139999"
       inkscape:export-ydpi="52.139999" /><path
       d="M 1950.08,251.45 H 959.614 c -417.927,0 -756.724,338.8 -756.724,756.72 v 0 c 0,417.93 338.797,756.73 756.724,756.73 h 990.466 c 417.93,0 756.73,-338.8 756.73,-756.73 v 0 c 0,-417.92 -338.8,-756.72 -756.73,-756.72"
       style="fill:#e1e7ff;fill-opacity:1;fill-rule:nonzero;stroke:none;stroke-width:0.1"
       id="path12" /><path
       d="m 2033.56,1763.91 c -11.83,0.6 -23.72,0.99 -35.7,0.99 H 911.834 c -391.539,0 -708.943,-327.59 -708.943,-731.7 v -50.05 c 0,-27.84 1.589,-55.28 4.523,-82.31 446.241,568.71 1064.236,840.35 1826.146,863.07"
       style="fill:#c7d3ef;fill-opacity:1;fill-rule:nonzero;stroke:none;stroke-width:0.1"
       id="path14" /><path
       d="M 2033.56,1763.91 C 1271.65,1741.19 653.655,1469.55 207.414,900.84 230.779,685.67 344.55,498.76 508.631,381.42 c 447.09,737.4 1089.459,1149.69 1938.679,1217.61 -113.74,96.36 -257.05,156.85 -413.75,164.88"
       style="fill:#d4def9;fill-opacity:1;fill-rule:nonzero;stroke:none;stroke-width:0.1"
       id="path16" /><g
       id="g1420"
       transform="translate(0,-120)"><path
         d="m 2185.66,464.06 c -110.11,0 -211.84,140.57 -317.54,436.92 -15.54,43.57 7.17,91.48 50.73,107.01 43.53,15.57 91.47,-7.17 107.01,-50.74 68.54,-192.13 121.28,-272.94 149.46,-305.79 14.75,53.86 24.89,176.14 -4.61,376.61 -6.72,45.76 24.92,88.31 70.67,95.04 45.81,6.72 88.3,-24.92 95.05,-70.66 29.39,-199.91 53.22,-541.62 -117.55,-584.2 -11.16,-2.79 -22.24,-4.19 -33.22,-4.19"
         style="fill:#3e6993;fill-opacity:1;fill-rule:nonzero;stroke:none;stroke-width:0.1"
         id="path18" /><path
         d="m 2020.97,980.57 c -6.56,-54.22 -55.83,-92.86 -110.05,-86.3 -54.22,6.55 -92.86,55.82 -86.3,110.04 6.55,54.22 55.82,92.86 110.04,86.31 54.23,-6.56 92.87,-55.83 86.31,-110.05"
         style="fill:#ffc1a9;fill-opacity:1;fill-rule:nonzero;stroke:none;stroke-width:0.1"
         id="path20" /><path
         d="m 1967.12,978.24 v 0 c -19,0 -34.4,15.4 -34.4,34.4 v 133.43 c 0,19.01 15.4,34.41 34.4,34.41 v 0 c 19,0 34.41,-15.4 34.41,-34.41 l 19.51,-142.99 c 0,-19 -34.92,-24.84 -53.92,-24.84"
         style="fill:#ffc1a9;fill-opacity:1;fill-rule:nonzero;stroke:none;stroke-width:0.1"
         id="path22" /><path
         d="m 1908.55,893.54 v 0 c -32.73,0 -59.26,26.53 -59.26,59.26 v 79.29 c 0,32.72 26.53,59.25 59.26,59.25 v 0 c 32.72,0 59.25,-26.53 59.25,-59.25 V 952.8 c 0,-32.73 -26.53,-59.26 -59.25,-59.26"
         style="fill:#f29886;fill-opacity:1;fill-rule:nonzero;stroke:none;stroke-width:0.1"
         id="path24" /><path
         d="m 1883.15,893.54 v 0 c -32.73,0 -59.26,26.53 -59.26,59.26 v 79.29 c 0,32.72 26.53,59.25 59.26,59.25 v 0 c 32.72,0 59.25,-26.53 59.25,-59.25 V 952.8 c 0,-32.73 -26.53,-59.26 -59.25,-59.26"
         style="fill:#ffc1a9;fill-opacity:1;fill-rule:nonzero;stroke:none;stroke-width:0.1"
         id="path26" /><path
         d="m 2333.48,496.99 c 155.45,-42.15 338.66,11.45 449.92,60.22 l -111.25,522.66 c -45.91,77.63 -118.74,101.51 -179.73,101.51 h -135.45 c -4.34,0 -8.64,-0.19 -12.88,-0.56 -43.64,-3.77 -88.41,-31.84 -111.22,-65.36 -30.15,-44.29 -25.46,-92.52 -2.3,-140.83 79.15,-165.09 105.49,-341.8 102.91,-477.64"
         style="fill:#ffffff;fill-opacity:1;fill-rule:nonzero;stroke:none;stroke-width:0.1"
         id="path28" /><path
         d="m 2321.23,266.58 c 155.45,-42.15 411.72,-43.65 522.98,-28.91 14.96,308.57 23.71,688.05 -95.64,853.18 -45.91,77.63 -195.17,90.53 -256.15,90.53 -49.25,-143.84 -96.33,-481.55 -96.33,-481.55 -43.89,43.9 -149.81,427.74 -104.49,465.48 0,0 -86.68,-30.54 -99.82,-49.85 -30.15,-44.29 -29.71,-102.1 -6.55,-150.41 79.15,-165.09 184.87,-375.74 136,-698.47"
         style="fill:#597faa;fill-opacity:1;fill-rule:nonzero;stroke:none;stroke-width:0.1"
         id="path30" /><path
         d="m 2428.11,244.27 -39.2,454.94 14.37,1.24 39.2,-454.94 -14.37,-1.24"
         style="fill:#3e6993;fill-opacity:1;fill-rule:nonzero;stroke:none;stroke-width:0.1"
         id="path32" /><path
         d="m 2378.95,266.58 171.19,-0.23 c 282.18,196.42 334.91,637.28 103.93,773.91 l -28.13,-162.65 c -70.18,-70.17 -38.1,-199.02 -207.16,-395.85 -120.11,-139.85 -39.83,-215.18 -39.83,-215.18"
         style="fill:#3e6993;fill-opacity:1;fill-rule:nonzero;stroke:none;stroke-width:0.1"
         id="path34" /><path
         d="m 2328.51,241.79 c -39.64,0 -74.87,28.27 -82.27,68.66 -8.34,45.49 21.77,89.13 67.26,97.48 57.38,10.52 155.87,85.08 225.37,202.52 44.33,74.91 110.38,225.6 54.7,393.22 -14.57,43.89 9.19,91.3 53.09,105.87 43.88,14.57 91.3,-9.18 105.87,-53.08 56.77,-170.93 32.09,-359.62 -69.52,-531.31 -88.6,-149.74 -221.78,-260.42 -339.29,-281.97 -5.11,-0.94 -10.19,-1.39 -15.21,-1.39"
         style="fill:#597faa;fill-opacity:1;fill-rule:nonzero;stroke:none;stroke-width:0.1"
         id="path36" /><path
         d="m 2171.32,293.19 c 1.31,-63.35 51.35,-28.16 114.71,-26.84 63.35,1.31 116.03,-31.74 114.71,31.62 -1.32,63.35 -53.74,113.64 -117.1,112.32 -63.35,-1.31 -113.64,-53.74 -112.32,-117.1"
         style="fill:#ffc1a9;fill-opacity:1;fill-rule:nonzero;stroke:none;stroke-width:0.1"
         id="path38" /><path
         d="m 2396.09,692.61 c -2.19,0 -4.27,1 -5.63,2.72 l -140.65,175.99 c -2.3,2.87 -2.06,7 0.53,9.6 l 22.61,22.61 -45.07,26.81 c -1.96,1.17 -3.25,3.19 -3.48,5.47 l -19.85,193.77 c -0.41,3.96 2.48,7.5 6.44,7.91 3.84,0.34 7.49,-2.47 7.9,-6.45 l 19.49,-190.15 49.93,-29.71 c 1.91,-1.14 3.18,-3.09 3.46,-5.3 0.28,-2.21 -0.48,-4.43 -2.05,-6 l -24.61,-24.59 130.86,-163.74 136.36,178.65 -38.81,26.18 c -2.14,1.44 -3.34,3.91 -3.17,6.47 0.17,2.57 1.71,4.85 4,5.98 l 50.65,25 35.72,220.58 c 0.64,3.95 4.39,6.63 8.27,5.97 3.94,-0.64 6.61,-4.34 5.97,-8.28 l -36.32,-224.25 c -0.37,-2.3 -1.83,-4.28 -3.92,-5.31 l -42.83,-21.15 34.84,-23.5 c 1.65,-1.11 2.77,-2.86 3.09,-4.81 0.32,-1.96 -0.17,-3.97 -1.38,-5.55 L 2401.83,695.45 c -1.35,-1.76 -3.44,-2.81 -5.65,-2.84 -0.03,0 -0.06,0 -0.09,0"
         style="fill:#3e6993;fill-opacity:1;fill-rule:nonzero;stroke:none;stroke-width:0.1"
         id="path40" /><path
         d="m 2387.57,1089.94 v 0 c 48.27,1.75 85.98,42.29 84.24,90.55 l -4.27,118.58 c -0.18,4.77 -4.19,8.5 -8.96,8.33 l -157.51,-5.68 c -4.77,-0.18 -8.5,-4.19 -8.33,-8.96 l 4.28,-118.57 c 1.74,-48.27 42.28,-85.99 90.55,-84.25"
         style="fill:#f29886;fill-opacity:1;fill-rule:nonzero;stroke:none;stroke-width:0.1"
         id="path42" /><path
         d="m 2127.72,1602.3 c -6.94,-80.86 11.01,-176.83 15.01,-244.59 4.94,-83.8 21.96,-145.96 43.43,-161.49 83.89,-60.68 196.74,-13.38 265.19,44.65 33.24,28.19 33.43,100.04 33.32,132.75 -0.36,100.05 36.07,293.84 -159.57,293.15 -195.63,-0.7 -190.78,12.5 -197.38,-64.47"
         style="fill:#ffc1a9;fill-opacity:1;fill-rule:nonzero;stroke:none;stroke-width:0.1"
         id="path44" /><path
         d="m 2126.21,1571.32 c -0.17,-22.78 -0.1,-26.64 1.71,-48.48 50.49,7.83 97.3,18.11 137.66,32.69 l 59.43,40.71 -198.8,-24.92"
         style="fill:#f29886;fill-opacity:1;fill-rule:nonzero;stroke:none;stroke-width:0.1"
         id="path46" /><path
         d="m 2298.12,1586.89 c 1.38,-15.54 5.86,-39.05 -20.71,-64.61 73.77,15.1 108.85,37.29 128.18,65.65 -11.41,41.14 -54.28,28.8 -107.47,-1.04"
         style="fill:#f29886;fill-opacity:1;fill-rule:nonzero;stroke:none;stroke-width:0.1"
         id="path48" /><path
         d="m 2244.66,1596.74 c 1.38,-15.53 5.85,-39.05 -20.72,-64.6 73.77,15.1 165.49,71.72 184.82,100.08 l -164.1,-35.48"
         style="fill:#f29886;fill-opacity:1;fill-rule:nonzero;stroke:none;stroke-width:0.1"
         id="path50" /><path
         d="m 2186.17,1196.22 c 83.88,-60.68 196.73,-13.38 265.18,44.65 33.24,28.19 33.43,100.04 33.32,132.75 -38.18,-163.21 -176.52,-208.35 -298.5,-177.4"
         style="fill:#f29886;fill-opacity:1;fill-rule:nonzero;stroke:none;stroke-width:0.1"
         id="path52" /><path
         d="m 2405.71,1532.16 c 11.71,-83.18 30.68,-149.28 76.31,-142.85 45.62,6.42 73.12,79.06 61.41,162.24 -11.72,83.19 -58.2,145.41 -103.83,138.99 -45.63,-6.43 -45.6,-75.19 -33.89,-158.38"
         style="fill:#331313;fill-opacity:1;fill-rule:nonzero;stroke:none;stroke-width:0.1"
         id="path54" /><path
         d="m 2405.71,1532.16 c 11.71,-83.18 28.79,-149.54 76.31,-142.85 27.46,3.86 44.47,83.21 32.76,166.4 -11.71,83.18 -47.71,138.7 -75.18,134.83 -47.51,-6.69 -45.6,-75.19 -33.89,-158.38"
         style="fill:#512f2e;fill-opacity:1;fill-rule:nonzero;stroke:none;stroke-width:0.1"
         id="path56" /><path
         d="m 2332.99,1288.1 c 1.33,5.53 1.34,11.16 -0.63,16.48 -0.05,0.15 -0.11,0.23 -0.17,0.37 -6.7,17.25 -18.91,-6.62 -42.28,-15.25 -15.49,-5.72 -32.11,-3.83 -39.66,-6.38 l 0.04,-0.04 c -3.92,-1.33 -5.49,-4.07 -3.22,-10.21 5.33,-14.44 22.2,-21.96 40.82,-19.92 0.05,-0.05 0.07,-0.09 0.12,-0.13 0.73,0.06 1.55,0.31 2.3,0.42 1.4,0.22 2.79,0.45 4.21,0.78 1.57,0.37 3.19,0.85 4.84,1.37 0.79,0.26 1.59,0.39 2.38,0.68 0.32,0.12 0.59,0.29 0.9,0.42 0.73,0.26 1.42,0.43 2.16,0.71 1.31,0.55 2.32,1.3 3.55,1.91 0.95,0.49 1.9,0.97 2.81,1.51 9.3,5.26 15.87,12.35 19.75,21.12 0.48,1.05 0.91,2.1 1.28,3.16 0.38,1.09 0.97,2.06 1.28,3.2 -0.17,-0.07 -0.31,-0.14 -0.48,-0.2"
         style="fill:#ffffff;fill-opacity:1;fill-rule:nonzero;stroke:none;stroke-width:0.1"
         id="path58" /><path
         d="m 2221.98,1412.59 v 0 c -1.93,12.3 -13.47,20.7 -25.77,18.77 l -14.81,-2.33 c -12.3,-1.93 -20.7,-13.47 -18.77,-25.76 v 0 c 1.93,-12.3 13.46,-20.71 25.76,-18.77 l 14.82,2.32 c 12.3,1.93 20.7,13.47 18.77,25.77"
         style="fill:#ffffff;fill-opacity:1;fill-rule:nonzero;stroke:none;stroke-width:0.1"
         id="path60" /><path
         d="m 2189.3,1384.17 v 0 c 6.32,1.05 10.6,7.03 9.54,13.36 l -2.88,17.33 c -1.06,6.33 -7.04,10.6 -13.36,9.55 v 0 c -6.32,-1.06 -10.6,-7.04 -9.54,-13.36 l 2.88,-17.34 c 1.05,-6.32 7.03,-10.59 13.36,-9.54"
         style="fill:#280907;fill-opacity:1;fill-rule:nonzero;stroke:none;stroke-width:0.1"
         id="path62" /><path
         d="m 2193.58,1408.94 v 0 c 3.66,0.61 6.12,4.07 5.52,7.72 l -0.86,5.16 c -0.61,3.66 -4.06,6.12 -7.72,5.52 v 0 c -3.65,-0.61 -6.12,-4.07 -5.51,-7.72 l 0.86,-5.16 c 0.61,-3.65 4.06,-6.12 7.71,-5.52"
         style="fill:#ffffff;fill-opacity:1;fill-rule:nonzero;stroke:none;stroke-width:0.1"
         id="path64" /><path
         d="m 2162.85,1401.47 c -1.94,-0.28 -3.75,1.06 -4.06,3.01 -2.08,13.26 7.01,25.75 20.27,27.84 l 18.37,2.88 c 6.42,0.96 12.86,-0.54 18.12,-4.37 5.26,-3.83 8.71,-9.48 9.71,-15.91 0.31,-1.97 -1.03,-3.81 -3,-4.12 -0.03,0 -0.05,-0.01 -0.06,-0.01 -1.95,-0.27 -3.76,1.07 -4.07,3.02 -0.71,4.52 -3.13,8.49 -6.83,11.19 -3.7,2.69 -7.97,3.88 -12.75,3.07 l -18.37,-2.88 c -9.33,-1.46 -15.74,-10.26 -14.26,-19.59 0.3,-1.97 -1.04,-3.81 -3.01,-4.12 -0.02,-0.01 -0.04,-0.01 -0.06,-0.01"
         style="fill:#280907;fill-opacity:1;fill-rule:nonzero;stroke:none;stroke-width:0.1"
         id="path66" /><path
         d="m 2337.49,1428.85 v 0 c -1.93,12.3 -13.46,20.7 -25.76,18.77 l -14.82,-2.33 c -12.3,-1.93 -20.7,-13.46 -18.77,-25.76 v 0 c 1.93,-12.3 13.47,-20.7 25.77,-18.77 l 14.81,2.33 c 12.3,1.93 20.71,13.46 18.77,25.76"
         style="fill:#ffffff;fill-opacity:1;fill-rule:nonzero;stroke:none;stroke-width:0.1"
         id="path68" /><path
         d="m 2304.81,1400.43 v 0 c 6.33,1.06 10.6,7.04 9.55,13.36 l -2.89,17.34 c -1.05,6.32 -7.03,10.59 -13.35,9.54 v 0 c -6.33,-1.05 -10.6,-7.03 -9.55,-13.36 l 2.89,-17.33 c 1.05,-6.33 7.03,-10.6 13.35,-9.55"
         style="fill:#280907;fill-opacity:1;fill-rule:nonzero;stroke:none;stroke-width:0.1"
         id="path70" /><path
         d="m 2309.1,1425.21 v 0 c 3.65,0.61 6.12,4.06 5.51,7.71 l -0.86,5.17 c -0.61,3.65 -4.06,6.12 -7.71,5.51 v 0 c -3.65,-0.61 -6.12,-4.06 -5.51,-7.71 l 0.86,-5.17 c 0.61,-3.65 4.06,-6.12 7.71,-5.51"
         style="fill:#ffffff;fill-opacity:1;fill-rule:nonzero;stroke:none;stroke-width:0.1"
         id="path72" /><path
         d="m 2278.37,1417.73 c -1.95,-0.27 -3.76,1.07 -4.07,3.01 -1.01,6.43 0.54,12.87 4.37,18.13 3.84,5.25 9.48,8.7 15.91,9.71 l 18.37,2.89 c 6.56,0.77 12.85,-0.54 18.11,-4.38 5.26,-3.83 8.71,-9.48 9.72,-15.9 0.31,-1.97 -1.04,-3.81 -3.01,-4.13 -2.07,-0.36 -3.81,1.04 -4.12,3.01 -0.71,4.52 -3.14,8.5 -6.84,11.19 -3.62,2.64 -8.04,3.74 -12.46,3.12 -0.1,-0.01 -0.19,-0.03 -0.28,-0.04 l -18.37,-2.89 c -9.34,-1.46 -15.74,-10.25 -14.27,-19.59 0.3,-1.97 -1.04,-3.81 -3.01,-4.12 -0.02,0 -0.03,0 -0.05,-0.01"
         style="fill:#280907;fill-opacity:1;fill-rule:nonzero;stroke:none;stroke-width:0.1"
         id="path74" /><path
         d="m 2126.53,1355.56 95.24,13.41 -8.86,62.93 -95.24,-13.41 z m 111.54,1.13 -123.82,-17.43 -12.89,91.51 123.83,17.43 12.88,-91.51"
         style="fill:#280907;fill-opacity:1;fill-rule:nonzero;stroke:none;stroke-width:0.1"
         id="path76" /><path
         d="m 2272.88,1376.17 95.25,13.41 -8.86,62.93 -95.25,-13.41 z m 111.55,1.13 -123.83,-17.43 -12.89,91.51 123.83,17.43 12.89,-91.51"
         style="fill:#280907;fill-opacity:1;fill-rule:nonzero;stroke:none;stroke-width:0.1"
         id="path78" /><path
         d="m 2267.97,1340.37 c 0.96,-10.64 -9.11,-20.24 -22.49,-21.45 -13.38,-1.21 -25,6.44 -25.96,17.08 -0.96,10.65 10.84,0.98 24.22,2.19 13.38,1.21 23.27,12.83 24.23,2.18"
         style="fill:#f29886;fill-opacity:1;fill-rule:nonzero;stroke:none;stroke-width:0.1"
         id="path80" /><path
         d="m 2452.38,1660.59 c 0,0 -244.92,-145.12 -360.28,-112.25 -77,21.94 -109.72,90.97 -109.72,90.97 30.33,-13.09 61.78,-16.89 94.49,-10.63 -12.11,5.22 -27.49,16.82 -34.15,41.11 24.59,-18.52 82.01,-6.21 121.84,2.73 l 204.79,43.73 c 38.73,9.88 77.46,-16.08 83.03,-55.66 v 0"
         style="fill:#512f2e;fill-opacity:1;fill-rule:nonzero;stroke:none;stroke-width:0.1"
         id="path82" /><path
         d="m 2511.11,1412.48 -140.39,2.36 0.24,14.42 140.39,-2.36 -0.24,-14.42"
         style="fill:#280907;fill-opacity:1;fill-rule:nonzero;stroke:none;stroke-width:0.1"
         id="path84" /><path
         d="m 2424.15,1381.16 c 4.6,-32.65 34.79,-55.39 67.44,-50.79 32.65,4.59 55.39,34.79 50.79,67.44 -4.6,32.64 -34.79,55.38 -67.44,50.79 -32.65,-4.6 -55.39,-34.79 -50.79,-67.44"
         style="fill:#ffc1a9;fill-opacity:1;fill-rule:nonzero;stroke:none;stroke-width:0.1"
         id="path86" /><path
         d="m 2488.64,1351.38 c -0.45,-0.06 -0.91,-0.08 -1.37,-0.06 -22.74,1.12 -34.72,18.68 -36.5,35.59 -2.15,20.31 8.54,37.75 26.02,42.4 3.59,0.96 7.8,-1.25 8.81,-5.12 1.03,-3.85 -1.26,-7.8 -5.11,-8.83 -12.18,-3.24 -16.5,-16.23 -15.38,-26.94 1.11,-10.47 7.7,-21.94 22.86,-22.69 3.99,-0.2 7.05,-3.58 6.86,-7.56 -0.17,-3.51 -2.84,-6.32 -6.19,-6.79"
         style="fill:#f29886;fill-opacity:1;fill-rule:nonzero;stroke:none;stroke-width:0.1"
         id="path88" /><path
         d="m 2326.33,1595.33 c 2.18,-15.44 7.84,-38.7 -17.38,-65.58 72.9,18.86 106.8,42.81 124.66,72.12 -13.51,40.51 -55.69,25.99 -107.28,-6.54"
         style="fill:#512f2e;fill-opacity:1;fill-rule:nonzero;stroke:none;stroke-width:0.1"
         id="path90" /><path
         d="m 2271.7,1606.21 c 2.18,-15.44 7.85,-38.7 -17.38,-65.58 72.9,18.86 161.61,80.09 179.46,109.41 l -162.08,-43.83"
         style="fill:#512f2e;fill-opacity:1;fill-rule:nonzero;stroke:none;stroke-width:0.1"
         id="path92" /><path
         d="m 2133.87,1451.92 c -2.21,-0.31 -4.53,0.05 -6.64,1.2 -5.26,2.84 -7.23,9.41 -4.38,14.66 12.46,23.06 56.22,36.77 105.18,18.74 5.61,-2.07 8.48,-8.29 6.41,-13.9 -2.07,-5.62 -8.29,-8.48 -13.9,-6.41 -37.65,13.87 -71.73,4.09 -78.65,-8.72 -1.7,-3.14 -4.73,-5.11 -8.02,-5.57"
         style="fill:#512f2e;fill-opacity:1;fill-rule:nonzero;stroke:none;stroke-width:0.1"
         id="path94" /><path
         d="m 2261.32,1469.86 c -2.21,-0.31 -4.53,0.06 -6.64,1.2 -5.26,2.84 -7.23,9.41 -4.38,14.66 12.46,23.07 56.22,36.77 105.18,18.74 5.61,-2.06 8.48,-8.28 6.41,-13.9 -2.06,-5.62 -8.3,-8.47 -13.9,-6.41 -37.65,13.87 -71.73,4.1 -78.65,-8.71 -1.7,-3.15 -4.73,-5.11 -8.02,-5.58"
         style="fill:#512f2e;fill-opacity:1;fill-rule:nonzero;stroke:none;stroke-width:0.1"
         id="path96" /><path
         d="m 2272.86,1575.17 c 40.69,13.19 114.22,39.5 154.1,73.91 -16.38,-44.38 -92.24,-71.7 -161.38,-93.55 3.87,7.13 6.51,13.77 7.28,19.64"
         style="fill:#331313;fill-opacity:1;fill-rule:nonzero;stroke:none;stroke-width:0.1"
         id="path98" /></g><g
       id="g1613"><path
         d="m 1066.75,879.79 v 0 c 11.25,7.36 14.4,22.44 7.05,33.68 l -27.67,42.33 c -7.36,11.25 -22.44,14.41 -33.69,7.05 v 0 c -11.25,-7.35 -14.403,-22.43 -7.05,-33.68 l 27.67,-42.33 c 7.36,-11.25 22.44,-14.4 33.69,-7.05"
         style="fill:#c93d3d;fill-opacity:1;fill-rule:nonzero;stroke:none;stroke-width:0.1"
         id="path102" /><path
         d="m 1030.69,911.23 c -8.56,-14.16 -4.03,-32.58 10.13,-41.15 14.16,-8.56 32.59,-4.03 41.15,10.13 8.57,14.16 4.03,32.59 -10.13,41.15 -14.16,8.57 -32.58,4.03 -41.15,-10.13"
         style="fill:#e54e4e;fill-opacity:1;fill-rule:nonzero;stroke:none;stroke-width:0.1"
         id="path104" /><path
         d="m 1035.93,902.93 c -7.31,-12.08 -3.44,-27.81 8.65,-35.12 12.08,-7.31 27.81,-3.44 35.12,8.65 7.31,12.08 3.44,27.81 -8.65,35.12 -12.08,7.31 -27.81,3.44 -35.12,-8.65"
         style="fill:#c93d3d;fill-opacity:1;fill-rule:nonzero;stroke:none;stroke-width:0.1"
         id="path106" /><path
         d="m 1151.76,744.52 c -1.71,0 -3.39,0.83 -4.4,2.36 l -89.88,137.48 c -1.58,2.43 -0.9,5.68 1.52,7.27 2.41,1.58 5.68,0.91 7.28,-1.52 l 89.87,-137.48 c 1.58,-2.42 0.9,-5.68 -1.52,-7.27 -0.89,-0.58 -1.89,-0.84 -2.87,-0.84"
         style="fill:#ffffff;fill-opacity:1;fill-rule:nonzero;stroke:none;stroke-width:0.1"
         id="path108" /></g><g
       id="g1720"><path
         d="m 1081.44,804.55 c -1.83,0 -3.41,1.39 -3.59,3.25 -2.12,21.24 10.14,37.39 33.63,44.32 24.08,7.07 58.74,2.49 67.25,-14.12 3.56,-6.95 3.93,-18.25 -14.62,-32.69 -1.55,-1.2 -3.83,-0.95 -5.05,0.63 -1.23,1.57 -0.95,3.83 0.63,5.06 8.07,6.3 16.83,15.52 12.63,23.7 -6.15,11.97 -35.84,17.28 -58.79,10.5 -11.67,-3.44 -30.88,-12.78 -28.5,-36.69 0.2,-1.98 -1.25,-3.75 -3.24,-3.95 -0.11,-0.01 -0.24,-0.01 -0.35,-0.01"
         style="fill:#6a66ff;fill-opacity:1;fill-rule:nonzero;stroke:none;stroke-width:0.1"
         id="path112" /><path
         d="m 1147.2,802.08 c -0.52,0 -1.04,0.11 -1.55,0.35 -1.77,0.85 -2.53,2.99 -1.67,4.78 1.73,3.62 43.03,88.57 90.06,74.04 10.9,-3.36 17.64,-9.39 19.98,-17.94 6.33,-23.17 -23.46,-56.17 -24.73,-57.57 -1.33,-1.46 -3.62,-1.55 -5.06,-0.24 -1.47,1.34 -1.58,3.61 -0.24,5.06 7.92,8.7 27.51,34.78 23.11,50.86 -1.68,6.12 -6.64,10.36 -15.18,12.98 -41.19,12.54 -81.07,-69.46 -81.49,-70.29 -0.6,-1.28 -1.89,-2.03 -3.23,-2.03"
         style="fill:#91cc0e;fill-opacity:1;fill-rule:nonzero;stroke:none;stroke-width:0.1"
         id="path114" /><path
         d="m 1115.77,804.57 c -1.34,0 -2.63,0.75 -3.25,2.03 -0.84,1.79 -0.08,3.94 1.7,4.8 21.95,10.47 33.89,42.92 44.43,71.54 8.8,23.91 16.4,44.56 28.93,48.67 4.89,1.62 10.09,0.64 15.51,-2.93 45.64,-30.03 12.49,-113.66 11.05,-117.2 -0.75,-1.83 -2.85,-2.68 -4.66,-1.99 -1.84,0.75 -2.72,2.84 -1.99,4.67 0.34,0.81 32.41,81.73 -8.34,108.55 -3.54,2.31 -6.6,2.97 -9.33,2.09 -9.23,-3.04 -16.62,-23.09 -24.44,-44.33 -11.02,-29.91 -23.5,-63.82 -48.06,-75.54 -0.51,-0.24 -1.03,-0.36 -1.55,-0.36"
         style="fill:#ff6464;fill-opacity:1;fill-rule:nonzero;stroke:none;stroke-width:0.1"
         id="path116" /><path
         d="m 1333.71,455.83 c 0,-109.99 -89.16,-199.16 -199.15,-199.16 -109.99,0 -199.149,89.17 -199.149,199.16 0,109.98 89.159,199.15 199.149,199.15 109.99,0 199.15,-89.17 199.15,-199.15"
         style="fill:#ff9843;fill-opacity:1;fill-rule:nonzero;stroke:none;stroke-width:0.1"
         id="path118" /><path
         d="M 937.436,484.22 H 1331.7 c 1.85,-11.16 2.33,-23.5 1.84,-36.65 -86.66,-58.47 -271.04,-91.86 -392.115,-40.41 -6.576,23.02 -6.986,49.17 -3.989,77.06"
         style="fill:#e27c30;fill-opacity:1;fill-rule:nonzero;stroke:none;stroke-width:0.1"
         id="path120" /><path
         d="m 1134.56,256.67 c -109.99,0 -199.149,89.17 -199.149,199.16 0,109.98 89.159,199.15 199.149,199.15 -187.296,-112.33 -115.46,-361.37 0,-398.31"
         style="fill:#e27c30;fill-opacity:1;fill-rule:nonzero;stroke:none;stroke-width:0.1"
         id="path122" /><path
         d="m 1335.41,455.83 c 19.86,5.71 36.73,18.45 33.38,38.84 -18.54,112.63 -116.35,198.54 -234.23,198.54 -117.87,0 -215.683,-85.91 -234.222,-198.54 -3.357,-20.39 13.384,-33.6 33.375,-38.84 144.107,-37.82 274.907,-36.49 401.697,0"
         style="fill:#ffffff;fill-opacity:1;fill-rule:nonzero;stroke:none;stroke-width:0.1"
         id="path124" /><path
         d="m 1004.68,440.16 c -23.313,4.15 -46.955,9.36 -70.967,15.67 -19.991,5.24 -36.732,18.45 -33.375,38.84 18.539,112.63 116.352,198.54 234.222,198.54 126.41,-9.08 55.12,-18.61 -32.83,-44.79 C 996.333,617.04 948.588,507.49 1004.68,440.16"
         style="fill:#c7d3ef;fill-opacity:1;fill-rule:nonzero;stroke:none;stroke-width:0.1"
         id="path126" /><path
         d="m 1177.68,747.6 h -88.39 v -92.62 l 88.39,34.26 v 58.36"
         style="fill:#c7d3ef;fill-opacity:1;fill-rule:nonzero;stroke:none;stroke-width:0.1"
         id="path128" /><path
         d="m 1028.78,819.96 h 172.51 V 714.48 h -172.51 c -29.127,0 -52.741,23.61 -52.741,52.74 v 0 c 0,29.13 23.614,52.74 52.741,52.74"
         style="fill:#ffffff;fill-opacity:1;fill-rule:nonzero;stroke:none;stroke-width:0.1"
         id="path130" /><path
         d="m 1043.06,767.22 c 0,29.13 23.62,52.74 52.74,52.74 29.13,0 52.75,-23.61 52.75,-52.74 0,-29.13 -23.62,-52.74 -52.75,-52.74 -29.12,0 -52.74,23.61 -52.74,52.74"
         style="fill:#ff9843;fill-opacity:1;fill-rule:nonzero;stroke:none;stroke-width:0.1"
         id="path132" /><path
         d="M 1258.29,714.48 H 1095.8 v 105.48 h 162.49 c 7.89,0 14.3,-6.4 14.3,-14.3 v -76.88 c 0,-7.9 -6.41,-14.3 -14.3,-14.3"
         style="fill:#ff9843;fill-opacity:1;fill-rule:nonzero;stroke:none;stroke-width:0.1"
         id="path134" /><path
         d="m 1272.59,801.83 c -2.11,0 -3.83,1.72 -3.83,3.83 0,5.78 -4.69,10.47 -10.47,10.47 h -200.65 c -2.12,0 -3.84,1.72 -3.84,3.83 0,2.12 1.72,3.84 3.84,3.84 h 200.65 c 10,0 18.14,-8.14 18.14,-18.14 0,-2.11 -1.72,-3.83 -3.84,-3.83"
         style="fill:#ffffff;fill-opacity:1;fill-rule:nonzero;stroke:none;stroke-width:0.1"
         id="path136" /><path
         d="m 1136.74,767.22 c 0,-22.61 -18.33,-40.93 -40.94,-40.93 -22.6,0 -40.93,18.32 -40.93,40.93 0,22.61 18.33,40.93 40.93,40.93 22.61,0 40.94,-18.32 40.94,-40.93"
         style="fill:#ffffff;fill-opacity:1;fill-rule:nonzero;stroke:none;stroke-width:0.1"
         id="path138" /><path
         d="m 1129.11,767.22 c 0,-18.4 -14.91,-33.31 -33.31,-33.31 -18.39,0 -33.3,14.91 -33.3,33.31 0,18.39 14.91,33.31 33.3,33.31 18.4,0 33.31,-14.92 33.31,-33.31"
         style="fill:#1b3547;fill-opacity:1;fill-rule:nonzero;stroke:none;stroke-width:0.1"
         id="path140" /><path
         d="m 1114,767.22 c 0,-14.22 -11.53,-25.75 -25.75,-25.75 -14.22,0 -25.75,11.53 -25.75,25.75 0,14.22 11.53,25.75 25.75,25.75 14.22,0 25.75,-11.53 25.75,-25.75"
         style="fill:#5252c1;fill-opacity:1;fill-rule:nonzero;stroke:none;stroke-width:0.1"
         id="path142" /><path
         d="m 1101.73,767.22 c 0,-10.83 -8.78,-19.62 -19.62,-19.62 -10.83,0 -19.61,8.79 -19.61,19.62 0,10.83 8.78,19.61 19.61,19.61 10.84,0 19.62,-8.78 19.62,-19.61"
         style="fill:#1b3547;fill-opacity:1;fill-rule:nonzero;stroke:none;stroke-width:0.1"
         id="path144" /><path
         d="m 1109.74,781.39 c 0,-6.13 -4.97,-11.09 -11.09,-11.09 -6.12,0 -11.09,4.96 -11.09,11.09 0,6.12 4.97,11.08 11.09,11.08 6.12,0 11.09,-4.96 11.09,-11.08"
         style="fill:#ffffff;fill-opacity:1;fill-rule:nonzero;stroke:none;stroke-width:0.1"
         id="path146" /><path
         d="m 1201.11,784.72 c 0,-12.94 -10.49,-23.42 -23.43,-23.42 -12.93,0 -23.42,10.48 -23.42,23.42 0,12.94 10.49,23.43 23.42,23.43 12.94,0 23.43,-10.49 23.43,-23.43"
         style="fill:#ffffff;fill-opacity:1;fill-rule:nonzero;stroke:none;stroke-width:0.1"
         id="path148" /><path
         d="m 1194.44,784.72 c 0,-9.25 -7.5,-16.76 -16.76,-16.76 -9.25,0 -16.76,7.51 -16.76,16.76 0,9.26 7.51,16.76 16.76,16.76 9.26,0 16.76,-7.5 16.76,-16.76"
         style="fill:#1b3547;fill-opacity:1;fill-rule:nonzero;stroke:none;stroke-width:0.1"
         id="path150" /><path
         d="m 1186.84,784.72 c 0,-7.15 -5.8,-12.95 -12.96,-12.95 -7.15,0 -12.96,5.8 -12.96,12.95 0,7.16 5.81,12.96 12.96,12.96 7.16,0 12.96,-5.8 12.96,-12.96"
         style="fill:#5252c1;fill-opacity:1;fill-rule:nonzero;stroke:none;stroke-width:0.1"
         id="path152" /><path
         d="m 1180.66,784.72 c 0,-5.45 -4.41,-9.87 -9.87,-9.87 -5.45,0 -9.87,4.42 -9.87,9.87 0,5.45 4.42,9.87 9.87,9.87 5.46,0 9.87,-4.42 9.87,-9.87"
         style="fill:#1b3547;fill-opacity:1;fill-rule:nonzero;stroke:none;stroke-width:0.1"
         id="path154" /><path
         d="m 1184.7,791.85 c 0,-3.08 -2.5,-5.58 -5.58,-5.58 -3.09,0 -5.58,2.5 -5.58,5.58 0,3.08 2.49,5.58 5.58,5.58 3.08,0 5.58,-2.5 5.58,-5.58"
         style="fill:#ffffff;fill-opacity:1;fill-rule:nonzero;stroke:none;stroke-width:0.1"
         id="path156" /><path
         d="m 1242.25,796.53 v -36.51 c 0,-2.86 -2.31,-5.17 -5.17,-5.17 v 0 c -2.86,0 -5.17,2.31 -5.17,5.17 v 36.51 c 0,2.86 2.31,5.18 5.17,5.18 v 0 c 2.86,0 5.17,-2.32 5.17,-5.18"
         style="fill:#1b3547;fill-opacity:1;fill-rule:nonzero;stroke:none;stroke-width:0.1"
         id="path158" /><path
         d="m 1237.08,808.92 c -6.83,0 -12.39,-5.56 -12.39,-12.39 v -36.51 c 0,-6.83 5.56,-12.39 12.39,-12.39 6.83,0 12.39,5.56 12.39,12.39 v 36.51 c 0,6.83 -5.56,12.39 -12.39,12.39 z m 0,-7.21 c 2.85,0 5.17,-2.32 5.17,-5.18 v -36.51 c 0,-2.86 -2.32,-5.17 -5.17,-5.17 -2.86,0 -5.17,2.31 -5.17,5.17 v 36.51 c 0,2.86 2.31,5.18 5.17,5.18 v 0"
         style="fill:#ffffff;fill-opacity:1;fill-rule:nonzero;stroke:none;stroke-width:0.1"
         id="path160" /><path
         d="m 1004.89,763.61 c -1.98,0 -3.6,1.62 -3.6,3.61 0,31.07 25.28,56.35 56.35,56.35 1.98,0 3.61,-1.62 3.61,-3.61 0,-1.98 -1.63,-3.6 -3.61,-3.6 -27.1,0 -49.14,-22.04 -49.14,-49.14 0,-1.99 -1.62,-3.61 -3.61,-3.61"
         style="fill:#a1b0b2;fill-opacity:1;fill-rule:nonzero;stroke:none;stroke-width:0.1"
         id="path162" /><path
         d="m 1057.64,710.86 c -31.07,0 -56.35,25.29 -56.35,56.36 0,1.98 1.62,3.61 3.6,3.61 1.99,0 3.61,-1.63 3.61,-3.61 0,-27.1 22.04,-49.14 49.14,-49.14 1.98,0 3.61,-1.62 3.61,-3.61 0,-1.98 -1.63,-3.61 -3.61,-3.61"
         style="fill:#a1b0b2;fill-opacity:1;fill-rule:nonzero;stroke:none;stroke-width:0.1"
         id="path164" /><path
         d="m 1133.83,675.06 c -20.52,0 -40.33,4.49 -47.09,11.26 -1.41,1.41 -1.41,3.69 0,5.1 1.41,1.41 3.69,1.41 5.1,0 10.5,-10.5 63.07,-14.15 83.77,0.39 1.64,1.16 3.89,0.76 5.02,-0.87 1.16,-1.62 0.76,-3.88 -0.87,-5.02 -10.92,-7.68 -28.68,-10.86 -45.93,-10.86"
         style="fill:#a1b0b2;fill-opacity:1;fill-rule:nonzero;stroke:none;stroke-width:0.1"
         id="path166" /><path
         d="m 1269.65,436.56 c -0.07,0 -0.14,0 -0.23,0 -1.99,0.12 -3.49,1.84 -3.38,3.83 6.79,110.1 -45.7,208.58 -100.36,240.19 -1.73,1 -2.31,3.21 -1.33,4.93 1,1.75 3.23,2.3 4.94,1.33 56.56,-32.72 110.91,-134.01 103.96,-246.9 -0.12,-1.9 -1.71,-3.38 -3.6,-3.38"
         style="fill:#a1b0b2;fill-opacity:1;fill-rule:nonzero;stroke:none;stroke-width:0.1"
         id="path168" /><path
         d="m 1140.24,581.56 c -58.77,0 -122.75,9.82 -179.285,34.38 -1.832,0.81 -2.664,2.92 -1.874,4.75 0.803,1.82 2.902,2.67 4.748,1.88 123.011,-53.48 281.481,-36.16 340.981,-0.23 1.67,1.02 3.91,0.49 4.94,-1.22 1.03,-1.71 0.48,-3.92 -1.22,-4.95 -33.33,-20.14 -96.98,-34.61 -168.29,-34.61"
         style="fill:#a1b0b2;fill-opacity:1;fill-rule:nonzero;stroke:none;stroke-width:0.1"
         id="path170" /><path
         d="m 1139.24,424.38 c -66.95,0 -135.43,9.32 -206.441,27.94 -25.477,6.71 -39.273,23.16 -36.032,42.94 0.324,1.96 2.043,3.27 4.157,2.98 1.959,-0.33 3.298,-2.19 2.973,-4.16 -3.917,-23.75 22.533,-32.61 30.734,-34.77 140.719,-36.94 271.489,-36.96 399.779,-0.02 10.5,3.03 34.5,12.47 30.81,34.79 -0.33,1.97 1.01,3.83 2.97,4.16 1.96,0.28 3.82,-1.02 4.16,-2.98 3.21,-19.46 -10.23,-35.49 -35.94,-42.91 -64.79,-18.64 -130.2,-27.95 -197.17,-27.97"
         style="fill:#a1b0b2;fill-opacity:1;fill-rule:nonzero;stroke:none;stroke-width:0.1"
         id="path172" /><path
         d="m 1124.54,603.59 c -27.11,0 -56.74,3.39 -85.17,9.85 -23.3,5.29 -44.623,12.45 -60.012,20.13 -1.789,0.89 -2.508,3.06 -1.62,4.84 0.888,1.79 3.114,2.49 4.833,1.62 14.895,-7.43 35.639,-14.38 58.409,-19.55 33.86,-7.69 69.47,-10.98 100.21,-9.21 1.9,0.07 3.69,-1.41 3.82,-3.4 0.11,-2 -1.41,-3.71 -3.4,-3.82 -5.55,-0.31 -11.25,-0.46 -17.07,-0.46"
         style="fill:#ff9843;fill-opacity:1;fill-rule:nonzero;stroke:none;stroke-width:0.1"
         id="path174" /><path
         d="m 1116.95,620.89 c -18.87,0 -38.22,1.96 -57.75,5.89 -21.38,4.3 -42.63,10.85 -63.171,19.47 -1.832,0.78 -2.706,2.89 -1.931,4.73 0.761,1.83 2.903,2.74 4.721,1.93 20.091,-8.44 40.891,-14.86 61.791,-19.06 26.76,-5.38 53.1,-6.97 78.31,-4.82 1.99,0.26 3.73,-1.31 3.9,-3.28 0.17,-1.99 -1.29,-3.73 -3.28,-3.9 -7.44,-0.65 -14.98,-0.96 -22.59,-0.96"
         style="fill:#ff9843;fill-opacity:1;fill-rule:nonzero;stroke:none;stroke-width:0.1"
         id="path176" /><path
         d="m 1120.94,637.35 c -12.22,0 -23.93,0.66 -35.49,2 -24.16,2.78 -47.82,8.62 -72.33,17.85 -1.87,0.71 -2.8,2.79 -2.11,4.65 0.72,1.88 2.84,2.78 4.65,2.12 23.95,-9.03 47.05,-14.74 70.61,-17.46 15.64,-1.79 31.58,-2.35 48.75,-1.65 2.19,-0.03 3.66,-1.48 3.74,-3.47 0.07,-1.98 -1.46,-3.66 -3.46,-3.75 -4.88,-0.19 -9.66,-0.29 -14.36,-0.29"
         style="fill:#ff9843;fill-opacity:1;fill-rule:nonzero;stroke:none;stroke-width:0.1"
         id="path178" /><path
         d="m 1040.18,613.35 c -0.27,0 -0.54,0.03 -0.81,0.09 -23.3,5.29 -44.623,12.45 -60.012,20.13 -1.789,0.89 -2.508,3.06 -1.62,4.84 0.888,1.79 3.114,2.49 4.833,1.62 14.895,-7.43 35.639,-14.38 58.409,-19.55 1.95,-0.45 3.16,-2.38 2.72,-4.33 -0.38,-1.67 -1.87,-2.8 -3.52,-2.8"
         style="fill:#e27c30;fill-opacity:1;fill-rule:nonzero;stroke:none;stroke-width:0.1"
         id="path180" /><path
         d="m 1059.91,626.71 c -0.23,0 -0.47,0.03 -0.71,0.07 -21.38,4.3 -42.63,10.85 -63.171,19.47 -1.832,0.78 -2.706,2.89 -1.931,4.73 0.761,1.83 2.903,2.74 4.721,1.93 20.091,-8.44 40.891,-14.86 61.791,-19.06 1.96,-0.39 3.23,-2.29 2.83,-4.24 -0.33,-1.72 -1.84,-2.9 -3.53,-2.9"
         style="fill:#e27c30;fill-opacity:1;fill-rule:nonzero;stroke:none;stroke-width:0.1"
         id="path182" /><path
         d="m 1085.86,639.32 c -0.12,0 -0.26,0.02 -0.41,0.03 -24.16,2.78 -47.82,8.62 -72.33,17.85 -1.87,0.71 -2.8,2.79 -2.11,4.65 0.72,1.88 2.84,2.78 4.65,2.12 23.95,-9.03 47.05,-14.74 70.61,-17.46 1.99,-0.23 3.4,-2.02 3.17,-3.99 -0.21,-1.85 -1.76,-3.2 -3.58,-3.2"
         style="fill:#e27c30;fill-opacity:1;fill-rule:nonzero;stroke:none;stroke-width:0.1"
         id="path184" /><path
         d="m 1129.35,465.35 c -88.34,0 -173.384,22.11 -225.481,48.34 -0.887,0.44 -1.24,1.53 -0.789,2.43 0.437,0.87 1.508,1.25 2.424,0.79 68.316,-34.4 193.816,-61.65 308.476,-40.54 0.22,25.52 -2.64,63.08 -11.41,88.35 -84.17,-10.99 -175.36,1.09 -256.919,34.07 -0.93,0.38 -1.367,1.43 -1,2.36 0.38,0.91 1.437,1.34 2.353,1 81.466,-32.95 172.566,-44.95 256.536,-33.67 0.88,0.13 1.65,-0.36 1.93,-1.17 9.5,-26.19 12.46,-66.19 12.11,-92.48 -0.02,-0.86 -0.62,-1.59 -1.47,-1.75 -28.58,-5.37 -57.84,-7.73 -86.76,-7.73"
         style="fill:#a1b0b2;fill-opacity:1;fill-rule:nonzero;stroke:none;stroke-width:0.1"
         id="path186" /><path
         d="m 1200.91,481.54 c -0.02,0 -0.02,0 -0.03,0 -0.99,0.01 -1.79,0.83 -1.78,1.83 0.41,30.31 -2.93,49.86 -8.04,69.87 -0.26,0.97 0.34,1.94 1.29,2.19 1.02,0.29 1.95,-0.33 2.2,-1.29 5.19,-20.29 8.57,-40.11 8.16,-70.83 -0.01,-0.98 -0.82,-1.77 -1.8,-1.77"
         style="fill:#a1b0b2;fill-opacity:1;fill-rule:nonzero;stroke:none;stroke-width:0.1"
         id="path188" /><path
         d="m 1186.48,481.54 c -0.97,-0.12 -1.82,0.81 -1.81,1.83 0.41,30.31 -2.93,49.86 -8.04,69.87 -0.26,0.97 0.34,1.94 1.29,2.19 1.05,0.29 1.95,-0.33 2.2,-1.29 5.19,-20.29 8.57,-40.11 8.16,-70.83 -0.01,-0.98 -0.82,-1.77 -1.8,-1.77"
         style="fill:#a1b0b2;fill-opacity:1;fill-rule:nonzero;stroke:none;stroke-width:0.1"
         id="path190" /><path
         d="m 1172.05,480.64 c -1.04,-0.22 -1.82,0.81 -1.81,1.83 0.41,30.31 -2.93,49.85 -8.04,69.86 -0.26,0.98 0.34,1.95 1.29,2.2 1.03,0.28 1.95,-0.34 2.2,-1.29 5.19,-20.3 8.57,-40.11 8.16,-70.83 -0.01,-0.99 -0.82,-1.77 -1.8,-1.77"
         style="fill:#a1b0b2;fill-opacity:1;fill-rule:nonzero;stroke:none;stroke-width:0.1"
         id="path192" /><path
         d="m 1157.62,479.73 c -0.02,0 -0.02,0 -0.03,0 -0.99,0.02 -1.79,0.83 -1.78,1.84 0.41,30.31 -2.93,49.85 -8.04,69.86 -0.26,0.97 0.34,1.95 1.29,2.2 1.02,0.28 1.95,-0.32 2.2,-1.3 5.19,-20.29 8.57,-40.1 8.16,-70.82 -0.01,-0.99 -0.82,-1.78 -1.8,-1.78"
         style="fill:#a1b0b2;fill-opacity:1;fill-rule:nonzero;stroke:none;stroke-width:0.1"
         id="path194" /><path
         d="m 1143.27,478.9 c -0.01,0 -0.01,0 -0.03,0 -0.98,0.02 -1.79,0.83 -1.77,1.83 0.41,30.27 -2.93,49.83 -8.06,69.87 -0.25,0.97 0.34,1.95 1.3,2.2 1.02,0.31 1.94,-0.34 2.19,-1.3 5.2,-20.32 8.59,-40.15 8.18,-70.82 -0.02,-0.99 -0.82,-1.78 -1.81,-1.78"
         style="fill:#a1b0b2;fill-opacity:1;fill-rule:nonzero;stroke:none;stroke-width:0.1"
         id="path196" /><path
         d="m 1068.64,552.78 c -22.53,3.14 -47.8,8.17 -71.222,14.44 -10.651,-19.36 -16.547,-40.15 -16.448,-62.75 25.75,-7.37 53.44,-13.25 79.28,-16.46 0,20.53 3.11,41.62 8.39,64.77"
         style="fill:#ff9843;fill-opacity:1;fill-rule:nonzero;stroke:none;stroke-width:0.1"
         id="path198" /><path
         d="m 937.918,588.81 c -10.792,-15.36 -20.2,-34.26 -28.236,-56.64 18.224,-10.13 43.626,-19.78 71.288,-27.7 -0.099,22.6 5.797,43.39 16.448,62.75 -23.127,6.2 -44.45,13.6 -59.5,21.59"
         style="fill:#e27c30;fill-opacity:1;fill-rule:nonzero;stroke:none;stroke-width:0.1"
         id="path200" /><path
         d="m 993.76,494.32 c -0.028,0 -0.07,0 -0.099,0 -0.944,0.05 -1.648,0.86 -1.592,1.79 2.043,32.93 10.101,54.81 16.881,70.22 0.38,0.86 1.41,1.22 2.23,0.86 0.86,-0.38 1.25,-1.38 0.87,-2.24 -10.03,-22.78 -15.007,-43.43 -16.599,-69.04 -0.056,-0.9 -0.803,-1.59 -1.691,-1.59"
         style="fill:#ffffff;fill-opacity:1;fill-rule:nonzero;stroke:none;stroke-width:0.1"
         id="path202" /><path
         d="m 1009.01,491.53 c -0.03,0 -0.07,0 -0.1,0 -0.95,0.05 -1.65,0.86 -1.59,1.79 1.74,28.07 6.56,52.29 14.31,71.99 0.34,0.88 1.38,1.31 2.2,0.96 0.88,-0.34 1.3,-1.32 0.96,-2.2 -7.62,-19.37 -12.36,-43.25 -14.09,-70.95 -0.06,-0.9 -0.8,-1.59 -1.69,-1.59"
         style="fill:#ffffff;fill-opacity:1;fill-rule:nonzero;stroke:none;stroke-width:0.1"
         id="path204" /><path
         d="m 1022.34,490.37 c -0.03,0 -0.07,0 -0.1,0 -0.94,0.06 -1.65,0.86 -1.59,1.79 1.93,30.93 7.76,52.13 13.58,71.18 0.27,0.9 1.23,1.44 2.12,1.13 0.9,-0.27 1.39,-1.23 1.12,-2.12 -5.76,-18.87 -11.54,-39.83 -13.44,-70.39 -0.06,-0.9 -0.8,-1.59 -1.69,-1.59"
         style="fill:#ffffff;fill-opacity:1;fill-rule:nonzero;stroke:none;stroke-width:0.1"
         id="path206" /><path
         d="m 1036.13,489.68 c -0.02,0 -0.07,0 -0.11,0 -0.93,0.06 -1.63,0.86 -1.58,1.81 1.92,30.57 6.36,50.11 12.43,70 0.28,0.91 1.21,1.44 2.12,1.13 0.9,-0.27 1.39,-1.23 1.12,-2.11 -6,-19.68 -10.38,-38.98 -12.29,-69.25 -0.05,-0.89 -0.8,-1.58 -1.69,-1.58"
         style="fill:#ffffff;fill-opacity:1;fill-rule:nonzero;stroke:none;stroke-width:0.1"
         id="path208" /><path
         d="m 1048.72,487.91 c -0.03,0 -0.07,0 -0.1,0 -0.95,0.05 -1.65,0.86 -1.59,1.79 1.9,30.55 6.34,50.09 12.43,70.02 0.28,0.9 1.21,1.41 2.11,1.12 0.9,-0.26 1.39,-1.22 1.13,-2.11 -6.02,-19.7 -10.4,-39.02 -12.29,-69.23 -0.06,-0.9 -0.8,-1.59 -1.69,-1.59"
         style="fill:#ffffff;fill-opacity:1;fill-rule:nonzero;stroke:none;stroke-width:0.1"
         id="path210" /><path
         d="m 1029.09,386.29 c 25.8,-106.08 157.2,-118.66 226.22,-88.83 -46,-33.8 -83.76,-40.1 -120.75,-40.78 -37.34,7.16 -105.47,59.41 -105.47,129.61"
         style="fill:#e27c30;fill-opacity:1;fill-rule:nonzero;stroke:none;stroke-width:0.1"
         id="path212" /><path
         d="m 1237.08,754.08 c -3.99,0 -7.21,3.23 -7.21,7.22 v 33.3 c 0,3.99 3.22,7.21 7.21,7.21 3.99,0 7.22,-3.22 7.22,-7.21 v -33.3 c 0,-3.99 -3.23,-7.22 -7.22,-7.22"
         style="fill:#1b3547;fill-opacity:1;fill-rule:nonzero;stroke:none;stroke-width:0.1"
         id="path296" /></g><g
       id="g1607"><path
         d="m 943.686,944.38 c -23.46,32.03 -16.513,77.02 15.516,100.48 32.028,23.46 57.208,4.18 80.668,-27.85 23.46,-32.03 36.32,-64.68 4.29,-88.14 -32.03,-23.46 -77.014,-16.51 -100.474,15.51"
         style="fill:#ffcca6;fill-opacity:1;fill-rule:nonzero;stroke:none;stroke-width:0.1"
         id="path100" /><path
         d="m 950.428,935.15 44.102,-45.44 c 8.78,-9.05 23.23,-9.27 32.28,-0.49 v 0 c 9.05,8.78 9.26,23.23 0.48,32.28 l -44.1,45.45 c -8.78,9.04 -23.232,9.26 -32.279,0.48 v 0 c -9.047,-8.78 -9.264,-23.23 -0.483,-32.28"
         style="fill:#ffcca6;fill-opacity:1;fill-rule:nonzero;stroke:none;stroke-width:0.1"
         id="path110" /><path
         d="m 809.37,711.89 c -35.341,0 -73.91,12.5 -116.594,37.64 -20.602,12.14 -27.465,38.67 -15.332,59.27 12.147,20.59 38.71,27.42 59.27,15.33 40.274,-23.71 70.782,-30.81 93.132,-21.74 49.518,20.05 83.986,126.78 105.617,205.33 6.355,23.04 30.212,36.57 53.238,30.24 23.039,-6.35 36.579,-30.18 30.239,-53.24 C 986.883,868.31 945.722,755.92 862.355,722.15 845.487,715.32 827.873,711.89 809.37,711.89"
         style="fill:#ffcca6;fill-opacity:1;fill-rule:nonzero;stroke:none;stroke-width:0.1"
         id="path214" /><path
         d="m 463.479,745.84 c 66.357,62.77 118.315,124.75 308.391,75.52 L 730.943,693.21 578.45,698.16 463.479,745.84"
         style="fill:#4389ed;fill-opacity:1;fill-rule:nonzero;stroke:none;stroke-width:0.1"
         id="path216" /><path
         d="m 803.389,809.34 -36.223,-115.3 -36.223,-0.83 40.927,128.15 31.519,-12.02"
         style="fill:#4389ed;fill-opacity:1;fill-rule:nonzero;stroke:none;stroke-width:0.1"
         id="path218" /><path
         d="M 697.375,263.89 H 428.389 l 10e-4,92.93 c 89.665,-16.46 179.327,-16.46 268.985,0 v -92.93"
         style="fill:#5252c1;fill-opacity:1;fill-rule:nonzero;stroke:none;stroke-width:0.1"
         id="path220" /><path
         d="m 697.375,330.07 c -89.658,-26.04 -179.32,-26.04 -268.985,0 v 28.86 c 89.665,-26.04 179.327,-26.04 268.985,0 v -28.86"
         style="fill:#4040a0;fill-opacity:1;fill-rule:nonzero;stroke:none;stroke-width:0.1"
         id="path222" /><path
         d="m 722.963,356.82 c -108.601,-29.44 -217.204,-29.44 -325.816,0 -6.003,159.96 -26.411,321.01 8.988,406.25 9.964,34.97 46.616,71.05 89.225,71.05 l 99.397,4.77 c 54.528,0 99.693,-42.33 103.221,-96.75 l 24.985,-385.32"
         style="fill:#76abff;fill-opacity:1;fill-rule:nonzero;stroke:none;stroke-width:0.1"
         id="path224" /><path
         d="m 588.598,335.41 c -42.891,-2.24 -113.481,-0.67 -191.449,21.41 -6.052,121.15 -21.655,257.64 -2.363,368.13 l 44.956,-56.48 C 494.384,598.6 483.333,446.29 588.598,335.41"
         style="fill:#4389ed;fill-opacity:1;fill-rule:nonzero;stroke:none;stroke-width:0.1"
         id="path226" /><path
         d="m 970.143,470.83 c 0,-41.08 -33.307,-74.39 -74.395,-74.39 -41.087,0 -74.395,33.31 -74.395,74.39 0,41.09 33.308,74.4 74.395,74.4 41.088,0 74.395,-33.31 74.395,-74.4"
         style="fill:#ffcca6;fill-opacity:1;fill-rule:nonzero;stroke:none;stroke-width:0.1"
         id="path228" /><path
         d="m 859.96,427.54 c -166.564,0 -211.404,18.71 -369.062,154.08 -18.143,15.57 -20.221,42.91 -4.65,61.04 15.593,18.14 42.909,20.19 61.045,4.65 C 693.79,521.53 720.226,514.12 859.96,514.12 c 23.913,0 43.289,-19.38 43.289,-43.29 0,-23.92 -19.376,-43.29 -43.289,-43.29"
         style="fill:#ffcca6;fill-opacity:1;fill-rule:nonzero;stroke:none;stroke-width:0.1"
         id="path230" /><path
         d="M 489.828,833.87 C 317.629,803.48 398.925,577.99 526.037,516.02 l 78.004,104.43 -76.381,58.8 -37.832,154.62"
         style="fill:#76abff;fill-opacity:1;fill-rule:nonzero;stroke:none;stroke-width:0.1"
         id="path232" /><path
         d="m 633.724,598.13 -77.933,-104.33 -29.754,22.22 77.934,104.33 29.753,-22.22"
         style="fill:#4389ed;fill-opacity:1;fill-rule:nonzero;stroke:none;stroke-width:0.1"
         id="path234" /><path
         d="m 628.937,827.15 c 0.87,-38.61 -29.165,-58.33 -67.772,-59.2 -38.607,-0.87 -70.463,23.22 -71.334,61.82 -0.371,16.46 30.361,6.92 68.968,7.79 38.607,0.87 69.77,5.9 70.138,-10.41"
         style="fill:#4389ed;fill-opacity:1;fill-rule:nonzero;stroke:none;stroke-width:0.1"
         id="path236" /><path
         d="m 550.241,792.8 h -10e-4 c -25.809,7.95 -40.282,35.32 -32.326,61.13 l 29.791,96.64 93.464,-28.81 -29.79,-96.64 C 603.422,799.31 576.05,784.84 550.241,792.8"
         style="fill:#f4b092;fill-opacity:1;fill-rule:nonzero;stroke:none;stroke-width:0.1"
         id="path238" /><path
         d="m 745.249,1053.41 c 15.14,-86.11 8.821,-179.94 -79.487,-198.22 -85.613,-17.72 -207.883,4.33 -223.023,90.44 -15.14,86.11 -44.851,255.09 111.059,282.5 155.91,27.41 176.311,-88.61 191.451,-174.72"
         style="fill:#ffcca6;fill-opacity:1;fill-rule:nonzero;stroke:none;stroke-width:0.1"
         id="path240" /><path
         d="m 474.358,1148.44 228.835,33.67 c 4.009,-5.51 7.808,-11.98 11.472,-19.05 -88.317,-20.43 -169.966,-27.75 -234.897,-25.4 l -5.41,10.78"
         style="fill:#f4b092;fill-opacity:1;fill-rule:nonzero;stroke:none;stroke-width:0.1"
         id="path242" /><path
         d="m 709.026,874.28 c 0,0 -10.622,-11.34 -43.264,-19.09 -123.172,-29.24 -207.881,4.33 -223.021,90.44 7.704,-15.29 12.922,12.5 18.226,-5.02 20.295,-67 118.98,-107.83 248.059,-66.33"
         style="fill:#f4b092;fill-opacity:1;fill-rule:nonzero;stroke:none;stroke-width:0.1"
         id="path244" /><path
         d="m 580.076,1083.6 -39.531,-6.95 c -5.379,-0.95 -10.507,2.65 -11.453,8.03 v 0 c -0.946,5.38 2.648,10.5 8.028,11.45 l 39.531,6.95 c 5.38,0.95 10.508,-2.65 11.454,-8.03 v 0 c 0.946,-5.38 -2.649,-10.51 -8.029,-11.45"
         style="fill:#5b1e1a;fill-opacity:1;fill-rule:nonzero;stroke:none;stroke-width:0.1"
         id="path246" /><path
         d="m 706.562,1105.84 -39.531,-6.95 c -5.38,-0.95 -10.508,2.65 -11.454,8.02 v 0 c -0.946,5.38 2.648,10.51 8.028,11.46 l 39.531,6.95 c 5.38,0.95 10.508,-2.65 11.454,-8.03 v 0 c 0.946,-5.38 -2.648,-10.51 -8.028,-11.45"
         style="fill:#5b1e1a;fill-opacity:1;fill-rule:nonzero;stroke:none;stroke-width:0.1"
         id="path248" /><path
         d="m 493.418,1092.55 c 11.771,-66.94 -8.455,-126.45 -45.176,-132.9 -36.721,-6.46 -76.031,42.57 -87.802,109.52 -11.771,66.95 8.455,126.45 45.176,132.91 36.721,6.45 76.031,-42.58 87.802,-109.53"
         style="fill:#5b1e1a;fill-opacity:1;fill-rule:nonzero;stroke:none;stroke-width:0.1"
         id="path250" /><path
         d="m 448.242,959.65 c -36.719,-6.46 -76.031,42.57 -87.802,109.52 -11.771,66.95 8.457,126.45 45.176,132.9 -43.729,-97.46 -25.342,-177.06 42.626,-242.42"
         style="fill:#280907;fill-opacity:1;fill-rule:nonzero;stroke:none;stroke-width:0.1"
         id="path252" /><path
         d="m 494.813,967.83 c 4.62,-26.27 -12.935,-51.32 -39.21,-55.94 -26.275,-4.62 -51.32,12.94 -55.94,39.21 -4.62,26.28 12.935,51.32 39.21,55.94 26.275,4.62 51.32,-12.93 55.94,-39.21"
         style="fill:#ffcca6;fill-opacity:1;fill-rule:nonzero;stroke:none;stroke-width:0.1"
         id="path254" /><path
         d="m 689.467,1174.53 -215.651,-37.91 c -35.44,-6.24 -69.223,17.44 -75.454,52.88 v 0 c -6.232,35.44 17.447,69.23 52.888,75.46 l 215.651,37.92 c 35.44,6.23 69.222,-17.45 75.454,-52.89 v 0 c 6.231,-35.44 -17.447,-69.23 -52.888,-75.46"
         style="fill:#5b1e1a;fill-opacity:1;fill-rule:nonzero;stroke:none;stroke-width:0.1"
         id="path256" /><path
         d="m 742.354,1249.99 c 6.232,-35.44 -17.446,-69.23 -52.887,-75.46 l -257.78,-45.32 c -7.648,43.49 271.395,49.3 310.667,120.78"
         style="fill:#280907;fill-opacity:1;fill-rule:nonzero;stroke:none;stroke-width:0.1"
         id="path258" /><path
         d="m 455.51,928.34 c -0.435,-0.18 -0.872,-0.36 -1.322,-0.53 -3.729,-1.42 -7.896,0.45 -9.308,4.17 -1.418,3.73 0.404,8.16 4.173,9.31 10.654,4.42 12.708,13.83 11.07,21.61 -1.686,7.96 -7.774,16.31 -17.148,15.8 -3.976,-0.21 -7.374,2.84 -7.592,6.82 -0.209,3.98 2.823,7.39 6.821,7.6 17.052,0.91 29.024,-13 32.033,-27.23 2.901,-13.67 -1.83,-30.38 -18.727,-37.55"
         style="fill:#db8f7b;fill-opacity:1;fill-rule:nonzero;stroke:none;stroke-width:0.1"
         id="path260" /><path
         d="m 657.567,972.66 c -8.186,-3.48 -17.921,-2.84 -25.792,2.54 -3.288,2.25 -4.134,6.74 -1.879,10.03 2.227,3.3 6.731,4.14 10.025,1.88 5.707,-3.9 13.516,-2.42 17.426,3.26 1.891,2.76 2.589,6.1 1.974,9.39 -0.615,3.29 -2.476,6.14 -5.237,8.03 -3.288,2.25 -4.127,6.74 -1.879,10.03 2.24,3.3 6.737,4.12 10.025,1.88 5.949,-4.07 9.953,-10.21 11.272,-17.29 1.325,-7.07 -0.179,-14.25 -4.251,-20.18 -3.009,-4.4 -7.104,-7.63 -11.684,-9.57"
         style="fill:#db8f7b;fill-opacity:1;fill-rule:nonzero;stroke:none;stroke-width:0.1"
         id="path262" /><path
         d="m 597.411,969.57 c 1.94,-11.03 -13.67,-23 -34.866,-26.73 -21.196,-3.72 -39.951,2.2 -41.891,13.24 -1.94,11.03 13.67,23 34.866,26.72 21.196,3.73 39.951,-2.19 41.891,-13.23"
         style="fill:#f4b092;fill-opacity:1;fill-rule:nonzero;stroke:none;stroke-width:0.1"
         id="path264" /><path
         d="m 751.469,996.66 c 1.94,-11.03 -7.881,-21.98 -21.936,-24.45 -14.055,-2.48 -27.021,4.47 -28.961,15.5 -1.941,11.03 7.88,21.98 21.935,24.45 14.055,2.48 27.022,-4.47 28.962,-15.5"
         style="fill:#f4b092;fill-opacity:1;fill-rule:nonzero;stroke:none;stroke-width:0.1"
         id="path266" /><path
         d="m 581.539,984.54 v 0 c -15.048,-2.65 -29.392,7.41 -32.038,22.46 l -3.188,18.13 c -2.646,15.05 7.408,29.39 22.456,32.03 h 10e-4 c 15.048,2.65 29.392,-7.4 32.038,-22.45 l 3.188,-18.13 c 2.645,-15.05 -7.409,-29.39 -22.457,-32.04"
         style="fill:#ffffff;fill-opacity:1;fill-rule:nonzero;stroke:none;stroke-width:0.1"
         id="path268" /><path
         d="m 586.129,985.05 v 0 c -7.75,-1.37 -15.137,3.81 -16.5,11.56 l -3.736,21.25 c -1.362,7.75 3.815,15.13 11.565,16.5 h 10e-4 c 7.749,1.36 15.137,-3.82 16.499,-11.57 l 3.736,-21.24 c 1.363,-7.75 -3.815,-15.14 -11.565,-16.5"
         style="fill:#280907;fill-opacity:1;fill-rule:nonzero;stroke:none;stroke-width:0.1"
         id="path270" /><path
         d="m 571.055,1011.98 v 0 c -4.475,-0.79 -8.741,2.2 -9.528,6.67 l -1.113,6.34 c -0.787,4.47 2.203,8.74 6.678,9.52 v 0 c 4.475,0.79 8.74,-2.2 9.527,-6.68 l 1.113,-6.33 c 0.787,-4.47 -2.202,-8.74 -6.677,-9.52"
         style="fill:#ffffff;fill-opacity:1;fill-rule:nonzero;stroke:none;stroke-width:0.1"
         id="path272" /><path
         d="m 602.107,1032.94 c -0.299,-0.13 -0.611,-0.22 -0.939,-0.28 -2.328,-0.41 -4.551,1.15 -4.957,3.48 -2.021,11.49 -13.03,19.21 -24.528,17.19 -2.331,-0.4 -4.551,1.15 -4.957,3.48 -0.41,2.34 1.163,4.57 3.477,4.96 16.149,2.83 31.601,-8 34.442,-24.15 0.351,-2 -0.748,-3.92 -2.538,-4.68"
         style="fill:#280907;fill-opacity:1;fill-rule:nonzero;stroke:none;stroke-width:0.1"
         id="path274" /><path
         d="m 547.614,1023.36 c -0.298,-0.13 -0.61,-0.22 -0.939,-0.28 -2.327,-0.41 -4.55,1.15 -4.957,3.48 -2.838,16.15 7.939,31.59 24.14,34.44 l 4.345,0.77 c 2.33,0.4 4.55,-1.15 4.957,-3.48 0.416,-2.33 -1.186,-4.57 -3.477,-4.96 l -4.345,-0.76 c -11.486,-2.02 -19.212,-13.02 -17.186,-24.53 0.351,-2 -0.748,-3.92 -2.538,-4.68"
         style="fill:#280907;fill-opacity:1;fill-rule:nonzero;stroke:none;stroke-width:0.1"
         id="path276" /><path
         d="m 703.735,1006.03 v 0 c -15.048,-2.65 -29.392,7.4 -32.038,22.45 l -3.188,18.13 c -2.646,15.05 7.408,29.4 22.456,32.04 v 0 c 15.049,2.65 29.393,-7.41 32.038,-22.46 l 3.188,-18.13 c 2.646,-15.04 -7.408,-29.39 -22.456,-32.03"
         style="fill:#ffffff;fill-opacity:1;fill-rule:nonzero;stroke:none;stroke-width:0.1"
         id="path278" /><path
         d="m 708.325,1006.53 v 0 c -7.75,-1.36 -15.138,3.82 -16.5,11.57 l -3.736,21.24 c -1.363,7.75 3.815,15.14 11.565,16.5 v 0 c 7.75,1.37 15.138,-3.81 16.5,-11.56 l 3.736,-21.25 c 1.363,-7.75 -3.815,-15.14 -11.565,-16.5"
         style="fill:#280907;fill-opacity:1;fill-rule:nonzero;stroke:none;stroke-width:0.1"
         id="path280" /><path
         d="m 693.25,1033.46 v 0 c -4.475,-0.78 -8.74,2.21 -9.527,6.68 l -1.113,6.33 c -0.787,4.48 2.203,8.74 6.678,9.53 v 0 c 4.475,0.79 8.74,-2.21 9.527,-6.68 l 1.113,-6.33 c 0.787,-4.48 -2.203,-8.74 -6.678,-9.53"
         style="fill:#ffffff;fill-opacity:1;fill-rule:nonzero;stroke:none;stroke-width:0.1"
         id="path282" /><path
         d="m 724.302,1054.43 c -0.298,-0.13 -0.61,-0.23 -0.939,-0.28 -2.328,-0.41 -4.55,1.15 -4.957,3.48 -2.023,11.5 -13.023,19.21 -24.525,17.19 -2.328,-0.42 -4.551,1.14 -4.957,3.47 -0.41,2.34 1.155,4.59 3.477,4.96 16.146,2.84 31.598,-7.99 34.439,-24.14 0.351,-2.01 -0.748,-3.93 -2.538,-4.68"
         style="fill:#280907;fill-opacity:1;fill-rule:nonzero;stroke:none;stroke-width:0.1"
         id="path284" /><path
         d="m 669.809,1044.84 c -0.298,-0.12 -0.61,-0.22 -0.939,-0.27 -2.327,-0.41 -4.55,1.15 -4.957,3.48 -1.373,7.82 0.378,15.71 4.934,22.22 4.549,6.5 11.351,10.86 19.209,12.22 l 4.345,0.76 c 2.33,0.41 4.55,-1.15 4.957,-3.48 0.413,-2.33 -1.175,-4.59 -3.477,-4.95 l -4.345,-0.77 c -5.581,-0.99 -10.427,-4.07 -13.675,-8.7 -3.249,-4.63 -4.491,-10.25 -3.514,-15.82 0.352,-2.01 -0.747,-3.93 -2.538,-4.69"
         style="fill:#280907;fill-opacity:1;fill-rule:nonzero;stroke:none;stroke-width:0.1"
         id="path286" /><path
         d="m 685.237,946.4 c 1.845,-15.48 -15.39,-30.26 -38.495,-33.02 -23.105,-2.75 -43.33,7.57 -45.175,23.05 -1.844,15.48 18.731,2.23 41.835,4.98 23.105,2.76 39.991,20.47 41.835,4.99"
         style="fill:#ffffff;fill-opacity:1;fill-rule:nonzero;stroke:none;stroke-width:0.1"
         id="path288" /></g><path
       d="M 2885.05,211.38 H 202.89 v 42.21 h 2682.16 v -42.21"
       style="fill:#e1e7ff;fill-opacity:1;fill-rule:nonzero;stroke:none;stroke-width:0.1"
       id="path290" /><path
       d="M 2885.05,250.73 H 202.891 v 12.93 H 2885.05 v -12.93"
       style="fill:#c1ccf4;fill-opacity:1;fill-rule:nonzero;stroke:none;stroke-width:0.1"
       id="path292" /><g
       id="g1724"><path
         d="m 1295.05,754.85 h -34.54 c -12.94,0 -23.43,10.49 -23.43,23.43 v 0 c 0,12.94 10.49,23.43 23.43,23.43 h 34.54 v -46.86"
         style="fill:#ffffff;fill-opacity:1;fill-rule:nonzero;stroke:none;stroke-width:0.1"
         id="path298" /><path
         d="m 1524.96,83.9 c -54.92,0 -89.45,40.69 -102.66,120.95 -0.35,2.18 -0.63,3.9 -0.87,5.06 -11.89,57.41 -15.9,128.77 -20.12,204.31 -9.09,162.3 -18.49,330.13 -108.34,357.15 -3.82,1.15 -5.99,5.18 -4.83,8.98 1.14,3.82 5.2,5.96 8.97,4.83 99.55,-29.93 109.23,-202.89 118.6,-370.16 4.2,-74.99 8.17,-145.83 19.84,-202.18 0.27,-1.3 0.59,-3.22 0.98,-5.64 4.44,-26.93 17.93,-108.8699 88.43,-108.8699 47.64,0 81.8,38.5399 98.77,111.4499 l 0.8,3.4 c 8.94,34.87 23.52,67.14 69.46,67.14 3.99,0 7.21,-3.23 7.21,-7.21 0,-3.99 -3.22,-7.22 -7.21,-7.22 -34.34,0 -46.35,-20.64 -55.48,-56.29 l -0.73,-3.09 C 1614.2,105.18 1563.42,83.9 1524.96,83.9"
         style="fill:#ffffff;fill-opacity:1;fill-rule:nonzero;stroke:none;stroke-width:0.1"
         id="path294" /></g><g
       id="g1733"><path
         d="m 1524.96,83.9 c -54.92,0 -89.45,40.69 -102.66,120.95 -0.35,2.18 -0.63,3.9 -0.87,5.06 -0.82,3.9 1.69,7.72 5.59,8.52 3.86,0.87 7.73,-1.68 8.53,-5.59 0.27,-1.3 0.59,-3.22 0.98,-5.64 4.44,-26.93 17.93,-108.8699 88.43,-108.8699 47.64,0 81.8,38.5399 98.77,111.4499 l 0.8,3.4 c 0.99,3.84 4.88,6.2 8.78,5.19 3.86,-0.98 6.19,-4.91 5.2,-8.77 l -0.73,-3.09 C 1614.2,105.18 1563.42,83.9 1524.96,83.9"
         style="fill:#e1e7ff;fill-opacity:1;fill-rule:nonzero;stroke:none;stroke-width:0.1"
         id="path300" /><path
         d="m 2659.95,291.09 h -963.74 c -3.99,0 -7.22,3.23 -7.22,7.22 0,3.98 3.23,7.21 7.22,7.21 h 963.74 c 3.99,0 7.21,-3.23 7.21,-7.21 0,-3.99 -3.22,-7.22 -7.21,-7.22"
         style="fill:#c1ccf4;fill-opacity:1;fill-rule:nonzero;stroke:none;stroke-width:0.1"
         id="path302" /><path
         d="m 2222.73,292.52 h -551.31 c -17.55,0 -33.14,9.34 -38.73,23.19 l -140.97,349.16 731.01,-372.35"
         style="fill:#d2daff;fill-opacity:1;fill-rule:nonzero;stroke:none;stroke-width:0.1"
         id="path304" /><path
         d="m 1486.11,678.75 c -2.68,6.66 3.26,13.55 11.7,13.55 h 627.51 c 17.54,0 33.13,-9.33 38.73,-23.19 l 146.57,-363.03 c 2.69,-6.66 8.43,-13.56 0,-13.56 h -87.89 l -731.01,372.35 -5.61,13.88"
         style="fill:#ffffff;fill-opacity:1;fill-rule:nonzero;stroke:none;stroke-width:0.1"
         id="path306" /><path
         d="m 2313.31,292.2 c -2.85,0 -5.56,1.71 -6.69,4.52 l -149.27,369.7 c -4.51,11.16 -17.38,18.67 -32.03,18.67 h -639.86 c -3.99,0 -7.21,3.22 -7.21,7.21 0,3.99 3.22,7.22 7.21,7.22 h 639.86 c 20.47,0 38.73,-11.14 45.41,-27.71 l 149.28,-369.69 c 1.48,-3.69 -0.3,-7.9 -4,-9.39 -0.88,-0.36 -1.8,-0.53 -2.7,-0.53"
         style="fill:#c1ccf4;fill-opacity:1;fill-rule:nonzero;stroke:none;stroke-width:0.1"
         id="path308" /><path
         d="m 1808.27,469.38 c 7.74,-25.47 35.93,-41.49 62.97,-35.78 27.03,5.7 42.67,30.97 34.93,56.43 -7.74,25.47 -35.93,41.48 -62.96,35.78 -27.04,-5.7 -42.68,-30.97 -34.94,-56.43"
         style="fill:#d2daff;fill-opacity:1;fill-rule:nonzero;stroke:none;stroke-width:0.1"
         id="path310" /><path
         d="m 2659.95,263.66 h -963.74 c -7.97,0 -14.43,6.46 -14.43,14.43 0,7.97 6.46,14.43 14.43,14.43 h 963.74 c 7.97,0 14.43,-6.46 14.43,-14.43 0,-7.97 -6.46,-14.43 -14.43,-14.43"
         style="fill:#ffffff;fill-opacity:1;fill-rule:nonzero;stroke:none;stroke-width:0.1"
         id="path312" /></g></g></svg>
