<?xml version="1.0" encoding="UTF-8" standalone="no"?>
<svg
   xmlns:dc="http://purl.org/dc/elements/1.1/"
   xmlns:cc="http://creativecommons.org/ns#"
   xmlns:rdf="http://www.w3.org/1999/02/22-rdf-syntax-ns#"
   xmlns:svg="http://www.w3.org/2000/svg"
   xmlns="http://www.w3.org/2000/svg"
   xmlns:sodipodi="http://sodipodi.sourceforge.net/DTD/sodipodi-0.dtd"
   xmlns:inkscape="http://www.inkscape.org/namespaces/inkscape"
   version="1.1"
   id="svg2"
   width="100%"
   height="100%"
   viewBox="0 0 1282.4088 721.35492"
   sodipodi:docname="svg.svg"
   inkscape:version="1.0.1 (0767f8302a, 2020-10-17)">
  <metadata
     id="metadata8">
    <rdf:RDF>
      <cc:Work
         rdf:about="">
        <dc:format>image/svg+xml</dc:format>
        <dc:type
           rdf:resource="http://purl.org/dc/dcmitype/StillImage" />
        <dc:title />
      </cc:Work>
    </rdf:RDF>
  </metadata>
  <defs
     id="defs6">
    <filter
       style="color-interpolation-filters:sRGB"
       inkscape:label="Drop Shadow"
       id="filter1304">
      <feFlood
         flood-opacity="1"
         flood-color="rgb(29,27,23)"
         result="flood"
         id="feFlood1294" />
      <feComposite
         in="flood"
         in2="SourceGraphic"
         operator="in"
         result="composite1"
         id="feComposite1296" />
      <feGaussianBlur
         in="composite1"
         stdDeviation="27.3829"
         result="blur"
         id="feGaussianBlur1298" />
      <feOffset
         dx="0"
         dy="0"
         result="offset"
         id="feOffset1300" />
      <feComposite
         in="SourceGraphic"
         in2="offset"
         operator="over"
         result="fbSourceGraphic"
         id="feComposite1302" />
      <feColorMatrix
         result="fbSourceGraphicAlpha"
         in="fbSourceGraphic"
         values="0 0 0 -1 0 0 0 0 -1 0 0 0 0 -1 0 0 0 0 1 0"
         id="feColorMatrix1306" />
      <feFlood
         id="feFlood1308"
         flood-opacity="1"
         flood-color="rgb(29,27,23)"
         result="flood"
         in="fbSourceGraphic" />
      <feComposite
         in2="fbSourceGraphic"
         id="feComposite1310"
         in="flood"
         operator="in"
         result="composite1" />
      <feGaussianBlur
         id="feGaussianBlur1312"
         in="composite1"
         stdDeviation="27.3829"
         result="blur" />
      <feOffset
         id="feOffset1314"
         dx="0"
         dy="0"
         result="offset" />
      <feComposite
         in2="offset"
         id="feComposite1316"
         in="fbSourceGraphic"
         operator="over"
         result="composite2" />
    </filter>
  </defs>
  <sodipodi:namedview
     pagecolor="#ffffff"
     bordercolor="#666666"
     borderopacity="1"
     objecttolerance="10"
     gridtolerance="10"
     guidetolerance="10"
     inkscape:pageopacity="0"
     inkscape:pageshadow="2"
     inkscape:window-width="1892"
     inkscape:window-height="1250"
     id="namedview4"
     showgrid="false"
     inkscape:zoom="0.63752247"
     inkscape:cx="505.37306"
     inkscape:cy="378.78998"
     inkscape:window-x="899"
     inkscape:window-y="30"
     inkscape:window-maximized="0"
     inkscape:current-layer="g10"
     fit-margin-top="0"
     fit-margin-left="0"
     fit-margin-right="0"
     fit-margin-bottom="0"
     inkscape:document-rotation="0" />
  <g
     inkscape:groupmode="layer"
     inkscape:label="Image"
     id="g10"
     transform="translate(1.9087533,0.85492374)">
    <rect
       style="fill:#ff0808;fill-opacity:1;fill-rule:evenodd;stroke-width:79.6157;stroke-linecap:round;stroke-linejoin:round"
       id="rect928"
       width="1280"
       height="720"
       x="-4.5776367e-05"
       y="6.1035156e-05" />
    <path
       style="fill:#010000;fill-opacity:1;stroke:#000000;stroke-width:1px;stroke-linecap:butt;stroke-linejoin:miter;stroke-opacity:1"
       d="M 0,720 1280,0 v 720 z"
       id="path930" />
    <ellipse
       style="fill:#ff0808;fill-opacity:1;fill-rule:evenodd;stroke-width:76.0307;stroke-linecap:round;stroke-linejoin:round;filter:url(#filter1304)"
       id="path932"
       cx="639.61871"
       cy="360.01144"
       rx="309.8494"
       ry="287.36359" />
    <path
       id="path837"
       style="fill:#000000;fill-opacity:1;stroke-width:0.5896063;stroke-linecap:butt;stroke-linejoin:miter;stroke-miterlimit:4;stroke-dasharray:none;stroke-opacity:1"
       d="m 625.64453,106.71875 c -52.92531,0.51288 -97.14546,40.35636 -109.38086,76.37695 -18.02477,53.06431 -3.59801,72.57243 34.29688,122.08789 -20.24124,-8.69788 -37.26228,-3.1523 -48.44532,-37.70703 -14.53155,-44.90138 -17.07714,-55.04809 -54.00195,-61.07422 -24.64872,-4.02269 -51.94106,16.61815 -52.79492,46.21289 -0.85385,29.59474 35.67424,45.33226 52.62695,41.47657 16.95272,-3.85569 8.83026,-17.03478 2.29492,-13.82618 -10.23364,5.02437 -39.05402,-14.66552 -21.08203,-31.625 8.06547,-7.61107 21.35352,-7.829 28.55274,0.69141 9.41475,11.14256 11.83489,33.80318 13.11718,39.77539 1.0986,5.1164 20.59634,39.78328 23.41602,47.54883 -15.55975,4.56765 -35.5332,24.76019 -35.5332,47.54297 0,22.78278 -30.69182,41.0686 -41.83203,12.04492 -7.84793,-20.44629 7.56615,-32.42031 17.7832,-48.15234 20.80027,-32.0279 -4.60113,-42.72597 -25.25977,-45.11133 -20.65865,-2.38537 -50.10148,24.36828 -42.84375,46.57226 7.93621,24.27969 18.32399,4.3618 18.42774,1.91602 0,0 -2.86758,-18.28239 12.77344,-25.01953 27.13643,-11.68862 20.70163,10.71929 16.97851,13.6914 -5.10294,4.07363 -43.70207,29.72833 -32.79883,71.20899 4.19397,15.95567 13.69677,22.31148 23.44532,27.87109 16.25884,9.27245 34.58867,10.55197 40.29101,8.10352 4.63941,-1.99206 36.09843,-0.50632 49.88477,-39.0293 8.21462,-22.954 11.09388,-31.60212 25.0332,-35.96875 6.51341,-2.04039 16.57194,-0.88602 9.8125,12.24805 -3.96414,7.70261 -23.77752,8.91483 -33.46289,34.42578 -16.98703,44.74328 13.75561,64.20812 13.11523,81.35742 -0.60207,16.12317 -25.85154,39.062 -50.10547,11.45117 -17.98119,-20.46991 1.74592,-34.26579 15.33985,-37.45507 9.97577,-2.34042 6.94587,-8.83364 2.85547,-11.18555 -2.97862,-1.71266 -6.36703,-0.37991 -7.10352,-0.25195 -2.61277,0.45396 -29.72268,9.97079 -34.26953,24.50781 -9.92588,31.73463 5.63735,44.56444 23.73828,58.67969 16.98952,13.24855 38.23343,12.73564 57.94336,7.93359 -3.03314,33.94625 37.72054,55.97325 62.86133,56.86719 30.13545,1.07153 53.2717,-14.77979 59,-39.1836 16.41376,13.12802 41.00394,19.54191 66.43555,17.93164 43.60757,-2.76112 54.96818,-33.73927 60.69726,-49.29882 13.77369,8.01326 57.80185,16.25038 87.1211,-19.88086 26.35319,-32.47605 2.8616,-60.18117 -10.79297,-68.45508 -9.01201,-5.46078 -24.80499,-5.32022 -24.67578,3.47656 0.0867,5.90158 1.97075,1.3554 9.83789,5.39063 22.97525,11.78451 13.10377,33.94065 3.35156,44.08789 -17.66165,18.37707 -56.40904,4.92936 -50.18359,-14.63086 4.30646,-13.53088 15.93426,-30.74749 17.02343,-41.30469 2.50921,-24.32142 -12.51187,-39.73529 -19.91601,-45.60352 -1.04698,-0.82978 -5.47394,-4.7079 -11.38086,-7.09961 -15.52106,-6.28446 -33.52308,-14.11022 -17.40039,-20.04296 12.95469,-4.767 33.85474,8.80791 37.24609,23.94531 3.58562,16.00448 44.91511,53.77565 84.98242,33.45508 30.65187,-15.54542 38.20435,-42.29731 40.02149,-64.52344 0.95729,-11.70892 -4.47503,-28.8388 -15.88867,-39.0918 -10.25203,-9.20946 -26.08255,-12.28287 -33.77344,-10.8125 -27.43346,5.24484 -26.81172,34.35992 -20.31641,46.99805 1.70982,3.32685 8.21426,7.29386 11.66797,4.10937 0,1e-5 -4.89905,-32.04149 13.01562,-31.625 17.91469,0.41651 23.2649,26.93967 13.8379,46.18555 -10.42567,21.28469 -52.70728,26.70252 -57.25586,-5.27148 -4.12801,-29.01767 -16.76277,-37.4431 -41.75196,-47.12891 27.85157,-34.88339 20.82673,-72.22246 37.99414,-88.8457 19.57067,-18.95033 39.93098,5.85977 23.28516,23.44726 -14.47285,15.2916 -16.57476,26.55058 -17.36523,30.69141 -0.42948,2.2498 -2.0588,9.57728 1.14453,16.5293 3.93397,8.53771 11.89154,9.05366 15.92578,-5.9004 5.51822,-20.45485 11.87934,-18.35838 27.43164,-36.87304 15.55231,-18.51465 3.7066,-54.01887 -19.86328,-63.76172 -23.57702,-9.7458 -62.42777,-6.96648 -73.6836,43.47656 -11.25582,50.44304 -45.11132,45.78906 -45.11132,45.78906 37.51107,-50.9908 44.52887,-65.30941 31.24023,-109.19726 -18.13664,-59.89913 -82.37392,-77.90478 -129.70508,-80.95313 -2.64222,-0.17017 -5.26625,-0.24006 -7.86914,-0.21484 z m -34.57031,31.92578 c 27.24726,-0.0537 41.20994,17.27374 49.01562,28.54883 6.71558,-5.46518 14.55468,-31.34247 57.30664,-28.22656 41.90577,3.05424 43.814,42.44775 42.17188,47.7832 -15.01507,44.05053 -58.22552,76.19507 -98.78711,106.89453 -46.29926,-30.97763 -86.77469,-63.51 -99.20508,-103.52734 0,0 -13.15143,-41.47812 36.98633,-50.31641 4.45552,-0.78542 8.61925,-1.14857 12.51172,-1.15625 z m -10.69336,152.43555 c 5.89484,-0.17047 13.95286,1.2254 19.99414,8.49804 10.74006,12.92922 7.1875,25.70508 7.1875,25.70508 0,0 -17.22042,-0.80058 -26.24805,-6.51172 -9.02763,-5.71114 -8.79492,-26.47851 -8.79492,-26.47851 0,0 3.27645,-1.08031 7.86133,-1.21289 z m 115.30859,0.39844 c 4.58488,0.13258 7.85938,1.21289 7.85938,1.21289 0,0 0.23466,20.76932 -8.79297,26.48047 -9.02763,5.71113 -26.24805,6.50976 -26.24805,6.50976 0,0 -3.55451,-12.77391 7.18555,-25.70312 6.04128,-7.27269 14.10125,-8.67047 19.99609,-8.5 z m -113.38086,4.52343 c -1.90039,0.1677 -3.42738,2.82816 -4.94921,3.97266 -0.79485,0.59776 3.0872,6.04729 13.64453,14.98633 7.57772,6.41616 7.38948,4.77778 9.60351,2.33789 1.55809,-1.71703 2.47783,-4.50221 -2.42187,-6.44727 -8.90129,-3.53359 -10.99073,-9.90665 -11.97266,-11.59375 -1.49015,-2.56028 -2.76406,-3.35648 -3.9043,-3.25586 z m 111.45313,0.39844 c -1.14024,-0.10062 -2.41415,0.69753 -3.9043,3.25781 -0.98193,1.6871 -3.07332,8.06016 -11.97461,11.59375 -4.8997,1.94506 -3.97996,4.73024 -2.42187,6.44727 2.21403,2.43989 2.02579,4.07631 9.60351,-2.33984 10.55733,-8.93904 14.43937,-14.38662 13.64453,-14.98438 -1.52183,-1.1445 -3.04686,-3.80691 -4.94726,-3.97461 z M 563.4375,421.88477 c 4.40114,0.017 7.93576,1.74472 10.47656,2.44921 5.80754,1.61027 17.52266,15.20813 10.40235,32.62891 -7.26145,17.76611 -20.98316,24.47652 -39.08789,34.85156 -0.64287,-8.11028 -16.4154,-34.2393 -2.79297,-55.70117 7.56158,-11.91313 15.34334,-14.25039 21.00195,-14.22851 z m 160.94141,5.74804 c 6.52501,0.002 14.11136,2.40033 21.55859,8.9961 22.11313,19.58486 -1.35328,49.53647 -1.24805,50.36914 -4.76779,-4.87041 0.0706,-2.07072 -23.19336,-19.01367 -23.26397,-16.943 -16.21065,-26.79651 -15.17578,-30.61133 1.25413,-4.62306 8.52204,-9.74245 18.0586,-9.74024 z m -80.58203,2.25196 c 3.81907,-0.20074 7.67759,3.51532 10.63867,9.72851 2.60415,5.46425 2.12497,12.61233 4.6582,21.17188 9.28068,31.35865 42.79975,36.04138 51.32031,46.0957 24.87465,29.35227 6.32609,41.11068 2.79492,44.5918 -5.228,5.1539 -65.28734,20.91904 -70.74609,-23.30274 -1.74847,-14.16445 11.3276,-21.61277 21.63867,-19.6875 6.91374,1.29092 10.63174,9.45915 15.33399,12.6836 11.71513,8.03335 9.9082,-1.03907 9.9082,-1.03907 0,0 1.50756,-12.69107 -18.25195,-25.85156 -24.5345,-16.3408 -52.34555,1.59634 -50.73633,39.4707 0.16928,3.98407 0.78138,7.77649 1.7832,11.375 -6.67171,-2.74344 -13.53158,-3.98328 -17.60156,-3.94531 -11.63498,0.10854 -18.48776,14.48203 -0.46484,16.82422 18.02292,2.34218 11.91437,20.06791 8.29101,24.12695 -5.77969,6.47464 -35.39828,21.44191 -54.97851,-14.13086 -19.58024,-35.57277 14.56948,-53.38282 37.6289,-64.33007 12.60238,-5.98286 27.6602,-12.79393 36.4375,-44.04102 2.35015,-8.36653 1.23257,-14.33284 2.97461,-19.08008 2.66243,-7.25537 6.00128,-10.48303 9.3711,-10.66015 z"
       sodipodi:nodetypes="sscsssssssscssssscsssssssssssssssscscscsssssssssssssssssssscsssssssscsssscscccsssscscsscscssssssssssssssssssscsscscsscsssssssscsscssssssss" />
  </g>
</svg>
